<svg width="32" height="40" viewBox="0 0 32 40" fill="none" xmlns="http://www.w3.org/2000/svg">
<path d="M4 40H28C29.0609 40 30.0783 39.5786 30.8284 38.8284C31.5786 38.0783 32 37.0609 32 36V4C32 2.93913 31.5786 1.92172 30.8284 1.17157C30.0783 0.421427 29.0609 0 28 0H4C2.93913 0 1.92172 0.421427 1.17157 1.17157C0.421427 1.92172 0 2.93913 0 4V36C0 37.0609 0.421427 38.0783 1.17157 38.8284C1.92172 39.5786 2.93913 40 4 40ZM10 34H6V30H10V34ZM10 26H6V22H10V26ZM10 18H6V14H10V18ZM18 34H14V30H18V34ZM18 26H14V22H18V26ZM18 18H14V14H18V18ZM26 34H22V22H26V34ZM26 18H22V14H26V18ZM4 4H28V10H4V4Z" fill="#2C2C2C"/>
</svg>
