<svg width="24" height="24" viewBox="0 0 24 24" fill="none" xmlns="http://www.w3.org/2000/svg">
<g clip-path="url(#clip0_576_1019)">
<path d="M23.5877 19.8999H0.41024V24H23.5877V19.8999Z" fill="#9D9D9C"/>
<path d="M24 19.8999H0V23.2574H24V19.8999Z" fill="#C6C6C6"/>
<path d="M24 18.9097H0L1.84711 13.7136H22.1529L24 18.9097Z" fill="#EDEDED"/>
<path d="M22.1529 13.7136H1.84711L2.50724 10.0916L2.93623 7.73267H21.0617L22.1529 13.7136Z" fill="#DADADA"/>
<path d="M10.9099 13.2038H21.0554L20.1184 8.54511L19.9997 8.3949H11.0535L10.9099 8.54511V13.2038Z" fill="#706F6F"/>
<path d="M24 18.9098H0V19.8999H24V18.9098Z" fill="#DADADA"/>
<path opacity="0.3" d="M14.679 20.89C14.679 21.0719 14.5333 21.22 14.3542 21.22H9.64581C9.46672 21.22 9.32095 21.0719 9.32095 20.89C9.32095 20.708 9.46672 20.5599 9.64581 20.5599H14.3542C14.5333 20.5599 14.679 20.708 14.679 20.89Z" fill="#1D1D1B"/>
<path d="M8.32555 15.6326H2.33024L3.65675 10.1149L3.96911 9.62622H7.41137L7.75705 10.0176L8.32555 15.6326Z" fill="#C6C6C6"/>
<path d="M2.89666 14.4161L3.96911 9.62622H7.41137L7.75705 14.4161H2.89666Z" fill="white"/>
<path opacity="0.1" d="M3.71297 13.7561L4.48764 10.2864H6.80746L7.05736 13.7561H3.71297Z" fill="#1D1D1B"/>
<path opacity="0.1" d="M3.71297 13.7561L4.48764 10.2864L4.37519 12.4274L3.71297 13.7561Z" fill="#1D1D1B"/>
<path opacity="0.1" d="M7.05735 13.7561L6.80746 10.2864L6.62421 12.4274L7.05735 13.7561Z" fill="#1D1D1B"/>
<path d="M6.69917 12.5669H4.29189L4.36894 12.3025H6.62212L6.69917 12.5669Z" fill="#3C3C3B"/>
<path d="M10.8828 14.6382H11.9115L11.9302 15.2496L10.8828 15.2475V14.6382Z" fill="#B2B2B2"/>
<path d="M12.1385 14.6382H13.1693L13.2109 15.2496H12.1635L12.1385 14.6382Z" fill="#B2B2B2"/>
<path d="M13.3983 14.6382H14.4312L14.4958 15.2496H13.4442L13.3983 14.6382Z" fill="#B2B2B2"/>
<path d="M10.8828 15.4274L11.9344 15.4295L11.9552 16.0684H10.8828V15.4274Z" fill="#B2B2B2"/>
<path d="M12.1697 15.4294H13.2234L13.2692 16.0705H12.1947L12.1697 15.4294Z" fill="#B2B2B2"/>
<path d="M13.4587 15.4294L14.5145 15.4316L14.5833 16.0726L13.5066 16.0705L13.4587 15.4294Z" fill="#B2B2B2"/>
<path d="M10.8828 16.2567L11.9615 16.2588L11.9823 16.9316L10.8828 16.9295V16.2567Z" fill="#B2B2B2"/>
<path d="M12.201 16.2588L13.2817 16.2609L13.3275 16.9337L12.2259 16.9316L12.201 16.2588Z" fill="#B2B2B2"/>
<path d="M13.5212 16.2609L14.6041 16.263L14.677 16.9358L13.5733 16.9336L13.5212 16.2609Z" fill="#B2B2B2"/>
<path d="M10.8828 17.1283L11.9885 17.1304L12.0094 17.837L10.8828 17.8349V17.1283Z" fill="#B2B2B2"/>
<path d="M12.2343 17.1304L13.3421 17.1325L13.39 17.8412L12.2613 17.837L12.2343 17.1304Z" fill="#B2B2B2"/>
<path d="M13.5879 17.1326L14.6978 17.1347L14.7748 17.8455L13.642 17.8413L13.5879 17.1326Z" fill="#B2B2B2"/>
<path d="M15.4891 14.6382H16.5012L16.6053 15.2517L15.5745 15.2496L15.4891 14.6382Z" fill="#B2B2B2"/>
<path d="M16.7552 14.6382H17.7694L17.8964 15.2517H16.8656L16.7552 14.6382Z" fill="#B2B2B2"/>
<path d="M18.0234 14.6382H19.0396L19.1896 15.2517H18.1567L18.0234 14.6382Z" fill="#B2B2B2"/>
<path d="M19.2958 14.6382H20.312L20.4869 15.2538L19.452 15.2517L19.2958 14.6382Z" fill="#B2B2B2"/>
<path d="M20.5682 14.6382H21.5885L21.7864 15.2538H20.7493L20.5682 14.6382Z" fill="#B2B2B2"/>
<path d="M15.6016 15.4315H16.6365L16.7448 16.0747H15.6911L15.6016 15.4315Z" fill="#B2B2B2"/>
<path d="M16.8968 15.4315L17.9339 15.4336L18.0692 16.0768L17.0114 16.0747L16.8968 15.4315Z" fill="#B2B2B2"/>
<path d="M18.1963 15.4337H19.2354L19.3937 16.079L18.3358 16.0769L18.1963 15.4337Z" fill="#B2B2B2"/>
<path d="M19.4978 15.4337H20.539L20.7243 16.079H19.6623L19.4978 15.4337Z" fill="#B2B2B2"/>
<path d="M20.8014 15.4358H21.8468L22.055 16.0811H20.9909L20.8014 15.4358Z" fill="#B2B2B2"/>
<path d="M15.7161 16.2631L16.7781 16.2652L16.8927 16.9401L15.8098 16.938L15.7161 16.2631Z" fill="#B2B2B2"/>
<path d="M17.0447 16.2651L18.1088 16.2673L18.2483 16.9421L17.1655 16.94L17.0447 16.2651Z" fill="#B2B2B2"/>
<path d="M18.3754 16.2672L19.4416 16.2693L19.6082 16.9463L18.5232 16.9442L18.3754 16.2672Z" fill="#B2B2B2"/>
<path d="M19.7102 16.2694L20.7785 16.2715L20.9721 16.9485L19.883 16.9464L19.7102 16.2694Z" fill="#B2B2B2"/>
<path d="M15.839 17.1389L16.926 17.141L17.0468 17.8498L15.9368 17.8477L15.839 17.1389Z" fill="#B2B2B2"/>
<path d="M17.2009 17.141L18.29 17.1431L18.4378 17.854L17.3279 17.8519L17.2009 17.141Z" fill="#B2B2B2"/>
<path d="M18.5649 17.1431L19.6581 17.1452L19.8331 17.8582L18.719 17.8539L18.5649 17.1431Z" fill="#B2B2B2"/>
<path d="M19.933 17.1473L21.0284 17.1495L21.2324 17.8624L20.1142 17.8582L19.933 17.1473Z" fill="#B2B2B2"/>
<path d="M22.3424 16.9506C22.3424 16.9506 22.3382 16.9506 22.3361 16.9485L22.1175 16.2715H21.0471L21.2449 16.9485L21.5136 17.8625H22.6339L22.3445 16.9506H22.3424Z" fill="#B2B2B2"/>
<path d="M10.9911 14.5366H12.0177L12.0364 15.148H10.9911V14.5366Z" fill="white"/>
<path d="M12.2468 14.5366H13.2776L13.3192 15.148H12.2697L12.2468 14.5366Z" fill="white"/>
<path d="M13.5066 14.5366H14.5374L14.6041 15.1502L13.5524 15.148L13.5066 14.5366Z" fill="white"/>
<path d="M10.9911 15.3279H12.0427L12.0635 15.9689L10.9911 15.9668V15.3279Z" fill="white"/>
<path d="M12.2759 15.3279L13.3317 15.33L13.3754 15.971L12.3009 15.9689L12.2759 15.3279Z" fill="white"/>
<path d="M13.567 15.33H14.6228L14.6915 15.971H13.6149L13.567 15.33Z" fill="white"/>
<path d="M10.9911 16.1572H12.0677L12.0885 16.83L10.9911 16.8279V16.1572Z" fill="white"/>
<path d="M12.3092 16.1593H13.3879L13.4358 16.8342L12.3342 16.8321L12.3092 16.1593Z" fill="white"/>
<path d="M13.6295 16.1593L14.7124 16.1614L14.7852 16.8363L13.6816 16.8342L13.6295 16.1593Z" fill="#A0BA72"/>
<path d="M10.9911 17.0267L12.0947 17.0288L12.1177 17.7376L10.9911 17.7334V17.0267Z" fill="white"/>
<path d="M12.3426 17.031L13.4483 17.0331L13.4983 17.7398L12.3675 17.7376L12.3426 17.031Z" fill="white"/>
<path d="M13.6961 17.0331L14.8061 17.0352L14.8831 17.7439L13.7503 17.7418L13.6961 17.0331Z" fill="#EBB267"/>
<path d="M15.5974 14.5366H16.6074L16.7115 15.1502H15.6828L15.5974 14.5366Z" fill="#EBB267"/>
<path d="M16.8635 14.5366H17.8756L18.0047 15.1502H16.9718L16.8635 14.5366Z" fill="#EBB267"/>
<path d="M18.1317 14.5366H19.1458L19.2979 15.1523H18.265L18.1317 14.5366Z" fill="#EBB267"/>
<path d="M19.402 14.5366H20.4203L20.5952 15.1523H19.5582L19.402 14.5366Z" fill="white"/>
<path d="M20.6764 14.5366H21.6947L21.8947 15.1523H20.8555L20.6764 14.5366Z" fill="white"/>
<path d="M15.7078 15.33L16.7427 15.3321L16.8531 15.9752L15.7973 15.9731L15.7078 15.33Z" fill="white"/>
<path d="M17.0051 15.3322H18.0422L18.1754 15.9753H17.1197L17.0051 15.3322Z" fill="white"/>
<path d="M18.3025 15.3322L19.3437 15.3343L19.5019 15.9774H18.442L18.3025 15.3322Z" fill="white"/>
<path d="M19.6061 15.3342H20.6473L20.8305 15.9795L19.7685 15.9774L19.6061 15.3342Z" fill="white"/>
<path d="M20.9097 15.3342H21.953L22.1633 15.9816L21.0992 15.9795L20.9097 15.3342Z" fill="#D03130"/>
<path d="M15.8244 16.1636H16.8843L16.9989 16.8406L15.9181 16.8385L15.8244 16.1636Z" fill="white"/>
<path d="M17.153 16.1656H18.215L18.3566 16.8427L17.2717 16.8405L17.153 16.1656Z" fill="white"/>
<path d="M18.4836 16.1656L19.5498 16.1678L19.7164 16.8448L18.6294 16.8427L18.4836 16.1656Z" fill="white"/>
<path d="M19.8185 16.1678L20.8847 16.17L21.0783 16.847L19.9892 16.8449L19.8185 16.1678Z" fill="white"/>
<path d="M15.9452 17.0374L17.0343 17.0395L17.1551 17.7503L16.0451 17.7461L15.9452 17.0374Z" fill="white"/>
<path d="M17.3092 17.0394L18.3983 17.0415L18.5461 17.7545L17.4341 17.7503L17.3092 17.0394Z" fill="white"/>
<path d="M18.6731 17.0437L19.7664 17.0458L19.9413 17.7567L18.8272 17.7546L18.6731 17.0437Z" fill="white"/>
<path d="M20.0413 17.0458L21.1367 17.0479L21.3387 17.7609L20.2225 17.7588L20.0413 17.0458Z" fill="white"/>
<path d="M22.4444 16.8512L22.2237 16.172L21.1554 16.1699L21.3532 16.849L21.6219 17.7609L22.7401 17.7651L22.4444 16.8512Z" fill="#878787"/>
<path opacity="0.2" d="M6.14525 12.4358H4.37727C4.37727 10.7094 3.33189 10.648 2.50933 10.0916L2.94039 7.73267H3.26109C3.43809 7.88288 3.63593 8.01616 3.85666 8.16638C4.87705 8.85608 6.14734 9.46962 6.14734 12.4358H6.14525Z" fill="#1D1D1B"/>
<path d="M11.0535 13.0515H20.9097L19.9997 8.3949H11.0535V13.0515Z" fill="#3C3C3B"/>
<path d="M18.9647 10.9824H11.974V9.62622H18.7148L18.9647 10.9824Z" fill="#A0BA72"/>
<path d="M19.15 0H11.8303C11.3622 0 10.9827 0.385515 10.9827 0.861072V3.53103C10.9827 4.00659 11.3622 4.3921 11.8303 4.3921H19.15C19.6181 4.3921 19.9976 4.00659 19.9976 3.53103V0.861072C19.9976 0.385515 19.6181 0 19.15 0Z" fill="#DADADA"/>
<path d="M19.15 0.330078H11.8303C11.5416 0.330078 11.3076 0.567828 11.3076 0.861108V3.53107C11.3076 3.82434 11.5416 4.06209 11.8303 4.06209H19.15C19.4387 4.06209 19.6727 3.82434 19.6727 3.53107V0.861108C19.6727 0.567828 19.4387 0.330078 19.15 0.330078Z" fill="#3C3C3B"/>
<path d="M16.4554 4.39209H14.527V7.73483H16.4554V4.39209Z" fill="#C6C6C6"/>
<path opacity="0.2" d="M16.4554 4.39209H14.527V5.2849H16.4554V4.39209Z" fill="#1D1D1B"/>
<path d="M6.63254 12.4359H4.35644C4.35644 10.7074 3.90247 10.4006 3.07991 9.8463C2.36564 9.36182 1.3869 8.70173 0.849632 7.13192L2.9987 6.37451C3.28399 7.2102 3.72755 7.5085 4.33978 7.92317C5.36017 8.61288 6.63046 9.47183 6.63046 12.438L6.63254 12.4359Z" fill="#F6F6F6"/>
<path d="M15.8598 1.88502C15.8161 1.88502 15.7765 1.88079 15.7411 1.87021C15.7036 1.85963 15.6724 1.8427 15.6453 1.81943C15.6182 1.79616 15.5953 1.76231 15.5807 1.72211C15.5641 1.68191 15.5578 1.63325 15.5578 1.57402V1.53593C15.5578 1.4767 15.5662 1.42592 15.5828 1.38361C15.5995 1.34129 15.6203 1.30744 15.6495 1.28206C15.6765 1.25667 15.7098 1.23551 15.7494 1.22493C15.789 1.21224 15.8306 1.20801 15.8744 1.20801C15.9181 1.20801 15.9618 1.21435 15.9993 1.22493C16.0389 1.23763 16.0722 1.25667 16.1013 1.28206C16.1305 1.30744 16.1534 1.34341 16.1701 1.38361C16.1867 1.42592 16.1951 1.4767 16.1951 1.53593V2.01619C16.1951 2.07754 16.1867 2.12832 16.1701 2.17063C16.1534 2.21294 16.1305 2.24679 16.1013 2.27218C16.0722 2.29757 16.0389 2.31873 15.9993 2.32931C15.9597 2.342 15.9181 2.34623 15.8723 2.34623C15.8202 2.34623 15.7744 2.33777 15.7348 2.32296C15.6953 2.30815 15.662 2.28911 15.637 2.26372C15.6099 2.23833 15.5912 2.21083 15.5766 2.17909C15.5641 2.14736 15.5557 2.11562 15.5557 2.07966C15.5557 2.04792 15.5724 2.031 15.6036 2.031C15.6161 2.031 15.6286 2.03523 15.639 2.04158C15.6495 2.04792 15.6557 2.0585 15.6557 2.07543C15.6557 2.10293 15.662 2.1262 15.6724 2.14736C15.6828 2.16852 15.6994 2.18756 15.7182 2.20237C15.739 2.21718 15.7619 2.22987 15.7869 2.23622C15.814 2.24468 15.841 2.24891 15.8702 2.24891C15.9389 2.24891 15.9931 2.22987 16.0305 2.19179C16.068 2.15371 16.0889 2.09447 16.0889 2.01196V1.775C16.0618 1.81097 16.0285 1.83847 15.9889 1.85328C15.9493 1.87021 15.9056 1.87867 15.8577 1.87867L15.8598 1.88502ZM16.0909 1.53382C16.0909 1.45131 16.0722 1.39207 16.0326 1.35399C15.9931 1.31591 15.941 1.29687 15.8723 1.29687C15.8036 1.29687 15.7515 1.31591 15.714 1.35399C15.6765 1.39207 15.6578 1.45131 15.6578 1.53382V1.5719C15.6578 1.65441 15.6765 1.71153 15.714 1.74538C15.7515 1.77923 15.8056 1.79616 15.8744 1.79616C15.9077 1.79616 15.9368 1.79193 15.9639 1.78347C15.991 1.775 16.0139 1.76443 16.0326 1.7475C16.0514 1.73057 16.0659 1.70942 16.0764 1.68191C16.0868 1.65441 16.0909 1.62268 16.0909 1.58459V1.53382V1.53382Z" fill="#DEDC00"/>
<path d="M16.649 1.88502C16.6053 1.88502 16.5657 1.88079 16.5303 1.87021C16.4928 1.85963 16.4616 1.8427 16.4345 1.81943C16.4075 1.79616 16.3846 1.76231 16.37 1.72211C16.3533 1.68191 16.3471 1.63325 16.3471 1.57402V1.53593C16.3471 1.4767 16.3554 1.42592 16.3721 1.38361C16.3887 1.34129 16.4095 1.30744 16.4387 1.28206C16.4658 1.25667 16.4991 1.23551 16.5387 1.22493C16.5782 1.21224 16.6199 1.20801 16.6636 1.20801C16.7073 1.20801 16.7511 1.21435 16.7886 1.22493C16.8281 1.23763 16.8614 1.25667 16.8906 1.28206C16.9197 1.30744 16.9427 1.34341 16.9593 1.38361C16.976 1.42592 16.9843 1.4767 16.9843 1.53593V2.01619C16.9843 2.07754 16.976 2.12832 16.9593 2.17063C16.9427 2.21294 16.9197 2.24679 16.8906 2.27218C16.8614 2.29757 16.8281 2.31873 16.7886 2.32931C16.749 2.342 16.7073 2.34623 16.6615 2.34623C16.6095 2.34623 16.5636 2.33777 16.5241 2.32296C16.4845 2.30815 16.4512 2.28911 16.4262 2.26372C16.3991 2.23833 16.3804 2.21083 16.3658 2.17909C16.3512 2.14736 16.345 2.11562 16.345 2.07966C16.345 2.04792 16.3617 2.031 16.3929 2.031C16.4054 2.031 16.4179 2.03523 16.4283 2.04158C16.4387 2.04792 16.445 2.0585 16.445 2.07543C16.445 2.10293 16.4512 2.1262 16.4616 2.14736C16.472 2.16852 16.4887 2.18756 16.5074 2.20237C16.5282 2.21718 16.5512 2.22987 16.5761 2.23622C16.6032 2.24468 16.6303 2.24891 16.6594 2.24891C16.7282 2.24891 16.7823 2.22987 16.8198 2.19179C16.8573 2.15371 16.8781 2.09447 16.8781 2.01196V1.775C16.851 1.81097 16.8177 1.83847 16.7781 1.85328C16.7386 1.87021 16.6948 1.87867 16.6469 1.87867L16.649 1.88502ZM16.8802 1.53382C16.8802 1.45131 16.8614 1.39207 16.8219 1.35399C16.7823 1.31591 16.7302 1.29687 16.6615 1.29687C16.5928 1.29687 16.5407 1.31591 16.5033 1.35399C16.4658 1.39207 16.447 1.45131 16.447 1.53382V1.5719C16.447 1.65441 16.4658 1.71153 16.5033 1.74538C16.5407 1.77923 16.5949 1.79616 16.6636 1.79616C16.6969 1.79616 16.7261 1.79193 16.7531 1.78347C16.7802 1.775 16.8031 1.76443 16.8219 1.7475C16.8406 1.73057 16.8552 1.70942 16.8656 1.68191C16.876 1.65441 16.8802 1.62268 16.8802 1.58459V1.53382V1.53382Z" fill="#DEDC00"/>
<path d="M17.1863 2.20654C17.205 2.20654 17.2196 2.21289 17.2342 2.2277C17.2488 2.24251 17.255 2.25943 17.255 2.28059C17.255 2.29963 17.2488 2.31656 17.2342 2.32925C17.2196 2.34406 17.205 2.35041 17.1863 2.35041C17.1655 2.35041 17.1488 2.34406 17.1363 2.32925C17.1238 2.31444 17.1176 2.29752 17.1176 2.28059C17.1176 2.25943 17.1238 2.24251 17.1363 2.2277C17.1488 2.21289 17.1655 2.20654 17.1863 2.20654Z" fill="#DEDC00"/>
<path d="M17.6757 1.67553C17.7215 1.67553 17.7631 1.68187 17.8006 1.69245C17.8402 1.70303 17.8735 1.72207 17.9006 1.74746C17.9276 1.77285 17.9505 1.80458 17.9672 1.8469C17.9839 1.88709 17.9922 1.93575 17.9922 1.99499V2.02461C17.9922 2.08385 17.9839 2.13462 17.9672 2.17694C17.9505 2.21925 17.9276 2.2531 17.9006 2.27849C17.8714 2.30388 17.8381 2.32503 17.8006 2.33561C17.761 2.34831 17.7215 2.35254 17.6777 2.35254C17.6278 2.35254 17.582 2.34619 17.5424 2.33138C17.5028 2.31657 17.4695 2.29753 17.4424 2.27426C17.4154 2.25099 17.3945 2.22348 17.38 2.18963C17.3654 2.1579 17.3591 2.12405 17.3591 2.08808C17.3591 2.06904 17.3633 2.05635 17.3737 2.04788C17.382 2.03942 17.3945 2.03519 17.4091 2.03519C17.4445 2.03519 17.4612 2.05 17.4612 2.07962C17.4612 2.10924 17.4674 2.13251 17.4778 2.15578C17.4882 2.17905 17.5049 2.19598 17.5236 2.21079C17.5424 2.2256 17.5653 2.23618 17.5924 2.24464C17.6194 2.2531 17.6465 2.25733 17.6777 2.25733C17.7465 2.25733 17.7985 2.23829 17.8381 2.20021C17.8756 2.16213 17.8964 2.10289 17.8964 2.02249V1.99288C17.8964 1.9146 17.8777 1.85747 17.8381 1.81939C17.8006 1.78131 17.7465 1.76227 17.6798 1.76227H17.4674C17.4466 1.76227 17.432 1.75804 17.4258 1.75169C17.4195 1.74534 17.4154 1.73477 17.4154 1.72419C17.4154 1.72207 17.4154 1.71572 17.4154 1.70938C17.4154 1.70303 17.4154 1.69668 17.4154 1.69457L17.4466 1.24816C17.4487 1.22278 17.4612 1.21008 17.4778 1.21008H17.9047C17.9151 1.21008 17.9235 1.21431 17.9297 1.22489C17.936 1.23547 17.938 1.24605 17.938 1.25663C17.938 1.26932 17.936 1.2799 17.9297 1.29048C17.9235 1.30106 17.9151 1.30529 17.9047 1.30529H17.5341L17.5091 1.67764H17.6757V1.67553Z" fill="#DEDC00"/>
<path d="M18.4462 2.35258C18.4024 2.35258 18.3608 2.34623 18.3212 2.33565C18.2816 2.32296 18.2483 2.30392 18.2213 2.27853C18.1921 2.25314 18.1692 2.21718 18.1546 2.17698C18.138 2.13467 18.1296 2.08389 18.1296 2.02254V1.54228C18.1296 1.48304 18.138 1.43227 18.1546 1.38995C18.1713 1.34764 18.1942 1.31379 18.2213 1.2884C18.2504 1.26302 18.2837 1.24186 18.3212 1.23128C18.3608 1.21859 18.4024 1.21436 18.4462 1.21436C18.4899 1.21436 18.5336 1.2207 18.5711 1.23128C18.6107 1.24397 18.644 1.26302 18.6711 1.2884C18.7002 1.31379 18.7231 1.34976 18.7377 1.38995C18.7544 1.43227 18.7627 1.48304 18.7627 1.54228V2.02254C18.7627 2.08389 18.7544 2.13467 18.7377 2.17698C18.721 2.21929 18.6981 2.25314 18.6711 2.27853C18.6419 2.30392 18.6086 2.32507 18.5711 2.33565C18.5315 2.34835 18.4899 2.35258 18.4462 2.35258V2.35258ZM18.6627 1.54017C18.6627 1.45977 18.644 1.40053 18.6065 1.36245C18.569 1.32437 18.5149 1.30533 18.4462 1.30533C18.3774 1.30533 18.3254 1.32437 18.2858 1.36245C18.2483 1.40053 18.2296 1.45977 18.2296 1.54017V2.02042C18.2296 2.10293 18.2483 2.16217 18.2858 2.20025C18.3233 2.23833 18.3774 2.25737 18.4462 2.25737C18.5149 2.25737 18.5669 2.23833 18.6065 2.20025C18.644 2.16217 18.6627 2.10293 18.6627 2.02042V1.54017ZM18.4482 1.72634C18.4628 1.72634 18.4774 1.73058 18.4878 1.74115C18.4982 1.75173 18.5045 1.76443 18.5045 1.78135C18.5045 1.79616 18.4982 1.81097 18.4878 1.82155C18.4774 1.83213 18.4649 1.83847 18.4482 1.83847C18.4316 1.83847 18.417 1.83213 18.4066 1.82155C18.3962 1.81097 18.392 1.79616 18.392 1.78135C18.392 1.76443 18.3962 1.75173 18.4066 1.74115C18.417 1.73058 18.4316 1.72634 18.4482 1.72634Z" fill="#DEDC00"/>
</g>
<defs>
<clipPath id="clip0_576_1019">
<rect width="24" height="24" fill="white"/>
</clipPath>
</defs>
</svg>
