<svg width="18" height="18" viewBox="0 0 18 18" fill="none" xmlns="http://www.w3.org/2000/svg">
<path d="M15.75 0C16.3467 0 16.919 0.237053 17.341 0.65901C17.7629 1.08097 18 1.65326 18 2.25V15.75C18 16.3467 17.7629 16.919 17.341 17.341C16.919 17.7629 16.3467 18 15.75 18H2.25C1.65326 18 1.08097 17.7629 0.65901 17.341C0.237053 16.919 0 16.3467 0 15.75V2.25C0 1.65326 0.237053 1.08097 0.65901 0.65901C1.08097 0.237053 1.65326 0 2.25 0L15.75 0ZM6.642 12.1534L11.25 7.54537V10.6594C11.25 10.8086 11.3093 10.9516 11.4148 11.0571C11.5202 11.1626 11.6633 11.2219 11.8125 11.2219C11.9617 11.2219 12.1048 11.1626 12.2102 11.0571C12.3157 10.9516 12.375 10.8086 12.375 10.6594V6.1875C12.375 6.03832 12.3157 5.89524 12.2102 5.78975C12.1048 5.68426 11.9617 5.625 11.8125 5.625H7.34063C7.19144 5.625 7.04837 5.68426 6.94288 5.78975C6.83739 5.89524 6.77813 6.03832 6.77813 6.1875C6.77813 6.33668 6.83739 6.47976 6.94288 6.58525C7.04837 6.69074 7.19144 6.75 7.34063 6.75H10.4546L5.84663 11.358C5.74416 11.4641 5.68746 11.6062 5.68875 11.7537C5.69003 11.9011 5.74918 12.0422 5.85348 12.1465C5.95777 12.2508 6.09885 12.31 6.24634 12.3113C6.39382 12.3125 6.53591 12.2558 6.642 12.1534Z" fill="white"/>
</svg>
