<svg width="48" height="48" viewBox="0 0 48 48" fill="none" xmlns="http://www.w3.org/2000/svg">
<g clip-path="url(#clip0_544_1249)">
<path d="M26.476 19.7307L23.544 16.5878L11.2826 28.0264C10.4677 28.7865 10.4209 30.1365 11.2172 30.9902C12.0136 31.8438 13.3636 31.8907 14.1784 31.1305L26.476 19.7307" fill="#FFE1BD"/>
<path d="M11.2922 30.9927C11.4008 31.1091 11.4732 31.1867 11.5844 31.2281C11.0131 30.3823 11.1271 29.2599 11.8644 28.5721L24.1257 17.1335L23.619 16.5903L11.3188 28.0651C10.4677 28.7865 10.4597 30.1003 11.2922 30.9927" fill="#E6B796"/>
<path d="M29.77 23.2617L26.5122 19.7695L13.242 32.1493C12.2331 33.0904 12.1422 34.6266 13.0472 35.5967C13.9522 36.5667 15.491 36.5826 16.4998 35.6414L29.77 23.2617" fill="#FFE1BD"/>
<path d="M13.011 35.5579C13.0834 35.6355 13.192 35.7519 13.3032 35.7933C12.6232 34.831 12.8201 33.4862 13.7126 32.6537L26.9828 20.2739L26.476 19.7307L13.2058 32.1105C12.1969 33.0516 12.1061 34.5878 13.011 35.5579Z" fill="#E6B796"/>
<path d="M32.5935 26.2882L29.7338 23.2229L17.2396 34.8787C16.386 35.675 16.3003 37.0612 17.0605 37.8761C17.8568 38.7297 19.1706 38.7378 20.0631 37.9052L32.5935 26.2882" fill="#FFE1BD"/>
<path d="M17.0967 37.9149C17.1691 37.9925 17.2777 38.1089 17.3889 38.1503C16.8537 37.3433 16.9704 36.1459 17.7464 35.4219L30.2406 23.7661L29.7338 23.2229L17.2396 34.8787C16.3834 35.75 16.3003 37.0612 17.0967 37.9149" fill="#E6B796"/>
<path d="M21.674 39.0874C22.398 39.8635 23.6368 39.8689 24.4516 39.1088L35.1998 29.0819L32.5935 26.2881L21.8454 36.315C21.0305 37.0752 20.9501 38.3114 21.674 39.0874" fill="#FFE1BD"/>
<path d="M21.674 39.0874C21.7464 39.165 21.855 39.2814 21.9662 39.3228C21.4673 38.5546 21.6537 37.5098 22.3522 36.8582L33.1003 26.8314L32.5935 26.2881L21.8454 36.315C21.0305 37.0752 20.9501 38.3114 21.674 39.0874" fill="#E6B796"/>
<path d="M16.6049 17.4731C18.3166 18.9968 20.1039 18.3455 20.9445 17.9242L21.3273 17.7122C21.3273 17.7122 21.7023 17.7252 22.2687 17.6322L22.3411 17.7098C22.3411 17.7098 21.8648 19.533 19.4229 21.7385L21.8974 24.002L22.7922 24.1833L25.5406 27.2072L26.5544 27.2049L28.7883 29.9106L29.7995 29.9832C29.7995 29.9832 31.8628 32.1949 32.1318 32.0165C33.1276 31.4504 34.4339 30.5947 37.3701 27.1298C44.4557 18.7779 33.4637 9.87357 27.9781 11.0723C26.9564 11.2996 23.6822 11.5239 23.6822 11.5239C23.271 11.4721 22.8158 11.6064 22.3916 11.9296C21.1578 12.863 19.5075 13.8945 17.1539 14.6388C16.1658 14.9799 15.4026 16.4177 16.6049 17.4731" fill="#FFE1BD"/>
<path d="M16.0104 16.2136C16.2096 15.8826 16.5174 15.668 16.7838 15.5646C19.1375 14.8203 20.7877 13.7888 22.0216 12.8555C22.4458 12.5323 23.0174 12.2893 23.4674 12.3049C25.6812 12.3442 31.6611 9.88614 35.3895 13.8827C39.5161 18.3061 39.4893 22.3226 39.251 23.7785C40.0221 22.1158 40.1627 18.0658 35.819 13.4096C31.7648 9.06374 26.7598 11.5557 23.5658 11.6325C22.9632 11.6867 22.6994 11.7151 22.2752 12.0383C21.0413 12.9716 19.3911 14.0031 17.0375 14.7474C16.5072 14.8792 15.9976 15.4998 16.0104 16.2136" fill="#E6B796"/>
<path d="M23.495 15.8352C23.495 15.8352 21.4336 16.8149 20.5153 17.3086C19.7497 17.7326 18.0815 18.2003 16.7135 17.5896C18.3554 18.9607 20.1427 18.3094 20.9445 17.9243L21.3273 17.7123C21.3273 17.7123 21.7747 17.8029 22.3411 17.7099C22.3411 17.7099 22.569 16.5539 23.495 15.8352M20.899 24.6433C21.1654 24.5399 21.468 24.4753 21.7318 24.4469C21.9956 24.4185 22.2982 24.3539 22.6008 24.2893C22.9034 24.2248 23.2086 24.0852 23.4414 23.868C23.6742 23.6508 23.8346 23.356 23.92 23.0586C23.6872 23.2758 23.457 23.418 23.2268 23.5602C22.9966 23.7024 22.769 23.7696 22.4664 23.8341C22.2 23.9375 21.9362 23.9659 21.631 24.1055C21.3284 24.1701 21.0594 24.3485 20.899 24.6433M24.4646 27.9208C24.731 27.8175 25.0336 27.7529 25.2974 27.7245C25.5612 27.6961 25.8638 27.6315 26.1664 27.5669C26.469 27.5023 26.7742 27.3628 27.007 27.1456C27.2399 26.9284 27.4003 26.6336 27.4857 26.3362C27.2529 26.5534 27.0227 26.6956 26.7925 26.8378C26.5623 26.98 26.3346 27.0471 26.032 27.1117C25.7656 27.2151 25.5018 27.2435 25.1966 27.3831C24.894 27.4477 24.5862 27.6623 24.4646 27.9208M27.6761 30.5854C27.9425 30.482 28.2451 30.4174 28.5089 30.3891C28.7727 30.3607 29.0753 30.2961 29.3779 30.2315C29.6805 30.1669 29.9857 30.0273 30.2185 29.8101C30.4513 29.593 30.6117 29.2982 30.6972 29.0008C30.4643 29.218 30.2341 29.3601 30.0039 29.5023C29.7737 29.6445 29.5461 29.7117 29.2435 29.7763C28.9771 29.8797 28.7133 29.9081 28.4081 30.0477C28.1055 30.1122 27.7977 30.3268 27.6761 30.5854" fill="#E6B796"/>
</g>
<path fill-rule="evenodd" clip-rule="evenodd" d="M35.742 15.1966C35.8875 15.2547 36.0122 15.355 36.1001 15.4846C36.188 15.6142 36.235 15.7672 36.2351 15.9238V24.9731C36.235 25.1297 36.188 25.2827 36.1001 25.4123C36.0122 25.5419 35.8875 25.6422 35.742 25.7002L28.1678 28.7299C27.9811 28.8046 27.7727 28.8046 27.5859 28.7299L20.0117 25.7002C19.8665 25.642 19.742 25.5416 19.6543 25.412C19.5666 25.2824 19.5197 25.1296 19.5197 24.9731V15.9238C19.5197 15.7673 19.5666 15.6144 19.6543 15.4848C19.742 15.3552 19.8665 15.2548 20.0117 15.1966L27.2955 12.2829L27.2997 12.2819L27.5859 12.167C27.773 12.092 27.9818 12.092 28.1689 12.167L28.4551 12.2819L28.4593 12.2829L35.742 15.1966V15.1966ZM34.3066 15.7472L27.8774 18.3193L21.4482 15.7472L20.5644 16.1014V16.5192L27.3551 19.2355V27.5117L27.8774 27.7207L28.3998 27.5117V19.2365L35.1904 16.5203V16.1024L34.3066 15.7482V15.7472Z" fill="url(#paint0_linear_544_1249)"/>
<defs>
<linearGradient id="paint0_linear_544_1249" x1="27.8774" y1="12.1107" x2="27.8774" y2="28.7859" gradientUnits="userSpaceOnUse">
<stop stop-color="#40C0E7"/>
<stop offset="1" stop-color="#FF0000"/>
</linearGradient>
<clipPath id="clip0_544_1249">
<rect width="33.9616" height="33.9616" fill="white" transform="matrix(0.682147 0.731215 0.731215 -0.682147 0 23.1667)"/>
</clipPath>
</defs>
</svg>
