<svg width="36" height="29" viewBox="0 0 36 29" fill="none" xmlns="http://www.w3.org/2000/svg">
<path d="M35.9313 10.3159L33.3569 1.31425C33.2521 0.936329 33.0264 0.603167 32.7142 0.365795C32.4021 0.128423 32.0207 -6.97003e-05 31.6285 2.83645e-08H4.37146C3.56131 2.83645e-08 2.85918 0.540101 2.64314 1.31425L0.0686576 10.3159C-0.255403 11.4501 0.608758 12.6023 1.79698 12.6023H5.75772L3.59732 28.8054H7.19799L8.40421 19.8037H27.6138L28.802 28.8054H32.4027L30.2423 12.6023H34.203C35.3912 12.6023 36.2554 11.4501 35.9313 10.3159ZM8.8723 16.203L9.35839 12.6023H26.6416L27.1277 16.203H8.8723Z" fill="#212121"/>
</svg>
