<svg width="74" height="48" viewBox="0 0 74 48" fill="none" xmlns="http://www.w3.org/2000/svg">
<g clip-path="url(#clip0_544_1267)">
<path d="M26.476 19.7309L23.544 16.5879L11.2826 28.0265C10.4677 28.7867 10.4209 30.1367 11.2172 30.9903C12.0136 31.8439 13.3636 31.8908 14.1784 31.1307L26.476 19.7309" fill="#FFE1BD"/>
<path d="M11.2922 30.9928C11.4008 31.1092 11.4732 31.1868 11.5844 31.2282C11.0131 30.3824 11.1271 29.26 11.8644 28.5723L24.1257 17.1336L23.619 16.5904L11.3188 28.0652C10.4677 28.7866 10.4597 30.1004 11.2922 30.9928" fill="#E6B796"/>
<path d="M29.77 23.2618L26.5122 19.7696L13.242 32.1494C12.2331 33.0905 12.1422 34.6267 13.0472 35.5968C13.9522 36.5668 15.491 36.5827 16.4998 35.6416L29.77 23.2618" fill="#FFE1BD"/>
<path d="M13.011 35.558C13.0834 35.6356 13.192 35.752 13.3032 35.7934C12.6232 34.8312 12.8201 33.4864 13.7126 32.6538L26.9828 20.274L26.476 19.7308L13.2058 32.1106C12.1969 33.0517 12.1061 34.5879 13.011 35.558Z" fill="#E6B796"/>
<path d="M32.5935 26.2883L29.7339 23.223L17.2396 34.8788C16.386 35.6752 16.3003 37.0613 17.0605 37.8762C17.8569 38.7298 19.1707 38.7379 20.0631 37.9053L32.5935 26.2883" fill="#FFE1BD"/>
<path d="M17.0967 37.915C17.1691 37.9926 17.2777 38.109 17.3889 38.1504C16.8537 37.3434 16.9704 36.146 17.7464 35.422L30.2406 23.7662L29.7339 23.223L17.2396 34.8788C16.3834 35.7502 16.3003 37.0613 17.0967 37.915" fill="#E6B796"/>
<path d="M21.674 39.0875C22.398 39.8636 23.6368 39.869 24.4516 39.1089L35.1998 29.082L32.5935 26.2883L21.8454 36.3151C21.0305 37.0753 20.9501 38.3115 21.674 39.0875" fill="#FFE1BD"/>
<path d="M21.674 39.0875C21.7464 39.1651 21.855 39.2816 21.9662 39.323C21.4673 38.5547 21.6537 37.5099 22.3522 36.8584L33.1003 26.8315L32.5935 26.2883L21.8454 36.3151C21.0305 37.0753 20.9501 38.3115 21.674 39.0875" fill="#E6B796"/>
<path d="M16.6049 17.4733C18.3166 18.9969 20.1039 18.3456 20.9445 17.9243L21.3273 17.7123C21.3273 17.7123 21.7023 17.7253 22.2687 17.6323L22.3411 17.7099C22.3411 17.7099 21.8648 19.5331 19.4229 21.7386L21.8974 24.0021L22.7922 24.1834L25.5406 27.2073L26.5544 27.205L28.7883 29.9107L29.7995 29.9833C29.7995 29.9833 31.8628 32.195 32.1318 32.0167C33.1276 31.4505 34.4339 30.5948 37.3701 27.1299C44.4557 18.7781 33.4637 9.87369 27.9781 11.0724C26.9564 11.2998 23.6822 11.524 23.6822 11.524C23.271 11.4722 22.8158 11.6066 22.3916 11.9297C21.1578 12.8631 19.5075 13.8946 17.1539 14.6389C16.1658 14.98 15.4026 16.4178 16.6049 17.4733" fill="#FFE1BD"/>
<path d="M16.0104 16.2137C16.2096 15.8827 16.5174 15.6681 16.7838 15.5647C19.1374 14.8204 20.7877 13.7889 22.0215 12.8556C22.4458 12.5324 23.0174 12.2894 23.4674 12.3051C25.6812 12.3444 31.6611 9.88626 35.3895 13.8829C39.5161 18.3063 39.4893 22.3227 39.251 23.7787C40.0221 22.1159 40.1627 18.0659 35.8189 13.4097C31.7648 9.06386 26.7598 11.5558 23.5658 11.6327C22.9632 11.6868 22.6994 11.7152 22.2752 12.0384C21.0413 12.9717 19.3911 14.0033 17.0374 14.7475C16.5072 14.8793 15.9976 15.4999 16.0104 16.2137" fill="#E6B796"/>
<path d="M23.495 15.8353C23.495 15.8353 21.4336 16.815 20.5153 17.3088C19.7497 17.7327 18.0815 18.2004 16.7135 17.5898C18.3554 18.9608 20.1427 18.3095 20.9445 17.9244L21.3273 17.7124C21.3273 17.7124 21.7747 17.803 22.3411 17.71C22.3411 17.71 22.569 16.5541 23.495 15.8353M20.899 24.6434C21.1654 24.54 21.468 24.4754 21.7318 24.447C21.9956 24.4186 22.2982 24.3541 22.6008 24.2895C22.9034 24.2249 23.2086 24.0853 23.4414 23.8681C23.6742 23.6509 23.8346 23.3561 23.92 23.0587C23.6872 23.2759 23.457 23.4181 23.2268 23.5603C22.9966 23.7025 22.769 23.7697 22.4664 23.8343C22.2 23.9376 21.9362 23.966 21.631 24.1056C21.3284 24.1702 21.0594 24.3486 20.899 24.6434M24.4646 27.921C24.731 27.8176 25.0336 27.753 25.2974 27.7246C25.5612 27.6962 25.8638 27.6316 26.1664 27.5671C26.469 27.5025 26.7742 27.3629 27.007 27.1457C27.2399 26.9285 27.4003 26.6337 27.4857 26.3363C27.2529 26.5535 27.0227 26.6957 26.7925 26.8379C26.5623 26.9801 26.3346 27.0473 26.032 27.1118C25.7656 27.2152 25.5018 27.2436 25.1966 27.3832C24.894 27.4478 24.5862 27.6624 24.4646 27.921M27.6761 30.5855C27.9425 30.4822 28.2451 30.4176 28.5089 30.3892C28.7727 30.3608 29.0753 30.2962 29.3779 30.2316C29.6805 30.167 29.9857 30.0275 30.2185 29.8103C30.4513 29.5931 30.6117 29.2983 30.6972 29.0009C30.4643 29.2181 30.2341 29.3603 30.0039 29.5025C29.7737 29.6446 29.5461 29.7118 29.2435 29.7764C28.9771 29.8798 28.7133 29.9082 28.4081 30.0478C28.1055 30.1124 27.7977 30.3269 27.6761 30.5855" fill="#E6B796"/>
</g>
<path fill-rule="evenodd" clip-rule="evenodd" d="M35.742 15.1966C35.8875 15.2547 36.0122 15.355 36.1001 15.4846C36.188 15.6142 36.235 15.7672 36.2352 15.9238V24.9731C36.235 25.1297 36.188 25.2827 36.1001 25.4123C36.0122 25.5419 35.8875 25.6422 35.742 25.7002L28.1679 28.7299C27.9811 28.8046 27.7727 28.8046 27.5859 28.7299L20.0118 25.7002C19.8665 25.642 19.742 25.5416 19.6543 25.412C19.5666 25.2824 19.5197 25.1296 19.5197 24.9731V15.9238C19.5197 15.7673 19.5666 15.6144 19.6543 15.4848C19.742 15.3552 19.8665 15.2548 20.0118 15.1966L27.2955 12.2829L27.2997 12.2819L27.5859 12.167C27.773 12.092 27.9818 12.092 28.1689 12.167L28.4552 12.2819L28.4593 12.2829L35.742 15.1966V15.1966ZM34.3066 15.7472L27.8774 18.3193L21.4482 15.7472L20.5644 16.1014V16.5192L27.3551 19.2355V27.5117L27.8774 27.7207L28.3998 27.5117V19.2365L35.1904 16.5203V16.1024L34.3066 15.7482V15.7472Z" fill="url(#paint0_linear_544_1267)"/>
<path d="M72.55 15.0687L69.2219 11.7438C68.9871 11.5079 68.7081 11.3209 68.4008 11.1932C68.0935 11.0656 67.764 10.9999 67.4313 11C66.7531 11 66.1156 11.2656 65.6375 11.7438L62.0563 15.325C61.8205 15.5598 61.6334 15.8388 61.5057 16.1461C61.3781 16.4534 61.3124 16.7829 61.3125 17.1156C61.3125 17.7938 61.5781 18.4313 62.0563 18.9094L64.675 21.5281C64.062 22.8793 63.2098 24.1084 62.1594 25.1562C61.1116 26.2092 59.8826 27.0645 58.5313 27.6812L55.9125 25.0625C55.6777 24.8267 55.3987 24.6396 55.0914 24.512C54.7841 24.3843 54.4546 24.3187 54.1219 24.3188C53.4438 24.3188 52.8063 24.5844 52.3281 25.0625L48.7438 28.6406C48.5077 28.8758 48.3204 29.1554 48.1928 29.4632C48.0651 29.7711 47.9996 30.1011 48 30.4344C48 31.1125 48.2656 31.75 48.7438 32.2281L52.0656 35.55C52.8281 36.3156 53.8813 36.75 54.9625 36.75C55.1906 36.75 55.4094 36.7313 55.625 36.6938C59.8375 36 64.0156 33.7594 67.3875 30.3906C70.7563 27.025 72.9938 22.85 73.6969 18.625C73.9094 17.3344 73.4813 16.0062 72.55 15.0687V15.0687Z" fill="black"/>
<defs>
<linearGradient id="paint0_linear_544_1267" x1="27.8774" y1="12.1107" x2="27.8774" y2="28.7859" gradientUnits="userSpaceOnUse">
<stop stop-color="#40C0E7"/>
<stop offset="1" stop-color="#FF0000"/>
</linearGradient>
<clipPath id="clip0_544_1267">
<rect width="33.9616" height="33.9616" fill="white" transform="matrix(0.682147 0.731215 0.731215 -0.682147 0 23.1669)"/>
</clipPath>
</defs>
</svg>
