<svg width="26" height="24" viewBox="0 0 26 24" fill="none" xmlns="http://www.w3.org/2000/svg">
<path d="M3.15784 4.39771H22.1052V6.28243H3.15784V4.39771Z" fill="#424242"/>
<path d="M0 13.193H25.2632V8.79532C25.2632 7.41319 24.1263 6.28235 22.7368 6.28235H2.52632C1.13684 6.28235 0 7.41319 0 8.79532V13.193Z" fill="#616161"/>
<path d="M2.52632 20.1039H22.7368C24.1263 20.1039 25.2632 18.973 25.2632 17.5909V12.5649H0V17.5909C0 18.973 1.13684 20.1039 2.52632 20.1039Z" fill="#424242"/>
<path d="M22.7368 9.4236C23.0856 9.4236 23.3684 9.14233 23.3684 8.79536C23.3684 8.44839 23.0856 8.16711 22.7368 8.16711C22.388 8.16711 22.1052 8.44839 22.1052 8.79536C22.1052 9.14233 22.388 9.4236 22.7368 9.4236Z" fill="#00E676"/>
<path d="M4.42108 0H20.8421V6.28243H4.42108V0Z" fill="#90CAF9"/>
<path d="M21.1578 16.9625H4.10521C3.59994 16.9625 3.15784 16.5227 3.15784 16.0201C3.15784 15.5175 3.59994 15.0778 4.10521 15.0778H21.1578C21.6631 15.0778 22.1052 15.5175 22.1052 16.0201C22.1052 16.5227 21.6631 16.9625 21.1578 16.9625Z" fill="#242424"/>
<path d="M4.42108 16.9626H20.8421V23.8733H4.42108V16.9626Z" fill="#90CAF9"/>
<path d="M4.42108 15.7061H20.8421V16.9625H4.42108V15.7061Z" fill="#42A5F5"/>
<path d="M7.57892 18.219H18.3158V19.4755H7.57892V18.219ZM7.57892 20.732H15.7894V21.9885H7.57892V20.732Z" fill="#1976D2"/>
</svg>
