<svg width="46" height="26" viewBox="0 0 46 26" fill="none" xmlns="http://www.w3.org/2000/svg">
<g filter="url(#filter0_i_518_1010)">
<path d="M7.46986 2.42341C7.35745 2.42357 7.24651 2.44886 7.14525 2.49742C7.044 2.54597 6.955 2.61655 6.88486 2.70392L2.30986 8.39172H8.99986C9.19877 8.39172 9.38954 8.47032 9.53019 8.61023C9.67084 8.75014 9.74986 8.9399 9.74986 9.13776C9.74986 9.73135 9.98691 10.3006 10.4089 10.7203C10.8308 11.1401 11.4031 11.3759 11.9999 11.3759C12.5966 11.3759 13.1689 11.1401 13.5908 10.7203C14.0128 10.3006 14.2499 9.73135 14.2499 9.13776C14.2499 8.9399 14.3289 8.75014 14.4695 8.61023C14.6102 8.47032 14.8009 8.39172 14.9999 8.39172H21.6899L17.1149 2.70392C17.0447 2.61655 16.9557 2.54597 16.8545 2.49742C16.7532 2.44886 16.6423 2.42357 16.5299 2.42341H7.46986ZM5.71486 1.77138C5.92544 1.50952 6.19248 1.29808 6.49625 1.15268C6.80002 1.00728 7.13275 0.931635 7.46986 0.931335L16.5299 0.931335C16.867 0.931635 17.1997 1.00728 17.5035 1.15268C17.8072 1.29808 18.0743 1.50952 18.2849 1.77138L23.8349 8.67223C23.8975 8.74998 23.9438 8.83941 23.9711 8.93525C23.9984 9.03109 24.0062 9.13141 23.9939 9.23027L23.4089 13.8915C23.3408 14.433 23.0763 14.9311 22.665 15.2921C22.2537 15.6532 21.7239 15.8523 21.1754 15.8521H2.82436C2.27579 15.8523 1.74605 15.6532 1.33473 15.2921C0.923423 14.9311 0.658883 14.433 0.590861 13.8915L0.00586102 9.23027C-0.00643336 9.13141 0.00130165 9.03109 0.0286097 8.93525C0.0559178 8.83941 0.102246 8.74998 0.164861 8.67223L5.71486 1.77138ZM0.187361 17.5978C0.257644 17.5183 0.344157 17.4545 0.441145 17.4107C0.538133 17.367 0.643372 17.3443 0.749861 17.3442H8.99986C9.19877 17.3442 9.38954 17.4228 9.53019 17.5627C9.67084 17.7026 9.74986 17.8924 9.74986 18.0902C9.74986 18.6838 9.98691 19.2531 10.4089 19.6728C10.8308 20.0925 11.4031 20.3283 11.9999 20.3283C12.5966 20.3283 13.1689 20.0925 13.5908 19.6728C14.0128 19.2531 14.2499 18.6838 14.2499 18.0902C14.2499 17.8924 14.3289 17.7026 14.4695 17.5627C14.6102 17.4228 14.8009 17.3442 14.9999 17.3442H23.2499C23.3562 17.3442 23.4613 17.3667 23.5582 17.4102C23.6551 17.4538 23.7416 17.5173 23.812 17.5966C23.8823 17.6759 23.9349 17.7691 23.9663 17.8702C23.9976 17.9713 24.007 18.0778 23.9939 18.1827L23.4089 22.844C23.3408 23.3854 23.0763 23.8835 22.665 24.2446C22.2537 24.6056 21.7239 24.8048 21.1754 24.8046H2.82436C2.27579 24.8048 1.74605 24.6056 1.33473 24.2446C0.923423 23.8835 0.658883 23.3854 0.590861 22.844L0.00586102 18.1827C-0.00740755 18.0778 0.00191334 17.9712 0.0332052 17.8701C0.0644972 17.769 0.117045 17.6757 0.187361 17.5963V17.5978Z" fill="url(#paint0_linear_518_1010)"/>
</g>
<rect x="31.5996" y="9.85425" width="8.8" height="5.2" fill="url(#paint1_linear_518_1010)"/>
<path d="M28.7996 10.0943C28.7996 9.3023 29.4476 8.6543 30.2396 8.6543H40.3196L43.1996 11.5343V21.6143C43.1996 21.9962 43.0479 22.3625 42.7778 22.6325C42.5078 22.9026 42.1415 23.0543 41.7596 23.0543H30.2396C29.8577 23.0543 29.4914 22.9026 29.2214 22.6325C28.9513 22.3625 28.7996 21.9962 28.7996 21.6143V10.0943ZM32.3996 10.0943V14.4143H39.5996V10.0943H32.3996ZM36.7196 10.8143H38.8796V13.6943H36.7196V10.8143Z" fill="black"/>
<path d="M30.3996 17.8542C30.3996 16.7497 31.295 15.8542 32.3996 15.8542H39.5996C40.7042 15.8542 41.5996 16.7497 41.5996 17.8542V23.0542H30.3996V17.8542Z" fill="url(#paint2_linear_518_1010)"/>
<defs>
<filter id="filter0_i_518_1010" x="0" y="-0.0686646" width="23.9996" height="24.8732" filterUnits="userSpaceOnUse" color-interpolation-filters="sRGB">
<feFlood flood-opacity="0" result="BackgroundImageFix"/>
<feBlend mode="normal" in="SourceGraphic" in2="BackgroundImageFix" result="shape"/>
<feColorMatrix in="SourceAlpha" type="matrix" values="0 0 0 0 0 0 0 0 0 0 0 0 0 0 0 0 0 0 127 0" result="hardAlpha"/>
<feOffset dy="-1"/>
<feGaussianBlur stdDeviation="2"/>
<feComposite in2="hardAlpha" operator="arithmetic" k2="-1" k3="1"/>
<feColorMatrix type="matrix" values="0 0 0 0 0 0 0 0 0 0 0 0 0 0 0 0 0 0 0.2 0"/>
<feBlend mode="normal" in2="shape" result="effect1_innerShadow_518_1010"/>
</filter>
<linearGradient id="paint0_linear_518_1010" x1="1.2" y1="24.2077" x2="23.9188" y2="7.9797" gradientUnits="userSpaceOnUse">
<stop stop-color="#EBB267"/>
<stop offset="1" stop-color="#F4B025"/>
</linearGradient>
<linearGradient id="paint1_linear_518_1010" x1="35.9996" y1="9.85425" x2="35.9996" y2="15.0542" gradientUnits="userSpaceOnUse">
<stop stop-color="#D9D9D9"/>
<stop offset="1" stop-color="#B2B2B2"/>
</linearGradient>
<linearGradient id="paint2_linear_518_1010" x1="35.9996" y1="15.8542" x2="35.9996" y2="23.0542" gradientUnits="userSpaceOnUse">
<stop stop-color="#D9D9D9"/>
<stop offset="1" stop-color="#B2B2B2"/>
</linearGradient>
</defs>
</svg>
