<svg width="26" height="24" viewBox="0 0 26 24" fill="none" xmlns="http://www.w3.org/2000/svg">
<path d="M3.15784 4.39771H22.1052V6.28243H3.15784V4.39771Z" fill="#424242"/>
<path d="M0 13.193H25.2632V8.79526C25.2632 7.41313 24.1263 6.28229 22.7368 6.28229H2.52632C1.13684 6.28229 0 7.41313 0 8.79526V13.193Z" fill="#616161"/>
<path d="M2.52632 20.1038H22.7368C24.1263 20.1038 25.2632 18.973 25.2632 17.5908V12.5649H0V17.5908C0 18.973 1.13684 20.1038 2.52632 20.1038Z" fill="#424242"/>
<path d="M22.7368 9.42366C23.0856 9.42366 23.3684 9.14239 23.3684 8.79542C23.3684 8.44845 23.0856 8.16718 22.7368 8.16718C22.388 8.16718 22.1052 8.44845 22.1052 8.79542C22.1052 9.14239 22.388 9.42366 22.7368 9.42366Z" fill="#00E676"/>
<path d="M4.42108 0H20.8421V6.28243H4.42108V0Z" fill="#90CAF9"/>
<path d="M21.1578 16.9625H4.10521C3.59994 16.9625 3.15784 16.5227 3.15784 16.0201C3.15784 15.5175 3.59994 15.0778 4.10521 15.0778H21.1578C21.6631 15.0778 22.1052 15.5175 22.1052 16.0201C22.1052 16.5227 21.6631 16.9625 21.1578 16.9625Z" fill="#242424"/>
<path d="M4.42108 16.9626H20.8421V23.8733H4.42108V16.9626Z" fill="#90CAF9"/>
<path d="M4.42108 15.7061H20.8421V16.9625H4.42108V15.7061Z" fill="#42A5F5"/>
<path d="M7.57892 18.2189H18.3158V19.4754H7.57892V18.2189ZM7.57892 20.7319H15.7894V21.9884H7.57892V20.7319Z" fill="#1976D2"/>
</svg>
