<svg width="40" height="40" viewBox="0 0 40 40" fill="none" xmlns="http://www.w3.org/2000/svg">
<path d="M20.23 22.6942L12 27.4542L3.77 22.6942C3.93895 22.4017 4.17993 22.1573 4.47 21.9842L11 18.2142C11.62 17.8642 12.38 17.8642 13 18.2142L19.53 21.9842C19.82 22.1572 20.061 22.4022 20.23 22.6942V22.6942Z" fill="#DC3140"/>
<path d="M12 27.4542V36.9542C11.6847 36.9538 11.3736 36.882 11.09 36.7442L4.5 32.9342C4.19647 32.7586 3.94435 32.5064 3.76886 32.2028C3.59337 31.8992 3.50066 31.5549 3.5 31.2042V23.7042C3.50165 23.3499 3.59465 23.0021 3.77 22.6942L12 27.4542Z" fill="#EA3444"/>
<path d="M20.5 23.7042V31.2042C20.4993 31.5549 20.4066 31.8992 20.2311 32.2028C20.0556 32.5064 19.8035 32.7586 19.5 32.9342L12.88 36.7542C12.605 36.8842 12.304 36.9522 12 36.9542V27.4542L20.23 22.6942C20.405 23.0022 20.498 23.3502 20.5 23.7042V23.7042Z" fill="#FC3D4D"/>
<path d="M36.23 22.6942L28 27.4542L19.77 22.6942C19.939 22.4017 20.1799 22.1573 20.47 21.9842L27 18.2142C27.62 17.8642 28.38 17.8642 29 18.2142L35.53 21.9842C35.82 22.1572 36.061 22.4022 36.23 22.6942V22.6942Z" fill="#E9A823"/>
<path d="M28 27.4542V36.9542C27.6847 36.9538 27.3736 36.882 27.09 36.7442L20.5 32.9342C20.1965 32.7586 19.9444 32.5064 19.7689 32.2028C19.5934 31.8992 19.5007 31.5549 19.5 31.2042V23.7042C19.5017 23.3499 19.5946 23.0021 19.77 22.6942L28 27.4542Z" fill="#F4B025"/>
<path d="M36.5 23.7042V31.2042C36.4993 31.5549 36.4066 31.8992 36.2311 32.2028C36.0556 32.5064 35.8035 32.7586 35.5 32.9342L28.88 36.7542C28.605 36.8842 28.304 36.9522 28 36.9542V27.4542L36.23 22.6942C36.405 23.0022 36.498 23.3502 36.5 23.7042Z" fill="#FFC142"/>
<path d="M28.23 7.69422L20 12.4542L11.77 7.69422C11.939 7.40172 12.1799 7.1573 12.47 6.98422L19 3.21422C19.62 2.86422 20.38 2.86422 21 3.21422L27.53 6.98422C27.82 7.15722 28.061 7.40222 28.23 7.69422Z" fill="#508DCE"/>
<path d="M20 12.4542V21.9542C19.6847 21.9538 19.3736 21.882 19.09 21.7442L12.5 17.9342C12.1965 17.7586 11.9444 17.5064 11.7689 17.2028C11.5934 16.8992 11.5007 16.5549 11.5 16.2042V8.70421C11.5017 8.34993 11.5946 8.00206 11.77 7.69421L20 12.4542Z" fill="#5594D8"/>
<path d="M28.5 8.70421V16.2042C28.4993 16.5549 28.4066 16.8992 28.2311 17.2028C28.0556 17.5064 27.8035 17.7586 27.5 17.9342L20.88 21.7542C20.605 21.8842 20.304 21.9522 20 21.9542V12.4542L28.23 7.69421C28.405 8.00221 28.498 8.35021 28.5 8.70421Z" fill="#64ABF7"/>
</svg>
