<svg width="54" height="32" viewBox="0 0 54 32" fill="none" xmlns="http://www.w3.org/2000/svg">
<g filter="url(#filter0_i_518_1043)">
<path d="M13.0262 7.01233H1.57878C0.706843 7.01233 0 7.71544 0 8.58277V29.3151C0 30.1825 0.706843 30.8856 1.57878 30.8856H13.0262C13.8981 30.8856 14.605 30.1825 14.605 29.3151V8.58277C14.605 7.71544 13.8981 7.01233 13.0262 7.01233Z" fill="url(#paint0_linear_518_1043)"/>
</g>
<g filter="url(#filter1_i_518_1043)">
<path d="M12.9612 27.0771H1.64372C1.53316 27.0767 1.42722 27.0329 1.34908 26.9551C1.27094 26.8773 1.22695 26.7718 1.22672 26.6619V10.0583C1.22695 9.94824 1.271 9.84275 1.34923 9.76493C1.42747 9.68711 1.53351 9.64329 1.64415 9.64307H12.9616C13.0722 9.6434 13.1781 9.68727 13.2562 9.76508C13.3344 9.84289 13.3784 9.94831 13.3786 10.0583V26.6619C13.3819 26.7172 13.3734 26.7727 13.3536 26.8245C13.3338 26.8764 13.3031 26.9234 13.2637 26.9627C13.2242 27.0019 13.1769 27.0323 13.1247 27.0519C13.0726 27.0716 13.0168 27.08 12.9612 27.0767V27.0771Z" fill="url(#paint1_linear_518_1043)"/>
</g>
<g filter="url(#filter2_i_518_1043)">
<path d="M6.84707 13.0214C6.4287 13.0225 6.02779 13.1884 5.73196 13.4826C5.43613 13.7769 5.26943 14.1757 5.2683 14.5919V20.9918C5.26794 21.015 5.27372 21.0379 5.28505 21.0581C5.29638 21.0784 5.31286 21.0954 5.33285 21.1073C5.35284 21.1192 5.37563 21.1257 5.39893 21.1261C5.42224 21.1265 5.44525 21.1208 5.46564 21.1096L7.43912 19.3821C7.47022 19.3523 7.50763 19.3298 7.5486 19.3162C7.58957 19.3026 7.63307 19.2983 7.67593 19.3036H18.609C19.0273 19.3025 19.4282 19.1367 19.7241 18.8424C20.0199 18.5481 20.1866 18.1493 20.1877 17.7332V14.5923C20.1866 14.1761 20.0199 13.7773 19.7241 13.4831C19.4282 13.1888 19.0273 13.023 18.609 13.0218L6.84707 13.0214Z" fill="#357AD2"/>
</g>
<path d="M7.30243 29.7233C7.76327 29.7233 8.13686 29.3517 8.13686 28.8933C8.13686 28.4348 7.76327 28.0632 7.30243 28.0632C6.84158 28.0632 6.46799 28.4348 6.46799 28.8933C6.46799 29.3517 6.84158 29.7233 7.30243 29.7233Z" fill="#ECEEF2"/>
<path d="M9.76776 16.7841C10.2286 16.7841 10.6022 16.4125 10.6022 15.9541C10.6022 15.4957 10.2286 15.1241 9.76776 15.1241C9.30691 15.1241 8.93332 15.4957 8.93332 15.9541C8.93332 16.4125 9.30691 16.7841 9.76776 16.7841Z" fill="#ECEEF2"/>
<path d="M12.7708 16.7842C13.2316 16.7842 13.6052 16.4126 13.6052 15.9542C13.6052 15.4958 13.2316 15.1241 12.7708 15.1241C12.3099 15.1241 11.9363 15.4958 11.9363 15.9542C11.9363 16.4126 12.3099 16.7842 12.7708 16.7842Z" fill="#ECEEF2"/>
<path d="M15.7739 16.7842C16.2348 16.7842 16.6084 16.4126 16.6084 15.9542C16.6084 15.4958 16.2348 15.1241 15.7739 15.1241C15.3131 15.1241 14.9395 15.4958 14.9395 15.9542C14.9395 16.4126 15.3131 16.7842 15.7739 16.7842Z" fill="#ECEEF2"/>
<path d="M46.1075 18L43.9375 17.5L42.625 18L44.375 23L46.125 30H49.625V26.498C49.625 23.077 48.2477 20.017 46.1075 18ZM33.875 30L35.625 24L33.875 18C32.7796 19.0341 31.8978 20.3322 31.2927 21.8013C30.6877 23.2704 30.3743 24.8743 30.375 26.498V30H33.875Z" fill="#E6E6E6"/>
<path d="M33.875 18L38.25 17L42.625 18C44.5299 18 46.125 19.796 46.125 22.003V30H33.875V18Z" fill="#F4F4F4"/>
<path d="M46.111 18H41.3125C41.6107 18.2377 41.8534 18.5551 42.0197 18.9246C42.1859 19.2942 42.2706 19.7045 42.2663 20.12V21.79C41.6616 21.7894 41.0818 21.5151 40.6538 21.0271C40.2257 20.539 39.9844 19.877 39.9825 19.186C39.9806 19.877 39.7393 20.539 39.3112 21.0271C38.8832 21.5151 38.3034 21.7894 37.6988 21.79V20.12C37.6988 19.235 38.0969 18.472 38.6875 18H33.875L33.8776 17.99C35.5919 16.3596 37.7522 15.4678 39.9825 15.47C42.3126 15.47 44.4485 16.42 46.111 18V18Z" fill="#F92F60"/>
<path d="M37.375 10.5C37.375 10.8978 37.2367 11.2794 36.9906 11.5607C36.7444 11.842 36.4106 12 36.0625 12C35.7144 12 35.3806 11.842 35.1344 11.5607C34.8883 11.2794 34.75 10.8978 34.75 10.5C34.75 10.1022 34.8883 9.72064 35.1344 9.43934C35.3806 9.15804 35.7144 9 36.0625 9C36.4106 9 36.7444 9.15804 36.9906 9.43934C37.2367 9.72064 37.375 10.1022 37.375 10.5ZM45.25 10.5C45.25 10.8978 45.1117 11.2794 44.8656 11.5607C44.6194 11.842 44.2856 12 43.9375 12C43.5894 12 43.2556 11.842 43.0094 11.5607C42.7633 11.2794 42.625 10.8978 42.625 10.5C42.625 10.1022 42.7633 9.72064 43.0094 9.43934C43.2556 9.15804 43.5894 9 43.9375 9C44.2856 9 44.6194 9.15804 44.8656 9.43934C45.1117 9.72064 45.25 10.1022 45.25 10.5Z" fill="#F4C6AD"/>
<path d="M39.6334 3.66C37.3111 3.66 35.4692 5.9 35.6346 8.529L35.9584 13.814C36.0984 15.47 37.2499 16.66 38.656 16.66H41.344C42.7492 16.66 43.8929 15.48 44.0416 13.814L44.3654 8.529C44.5308 5.891 42.6889 3.659 40.3666 3.659H39.6334V3.66Z" fill="#FFD7C2"/>
<path d="M36.7012 10.37C36.8325 9.78999 37.2875 9.35999 37.8387 9.35999C38.4075 9.35999 38.88 9.81999 38.985 10.43C39.0113 10.57 38.915 10.69 38.7925 10.69H36.9287C36.78 10.69 36.6662 10.53 36.7012 10.37V10.37ZM42.9837 10.37C42.8525 9.78999 42.3975 9.35999 41.8463 9.35999C41.2775 9.35999 40.805 9.81999 40.7 10.44C40.6737 10.58 40.77 10.7 40.8925 10.7H42.7562C42.905 10.7 43.0187 10.54 42.9837 10.37Z" fill="white"/>
<path d="M37.2612 10.47C37.2612 9.98999 37.6025 9.60999 38.0137 9.60999C38.425 9.60999 38.7575 9.98999 38.7575 10.47C38.7575 10.55 38.7487 10.63 38.7312 10.7H37.2875C37.2702 10.6249 37.2614 10.5476 37.2612 10.47V10.47ZM42.4238 10.47C42.4238 10.2419 42.3445 10.0232 42.2033 9.86187C42.0622 9.70059 41.8708 9.60999 41.6712 9.60999C41.26 9.60999 40.9275 9.98999 40.9275 10.47C40.9275 10.55 40.9362 10.63 40.9537 10.7H42.3975C42.415 10.62 42.4238 10.55 42.4238 10.47Z" fill="#7D4533"/>
<path d="M38.0137 9.97998C38.25 9.97998 38.4425 10.2 38.4425 10.47C38.4425 10.55 38.425 10.62 38.39 10.7H37.6375C37.6029 10.6298 37.5848 10.5506 37.585 10.47C37.585 10.2 37.7775 9.97998 38.0137 9.97998ZM41.68 9.97998C41.5663 9.97998 41.4572 10.0316 41.3768 10.1235C41.2964 10.2154 41.2512 10.34 41.2512 10.47C41.2512 10.55 41.2687 10.62 41.3037 10.7H42.0562C42.0912 10.63 42.1087 10.55 42.1087 10.47C42.1087 10.34 42.0636 10.2154 41.9832 10.1235C41.9028 10.0316 41.7937 9.97998 41.68 9.97998Z" fill="black"/>
<path d="M37.8912 10.13C37.8912 10.1698 37.8774 10.2079 37.8528 10.236C37.8282 10.2642 37.7948 10.28 37.76 10.28C37.7252 10.28 37.6918 10.2642 37.6672 10.236C37.6426 10.2079 37.6287 10.1698 37.6287 10.13C37.6287 10.0902 37.6426 10.052 37.6672 10.0239C37.6918 9.99578 37.7252 9.97998 37.76 9.97998C37.7948 9.97998 37.8282 9.99578 37.8528 10.0239C37.8774 10.052 37.8912 10.0902 37.8912 10.13ZM41.575 10.13C41.575 10.1698 41.5612 10.2079 41.5366 10.236C41.5119 10.2642 41.4786 10.28 41.4437 10.28C41.4089 10.28 41.3756 10.2642 41.3509 10.236C41.3263 10.2079 41.3125 10.1698 41.3125 10.13C41.3125 10.0902 41.3263 10.052 41.3509 10.0239C41.3756 9.99578 41.4089 9.97998 41.4437 9.97998C41.4786 9.97998 41.5119 9.99578 41.5366 10.0239C41.5612 10.052 41.575 10.0902 41.575 10.13Z" fill="white"/>
<path d="M43.5 7.09298V6.99998C43.7608 7.00798 44.0197 7.00198 44.2787 6.99498C44.6016 6.98698 44.9245 6.97898 45.25 6.99998L44.7959 9.51498C44.7486 9.78498 44.5124 9.99098 44.2376 9.99998C44.2376 9.99998 44.2945 9.22698 44.3234 8.72398C44.3417 8.47198 44.2376 8.21998 44.039 8.04398L43.8596 7.88498C43.7509 7.79289 43.6621 7.6737 43.5998 7.53646C43.5374 7.39922 43.5033 7.24755 43.5 7.09298V7.09298ZM35.2111 9.52098L34.75 6.99998L35.3406 7.00198C35.7283 7.00398 36.1124 7.00598 36.5 6.99998V7.12898C36.5 7.43198 36.3687 7.70898 36.1421 7.91098L35.9732 8.05798C35.8792 8.13231 35.8036 8.23336 35.7541 8.35119C35.7045 8.46902 35.6826 8.59956 35.6906 8.72998C35.7195 9.22698 35.7755 9.99998 35.7755 9.99998C35.5025 9.98998 35.2584 9.78798 35.2111 9.52098ZM42.4325 8.87998C42.5291 8.96543 42.6512 9.00391 42.7724 8.98706C42.8937 8.97021 43.0042 8.89939 43.08 8.78998C43.2288 8.55998 43.1938 8.22998 42.9925 8.04998C42.9663 8.01998 42.275 7.41998 41.2688 7.55998C41.2088 7.56741 41.1508 7.58838 41.0981 7.62165C41.0453 7.65493 40.9988 7.69985 40.9614 7.75381C40.924 7.80777 40.8963 7.86969 40.8799 7.93598C40.8636 8.00227 40.8589 8.07161 40.8662 8.13998C40.8925 8.42998 41.1287 8.62998 41.3737 8.59998C41.7434 8.54953 42.1168 8.64783 42.4299 8.87798L42.4325 8.87998V8.87998ZM36.605 8.77998C36.6925 8.91998 36.8325 8.98998 36.9725 8.98998C37.0687 8.98998 37.165 8.94998 37.2525 8.87998L37.2612 8.87298C37.5737 8.6477 37.9442 8.55137 38.3112 8.59998C38.5562 8.63998 38.7925 8.42998 38.8187 8.13998C38.8321 8.00219 38.7973 7.86397 38.7219 7.75536C38.6465 7.64675 38.5367 7.57653 38.4162 7.55998C37.4187 7.42998 36.7188 8.01998 36.6925 8.04998C36.4913 8.22998 36.4562 8.54998 36.605 8.77998V8.77998Z" fill="#212121"/>
<path d="M39.6413 10.282L39.1486 12.029C39.0463 12.384 39.2886 12.75 39.6325 12.75H40.3675C40.7114 12.75 40.9537 12.384 40.8514 12.029L40.3579 10.282C40.2468 9.906 39.7541 9.906 39.6421 10.282H39.6413Z" fill="#E5AF93"/>
<path d="M40 13.646C39.5187 13.646 39.0637 13.506 38.6805 13.272C38.5466 13.187 38.4127 13.368 38.4932 13.517C38.8144 14.105 39.3674 14.5 40 14.5C40.6335 14.5 41.1865 14.105 41.5076 13.518C41.5881 13.368 41.4455 13.198 41.3204 13.272C40.9134 13.5175 40.4602 13.6459 40 13.646Z" fill="#990838"/>
<path d="M35.2487 2H44.7162C46.195 2 46.93 4.04 45.8887 5.23L45.25 6V7C45.2587 7.2 45.075 7.38 44.9 7.38H35.0563C34.8813 7.38 34.75 7.2 34.75 7V6L34.0762 5.23C33.035 4.04 33.77 2 35.2487 2Z" fill="#E6E6E6"/>
<path d="M39.58 6.02998V3.62998C39.58 3.37998 39.755 3.16998 39.9825 3.16998C40.2012 3.16998 40.385 3.36998 40.385 3.62998V6.02998H39.58V6.02998ZM37.7163 6.02998H36.92L36.22 3.74998C36.1325 3.46998 36.3163 3.17998 36.5788 3.17998C36.7363 3.17998 36.885 3.29998 36.9375 3.46998L37.7163 6.02998V6.02998ZM42.24 6.02998H43.0362L43.7363 3.74998C43.8238 3.46998 43.64 3.17998 43.3775 3.17998C43.22 3.17998 43.0713 3.29998 43.0188 3.46998L42.24 6.02998V6.02998ZM43.7712 21.61C43.9453 21.61 44.1122 21.531 44.2353 21.3903C44.3584 21.2497 44.4275 21.0589 44.4275 20.86C44.4275 20.6611 44.3584 20.4703 44.2353 20.3297C44.1122 20.189 43.9453 20.11 43.7712 20.11C43.5972 20.11 43.4303 20.189 43.3072 20.3297C43.1841 20.4703 43.115 20.6611 43.115 20.86C43.115 21.0589 43.1841 21.2497 43.3072 21.3903C43.4303 21.531 43.5972 21.61 43.7712 21.61V21.61ZM43.7712 25.24C43.9453 25.24 44.1122 25.161 44.2353 25.0203C44.3584 24.8797 44.4275 24.6889 44.4275 24.49C44.4275 24.2911 44.3584 24.1003 44.2353 23.9597C44.1122 23.819 43.9453 23.74 43.7712 23.74C43.5972 23.74 43.4303 23.819 43.3072 23.9597C43.1841 24.1003 43.115 24.2911 43.115 24.49C43.115 24.6889 43.1841 24.8797 43.3072 25.0203C43.4303 25.161 43.5972 25.24 43.7712 25.24V25.24ZM43.7712 28.88C43.9453 28.88 44.1122 28.801 44.2353 28.6603C44.3584 28.5197 44.4275 28.3289 44.4275 28.13C44.4275 27.9311 44.3584 27.7403 44.2353 27.5997C44.1122 27.459 43.9453 27.38 43.7712 27.38C43.5972 27.38 43.4303 27.459 43.3072 27.5997C43.1841 27.7403 43.115 27.9311 43.115 28.13C43.115 28.3289 43.1841 28.5197 43.3072 28.6603C43.4303 28.801 43.5972 28.88 43.7712 28.88V28.88Z" fill="#D3D3D3"/>
<path d="M49.625 23C50.1063 23 50.5 23.41 50.5 23.912V26H48.75V23.912C48.7587 23.41 49.1437 23 49.625 23Z" fill="#F4C6AD"/>
<path d="M49.905 16.16C49.7664 15.8075 49.5414 15.5085 49.2572 15.2991C48.973 15.0897 48.6419 14.9789 48.3037 14.98C47.9656 14.9789 47.6345 15.0897 47.3503 15.2991C47.0661 15.5085 46.8411 15.8075 46.7025 16.16C46.5036 16.661 46.4007 17.2048 46.4007 17.755C46.4007 18.3052 46.5036 18.849 46.7025 19.35C46.8337 19.68 47.0437 19.96 47.2887 20.17C47.525 20.36 47.6737 20.67 47.6737 21.01V27.97C47.6737 28.36 47.945 28.7 48.2862 28.71C48.6362 28.72 48.925 28.39 48.925 27.99V21C48.925 20.67 49.0737 20.36 49.31 20.16C49.5637 19.96 49.765 19.68 49.8962 19.34C50.2987 18.33 50.2987 17.17 49.905 16.16V16.16Z" fill="#F3C07B"/>
<path d="M48.3037 15.65C47.7787 15.65 47.3063 16 47.0963 16.54C46.7988 17.3 46.7988 18.18 47.0963 18.94C47.3063 19.48 47.7787 19.83 48.3037 19.83C48.8287 19.83 49.3013 19.48 49.5113 18.94C49.8088 18.18 49.8088 17.3 49.5113 16.54C49.2925 16 48.82 15.65 48.3037 15.65V15.65Z" fill="#F3AD61"/>
<path d="M46.5713 25.5C46.5783 25.1 46.8574 24.75 47.1837 24.75H49.8061C50.1894 24.75 50.5 25.14 50.5 25.62V29.13C50.5 29.61 50.1894 30 49.8061 30H47.1837C46.8574 30 46.5783 29.69 46.5713 29.28C46.5651 29.1554 46.5858 29.0309 46.6316 28.9176C46.6773 28.8042 46.7468 28.7055 46.8337 28.63C46.7477 28.5598 46.678 28.4666 46.6307 28.3585C46.5834 28.2505 46.56 28.1308 46.5625 28.01C46.5625 27.75 46.6745 27.52 46.8337 27.39C46.7477 27.3198 46.678 27.2266 46.6307 27.1185C46.5834 27.0105 46.56 26.8908 46.5625 26.77C46.5625 26.51 46.6745 26.28 46.8337 26.15C46.7483 26.0729 46.68 25.9739 46.6344 25.8609C46.5888 25.748 46.5671 25.6243 46.5713 25.5Z" fill="#FFD7C2"/>
<defs>
<filter id="filter0_i_518_1043" x="0" y="6.01233" width="14.605" height="24.8732" filterUnits="userSpaceOnUse" color-interpolation-filters="sRGB">
<feFlood flood-opacity="0" result="BackgroundImageFix"/>
<feBlend mode="normal" in="SourceGraphic" in2="BackgroundImageFix" result="shape"/>
<feColorMatrix in="SourceAlpha" type="matrix" values="0 0 0 0 0 0 0 0 0 0 0 0 0 0 0 0 0 0 127 0" result="hardAlpha"/>
<feOffset dy="-1"/>
<feGaussianBlur stdDeviation="2"/>
<feComposite in2="hardAlpha" operator="arithmetic" k2="-1" k3="1"/>
<feColorMatrix type="matrix" values="0 0 0 0 0 0 0 0 0 0 0 0 0 0 0 0 0 0 0.25 0"/>
<feBlend mode="normal" in2="shape" result="effect1_innerShadow_518_1043"/>
</filter>
<filter id="filter1_i_518_1043" x="1.22672" y="9.64307" width="12.1526" height="17.4343" filterUnits="userSpaceOnUse" color-interpolation-filters="sRGB">
<feFlood flood-opacity="0" result="BackgroundImageFix"/>
<feBlend mode="normal" in="SourceGraphic" in2="BackgroundImageFix" result="shape"/>
<feColorMatrix in="SourceAlpha" type="matrix" values="0 0 0 0 0 0 0 0 0 0 0 0 0 0 0 0 0 0 127 0" result="hardAlpha"/>
<feOffset/>
<feGaussianBlur stdDeviation="2"/>
<feComposite in2="hardAlpha" operator="arithmetic" k2="-1" k3="1"/>
<feColorMatrix type="matrix" values="0 0 0 0 0 0 0 0 0 0 0 0 0 0 0 0 0 0 0.25 0"/>
<feBlend mode="normal" in2="shape" result="effect1_innerShadow_518_1043"/>
</filter>
<filter id="filter2_i_518_1043" x="5.26828" y="12.0214" width="14.9195" height="9.10474" filterUnits="userSpaceOnUse" color-interpolation-filters="sRGB">
<feFlood flood-opacity="0" result="BackgroundImageFix"/>
<feBlend mode="normal" in="SourceGraphic" in2="BackgroundImageFix" result="shape"/>
<feColorMatrix in="SourceAlpha" type="matrix" values="0 0 0 0 0 0 0 0 0 0 0 0 0 0 0 0 0 0 127 0" result="hardAlpha"/>
<feOffset dy="-1"/>
<feGaussianBlur stdDeviation="2"/>
<feComposite in2="hardAlpha" operator="arithmetic" k2="-1" k3="1"/>
<feColorMatrix type="matrix" values="0 0 0 0 0 0 0 0 0 0 0 0 0 0 0 0 0 0 0.25 0"/>
<feBlend mode="normal" in2="shape" result="effect1_innerShadow_518_1043"/>
</filter>
<linearGradient id="paint0_linear_518_1043" x1="7.30249" y1="7.01233" x2="7.30249" y2="30.8856" gradientUnits="userSpaceOnUse">
<stop stop-color="#BCBCBC"/>
<stop offset="1" stop-color="#87868D"/>
</linearGradient>
<linearGradient id="paint1_linear_518_1043" x1="13.2237" y1="9.57607" x2="2.79465" y2="27.1215" gradientUnits="userSpaceOnUse">
<stop stop-color="#F5F3F5"/>
<stop offset="1" stop-color="#D7C1E7"/>
</linearGradient>
</defs>
</svg>
