<svg width="63" height="32" viewBox="0 0 63 32" fill="none" xmlns="http://www.w3.org/2000/svg">
<path d="M3.15784 8.37836H22.1052V10.2631H3.15784V8.37836Z" fill="#424242"/>
<path d="M0 17.1736H25.2632V12.7759C25.2632 11.3938 24.1263 10.2629 22.7368 10.2629H2.52632C1.13684 10.2629 0 11.3938 0 12.7759V17.1736Z" fill="#616161"/>
<path d="M2.52632 24.0845H22.7368C24.1263 24.0845 25.2632 22.9536 25.2632 21.5715V16.5455H0V21.5715C0 22.9536 1.13684 24.0845 2.52632 24.0845Z" fill="#424242"/>
<path d="M22.7368 13.4043C23.0856 13.4043 23.3684 13.123 23.3684 12.7761C23.3684 12.4291 23.0856 12.1478 22.7368 12.1478C22.388 12.1478 22.1052 12.4291 22.1052 12.7761C22.1052 13.123 22.388 13.4043 22.7368 13.4043Z" fill="#00E676"/>
<path d="M4.42108 3.98065H20.8421V10.2631H4.42108V3.98065Z" fill="#90CAF9"/>
<path d="M21.1578 20.9431H4.10521C3.59994 20.9431 3.15784 20.5034 3.15784 20.0008C3.15784 19.4982 3.59994 19.0584 4.10521 19.0584H21.1578C21.6631 19.0584 22.1052 19.4982 22.1052 20.0008C22.1052 20.5034 21.6631 20.9431 21.1578 20.9431Z" fill="#242424"/>
<path d="M4.42108 20.9433H20.8421V27.854H4.42108V20.9433Z" fill="#90CAF9"/>
<path d="M4.42108 19.6867H20.8421V20.9432H4.42108V19.6867Z" fill="#42A5F5"/>
<path d="M7.57892 22.1996H18.3158V23.4561H7.57892V22.1996ZM7.57892 24.7126H15.7894V25.969H7.57892V24.7126Z" fill="#1976D2"/>
<path d="M55.1 2.07202L60.664 7.87202V29.928H39.879V30H60.735V7.94502L55.1 2.07202Z" fill="#909090"/>
<path d="M55.031 2H39.808V29.928H60.664V7.873L55.03 2" fill="#F4F4F4"/>
<path d="M39.655 3.5H33.265V10.327H53.365V3.5H39.655Z" fill="#7A7B7C"/>
<path d="M53.472 10.211H33.395V3.37903H53.472V10.211Z" fill="#DD2025"/>
<path d="M40.052 4.534H38.745V9.334H39.773V7.715L40 7.728C40.2206 7.72421 40.4391 7.68469 40.647 7.611C40.8293 7.5483 40.997 7.44931 41.14 7.32C41.2855 7.19682 41.4002 7.04136 41.475 6.866C41.5753 6.5745 41.6111 6.2647 41.58 5.958C41.5738 5.73891 41.5353 5.52192 41.466 5.314C41.4029 5.16391 41.3092 5.0286 41.1909 4.91669C41.0726 4.80479 40.9324 4.71873 40.779 4.664C40.6464 4.616 40.5094 4.58117 40.37 4.56C40.2644 4.54371 40.1578 4.53502 40.051 4.534M39.862 6.828H39.773V5.348H39.966C40.0512 5.34186 40.1367 5.35494 40.2161 5.38626C40.2955 5.41759 40.3669 5.46637 40.425 5.529C40.5453 5.69002 40.6096 5.886 40.608 6.087C40.608 6.333 40.608 6.556 40.386 6.713C40.2261 6.80097 40.044 6.84057 39.862 6.827M43.533 4.521C43.422 4.521 43.314 4.529 43.238 4.532L43 4.538H42.22V9.338H43.138C43.4888 9.34762 43.8381 9.28816 44.166 9.163C44.4299 9.05832 44.6636 8.88958 44.846 8.672C45.0234 8.45246 45.1507 8.19684 45.219 7.923C45.2976 7.61287 45.3359 7.29392 45.333 6.974C45.3524 6.59616 45.3232 6.21739 45.246 5.847C45.1728 5.57436 45.0357 5.32309 44.846 5.114C44.6972 4.94516 44.515 4.80897 44.311 4.714C44.1358 4.63292 43.9515 4.57316 43.762 4.536C43.6867 4.52356 43.6104 4.51787 43.534 4.519M43.352 8.456H43.252V5.392H43.265C43.4712 5.36828 43.6798 5.40548 43.865 5.499C44.0007 5.60733 44.1112 5.7438 44.189 5.899C44.273 6.06234 44.3214 6.24161 44.331 6.425C44.34 6.645 44.331 6.825 44.331 6.974C44.3351 7.14564 44.324 7.3173 44.298 7.487C44.2672 7.66123 44.2102 7.8298 44.129 7.987C44.0371 8.13316 43.9129 8.25631 43.766 8.347C43.6426 8.4268 43.4965 8.46403 43.35 8.453M48.43 4.538H46V9.338H47.028V7.434H48.328V6.542H47.028V5.43H48.428V4.538" fill="#464648"/>
<path d="M52.781 20.255C52.781 20.255 55.969 19.677 55.969 20.766C55.969 21.855 53.994 21.412 52.781 20.255ZM50.424 20.338C49.9175 20.4499 49.4239 20.6138 48.951 20.827L49.351 19.927C49.751 19.027 50.166 17.8 50.166 17.8C50.6433 18.6033 51.1987 19.3577 51.824 20.052C51.3524 20.1223 50.885 20.2185 50.424 20.34V20.338ZM49.162 13.838C49.162 12.889 49.469 12.63 49.708 12.63C49.947 12.63 50.216 12.745 50.225 13.569C50.1471 14.3976 49.9736 15.2143 49.708 16.003C49.3441 15.3408 49.1558 14.5966 49.161 13.841L49.162 13.838ZM44.513 24.354C43.535 23.769 46.564 21.968 47.113 21.91C47.11 21.911 45.537 24.966 44.513 24.354V24.354ZM56.9 20.895C56.89 20.795 56.8 19.688 54.83 19.735C54.0089 19.7218 53.1881 19.7797 52.377 19.908C51.5913 19.1164 50.9146 18.2235 50.365 17.253C50.7113 16.2524 50.9208 15.2097 50.988 14.153C50.959 12.953 50.672 12.265 49.752 12.275C48.832 12.285 48.698 13.09 48.819 14.288C48.9375 15.0931 49.1611 15.8791 49.484 16.626C49.484 16.626 49.059 17.949 48.497 19.265C47.935 20.581 47.551 21.271 47.551 21.271C46.5737 21.5891 45.6537 22.0618 44.826 22.671C44.002 23.438 43.667 24.027 44.101 24.616C44.475 25.124 45.784 25.239 46.954 23.706C47.5757 22.9142 48.1436 22.0817 48.654 21.214C48.654 21.214 50.438 20.725 50.993 20.591C51.548 20.457 52.219 20.351 52.219 20.351C52.219 20.351 53.848 21.99 55.419 21.932C56.99 21.874 56.914 20.993 56.904 20.897" fill="#DD2025"/>
<path d="M54.954 2.07703V7.95003H60.587L54.954 2.07703Z" fill="#909090"/>
<path d="M55.031 2V7.873H60.664L55.031 2Z" fill="#F4F4F4"/>
<path d="M39.975 4.45698H38.668V9.25698H39.7V7.63898L39.928 7.65198C40.1486 7.64818 40.3671 7.60867 40.575 7.53498C40.7573 7.47225 40.925 7.37326 41.068 7.24398C41.2124 7.12046 41.3261 6.96503 41.4 6.78998C41.5003 6.49847 41.5361 6.18867 41.505 5.88198C41.4988 5.66288 41.4603 5.4459 41.391 5.23798C41.3279 5.08788 41.2342 4.95258 41.1159 4.84067C40.9976 4.72876 40.8574 4.6427 40.704 4.58798C40.5708 4.53951 40.4331 4.50433 40.293 4.48298C40.1874 4.46669 40.0808 4.458 39.974 4.45698M39.785 6.75098H39.696V5.27098H39.89C39.9752 5.26483 40.0607 5.27791 40.1401 5.30924C40.2195 5.34057 40.2909 5.38935 40.349 5.45198C40.4693 5.61299 40.5336 5.80898 40.532 6.00998C40.532 6.25598 40.532 6.47898 40.31 6.63598C40.1501 6.72394 39.968 6.76354 39.786 6.74998M43.456 4.44397C43.345 4.44397 43.237 4.45198 43.161 4.45498L42.926 4.46098H42.146V9.26098H43.064C43.4148 9.27059 43.7641 9.21113 44.092 9.08598C44.3559 8.9813 44.5896 8.81256 44.772 8.59498C44.9494 8.37543 45.0767 8.11981 45.145 7.84598C45.2236 7.53584 45.2619 7.21689 45.259 6.89698C45.2784 6.51913 45.2492 6.14036 45.172 5.76998C45.0988 5.49734 44.9617 5.24607 44.772 5.03698C44.6232 4.86814 44.441 4.73195 44.237 4.63698C44.0618 4.55589 43.8775 4.49613 43.688 4.45898C43.6127 4.44653 43.5364 4.44084 43.46 4.44198M43.278 8.37898H43.178V5.31498H43.191C43.3972 5.29125 43.6057 5.32845 43.791 5.42198C43.9267 5.5303 44.0372 5.66677 44.115 5.82198C44.199 5.98531 44.2474 6.16458 44.257 6.34798C44.266 6.56798 44.257 6.74798 44.257 6.89698C44.2611 7.06861 44.25 7.24027 44.224 7.40998C44.1932 7.5842 44.1362 7.75277 44.055 7.90998C43.9631 8.05613 43.8389 8.17928 43.692 8.26998C43.5686 8.34977 43.4225 8.387 43.276 8.37598M48.353 4.46098H45.923V9.26098H46.951V7.35698H48.251V6.46498H46.951V5.35298H48.351V4.46098" fill="white"/>
</svg>
