<svg width="28" height="27" viewBox="0 0 28 27" fill="none" xmlns="http://www.w3.org/2000/svg">
<path d="M25.877 26.95H2.123C1.84408 26.9501 1.56788 26.8953 1.31018 26.7886C1.05248 26.6819 0.818344 26.5254 0.621166 26.3281C0.423988 26.1309 0.267635 25.8966 0.16105 25.6389C0.0544643 25.3811 -0.00026197 25.1049 9.42817e-07 24.826V12.778C0.000266113 11.7759 0.398527 10.815 1.1072 10.1065C1.81587 9.39801 2.77692 9 3.779 9H24.22C24.7163 8.99987 25.2079 9.09752 25.6665 9.28737C26.1251 9.47723 26.5418 9.75556 26.8928 10.1065C27.2438 10.4574 27.5223 10.8741 27.7122 11.3326C27.9022 11.7912 28 12.2827 28 12.779V24.826C28 25.999 27.05 26.949 25.877 26.949V26.95Z" fill="#433B6B"/>
<path d="M2.123 2H25.877C27.05 2 28 2.95 28 4.123V13.393C28 14.566 27.05 15.516 25.877 15.516H2.123C1.84417 15.5161 1.56804 15.4613 1.31041 15.3547C1.05277 15.248 0.818684 15.0916 0.621519 14.8945C0.424354 14.6973 0.26798 14.4632 0.161336 14.2056C0.054692 13.948 -0.000131196 13.6718 2.3576e-07 13.393V4.123C2.3576e-07 2.95 0.95 2 2.123 2ZM11.5 18H16.5C17.328 18 18 18.673 18 19.5V22.5C18 23.327 17.327 24 16.5 24H11.5C10.673 24 10 23.327 10 22.5V19.5C10 18.673 10.673 18 11.5 18Z" fill="#8D65C5"/>
<path d="M25.877 3.51801C26.221 3.51801 26.502 3.79801 26.502 4.14301V13.376C26.502 13.72 26.222 14 25.877 14H25L14 12.5L2.99999 14H2.12299C1.9574 14 1.79858 13.9343 1.6814 13.8173C1.56422 13.7003 1.49825 13.5416 1.49799 13.376V4.14301C1.49799 3.79901 1.77799 3.51801 2.12299 3.51801H25.877V3.51801Z" fill="#321B41"/>
<path d="M16.5 23H11.5C11.3674 23 11.2402 22.9473 11.1464 22.8536C11.0527 22.7598 11 22.6326 11 22.5V19.5C11 19.3674 11.0527 19.2402 11.1464 19.1464C11.2402 19.0527 11.3674 19 11.5 19H16.5C16.6326 19 16.7598 19.0527 16.8536 19.1464C16.9473 19.2402 17 19.3674 17 19.5V22.5C17 22.6326 16.9473 22.7598 16.8536 22.8536C16.7598 22.9473 16.6326 23 16.5 23Z" fill="#F4F4F4"/>
<path d="M20.998 0H17.002C16.45 0 16 0.454 16 1.014V2L19 3L22 2V1.014C22 0.454 21.552 0 20.998 0Z" fill="#00D26A"/>
<path d="M25 9V4.178C25 2.975 24.049 2 22.875 2H5.125C3.951 2 3 2.975 3 4.178V8.984L25 9Z" fill="#FFB02E"/>
<path d="M15.998 4H12.002C11.448 4 11 4.454 11 5.014V6L14 7L17 6V5.014C17 4.454 16.552 4 15.998 4Z" fill="#00A6ED"/>
<path d="M25 12.5V8.182C25 6.977 24.049 6 22.875 6H5.125C3.951 6 3 6.977 3 8.182V12.484L25 12.5Z" fill="#F9C23C"/>
<path d="M10.998 8H7.002C6.45 8 6 8.454 6 9.014V10L9 11L12 10V9.014C12 8.454 11.55 8 10.998 8Z" fill="#F8312F"/>
<path d="M25 14V12.123C25.0027 11.8454 24.9503 11.57 24.846 11.3128C24.7417 11.0555 24.5875 10.8214 24.3922 10.6241C24.197 10.4267 23.9646 10.2699 23.7085 10.1628C23.4524 10.0557 23.1776 10.0004 22.9 10H5.24001C4.64415 10.0003 4.07277 10.2371 3.65144 10.6584C3.2301 11.0798 2.99328 11.6511 2.99301 12.247L3.00001 14H25Z" fill="#FCD53F"/>
</svg>
