<svg width="62" height="32" viewBox="0 0 62 32" fill="none" xmlns="http://www.w3.org/2000/svg">
<path d="M3.15784 10.9083H22.1052V12.793H3.15784V10.9083Z" fill="#424242"/>
<path d="M0 19.7035H25.2632V15.3058C25.2632 13.9237 24.1263 12.7928 22.7368 12.7928H2.52632C1.13684 12.7928 0 13.9237 0 15.3058V19.7035Z" fill="#616161"/>
<path d="M2.52632 26.6144H22.7368C24.1263 26.6144 25.2632 25.4835 25.2632 24.1014V19.0754H0V24.1014C0 25.4835 1.13684 26.6144 2.52632 26.6144Z" fill="#424242"/>
<path d="M22.7368 15.9342C23.0856 15.9342 23.3684 15.6529 23.3684 15.306C23.3684 14.959 23.0856 14.6777 22.7368 14.6777C22.388 14.6777 22.1052 14.959 22.1052 15.306C22.1052 15.6529 22.388 15.9342 22.7368 15.9342Z" fill="#00E676"/>
<path d="M4.42108 6.51056H20.8421V12.793H4.42108V6.51056Z" fill="#90CAF9"/>
<path d="M21.1578 23.473H4.10521C3.59994 23.473 3.15784 23.0333 3.15784 22.5307C3.15784 22.0281 3.59994 21.5883 4.10521 21.5883H21.1578C21.6631 21.5883 22.1052 22.0281 22.1052 22.5307C22.1052 23.0333 21.6631 23.473 21.1578 23.473Z" fill="#242424"/>
<path d="M4.42108 23.4731H20.8421V30.3838H4.42108V23.4731Z" fill="#90CAF9"/>
<path d="M4.42108 22.2167H20.8421V23.4732H4.42108V22.2167Z" fill="#42A5F5"/>
<path d="M7.57892 24.7295H18.3158V25.986H7.57892V24.7295ZM7.57892 27.2425H15.7894V28.499H7.57892V27.2425Z" fill="#1976D2"/>
<path d="M45.2632 24.6667L41.9299 20.6667V16.6667H48.5965V20.6667L45.2632 24.6667Z" fill="#FFCEB4"/>
<path d="M51.2632 14C51.9996 14 52.5965 13.403 52.5965 12.6666C52.5965 11.9303 51.9996 11.3333 51.2632 11.3333C50.5268 11.3333 49.9299 11.9303 49.9299 12.6666C49.9299 13.403 50.5268 14 51.2632 14Z" fill="#FFCEB4"/>
<path d="M39.2632 14C39.9996 14 40.5965 13.403 40.5965 12.6666C40.5965 11.9303 39.9996 11.3333 39.2632 11.3333C38.5268 11.3333 37.9299 11.9303 37.9299 12.6666C37.9299 13.403 38.5268 14 39.2632 14Z" fill="#FFCEB4"/>
<path d="M51.2632 8.66668C51.2632 3.60001 39.2632 5.33334 39.2632 8.66668V13.3333C39.2632 16.6667 41.9299 19.3333 45.2632 19.3333C48.5965 19.3333 51.2632 16.6667 51.2632 13.3333V8.66668Z" fill="#FFD7C2"/>
<path d="M45.2632 2.66669C41.1965 2.66669 38.5965 5.93335 38.5965 10V11.5334L39.9298 12.6667V9.33335L47.9298 6.66669L50.5965 9.33335V12.6667L51.9298 11.5334V10C51.9298 7.33335 51.2632 4.66669 47.9298 4.00002L47.2632 2.66669H45.2632Z" fill="#424242"/>
<path d="M45.2632 28.6667L41.9299 20.6667L45.2632 21.3334L48.5965 20.6667L45.2632 28.6667Z" fill="white"/>
<path d="M44.5965 23.3333L44.1299 26.3333L45.2632 29L46.3965 26.3333L45.9299 23.3333L46.5965 22.6666L45.2632 21.3333L43.9299 22.6666L44.5965 23.3333Z" fill="#D32F2F"/>
<path d="M48.5965 20.6667L45.2632 28.6667L41.9299 20.6667C41.9299 20.6667 34.5965 22 34.5965 29.3334H55.9299C55.9299 22 48.5965 20.6667 48.5965 20.6667Z" fill="#546E7A"/>
</svg>
