<svg width="54" height="47" viewBox="0 0 54 47" fill="none" xmlns="http://www.w3.org/2000/svg">
<path d="M12 41.5L9.5 38.5V35.5H14.5V38.5L12 41.5Z" fill="#FFCEB4"/>
<path d="M16.5 33.5C17.0523 33.5 17.5 33.0523 17.5 32.5C17.5 31.9477 17.0523 31.5 16.5 31.5C15.9477 31.5 15.5 31.9477 15.5 32.5C15.5 33.0523 15.9477 33.5 16.5 33.5Z" fill="#FFCEB4"/>
<path d="M7.5 33.5C8.05228 33.5 8.5 33.0523 8.5 32.5C8.5 31.9477 8.05228 31.5 7.5 31.5C6.94772 31.5 6.5 31.9477 6.5 32.5C6.5 33.0523 6.94772 33.5 7.5 33.5Z" fill="#FFCEB4"/>
<path d="M16.5 29.5C16.5 25.7 7.5 27 7.5 29.5V33C7.5 35.5 9.5 37.5 12 37.5C14.5 37.5 16.5 35.5 16.5 33V29.5Z" fill="#FFD7C2"/>
<path d="M12 25C8.95 25 7 27.45 7 30.5V31.65L8 32.5V30L14 28L16 30V32.5L17 31.65V30.5C17 28.5 16.5 26.5 14 26L13.5 25H12Z" fill="#424242"/>
<path d="M12 44.5L9.5 38.5L12 39L14.5 38.5L12 44.5Z" fill="white"/>
<path d="M11.5 40.5L11.15 42.75L12 44.75L12.85 42.75L12.5 40.5L13 40L12 39L11 40L11.5 40.5Z" fill="#D32F2F"/>
<path d="M14.5 38.5L12 44.5L9.5 38.5C9.5 38.5 4 39.5 4 45H20C20 39.5 14.5 38.5 14.5 38.5Z" fill="#546E7A"/>
<g filter="url(#filter0_i_518_1129)">
<path fill-rule="evenodd" clip-rule="evenodd" d="M27.018 32.0641C32.9452 35.1301 40.3948 33.5923 44.5761 28.0999C49.2597 21.9479 48.0692 13.1639 41.9171 8.48031C35.7651 3.79676 26.9811 4.98724 22.2975 11.1393C18.1162 16.6317 18.6167 24.2219 23.1498 29.1192L22.7531 32.2235C22.6555 32.9871 23.4212 33.57 24.1312 33.2727L27.018 32.0641Z" fill="url(#paint0_linear_518_1129)"/>
</g>
<path d="M32.8378 12C35.7778 12 37.7778 13.89 37.7778 16.53C37.797 17.3529 37.5946 18.1659 37.1917 18.8837C36.7888 19.6015 36.2003 20.1978 35.4878 20.61C34.0678 21.53 33.6678 22.14 33.6678 23.32V24H31.1578V23.19C31.0663 22.423 31.2082 21.6463 31.565 20.9613C31.9218 20.2762 32.4769 19.7147 33.1578 19.35C34.4978 18.45 34.9478 17.82 34.9478 16.64C34.9531 16.3626 34.9034 16.0868 34.8015 15.8287C34.6996 15.5706 34.5475 15.3352 34.3541 15.1362C34.1607 14.9373 33.9297 14.7786 33.6746 14.6694C33.4195 14.5602 33.1453 14.5026 32.8678 14.5H32.6978C32.3957 14.4893 32.0945 14.5383 31.8114 14.6441C31.5282 14.7499 31.2687 14.9105 31.0476 15.1167C30.8266 15.3228 30.6484 15.5706 30.5231 15.8457C30.3979 16.1208 30.3281 16.4179 30.3178 16.72V16.89H27.7778C27.7291 15.6439 28.1765 14.4294 29.0219 13.5127C29.8674 12.596 31.0419 12.052 32.2878 12C32.471 11.9899 32.6546 11.9899 32.8378 12Z" fill="#ECEEF2"/>
<path d="M32.7778 30C33.8824 30 34.7778 29.1046 34.7778 28C34.7778 26.8954 33.8824 26 32.7778 26C31.6732 26 30.7778 26.8954 30.7778 28C30.7778 29.1046 31.6732 30 32.7778 30Z" fill="#ECEEF2"/>
<defs>
<filter id="filter0_i_518_1129" x="19.4361" y="4.6189" width="28.0015" height="29.0015" filterUnits="userSpaceOnUse" color-interpolation-filters="sRGB">
<feFlood flood-opacity="0" result="BackgroundImageFix"/>
<feBlend mode="normal" in="SourceGraphic" in2="BackgroundImageFix" result="shape"/>
<feColorMatrix in="SourceAlpha" type="matrix" values="0 0 0 0 0 0 0 0 0 0 0 0 0 0 0 0 0 0 127 0" result="hardAlpha"/>
<feOffset dy="-1"/>
<feGaussianBlur stdDeviation="2"/>
<feComposite in2="hardAlpha" operator="arithmetic" k2="-1" k3="1"/>
<feColorMatrix type="matrix" values="0 0 0 0 0 0 0 0 0 0 0 0 0 0 0 0 0 0 0.2 0"/>
<feBlend mode="normal" in2="shape" result="effect1_innerShadow_518_1129"/>
</filter>
<linearGradient id="paint0_linear_518_1129" x1="41.9171" y1="8.48031" x2="23.1393" y2="33.1459" gradientUnits="userSpaceOnUse">
<stop stop-color="#424242"/>
<stop offset="1" stop-color="#B2B2B2"/>
</linearGradient>
</defs>
</svg>
