<svg width="57" height="32" viewBox="0 0 57 32" fill="none" xmlns="http://www.w3.org/2000/svg">
<g filter="url(#filter0_i_518_1171)">
<path d="M13.0262 2.00879H1.57878C0.706843 2.00879 0 2.7119 0 3.57923V24.3116C0 25.1789 0.706843 25.882 1.57878 25.882H13.0262C13.8981 25.882 14.605 25.1789 14.605 24.3116V3.57923C14.605 2.7119 13.8981 2.00879 13.0262 2.00879Z" fill="url(#paint0_linear_518_1171)"/>
</g>
<g filter="url(#filter1_i_518_1171)">
<path d="M12.9612 22.0735H1.64372C1.53316 22.0732 1.42722 22.0293 1.34908 21.9515C1.27094 21.8737 1.22695 21.7683 1.22672 21.6583V5.05475C1.22695 4.9447 1.271 4.83921 1.34923 4.76139C1.42747 4.68357 1.53351 4.63975 1.64415 4.63953H12.9616C13.0722 4.63986 13.1781 4.68373 13.2562 4.76154C13.3344 4.83935 13.3784 4.94477 13.3786 5.05475V21.6583C13.3819 21.7137 13.3734 21.7691 13.3536 21.821C13.3338 21.8728 13.3031 21.9199 13.2637 21.9591C13.2242 21.9983 13.1769 22.0287 13.1247 22.0484C13.0726 22.068 13.0168 22.0765 12.9612 22.0731V22.0735Z" fill="url(#paint1_linear_518_1171)"/>
</g>
<g filter="url(#filter2_i_518_1171)">
<path d="M6.84707 8.01794C6.4287 8.01907 6.02779 8.18489 5.73196 8.47916C5.43613 8.77343 5.26943 9.17222 5.2683 9.58838V15.9883C5.26794 16.0115 5.27372 16.0344 5.28505 16.0547C5.29638 16.0749 5.31286 16.0919 5.33285 16.1038C5.35284 16.1157 5.37563 16.1222 5.39893 16.1226C5.42224 16.123 5.44524 16.1174 5.46564 16.1061L7.43911 14.3786C7.47022 14.3488 7.50762 14.3263 7.5486 14.3127C7.58957 14.2992 7.63307 14.2948 7.67593 14.3001H18.609C19.0273 14.299 19.4282 14.1332 19.7241 13.8389C20.0199 13.5446 20.1866 13.1458 20.1877 12.7297V9.58881C20.1866 9.17265 20.0199 8.77386 19.7241 8.47959C19.4282 8.18532 19.0273 8.0195 18.609 8.01837L6.84707 8.01794Z" fill="#357AD2"/>
</g>
<path d="M7.30243 24.7197C7.76327 24.7197 8.13686 24.3481 8.13686 23.8897C8.13686 23.4313 7.76327 23.0597 7.30243 23.0597C6.84158 23.0597 6.46799 23.4313 6.46799 23.8897C6.46799 24.3481 6.84158 24.7197 7.30243 24.7197Z" fill="#ECEEF2"/>
<path d="M9.76776 11.7807C10.2286 11.7807 10.6022 11.409 10.6022 10.9506C10.6022 10.4922 10.2286 10.1206 9.76776 10.1206C9.30691 10.1206 8.93332 10.4922 8.93332 10.9506C8.93332 11.409 9.30691 11.7807 9.76776 11.7807Z" fill="#ECEEF2"/>
<path d="M12.7708 11.7807C13.2316 11.7807 13.6052 11.409 13.6052 10.9506C13.6052 10.4922 13.2316 10.1206 12.7708 10.1206C12.3099 10.1206 11.9363 10.4922 11.9363 10.9506C11.9363 11.409 12.3099 11.7807 12.7708 11.7807Z" fill="#ECEEF2"/>
<path d="M15.7739 11.7807C16.2348 11.7807 16.6084 11.409 16.6084 10.9506C16.6084 10.4922 16.2348 10.1206 15.7739 10.1206C15.3131 10.1206 14.9395 10.4922 14.9395 10.9506C14.9395 11.409 15.3131 11.7807 15.7739 11.7807Z" fill="#ECEEF2"/>
<path d="M40.1877 24.6666L36.8544 20.6666V16.6666H43.5211V20.6666L40.1877 24.6666Z" fill="#FFCEB4"/>
<path d="M46.1877 14C46.9241 14 47.5211 13.4031 47.5211 12.6667C47.5211 11.9303 46.9241 11.3334 46.1877 11.3334C45.4514 11.3334 44.8544 11.9303 44.8544 12.6667C44.8544 13.4031 45.4514 14 46.1877 14Z" fill="#FFCEB4"/>
<path d="M34.1877 14C34.9241 14 35.5211 13.4031 35.5211 12.6667C35.5211 11.9303 34.9241 11.3334 34.1877 11.3334C33.4514 11.3334 32.8544 11.9303 32.8544 12.6667C32.8544 13.4031 33.4514 14 34.1877 14Z" fill="#FFCEB4"/>
<path d="M46.1877 8.66661C46.1877 3.59995 34.1877 5.33328 34.1877 8.66661V13.3333C34.1877 16.6666 36.8544 19.3333 40.1877 19.3333C43.5211 19.3333 46.1877 16.6666 46.1877 13.3333V8.66661Z" fill="#FFD7C2"/>
<path d="M40.1877 2.66663C36.1211 2.66663 33.5211 5.93329 33.5211 9.99996V11.5333L34.8544 12.6666V9.33329L42.8544 6.66663L45.5211 9.33329V12.6666L46.8544 11.5333V9.99996C46.8544 7.33329 46.1877 4.66663 42.8544 3.99996L42.1877 2.66663H40.1877Z" fill="#424242"/>
<path d="M40.1877 28.6666L36.8544 20.6666L40.1877 21.3333L43.5211 20.6666L40.1877 28.6666Z" fill="white"/>
<path d="M39.5211 23.3334L39.0544 26.3334L40.1877 29L41.3211 26.3334L40.8544 23.3334L41.5211 22.6667L40.1877 21.3334L38.8544 22.6667L39.5211 23.3334Z" fill="#D32F2F"/>
<path d="M43.5211 20.6666L40.1877 28.6666L36.8544 20.6666C36.8544 20.6666 29.5211 22 29.5211 29.3333H50.8544C50.8544 22 43.5211 20.6666 43.5211 20.6666Z" fill="#546E7A"/>
<defs>
<filter id="filter0_i_518_1171" x="0" y="1.00879" width="14.605" height="24.8733" filterUnits="userSpaceOnUse" color-interpolation-filters="sRGB">
<feFlood flood-opacity="0" result="BackgroundImageFix"/>
<feBlend mode="normal" in="SourceGraphic" in2="BackgroundImageFix" result="shape"/>
<feColorMatrix in="SourceAlpha" type="matrix" values="0 0 0 0 0 0 0 0 0 0 0 0 0 0 0 0 0 0 127 0" result="hardAlpha"/>
<feOffset dy="-1"/>
<feGaussianBlur stdDeviation="2"/>
<feComposite in2="hardAlpha" operator="arithmetic" k2="-1" k3="1"/>
<feColorMatrix type="matrix" values="0 0 0 0 0 0 0 0 0 0 0 0 0 0 0 0 0 0 0.25 0"/>
<feBlend mode="normal" in2="shape" result="effect1_innerShadow_518_1171"/>
</filter>
<filter id="filter1_i_518_1171" x="1.22672" y="4.63953" width="12.1526" height="17.4343" filterUnits="userSpaceOnUse" color-interpolation-filters="sRGB">
<feFlood flood-opacity="0" result="BackgroundImageFix"/>
<feBlend mode="normal" in="SourceGraphic" in2="BackgroundImageFix" result="shape"/>
<feColorMatrix in="SourceAlpha" type="matrix" values="0 0 0 0 0 0 0 0 0 0 0 0 0 0 0 0 0 0 127 0" result="hardAlpha"/>
<feOffset/>
<feGaussianBlur stdDeviation="2"/>
<feComposite in2="hardAlpha" operator="arithmetic" k2="-1" k3="1"/>
<feColorMatrix type="matrix" values="0 0 0 0 0 0 0 0 0 0 0 0 0 0 0 0 0 0 0.25 0"/>
<feBlend mode="normal" in2="shape" result="effect1_innerShadow_518_1171"/>
</filter>
<filter id="filter2_i_518_1171" x="5.26828" y="7.01794" width="14.9195" height="9.10474" filterUnits="userSpaceOnUse" color-interpolation-filters="sRGB">
<feFlood flood-opacity="0" result="BackgroundImageFix"/>
<feBlend mode="normal" in="SourceGraphic" in2="BackgroundImageFix" result="shape"/>
<feColorMatrix in="SourceAlpha" type="matrix" values="0 0 0 0 0 0 0 0 0 0 0 0 0 0 0 0 0 0 127 0" result="hardAlpha"/>
<feOffset dy="-1"/>
<feGaussianBlur stdDeviation="2"/>
<feComposite in2="hardAlpha" operator="arithmetic" k2="-1" k3="1"/>
<feColorMatrix type="matrix" values="0 0 0 0 0 0 0 0 0 0 0 0 0 0 0 0 0 0 0.25 0"/>
<feBlend mode="normal" in2="shape" result="effect1_innerShadow_518_1171"/>
</filter>
<linearGradient id="paint0_linear_518_1171" x1="7.30249" y1="2.00879" x2="7.30249" y2="25.882" gradientUnits="userSpaceOnUse">
<stop stop-color="#BCBCBC"/>
<stop offset="1" stop-color="#87868D"/>
</linearGradient>
<linearGradient id="paint1_linear_518_1171" x1="13.2237" y1="4.57253" x2="2.79465" y2="22.1179" gradientUnits="userSpaceOnUse">
<stop stop-color="#F5F3F5"/>
<stop offset="1" stop-color="#D7C1E7"/>
</linearGradient>
</defs>
</svg>
