<svg width="34" height="24" viewBox="0 0 34 24" fill="none" xmlns="http://www.w3.org/2000/svg">
<path d="M31.3709 0.0100098H2.10751C0.944221 0.0100098 0.00119019 0.94806 0.00119019 2.1052V21.7857C0.00119019 22.9428 0.944221 23.8809 2.10751 23.8809H31.3709C32.5342 23.8809 33.4772 22.9428 33.4772 21.7857V2.1052C33.4772 0.94806 32.5342 0.0100098 31.3709 0.0100098Z" fill="url(#paint0_linear_518_1147)"/>
<path d="M31.3709 0.0100098H2.10751C0.944221 0.0100098 0.00119019 0.94806 0.00119019 2.1052V21.7857C0.00119019 22.9428 0.944221 23.8809 2.10751 23.8809H31.3709C32.5342 23.8809 33.4772 22.9428 33.4772 21.7857V2.1052C33.4772 0.94806 32.5342 0.0100098 31.3709 0.0100098Z" fill="url(#paint1_linear_518_1147)"/>
<path d="M16.7386 0.00998623V23.882H2.10751C1.54888 23.882 1.01313 23.6613 0.618117 23.2684C0.223105 22.8754 0.00119019 22.3425 0.00119019 21.7868V2.10398C0.00119019 0.947436 0.943618 0.00878906 2.10751 0.00878906H16.7386V0.00998623Z" fill="url(#paint2_linear_518_1147)"/>
<path d="M16.7386 0.00998623V23.882H2.10751C1.54888 23.882 1.01313 23.6613 0.618117 23.2684C0.223105 22.8754 0.00119019 22.3425 0.00119019 21.7868V2.10398C0.00119019 0.947436 0.943618 0.00878906 2.10751 0.00878906H16.7386V0.00998623Z" fill="url(#paint3_radial_518_1147)"/>
<path d="M16.7386 0.00998623V23.882H31.3697C31.9283 23.882 32.4641 23.6613 32.8591 23.2684C33.2541 22.8754 33.476 22.3425 33.476 21.7868V2.10398C33.476 1.5483 33.2541 1.01538 32.8591 0.622457C32.4641 0.229532 31.9283 0.00878906 31.3697 0.00878906H16.7386V0.00998623Z" fill="url(#paint4_linear_518_1147)"/>
<path d="M16.7386 0.00998623V23.882H31.3697C31.9283 23.882 32.4641 23.6613 32.8591 23.2684C33.2541 22.8754 33.476 22.3425 33.476 21.7868V2.10398C33.476 1.5483 33.2541 1.01538 32.8591 0.622457C32.4641 0.229532 31.9283 0.00878906 31.3697 0.00878906H16.7386V0.00998623Z" fill="url(#paint5_linear_518_1147)"/>
<path d="M16.7386 0.00998623V23.882H31.3697C31.9283 23.882 32.4641 23.6613 32.8591 23.2684C33.2541 22.8754 33.476 22.3425 33.476 21.7868V2.10398C33.476 1.5483 33.2541 1.01538 32.8591 0.622457C32.4641 0.229532 31.9283 0.00878906 31.3697 0.00878906H16.7386V0.00998623Z" fill="url(#paint6_linear_518_1147)"/>
<path d="M16.7386 0.00998623V23.882H31.3697C31.9283 23.882 32.4641 23.6613 32.8591 23.2684C33.2541 22.8754 33.476 22.3425 33.476 21.7868V2.10398C33.476 1.5483 33.2541 1.01538 32.8591 0.622457C32.4641 0.229532 31.9283 0.00878906 31.3697 0.00878906H16.7386V0.00998623Z" fill="url(#paint7_linear_518_1147)"/>
<g filter="url(#filter0_i_518_1147)">
<path d="M0.00120381 21.7857C0.000994631 21.6309 0.0404531 21.4787 0.11585 21.3434C0.191247 21.208 0.300091 21.0941 0.432096 21.0122L16.4738 11.0391C16.5503 10.9915 16.6388 10.9663 16.729 10.9663C16.8192 10.9663 16.9076 10.9915 16.9842 11.0391L33.08 21.0733C33.3268 21.2265 33.4772 21.4959 33.4772 21.7857C33.4772 22.3413 33.2553 22.8743 32.8603 23.2672C32.4653 23.6601 31.9295 23.8808 31.3709 23.8808H2.10632C1.54769 23.8808 1.01194 23.6601 0.616927 23.2672C0.221915 22.8743 0 22.3413 0 21.7857H0.00120381Z" fill="url(#paint8_linear_518_1147)"/>
</g>
<path d="M0.00120381 21.7857C0.000994631 21.6309 0.0404531 21.4787 0.11585 21.3434C0.191247 21.208 0.300091 21.0941 0.432096 21.0122L16.4738 11.0391C16.5503 10.9915 16.6388 10.9663 16.729 10.9663C16.8192 10.9663 16.9076 10.9915 16.9842 11.0391L33.08 21.0733C33.3268 21.2265 33.4772 21.4959 33.4772 21.7857C33.4772 22.3413 33.2553 22.8743 32.8603 23.2672C32.4653 23.6601 31.9295 23.8808 31.3709 23.8808H2.10632C1.54769 23.8808 1.01194 23.6601 0.616927 23.2672C0.221915 22.8743 0 22.3413 0 21.7857H0.00120381Z" fill="url(#paint9_linear_518_1147)"/>
<path d="M0.00120381 21.7857C0.000994631 21.6309 0.0404531 21.4787 0.11585 21.3434C0.191247 21.208 0.300091 21.0941 0.432096 21.0122L16.4738 11.0391C16.5503 10.9915 16.6388 10.9663 16.729 10.9663C16.8192 10.9663 16.9076 10.9915 16.9842 11.0391L33.08 21.0733C33.3268 21.2265 33.4772 21.4959 33.4772 21.7857C33.4772 22.3413 33.2553 22.8743 32.8603 23.2672C32.4653 23.6601 31.9295 23.8808 31.3709 23.8808H2.10632C1.54769 23.8808 1.01194 23.6601 0.616927 23.2672C0.221915 22.8743 0 22.3413 0 21.7857H0.00120381Z" fill="url(#paint10_linear_518_1147)"/>
<g filter="url(#filter1_ii_518_1147)">
<path d="M0.00120381 2.1052C0.000994631 2.25993 0.0404531 2.41215 0.11585 2.54748C0.191247 2.68282 0.300091 2.79679 0.432096 2.87863L16.4738 12.8518C16.5503 12.8993 16.6388 12.9245 16.729 12.9245C16.8192 12.9245 16.9076 12.8993 16.9842 12.8518L33.08 2.81757C33.2015 2.74206 33.3017 2.63706 33.3712 2.51245C33.4407 2.38784 33.4772 2.2477 33.4772 2.1052C33.4772 1.54952 33.2553 1.0166 32.8603 0.623678C32.4653 0.230753 31.9295 0.0100098 31.3709 0.0100098H2.10632C1.54769 0.0100098 1.01194 0.230753 0.616927 0.623678C0.221915 1.0166 0 1.54952 0 2.1052H0.00120381Z" fill="url(#paint11_linear_518_1147)"/>
<path d="M0.00120381 2.1052C0.000994631 2.25993 0.0404531 2.41215 0.11585 2.54748C0.191247 2.68282 0.300091 2.79679 0.432096 2.87863L16.4738 12.8518C16.5503 12.8993 16.6388 12.9245 16.729 12.9245C16.8192 12.9245 16.9076 12.8993 16.9842 12.8518L33.08 2.81757C33.2015 2.74206 33.3017 2.63706 33.3712 2.51245C33.4407 2.38784 33.4772 2.2477 33.4772 2.1052C33.4772 1.54952 33.2553 1.0166 32.8603 0.623678C32.4653 0.230753 31.9295 0.0100098 31.3709 0.0100098H2.10632C1.54769 0.0100098 1.01194 0.230753 0.616927 0.623678C0.221915 1.0166 0 1.54952 0 2.1052H0.00120381Z" fill="url(#paint12_linear_518_1147)"/>
<path d="M0.00120381 2.1052C0.000994631 2.25993 0.0404531 2.41215 0.11585 2.54748C0.191247 2.68282 0.300091 2.79679 0.432096 2.87863L16.4738 12.8518C16.5503 12.8993 16.6388 12.9245 16.729 12.9245C16.8192 12.9245 16.9076 12.8993 16.9842 12.8518L33.08 2.81757C33.2015 2.74206 33.3017 2.63706 33.3712 2.51245C33.4407 2.38784 33.4772 2.2477 33.4772 2.1052C33.4772 1.54952 33.2553 1.0166 32.8603 0.623678C32.4653 0.230753 31.9295 0.0100098 31.3709 0.0100098H2.10632C1.54769 0.0100098 1.01194 0.230753 0.616927 0.623678C0.221915 1.0166 0 1.54952 0 2.1052H0.00120381Z" fill="url(#paint13_linear_518_1147)"/>
<path d="M0.00120381 2.1052C0.000994631 2.25993 0.0404531 2.41215 0.11585 2.54748C0.191247 2.68282 0.300091 2.79679 0.432096 2.87863L16.4738 12.8518C16.5503 12.8993 16.6388 12.9245 16.729 12.9245C16.8192 12.9245 16.9076 12.8993 16.9842 12.8518L33.08 2.81757C33.2015 2.74206 33.3017 2.63706 33.3712 2.51245C33.4407 2.38784 33.4772 2.2477 33.4772 2.1052C33.4772 1.54952 33.2553 1.0166 32.8603 0.623678C32.4653 0.230753 31.9295 0.0100098 31.3709 0.0100098H2.10632C1.54769 0.0100098 1.01194 0.230753 0.616927 0.623678C0.221915 1.0166 0 1.54952 0 2.1052H0.00120381Z" fill="url(#paint14_radial_518_1147)"/>
</g>
<g filter="url(#filter2_f_518_1147)">
<path d="M15.931 20.8912C18.1656 20.8912 20.3086 20.0082 21.8886 18.4365C23.4687 16.8648 24.3563 14.7331 24.3563 12.5104C24.3563 10.2877 23.4687 8.15601 21.8886 6.58431C20.3086 5.01261 18.1656 4.12964 15.931 4.12964C13.6965 4.12964 11.5535 5.01261 9.97347 6.58431C8.39342 8.15601 7.50576 10.2877 7.50576 12.5104C7.50576 14.7331 8.39342 16.8648 9.97347 18.4365C11.5535 20.0082 13.6965 20.8912 15.931 20.8912V20.8912Z" fill="#C2A5D0"/>
</g>
<g filter="url(#filter3_iii_518_1147)">
<path d="M16.682 20.3261C18.9166 20.3261 21.0596 19.4432 22.6396 17.8715C24.2197 16.2998 25.1073 14.1681 25.1073 11.9454C25.1073 9.72263 24.2197 7.59095 22.6396 6.01925C21.0596 4.44755 18.9166 3.56458 16.682 3.56458C14.4475 3.56458 12.3045 4.44755 10.7245 6.01925C9.14442 7.59095 8.25676 9.72263 8.25676 11.9454C8.25676 14.1681 9.14442 16.2998 10.7245 17.8715C12.3045 19.4432 14.4475 20.3261 16.682 20.3261V20.3261Z" fill="url(#paint15_linear_518_1147)"/>
</g>
<g filter="url(#filter4_iii_518_1147)">
<path d="M16.682 6.55776C15.2257 6.53381 13.8415 7.08455 12.8064 8.11419C11.7593 9.13185 11.1936 10.4967 11.1936 11.9454C11.1936 14.9146 13.6249 17.333 16.6098 17.333C16.7598 17.333 16.9037 17.2738 17.0098 17.1682C17.1159 17.0627 17.1755 16.9196 17.1755 16.7703C17.1755 16.6211 17.1159 16.478 17.0098 16.3724C16.9037 16.2669 16.7598 16.2076 16.6098 16.2076C14.2507 16.2076 12.325 14.292 12.325 11.9454C12.325 10.796 12.7823 9.71851 13.6008 8.91635C14.4192 8.11419 15.5145 7.68317 16.67 7.68317C18.993 7.71909 20.8947 9.65864 20.8947 12.0172V12.987C20.8947 13.1998 20.8097 13.4038 20.6585 13.5542C20.5072 13.7047 20.3021 13.7892 20.0882 13.7892C19.8744 13.7892 19.6693 13.7047 19.518 13.5542C19.3668 13.4038 19.2818 13.1998 19.2818 12.987V9.29947C19.2818 9.15023 19.2222 9.0071 19.1161 8.90157C19.01 8.79604 18.8662 8.73676 18.7161 8.73676C18.4032 8.73676 18.1264 8.98818 18.1264 9.29947V9.40722C17.5968 8.98818 16.9348 8.72479 16.2006 8.72479C14.5155 8.72479 13.1434 10.0897 13.1434 11.7658C13.1434 13.442 14.5155 14.8068 16.2006 14.8068C17.0431 14.8068 17.8134 14.4596 18.3671 13.9089C18.7041 14.5075 19.342 14.9146 20.0762 14.9146C21.1474 14.9146 22.0261 14.0406 22.0261 12.975V12.0053C22.0261 9.04804 19.6309 6.59367 16.682 6.55776V6.55776ZM16.2126 13.6934C15.1534 13.6934 14.2868 12.8314 14.2868 11.7778C14.2868 10.7242 15.1534 9.86218 16.2126 9.86218C17.2718 9.86218 18.1384 10.7242 18.1384 11.7778C18.1384 12.8314 17.2718 13.6934 16.2126 13.6934V13.6934Z" fill="#E6E0ED"/>
</g>
<defs>
<filter id="filter0_i_518_1147" x="0" y="10.2163" width="33.4772" height="13.6646" filterUnits="userSpaceOnUse" color-interpolation-filters="sRGB">
<feFlood flood-opacity="0" result="BackgroundImageFix"/>
<feBlend mode="normal" in="SourceGraphic" in2="BackgroundImageFix" result="shape"/>
<feColorMatrix in="SourceAlpha" type="matrix" values="0 0 0 0 0 0 0 0 0 0 0 0 0 0 0 0 0 0 127 0" result="hardAlpha"/>
<feOffset dy="-0.75"/>
<feGaussianBlur stdDeviation="0.75"/>
<feComposite in2="hardAlpha" operator="arithmetic" k2="-1" k3="1"/>
<feColorMatrix type="matrix" values="0 0 0 0 0.819608 0 0 0 0 0.654902 0 0 0 0 0.933333 0 0 0 1 0"/>
<feBlend mode="normal" in2="shape" result="effect1_innerShadow_518_1147"/>
</filter>
<filter id="filter1_ii_518_1147" x="0" y="-0.13999" width="33.4772" height="13.3146" filterUnits="userSpaceOnUse" color-interpolation-filters="sRGB">
<feFlood flood-opacity="0" result="BackgroundImageFix"/>
<feBlend mode="normal" in="SourceGraphic" in2="BackgroundImageFix" result="shape"/>
<feColorMatrix in="SourceAlpha" type="matrix" values="0 0 0 0 0 0 0 0 0 0 0 0 0 0 0 0 0 0 127 0" result="hardAlpha"/>
<feOffset dy="-0.15"/>
<feGaussianBlur stdDeviation="0.225"/>
<feComposite in2="hardAlpha" operator="arithmetic" k2="-1" k3="1"/>
<feColorMatrix type="matrix" values="0 0 0 0 0.827451 0 0 0 0 0.686275 0 0 0 0 0.913725 0 0 0 1 0"/>
<feBlend mode="normal" in2="shape" result="effect1_innerShadow_518_1147"/>
<feColorMatrix in="SourceAlpha" type="matrix" values="0 0 0 0 0 0 0 0 0 0 0 0 0 0 0 0 0 0 127 0" result="hardAlpha"/>
<feOffset dy="0.25"/>
<feGaussianBlur stdDeviation="0.3"/>
<feComposite in2="hardAlpha" operator="arithmetic" k2="-1" k3="1"/>
<feColorMatrix type="matrix" values="0 0 0 0 0.870588 0 0 0 0 0.858824 0 0 0 0 0.854902 0 0 0 1 0"/>
<feBlend mode="normal" in2="effect1_innerShadow_518_1147" result="effect2_innerShadow_518_1147"/>
</filter>
<filter id="filter2_f_518_1147" x="6.00576" y="2.62964" width="19.8505" height="19.7616" filterUnits="userSpaceOnUse" color-interpolation-filters="sRGB">
<feFlood flood-opacity="0" result="BackgroundImageFix"/>
<feBlend mode="normal" in="SourceGraphic" in2="BackgroundImageFix" result="shape"/>
<feGaussianBlur stdDeviation="0.75" result="effect1_foregroundBlur_518_1147"/>
</filter>
<filter id="filter3_iii_518_1147" x="8.10676" y="3.31458" width="17.2505" height="17.2616" filterUnits="userSpaceOnUse" color-interpolation-filters="sRGB">
<feFlood flood-opacity="0" result="BackgroundImageFix"/>
<feBlend mode="normal" in="SourceGraphic" in2="BackgroundImageFix" result="shape"/>
<feColorMatrix in="SourceAlpha" type="matrix" values="0 0 0 0 0 0 0 0 0 0 0 0 0 0 0 0 0 0 127 0" result="hardAlpha"/>
<feOffset dx="0.25"/>
<feGaussianBlur stdDeviation="0.125"/>
<feComposite in2="hardAlpha" operator="arithmetic" k2="-1" k3="1"/>
<feColorMatrix type="matrix" values="0 0 0 0 0.192157 0 0 0 0 0.376471 0 0 0 0 0.721569 0 0 0 1 0"/>
<feBlend mode="normal" in2="shape" result="effect1_innerShadow_518_1147"/>
<feColorMatrix in="SourceAlpha" type="matrix" values="0 0 0 0 0 0 0 0 0 0 0 0 0 0 0 0 0 0 127 0" result="hardAlpha"/>
<feOffset dy="-0.25"/>
<feGaussianBlur stdDeviation="0.125"/>
<feComposite in2="hardAlpha" operator="arithmetic" k2="-1" k3="1"/>
<feColorMatrix type="matrix" values="0 0 0 0 0.32549 0 0 0 0 0.341176 0 0 0 0 0.819608 0 0 0 1 0"/>
<feBlend mode="normal" in2="effect1_innerShadow_518_1147" result="effect2_innerShadow_518_1147"/>
<feColorMatrix in="SourceAlpha" type="matrix" values="0 0 0 0 0 0 0 0 0 0 0 0 0 0 0 0 0 0 127 0" result="hardAlpha"/>
<feOffset dx="-0.15" dy="0.25"/>
<feGaussianBlur stdDeviation="0.125"/>
<feComposite in2="hardAlpha" operator="arithmetic" k2="-1" k3="1"/>
<feColorMatrix type="matrix" values="0 0 0 0 0.317647 0 0 0 0 0.596078 0 0 0 0 0.882353 0 0 0 1 0"/>
<feBlend mode="normal" in2="effect2_innerShadow_518_1147" result="effect3_innerShadow_518_1147"/>
</filter>
<filter id="filter4_iii_518_1147" x="11.0436" y="6.30701" width="10.9825" height="11.176" filterUnits="userSpaceOnUse" color-interpolation-filters="sRGB">
<feFlood flood-opacity="0" result="BackgroundImageFix"/>
<feBlend mode="normal" in="SourceGraphic" in2="BackgroundImageFix" result="shape"/>
<feColorMatrix in="SourceAlpha" type="matrix" values="0 0 0 0 0 0 0 0 0 0 0 0 0 0 0 0 0 0 127 0" result="hardAlpha"/>
<feOffset dx="-0.15" dy="0.15"/>
<feGaussianBlur stdDeviation="0.125"/>
<feComposite in2="hardAlpha" operator="arithmetic" k2="-1" k3="1"/>
<feColorMatrix type="matrix" values="0 0 0 0 0.152941 0 0 0 0 0.341176 0 0 0 0 0.768627 0 0 0 1 0"/>
<feBlend mode="normal" in2="shape" result="effect1_innerShadow_518_1147"/>
<feColorMatrix in="SourceAlpha" type="matrix" values="0 0 0 0 0 0 0 0 0 0 0 0 0 0 0 0 0 0 127 0" result="hardAlpha"/>
<feOffset dy="-0.25"/>
<feGaussianBlur stdDeviation="0.2"/>
<feComposite in2="hardAlpha" operator="arithmetic" k2="-1" k3="1"/>
<feColorMatrix type="matrix" values="0 0 0 0 0.803922 0 0 0 0 0.713726 0 0 0 0 0.921569 0 0 0 1 0"/>
<feBlend mode="normal" in2="effect1_innerShadow_518_1147" result="effect2_innerShadow_518_1147"/>
<feColorMatrix in="SourceAlpha" type="matrix" values="0 0 0 0 0 0 0 0 0 0 0 0 0 0 0 0 0 0 127 0" result="hardAlpha"/>
<feOffset dx="-0.15" dy="0.15"/>
<feGaussianBlur stdDeviation="0.15"/>
<feComposite in2="hardAlpha" operator="arithmetic" k2="-1" k3="1"/>
<feColorMatrix type="matrix" values="0 0 0 0 0.917647 0 0 0 0 0.890196 0 0 0 0 0.952941 0 0 0 1 0"/>
<feBlend mode="normal" in2="effect2_innerShadow_518_1147" result="effect3_innerShadow_518_1147"/>
</filter>
<linearGradient id="paint0_linear_518_1147" x1="2.40841" y1="13.3295" x2="33.476" y2="13.1032" gradientUnits="userSpaceOnUse">
<stop stop-color="#DFD0E6"/>
<stop offset="1" stop-color="#EEE5F8"/>
</linearGradient>
<linearGradient id="paint1_linear_518_1147" x1="0.00119019" y1="13.2564" x2="3.65776" y2="13.2564" gradientUnits="userSpaceOnUse">
<stop stop-color="#D6BABD"/>
<stop offset="1" stop-color="#DCC9DD" stop-opacity="0"/>
</linearGradient>
<linearGradient id="paint2_linear_518_1147" x1="10.5244" y1="15.5048" x2="9.61407" y2="14.0793" gradientUnits="userSpaceOnUse">
<stop offset="0.114" stop-color="#DAC3DF"/>
<stop offset="1" stop-color="#DAC3DF" stop-opacity="0"/>
</linearGradient>
<radialGradient id="paint3_radial_518_1147" cx="0" cy="0" r="1" gradientUnits="userSpaceOnUse" gradientTransform="translate(12.072 8.80868) rotate(123.83) scale(3.26813 22.9989)">
<stop offset="0.342" stop-color="#C8A6D7"/>
<stop offset="1" stop-color="#D1BBDD" stop-opacity="0"/>
</radialGradient>
<linearGradient id="paint4_linear_518_1147" x1="22.8698" y1="15.8736" x2="23.8607" y2="14.0792" gradientUnits="userSpaceOnUse">
<stop offset="0.114" stop-color="#F6EFFE"/>
<stop offset="1" stop-color="#F3EAFD" stop-opacity="0"/>
</linearGradient>
<linearGradient id="paint5_linear_518_1147" x1="21.7408" y1="9.47667" x2="23.0115" y2="11.2036" gradientUnits="userSpaceOnUse">
<stop stop-color="#E3CDF7"/>
<stop offset="1" stop-color="#E9D9F8" stop-opacity="0"/>
</linearGradient>
<linearGradient id="paint6_linear_518_1147" x1="33.7023" y1="16.2112" x2="29.2261" y2="16.2112" gradientUnits="userSpaceOnUse">
<stop stop-color="#F7F3FB"/>
<stop offset="1" stop-color="#F0E9F8" stop-opacity="0"/>
</linearGradient>
<linearGradient id="paint7_linear_518_1147" x1="33.7023" y1="16.2112" x2="32.2267" y2="16.2112" gradientUnits="userSpaceOnUse">
<stop offset="0.199" stop-color="#EBE9ED"/>
<stop offset="1" stop-color="#EBE9ED" stop-opacity="0"/>
</linearGradient>
<linearGradient id="paint8_linear_518_1147" x1="16.7386" y1="25.976" x2="16.7386" y2="13.0301" gradientUnits="userSpaceOnUse">
<stop stop-color="#DDC5F1"/>
<stop offset="1" stop-color="#E6DAF1"/>
</linearGradient>
<linearGradient id="paint9_linear_518_1147" x1="6.49107" y1="16.8613" x2="7.0359" y2="17.6841" gradientUnits="userSpaceOnUse">
<stop offset="0.073" stop-color="#DDC2C8"/>
<stop offset="1" stop-color="#DFCDDA" stop-opacity="0"/>
</linearGradient>
<linearGradient id="paint10_linear_518_1147" x1="24.6596" y1="15.7275" x2="24.3167" y2="16.2644" gradientUnits="userSpaceOnUse">
<stop offset="0.14" stop-color="#F8F3FD"/>
<stop offset="1" stop-color="#F1EAF9" stop-opacity="0"/>
</linearGradient>
<linearGradient id="paint11_linear_518_1147" x1="16.7386" y1="0.0100098" x2="16.7386" y2="12.926" gradientUnits="userSpaceOnUse">
<stop stop-color="#E9E4E9"/>
<stop offset="1" stop-color="#E7DCF0"/>
</linearGradient>
<linearGradient id="paint12_linear_518_1147" x1="9.28827" y1="8.20761" x2="13.6031" y2="0.423983" gradientUnits="userSpaceOnUse">
<stop stop-color="#E1D5E7"/>
<stop offset="1" stop-color="#E1D5E7" stop-opacity="0"/>
</linearGradient>
<linearGradient id="paint13_linear_518_1147" x1="0.00120361" y1="1.97111" x2="3.53019" y2="1.97111" gradientUnits="userSpaceOnUse">
<stop stop-color="#E1C1BC"/>
<stop offset="1" stop-color="#E9D1CD" stop-opacity="0"/>
</linearGradient>
<radialGradient id="paint14_radial_518_1147" cx="0" cy="0" r="1" gradientUnits="userSpaceOnUse" gradientTransform="translate(30.5287 4.8982) rotate(-138.384) scale(7.35974 32.5912)">
<stop stop-color="#FBF9FE"/>
<stop offset="1" stop-color="#F0ECF1" stop-opacity="0"/>
</radialGradient>
<linearGradient id="paint15_linear_518_1147" x1="24.4875" y1="9.88727" x2="10.3629" y2="15.0994" gradientUnits="userSpaceOnUse">
<stop stop-color="#347BD7"/>
<stop offset="1" stop-color="#3477CB"/>
</linearGradient>
</defs>
</svg>
