<svg width="24" height="32" viewBox="0 0 24 32" fill="none" xmlns="http://www.w3.org/2000/svg">
<path d="M0.103355 29.1486C0.103355 29.1486 1.04636 32.7756 6.94647 31.8481L7.94987 29.4196L6.25277 27.5754L1.55322 26.0254L0.101807 29.1491" fill="#34484C"/>
<path d="M18.9066 22.3493C18.9066 23.6345 18.2433 23.971 16.5767 24.6771L2.32835 30.6918C2.02248 30.6919 1.7196 30.6317 1.43701 30.5146C1.15443 30.3976 0.897678 30.226 0.681443 30.0097C0.465208 29.7933 0.293727 29.5365 0.176801 29.2539C0.0598753 28.9712 -0.000202953 28.6683 5.15091e-07 28.3624V8.34511C5.15091e-07 7.0568 0.755644 6.62995 2.32835 6.0147L16.5767 5.73945e-08C17.1942 -0.000136931 17.7864 0.244952 18.2232 0.68138C18.66 1.11781 18.9057 1.70984 18.9061 2.32732V22.3488" fill="#1EA0CD"/>
<path d="M1.29553 30.4464C1.29553 30.4464 6.63562 31.9793 6.94634 31.8472C7.25861 31.7145 6.74762 29.5312 6.74762 29.5312L4.81619 27.4506L3.01844 27.368L2.70204 27.8171L1.29501 30.4464" fill="#34484C"/>
<path d="M16.2423 1.38477L0.436768 8.02659L1.17744 12.2812L3.52851 12.5166L11.3812 11.252L16.2635 8.69345L19.8574 3.77196C19.0718 2.36339 17.9193 1.49161 16.2428 1.38477" fill="#F4F5F5"/>
<path d="M4.62383 9.49837C4.62383 9.12675 4.68783 8.82738 4.81635 8.57446C3.20029 8.42478 1.673 7.9556 0.556565 6.95117C0.188033 7.2908 0.00634857 7.71404 0.00634857 8.34478V28.3631C0.00607729 28.669 0.0660749 28.9718 0.182912 29.2544C0.29975 29.537 0.471136 29.7938 0.687275 30.0101C0.903414 30.2265 1.16007 30.3981 1.44257 30.5152C1.72506 30.6323 2.02787 30.6925 2.33367 30.6925L4.63364 29.7217C4.62715 29.6541 4.62371 29.5862 4.62331 29.5183V9.49837H4.62383Z" fill="#34484C"/>
<path d="M23.9348 24.3229C23.9348 25.6107 23.2746 25.9462 21.6059 26.6523L6.94828 31.8494C6.33053 31.8492 5.73812 31.6038 5.30131 31.167C4.86449 30.7302 4.61903 30.1377 4.6189 29.52V9.5006C4.6189 8.21435 5.37557 7.78594 6.94828 7.17224L21.6059 1.97461C22.2236 1.97475 22.816 2.22022 23.2527 2.65705C23.6894 3.09388 23.9348 3.68629 23.9348 4.304V24.3229Z" fill="#57C6E9"/>
<path d="M17.8658 8.08403C17.8808 8.12269 17.8881 8.16393 17.8871 8.2054C17.8861 8.24686 17.8769 8.28773 17.8601 8.32563C17.8432 8.36353 17.8191 8.39773 17.789 8.42625C17.7588 8.45477 17.7234 8.47704 17.6846 8.49179L9.88868 11.4984C9.81083 11.5284 9.72426 11.5265 9.64786 11.4929C9.57147 11.4593 9.51145 11.3969 9.48092 11.3193C9.45089 11.241 9.45303 11.1541 9.48688 11.0774C9.52072 11.0007 9.58352 10.9405 9.66157 10.91L17.458 7.90493C17.4966 7.88991 17.5377 7.88262 17.579 7.88349C17.6204 7.88436 17.6611 7.89337 17.699 7.91C17.7369 7.92664 17.7711 7.95057 17.7997 7.98043C17.8283 8.01029 17.8508 8.04549 17.8658 8.08403M17.8658 9.5179C17.8806 9.55642 17.8877 9.5975 17.8867 9.63878C17.8856 9.68005 17.8764 9.72071 17.8595 9.75841C17.8427 9.79611 17.8186 9.83012 17.7886 9.85846C17.7585 9.88681 17.7232 9.90894 17.6846 9.92359L9.88868 12.9296C9.812 12.9545 9.72872 12.949 9.65595 12.9144C9.58318 12.8797 9.52644 12.8185 9.49737 12.7433C9.46831 12.6682 9.46913 12.5847 9.49966 12.5101C9.5302 12.4355 9.58813 12.3755 9.66157 12.3423L17.458 9.33621C17.5362 9.30644 17.623 9.30884 17.6994 9.34288C17.7758 9.37693 17.8356 9.43986 17.8658 9.5179M15.2143 12.0202C15.2752 12.1833 15.237 12.3485 15.1266 12.3918L9.80145 14.4435C9.69151 14.4864 9.55163 14.3909 9.48814 14.2283C9.42621 14.0647 9.4644 13.8979 9.57486 13.8572L14.8989 11.8029C15.011 11.7616 15.1508 11.8576 15.2148 12.0197" fill="#198BA9"/>
</svg>
