<svg width="34" height="25" viewBox="0 0 34 25" fill="none" xmlns="http://www.w3.org/2000/svg">
<path d="M31.3709 0.487061H2.10751C0.944221 0.487061 0.00119019 1.42511 0.00119019 2.58225V22.2627C0.00119019 23.4199 0.944221 24.3579 2.10751 24.3579H31.3709C32.5342 24.3579 33.4772 23.4199 33.4772 22.2627V2.58225C33.4772 1.42511 32.5342 0.487061 31.3709 0.487061Z" fill="url(#paint0_linear_518_1201)"/>
<path d="M31.3709 0.487061H2.10751C0.944221 0.487061 0.00119019 1.42511 0.00119019 2.58225V22.2627C0.00119019 23.4199 0.944221 24.3579 2.10751 24.3579H31.3709C32.5342 24.3579 33.4772 23.4199 33.4772 22.2627V2.58225C33.4772 1.42511 32.5342 0.487061 31.3709 0.487061Z" fill="url(#paint1_linear_518_1201)"/>
<path d="M16.7386 0.487037V24.3591H2.10751C1.54888 24.3591 1.01313 24.1383 0.618117 23.7454C0.223105 23.3525 0.00119019 22.8196 0.00119019 22.2639V2.58103C0.00119019 1.42449 0.943618 0.48584 2.10751 0.48584H16.7386V0.487037Z" fill="url(#paint2_linear_518_1201)"/>
<path d="M16.7386 0.487037V24.3591H2.10751C1.54888 24.3591 1.01313 24.1383 0.618117 23.7454C0.223105 23.3525 0.00119019 22.8196 0.00119019 22.2639V2.58103C0.00119019 1.42449 0.943618 0.48584 2.10751 0.48584H16.7386V0.487037Z" fill="url(#paint3_radial_518_1201)"/>
<path d="M16.7386 0.487037V24.3591H31.3697C31.9283 24.3591 32.4641 24.1383 32.8591 23.7454C33.2541 23.3525 33.476 22.8196 33.476 22.2639V2.58103C33.476 2.02535 33.2541 1.49243 32.8591 1.09951C32.4641 0.706582 31.9283 0.48584 31.3697 0.48584H16.7386V0.487037Z" fill="url(#paint4_linear_518_1201)"/>
<path d="M16.7386 0.487037V24.3591H31.3697C31.9283 24.3591 32.4641 24.1383 32.8591 23.7454C33.2541 23.3525 33.476 22.8196 33.476 22.2639V2.58103C33.476 2.02535 33.2541 1.49243 32.8591 1.09951C32.4641 0.706582 31.9283 0.48584 31.3697 0.48584H16.7386V0.487037Z" fill="url(#paint5_linear_518_1201)"/>
<path d="M16.7386 0.487037V24.3591H31.3697C31.9283 24.3591 32.4641 24.1383 32.8591 23.7454C33.2541 23.3525 33.476 22.8196 33.476 22.2639V2.58103C33.476 2.02535 33.2541 1.49243 32.8591 1.09951C32.4641 0.706582 31.9283 0.48584 31.3697 0.48584H16.7386V0.487037Z" fill="url(#paint6_linear_518_1201)"/>
<path d="M16.7386 0.487037V24.3591H31.3697C31.9283 24.3591 32.4641 24.1383 32.8591 23.7454C33.2541 23.3525 33.476 22.8196 33.476 22.2639V2.58103C33.476 2.02535 33.2541 1.49243 32.8591 1.09951C32.4641 0.706582 31.9283 0.48584 31.3697 0.48584H16.7386V0.487037Z" fill="url(#paint7_linear_518_1201)"/>
<g filter="url(#filter0_i_518_1201)">
<path d="M0.00120381 22.2627C0.000994631 22.108 0.0404531 21.9558 0.11585 21.8204C0.191247 21.6851 0.300091 21.5711 0.432096 21.4893L16.4738 11.5162C16.5503 11.4686 16.6388 11.4434 16.729 11.4434C16.8192 11.4434 16.9076 11.4686 16.9842 11.5162L33.08 21.5503C33.3268 21.7036 33.4772 21.973 33.4772 22.2627C33.4772 22.8184 33.2553 23.3513 32.8603 23.7442C32.4653 24.1372 31.9295 24.3579 31.3709 24.3579H2.10632C1.54769 24.3579 1.01194 24.1372 0.616927 23.7442C0.221915 23.3513 0 22.8184 0 22.2627H0.00120381Z" fill="url(#paint8_linear_518_1201)"/>
</g>
<path d="M0.00120381 22.2627C0.000994631 22.108 0.0404531 21.9558 0.11585 21.8204C0.191247 21.6851 0.300091 21.5711 0.432096 21.4893L16.4738 11.5162C16.5503 11.4686 16.6388 11.4434 16.729 11.4434C16.8192 11.4434 16.9076 11.4686 16.9842 11.5162L33.08 21.5503C33.3268 21.7036 33.4772 21.973 33.4772 22.2627C33.4772 22.8184 33.2553 23.3513 32.8603 23.7442C32.4653 24.1372 31.9295 24.3579 31.3709 24.3579H2.10632C1.54769 24.3579 1.01194 24.1372 0.616927 23.7442C0.221915 23.3513 0 22.8184 0 22.2627H0.00120381Z" fill="url(#paint9_linear_518_1201)"/>
<path d="M0.00120381 22.2627C0.000994631 22.108 0.0404531 21.9558 0.11585 21.8204C0.191247 21.6851 0.300091 21.5711 0.432096 21.4893L16.4738 11.5162C16.5503 11.4686 16.6388 11.4434 16.729 11.4434C16.8192 11.4434 16.9076 11.4686 16.9842 11.5162L33.08 21.5503C33.3268 21.7036 33.4772 21.973 33.4772 22.2627C33.4772 22.8184 33.2553 23.3513 32.8603 23.7442C32.4653 24.1372 31.9295 24.3579 31.3709 24.3579H2.10632C1.54769 24.3579 1.01194 24.1372 0.616927 23.7442C0.221915 23.3513 0 22.8184 0 22.2627H0.00120381Z" fill="url(#paint10_linear_518_1201)"/>
<g filter="url(#filter1_ii_518_1201)">
<path d="M0.00120381 2.58225C0.000994631 2.73698 0.0404531 2.8892 0.11585 3.02453C0.191247 3.15987 0.300091 3.27384 0.432096 3.35568L16.4738 13.3288C16.5503 13.3764 16.6388 13.4016 16.729 13.4016C16.8192 13.4016 16.9076 13.3764 16.9842 13.3288L33.08 3.29462C33.2015 3.21911 33.3017 3.11411 33.3712 2.9895C33.4407 2.86489 33.4772 2.72475 33.4772 2.58225C33.4772 2.02657 33.2553 1.49365 32.8603 1.10073C32.4653 0.707804 31.9295 0.487061 31.3709 0.487061H2.10632C1.54769 0.487061 1.01194 0.707804 0.616927 1.10073C0.221915 1.49365 0 2.02657 0 2.58225H0.00120381Z" fill="url(#paint11_linear_518_1201)"/>
<path d="M0.00120381 2.58225C0.000994631 2.73698 0.0404531 2.8892 0.11585 3.02453C0.191247 3.15987 0.300091 3.27384 0.432096 3.35568L16.4738 13.3288C16.5503 13.3764 16.6388 13.4016 16.729 13.4016C16.8192 13.4016 16.9076 13.3764 16.9842 13.3288L33.08 3.29462C33.2015 3.21911 33.3017 3.11411 33.3712 2.9895C33.4407 2.86489 33.4772 2.72475 33.4772 2.58225C33.4772 2.02657 33.2553 1.49365 32.8603 1.10073C32.4653 0.707804 31.9295 0.487061 31.3709 0.487061H2.10632C1.54769 0.487061 1.01194 0.707804 0.616927 1.10073C0.221915 1.49365 0 2.02657 0 2.58225H0.00120381Z" fill="url(#paint12_linear_518_1201)"/>
<path d="M0.00120381 2.58225C0.000994631 2.73698 0.0404531 2.8892 0.11585 3.02453C0.191247 3.15987 0.300091 3.27384 0.432096 3.35568L16.4738 13.3288C16.5503 13.3764 16.6388 13.4016 16.729 13.4016C16.8192 13.4016 16.9076 13.3764 16.9842 13.3288L33.08 3.29462C33.2015 3.21911 33.3017 3.11411 33.3712 2.9895C33.4407 2.86489 33.4772 2.72475 33.4772 2.58225C33.4772 2.02657 33.2553 1.49365 32.8603 1.10073C32.4653 0.707804 31.9295 0.487061 31.3709 0.487061H2.10632C1.54769 0.487061 1.01194 0.707804 0.616927 1.10073C0.221915 1.49365 0 2.02657 0 2.58225H0.00120381Z" fill="url(#paint13_linear_518_1201)"/>
<path d="M0.00120381 2.58225C0.000994631 2.73698 0.0404531 2.8892 0.11585 3.02453C0.191247 3.15987 0.300091 3.27384 0.432096 3.35568L16.4738 13.3288C16.5503 13.3764 16.6388 13.4016 16.729 13.4016C16.8192 13.4016 16.9076 13.3764 16.9842 13.3288L33.08 3.29462C33.2015 3.21911 33.3017 3.11411 33.3712 2.9895C33.4407 2.86489 33.4772 2.72475 33.4772 2.58225C33.4772 2.02657 33.2553 1.49365 32.8603 1.10073C32.4653 0.707804 31.9295 0.487061 31.3709 0.487061H2.10632C1.54769 0.487061 1.01194 0.707804 0.616927 1.10073C0.221915 1.49365 0 2.02657 0 2.58225H0.00120381Z" fill="url(#paint14_radial_518_1201)"/>
</g>
<g filter="url(#filter2_f_518_1201)">
<path d="M15.931 21.3684C18.1656 21.3684 20.3086 20.4854 21.8886 18.9137C23.4687 17.342 24.3563 15.2103 24.3563 12.9876C24.3563 10.7649 23.4687 8.63318 21.8886 7.06148C20.3086 5.48978 18.1656 4.60681 15.931 4.60681C13.6965 4.60681 11.5535 5.48978 9.97347 7.06148C8.39342 8.63318 7.50576 10.7649 7.50576 12.9876C7.50576 15.2103 8.39342 17.342 9.97347 18.9137C11.5535 20.4854 13.6965 21.3684 15.931 21.3684V21.3684Z" fill="#C2A5D0"/>
</g>
<g filter="url(#filter3_iii_518_1201)">
<path d="M16.682 20.8033C18.9166 20.8033 21.0596 19.9203 22.6396 18.3486C24.2197 16.7769 25.1073 14.6452 25.1073 12.4225C25.1073 10.1998 24.2197 8.06812 22.6396 6.49642C21.0596 4.92472 18.9166 4.04175 16.682 4.04175C14.4475 4.04175 12.3045 4.92472 10.7245 6.49642C9.14442 8.06812 8.25676 10.1998 8.25676 12.4225C8.25676 14.6452 9.14442 16.7769 10.7245 18.3486C12.3045 19.9203 14.4475 20.8033 16.682 20.8033V20.8033Z" fill="url(#paint15_linear_518_1201)"/>
</g>
<g filter="url(#filter4_iii_518_1201)">
<path d="M16.682 7.03481C15.2257 7.01086 13.8415 7.5616 12.8064 8.59124C11.7593 9.6089 11.1936 10.9738 11.1936 12.4224C11.1936 15.3916 13.6249 17.8101 16.6098 17.8101C16.7598 17.8101 16.9037 17.7508 17.0098 17.6453C17.1159 17.5397 17.1755 17.3966 17.1755 17.2474C17.1755 17.0981 17.1159 16.955 17.0098 16.8495C16.9037 16.744 16.7598 16.6847 16.6098 16.6847C14.2507 16.6847 12.325 14.7691 12.325 12.4224C12.325 11.2731 12.7823 10.1956 13.6008 9.3934C14.4192 8.59124 15.5145 8.16022 16.67 8.16022C18.993 8.19614 20.8947 10.1357 20.8947 12.4943V13.4641C20.8947 13.6768 20.8097 13.8808 20.6585 14.0313C20.5072 14.1817 20.3021 14.2662 20.0882 14.2662C19.8744 14.2662 19.6693 14.1817 19.518 14.0313C19.3668 13.8808 19.2818 13.6768 19.2818 13.4641V9.77652C19.2818 9.62728 19.2222 9.48415 19.1161 9.37862C19.01 9.27309 18.8662 9.21381 18.7161 9.21381C18.4032 9.21381 18.1264 9.46523 18.1264 9.77652V9.88427C17.5968 9.46523 16.9348 9.20184 16.2006 9.20184C14.5155 9.20184 13.1434 10.5667 13.1434 12.2429C13.1434 13.919 14.5155 15.2839 16.2006 15.2839C17.0431 15.2839 17.8134 14.9367 18.3671 14.3859C18.7041 14.9846 19.342 15.3916 20.0762 15.3916C21.1474 15.3916 22.0261 14.5176 22.0261 13.4521V12.4823C22.0261 9.52509 19.6309 7.07072 16.682 7.03481V7.03481ZM16.2126 14.1704C15.1534 14.1704 14.2868 13.3084 14.2868 12.2548C14.2868 11.2012 15.1534 10.3392 16.2126 10.3392C17.2718 10.3392 18.1384 11.2012 18.1384 12.2548C18.1384 13.3084 17.2718 14.1704 16.2126 14.1704V14.1704Z" fill="#E6E0ED"/>
</g>
<defs>
<filter id="filter0_i_518_1201" x="0" y="10.6934" width="33.4772" height="13.6646" filterUnits="userSpaceOnUse" color-interpolation-filters="sRGB">
<feFlood flood-opacity="0" result="BackgroundImageFix"/>
<feBlend mode="normal" in="SourceGraphic" in2="BackgroundImageFix" result="shape"/>
<feColorMatrix in="SourceAlpha" type="matrix" values="0 0 0 0 0 0 0 0 0 0 0 0 0 0 0 0 0 0 127 0" result="hardAlpha"/>
<feOffset dy="-0.75"/>
<feGaussianBlur stdDeviation="0.75"/>
<feComposite in2="hardAlpha" operator="arithmetic" k2="-1" k3="1"/>
<feColorMatrix type="matrix" values="0 0 0 0 0.819608 0 0 0 0 0.654902 0 0 0 0 0.933333 0 0 0 1 0"/>
<feBlend mode="normal" in2="shape" result="effect1_innerShadow_518_1201"/>
</filter>
<filter id="filter1_ii_518_1201" x="0" y="0.337061" width="33.4772" height="13.3146" filterUnits="userSpaceOnUse" color-interpolation-filters="sRGB">
<feFlood flood-opacity="0" result="BackgroundImageFix"/>
<feBlend mode="normal" in="SourceGraphic" in2="BackgroundImageFix" result="shape"/>
<feColorMatrix in="SourceAlpha" type="matrix" values="0 0 0 0 0 0 0 0 0 0 0 0 0 0 0 0 0 0 127 0" result="hardAlpha"/>
<feOffset dy="-0.15"/>
<feGaussianBlur stdDeviation="0.225"/>
<feComposite in2="hardAlpha" operator="arithmetic" k2="-1" k3="1"/>
<feColorMatrix type="matrix" values="0 0 0 0 0.827451 0 0 0 0 0.686275 0 0 0 0 0.913725 0 0 0 1 0"/>
<feBlend mode="normal" in2="shape" result="effect1_innerShadow_518_1201"/>
<feColorMatrix in="SourceAlpha" type="matrix" values="0 0 0 0 0 0 0 0 0 0 0 0 0 0 0 0 0 0 127 0" result="hardAlpha"/>
<feOffset dy="0.25"/>
<feGaussianBlur stdDeviation="0.3"/>
<feComposite in2="hardAlpha" operator="arithmetic" k2="-1" k3="1"/>
<feColorMatrix type="matrix" values="0 0 0 0 0.870588 0 0 0 0 0.858824 0 0 0 0 0.854902 0 0 0 1 0"/>
<feBlend mode="normal" in2="effect1_innerShadow_518_1201" result="effect2_innerShadow_518_1201"/>
</filter>
<filter id="filter2_f_518_1201" x="6.00576" y="3.10681" width="19.8505" height="19.7616" filterUnits="userSpaceOnUse" color-interpolation-filters="sRGB">
<feFlood flood-opacity="0" result="BackgroundImageFix"/>
<feBlend mode="normal" in="SourceGraphic" in2="BackgroundImageFix" result="shape"/>
<feGaussianBlur stdDeviation="0.75" result="effect1_foregroundBlur_518_1201"/>
</filter>
<filter id="filter3_iii_518_1201" x="8.10676" y="3.79175" width="17.2505" height="17.2616" filterUnits="userSpaceOnUse" color-interpolation-filters="sRGB">
<feFlood flood-opacity="0" result="BackgroundImageFix"/>
<feBlend mode="normal" in="SourceGraphic" in2="BackgroundImageFix" result="shape"/>
<feColorMatrix in="SourceAlpha" type="matrix" values="0 0 0 0 0 0 0 0 0 0 0 0 0 0 0 0 0 0 127 0" result="hardAlpha"/>
<feOffset dx="0.25"/>
<feGaussianBlur stdDeviation="0.125"/>
<feComposite in2="hardAlpha" operator="arithmetic" k2="-1" k3="1"/>
<feColorMatrix type="matrix" values="0 0 0 0 0.192157 0 0 0 0 0.376471 0 0 0 0 0.721569 0 0 0 1 0"/>
<feBlend mode="normal" in2="shape" result="effect1_innerShadow_518_1201"/>
<feColorMatrix in="SourceAlpha" type="matrix" values="0 0 0 0 0 0 0 0 0 0 0 0 0 0 0 0 0 0 127 0" result="hardAlpha"/>
<feOffset dy="-0.25"/>
<feGaussianBlur stdDeviation="0.125"/>
<feComposite in2="hardAlpha" operator="arithmetic" k2="-1" k3="1"/>
<feColorMatrix type="matrix" values="0 0 0 0 0.32549 0 0 0 0 0.341176 0 0 0 0 0.819608 0 0 0 1 0"/>
<feBlend mode="normal" in2="effect1_innerShadow_518_1201" result="effect2_innerShadow_518_1201"/>
<feColorMatrix in="SourceAlpha" type="matrix" values="0 0 0 0 0 0 0 0 0 0 0 0 0 0 0 0 0 0 127 0" result="hardAlpha"/>
<feOffset dx="-0.15" dy="0.25"/>
<feGaussianBlur stdDeviation="0.125"/>
<feComposite in2="hardAlpha" operator="arithmetic" k2="-1" k3="1"/>
<feColorMatrix type="matrix" values="0 0 0 0 0.317647 0 0 0 0 0.596078 0 0 0 0 0.882353 0 0 0 1 0"/>
<feBlend mode="normal" in2="effect2_innerShadow_518_1201" result="effect3_innerShadow_518_1201"/>
</filter>
<filter id="filter4_iii_518_1201" x="11.0436" y="6.78406" width="10.9825" height="11.176" filterUnits="userSpaceOnUse" color-interpolation-filters="sRGB">
<feFlood flood-opacity="0" result="BackgroundImageFix"/>
<feBlend mode="normal" in="SourceGraphic" in2="BackgroundImageFix" result="shape"/>
<feColorMatrix in="SourceAlpha" type="matrix" values="0 0 0 0 0 0 0 0 0 0 0 0 0 0 0 0 0 0 127 0" result="hardAlpha"/>
<feOffset dx="-0.15" dy="0.15"/>
<feGaussianBlur stdDeviation="0.125"/>
<feComposite in2="hardAlpha" operator="arithmetic" k2="-1" k3="1"/>
<feColorMatrix type="matrix" values="0 0 0 0 0.152941 0 0 0 0 0.341176 0 0 0 0 0.768627 0 0 0 1 0"/>
<feBlend mode="normal" in2="shape" result="effect1_innerShadow_518_1201"/>
<feColorMatrix in="SourceAlpha" type="matrix" values="0 0 0 0 0 0 0 0 0 0 0 0 0 0 0 0 0 0 127 0" result="hardAlpha"/>
<feOffset dy="-0.25"/>
<feGaussianBlur stdDeviation="0.2"/>
<feComposite in2="hardAlpha" operator="arithmetic" k2="-1" k3="1"/>
<feColorMatrix type="matrix" values="0 0 0 0 0.803922 0 0 0 0 0.713726 0 0 0 0 0.921569 0 0 0 1 0"/>
<feBlend mode="normal" in2="effect1_innerShadow_518_1201" result="effect2_innerShadow_518_1201"/>
<feColorMatrix in="SourceAlpha" type="matrix" values="0 0 0 0 0 0 0 0 0 0 0 0 0 0 0 0 0 0 127 0" result="hardAlpha"/>
<feOffset dx="-0.15" dy="0.15"/>
<feGaussianBlur stdDeviation="0.15"/>
<feComposite in2="hardAlpha" operator="arithmetic" k2="-1" k3="1"/>
<feColorMatrix type="matrix" values="0 0 0 0 0.917647 0 0 0 0 0.890196 0 0 0 0 0.952941 0 0 0 1 0"/>
<feBlend mode="normal" in2="effect2_innerShadow_518_1201" result="effect3_innerShadow_518_1201"/>
</filter>
<linearGradient id="paint0_linear_518_1201" x1="2.40841" y1="13.8065" x2="33.476" y2="13.5802" gradientUnits="userSpaceOnUse">
<stop stop-color="#DFD0E6"/>
<stop offset="1" stop-color="#EEE5F8"/>
</linearGradient>
<linearGradient id="paint1_linear_518_1201" x1="0.00119019" y1="13.7335" x2="3.65776" y2="13.7335" gradientUnits="userSpaceOnUse">
<stop stop-color="#D6BABD"/>
<stop offset="1" stop-color="#DCC9DD" stop-opacity="0"/>
</linearGradient>
<linearGradient id="paint2_linear_518_1201" x1="10.5244" y1="15.9819" x2="9.61407" y2="14.5564" gradientUnits="userSpaceOnUse">
<stop offset="0.114" stop-color="#DAC3DF"/>
<stop offset="1" stop-color="#DAC3DF" stop-opacity="0"/>
</linearGradient>
<radialGradient id="paint3_radial_518_1201" cx="0" cy="0" r="1" gradientUnits="userSpaceOnUse" gradientTransform="translate(12.072 9.28573) rotate(123.83) scale(3.26813 22.9989)">
<stop offset="0.342" stop-color="#C8A6D7"/>
<stop offset="1" stop-color="#D1BBDD" stop-opacity="0"/>
</radialGradient>
<linearGradient id="paint4_linear_518_1201" x1="22.8698" y1="16.3506" x2="23.8607" y2="14.5563" gradientUnits="userSpaceOnUse">
<stop offset="0.114" stop-color="#F6EFFE"/>
<stop offset="1" stop-color="#F3EAFD" stop-opacity="0"/>
</linearGradient>
<linearGradient id="paint5_linear_518_1201" x1="21.7408" y1="9.95372" x2="23.0115" y2="11.6806" gradientUnits="userSpaceOnUse">
<stop stop-color="#E3CDF7"/>
<stop offset="1" stop-color="#E9D9F8" stop-opacity="0"/>
</linearGradient>
<linearGradient id="paint6_linear_518_1201" x1="33.7023" y1="16.6883" x2="29.2261" y2="16.6883" gradientUnits="userSpaceOnUse">
<stop stop-color="#F7F3FB"/>
<stop offset="1" stop-color="#F0E9F8" stop-opacity="0"/>
</linearGradient>
<linearGradient id="paint7_linear_518_1201" x1="33.7023" y1="16.6883" x2="32.2267" y2="16.6883" gradientUnits="userSpaceOnUse">
<stop offset="0.199" stop-color="#EBE9ED"/>
<stop offset="1" stop-color="#EBE9ED" stop-opacity="0"/>
</linearGradient>
<linearGradient id="paint8_linear_518_1201" x1="16.7386" y1="26.4531" x2="16.7386" y2="13.5072" gradientUnits="userSpaceOnUse">
<stop stop-color="#DDC5F1"/>
<stop offset="1" stop-color="#E6DAF1"/>
</linearGradient>
<linearGradient id="paint9_linear_518_1201" x1="6.49107" y1="17.3384" x2="7.0359" y2="18.1612" gradientUnits="userSpaceOnUse">
<stop offset="0.073" stop-color="#DDC2C8"/>
<stop offset="1" stop-color="#DFCDDA" stop-opacity="0"/>
</linearGradient>
<linearGradient id="paint10_linear_518_1201" x1="24.6596" y1="16.2046" x2="24.3167" y2="16.7414" gradientUnits="userSpaceOnUse">
<stop offset="0.14" stop-color="#F8F3FD"/>
<stop offset="1" stop-color="#F1EAF9" stop-opacity="0"/>
</linearGradient>
<linearGradient id="paint11_linear_518_1201" x1="16.7386" y1="0.487061" x2="16.7386" y2="13.403" gradientUnits="userSpaceOnUse">
<stop stop-color="#E9E4E9"/>
<stop offset="1" stop-color="#E7DCF0"/>
</linearGradient>
<linearGradient id="paint12_linear_518_1201" x1="9.28827" y1="8.68466" x2="13.6031" y2="0.901034" gradientUnits="userSpaceOnUse">
<stop stop-color="#E1D5E7"/>
<stop offset="1" stop-color="#E1D5E7" stop-opacity="0"/>
</linearGradient>
<linearGradient id="paint13_linear_518_1201" x1="0.00120361" y1="2.44816" x2="3.53019" y2="2.44816" gradientUnits="userSpaceOnUse">
<stop stop-color="#E1C1BC"/>
<stop offset="1" stop-color="#E9D1CD" stop-opacity="0"/>
</linearGradient>
<radialGradient id="paint14_radial_518_1201" cx="0" cy="0" r="1" gradientUnits="userSpaceOnUse" gradientTransform="translate(30.5287 5.37525) rotate(-138.384) scale(7.35974 32.5912)">
<stop stop-color="#FBF9FE"/>
<stop offset="1" stop-color="#F0ECF1" stop-opacity="0"/>
</radialGradient>
<linearGradient id="paint15_linear_518_1201" x1="24.4875" y1="10.3644" x2="10.3629" y2="15.5766" gradientUnits="userSpaceOnUse">
<stop stop-color="#347BD7"/>
<stop offset="1" stop-color="#3477CB"/>
</linearGradient>
</defs>
</svg>
