<svg width="32" height="32" viewBox="0 0 32 32" fill="none" xmlns="http://www.w3.org/2000/svg">
<g filter="url(#filter0_i_518_1238)">
<rect width="32" height="32" rx="4" fill="#D9D9D9"/>
</g>
<path fill-rule="evenodd" clip-rule="evenodd" d="M24 5.33333C24 4.97971 23.8595 4.64057 23.6095 4.39052C23.3594 4.14048 23.0203 4 22.6667 4C22.313 4 21.9739 4.14048 21.7239 4.39052C21.4738 4.64057 21.3333 4.97971 21.3333 5.33333V6.66667H5.33333C4.97971 6.66667 4.64057 6.80714 4.39052 7.05719C4.14048 7.30724 4 7.64638 4 8C4 8.35362 4.14048 8.69276 4.39052 8.94281C4.64057 9.19286 4.97971 9.33333 5.33333 9.33333H21.3333V10.6667C21.3333 11.0203 21.4738 11.3594 21.7239 11.6095C21.9739 11.8595 22.313 12 22.6667 12C23.0203 12 23.3594 11.8595 23.6095 11.6095C23.8595 11.3594 24 11.0203 24 10.6667V9.33333H26.6667C27.0203 9.33333 27.3594 9.19286 27.6095 8.94281C27.8595 8.69276 28 8.35362 28 8C28 7.64638 27.8595 7.30724 27.6095 7.05719C27.3594 6.80714 27.0203 6.66667 26.6667 6.66667H24V5.33333ZM5.33333 14.6667C4.97971 14.6667 4.64057 14.8071 4.39052 15.0572C4.14048 15.3072 4 15.6464 4 16C4 16.3536 4.14048 16.6928 4.39052 16.9428C4.64057 17.1929 4.97971 17.3333 5.33333 17.3333H8V18.6667C8 19.0203 8.14048 19.3594 8.39052 19.6095C8.64057 19.8595 8.97971 20 9.33333 20C9.68696 20 10.0261 19.8595 10.2761 19.6095C10.5262 19.3594 10.6667 19.0203 10.6667 18.6667V17.3333H26.6667C27.0203 17.3333 27.3594 17.1929 27.6095 16.9428C27.8595 16.6928 28 16.3536 28 16C28 15.6464 27.8595 15.3072 27.6095 15.0572C27.3594 14.8071 27.0203 14.6667 26.6667 14.6667H10.6667V13.3333C10.6667 12.9797 10.5262 12.6406 10.2761 12.3905C10.0261 12.1405 9.68696 12 9.33333 12C8.97971 12 8.64057 12.1405 8.39052 12.3905C8.14048 12.6406 8 12.9797 8 13.3333V14.6667H5.33333ZM4 24C4 23.6464 4.14048 23.3072 4.39052 23.0572C4.64057 22.8071 4.97971 22.6667 5.33333 22.6667H21.3333V21.3333C21.3333 20.9797 21.4738 20.6406 21.7239 20.3905C21.9739 20.1405 22.313 20 22.6667 20C23.0203 20 23.3594 20.1405 23.6095 20.3905C23.8595 20.6406 24 20.9797 24 21.3333V22.6667H26.6667C27.0203 22.6667 27.3594 22.8071 27.6095 23.0572C27.8595 23.3072 28 23.6464 28 24C28 24.3536 27.8595 24.6928 27.6095 24.9428C27.3594 25.1929 27.0203 25.3333 26.6667 25.3333H24V26.6667C24 27.0203 23.8595 27.3594 23.6095 27.6095C23.3594 27.8595 23.0203 28 22.6667 28C22.313 28 21.9739 27.8595 21.7239 27.6095C21.4738 27.3594 21.3333 27.0203 21.3333 26.6667V25.3333H5.33333C4.97971 25.3333 4.64057 25.1929 4.39052 24.9428C4.14048 24.6928 4 24.3536 4 24Z" fill="#357AD1"/>
<defs>
<filter id="filter0_i_518_1238" x="0" y="-1" width="32" height="33" filterUnits="userSpaceOnUse" color-interpolation-filters="sRGB">
<feFlood flood-opacity="0" result="BackgroundImageFix"/>
<feBlend mode="normal" in="SourceGraphic" in2="BackgroundImageFix" result="shape"/>
<feColorMatrix in="SourceAlpha" type="matrix" values="0 0 0 0 0 0 0 0 0 0 0 0 0 0 0 0 0 0 127 0" result="hardAlpha"/>
<feOffset dy="-1"/>
<feGaussianBlur stdDeviation="2"/>
<feComposite in2="hardAlpha" operator="arithmetic" k2="-1" k3="1"/>
<feColorMatrix type="matrix" values="0 0 0 0 0 0 0 0 0 0 0 0 0 0 0 0 0 0 0.2 0"/>
<feBlend mode="normal" in2="shape" result="effect1_innerShadow_518_1238"/>
</filter>
</defs>
</svg>
