<svg width="24" height="24" viewBox="0 0 24 24" fill="none" xmlns="http://www.w3.org/2000/svg">
<circle cx="12" cy="12" r="12" fill="#10CA00"/>
<path d="M3.60267 14.6667V13.9707H4.88267V9.98669L3.88267 10.6107L3.54667 9.99469L5.12267 9.02669H5.70667V13.9707H6.90667V14.6667H3.60267ZM10.2451 14.6667V14.0507L12.1251 12.0347C12.3864 11.752 12.5731 11.496 12.6851 11.2667C12.8024 11.0374 12.8611 10.8054 12.8611 10.5707C12.8611 9.96269 12.5038 9.65869 11.7891 9.65869C11.2451 9.65869 10.7571 9.86402 10.3251 10.2747L10.0291 9.64269C10.2424 9.43469 10.5144 9.26935 10.8451 9.14669C11.1758 9.01869 11.5198 8.95469 11.8771 8.95469C12.4584 8.95469 12.9038 9.08802 13.2131 9.35469C13.5278 9.62135 13.6851 10.0027 13.6851 10.4987C13.6851 10.8347 13.6024 11.1627 13.4371 11.4827C13.2771 11.8027 13.0238 12.144 12.6771 12.5067L11.2851 13.9707H13.9091V14.6667H10.2451ZM18.7755 14.7387C18.3969 14.7387 18.0369 14.6827 17.6955 14.5707C17.3542 14.4534 17.0689 14.2907 16.8395 14.0827L17.1275 13.4427C17.3782 13.6454 17.6369 13.7947 17.9035 13.8907C18.1702 13.9867 18.4529 14.0347 18.7515 14.0347C19.1355 14.0347 19.4262 13.952 19.6235 13.7867C19.8262 13.6214 19.9275 13.384 19.9275 13.0747C19.9275 12.7654 19.8262 12.536 19.6235 12.3867C19.4262 12.2374 19.1382 12.1627 18.7595 12.1627H17.8875V11.4667H18.6795C19.0155 11.4667 19.2795 11.3814 19.4715 11.2107C19.6689 11.04 19.7675 10.8054 19.7675 10.5067C19.7675 10.2347 19.6769 10.0267 19.4955 9.88269C19.3142 9.73335 19.0555 9.65869 18.7195 9.65869C18.1489 9.65869 17.6502 9.86402 17.2235 10.2747L16.9355 9.64269C17.1542 9.42402 17.4262 9.25602 17.7515 9.13869C18.0822 9.01602 18.4262 8.95469 18.7835 8.95469C19.3489 8.95469 19.7889 9.08535 20.1035 9.34669C20.4182 9.60269 20.5755 9.96002 20.5755 10.4187C20.5755 10.728 20.4955 11 20.3355 11.2347C20.1809 11.4694 19.9649 11.64 19.6875 11.7467C20.0235 11.832 20.2822 11.9974 20.4635 12.2427C20.6449 12.4827 20.7355 12.7787 20.7355 13.1307C20.7355 13.6267 20.5595 14.0187 20.2075 14.3067C19.8609 14.5947 19.3835 14.7387 18.7755 14.7387Z" fill="white"/>
</svg>
