<?xml version="1.0" encoding="utf-8"?>
<!-- Generator: Adobe Illustrator 23.0.3, SVG Export Plug-In . SVG Version: 6.00 Build 0)  -->
<svg version="1.1"
	 id="Layer_1" xmlns:cc="http://creativecommons.org/ns#" xmlns:dc="http://purl.org/dc/elements/1.1/" xmlns:inkscape="http://www.inkscape.org/namespaces/inkscape" xmlns:rdf="http://www.w3.org/1999/02/22-rdf-syntax-ns#" xmlns:sodipodi="http://sodipodi.sourceforge.net/DTD/sodipodi-0.dtd" xmlns:svg="http://www.w3.org/2000/svg"
	 xmlns="http://www.w3.org/2000/svg" xmlns:xlink="http://www.w3.org/1999/xlink" x="0px" y="0px" viewBox="0 0 64 58.3"
	 style="enable-background:new 0 0 64 58.3;" xml:space="preserve">
<style type="text/css">
	.st0{fill-rule:evenodd;clip-rule:evenodd;fill:#FFFFFF;}
</style>
<path class="st0" d="M49,25.4c0-8.4,0-16.4,0-20c0-1.7-1.3-3-3-3c-7.3,0-32.7,0-40,0c-1.7,0-3,1.3-3,3c0,7.8,0,36.2,0,44
	c0,1.7,1.3,3,3,3c7.3,0,32.7,0,40,0c0.5,0,1.1-0.1,1.5-0.4c0.5-0.3,0.6-0.9,0.4-1.4c-0.3-0.5-0.9-0.6-1.4-0.4
	c-0.1,0.1-0.3,0.1-0.5,0.1c-7.3,0-32.7,0-40,0c-0.6,0-1-0.4-1-1c0-7.8,0-36.2,0-44c0-0.6,0.4-1,1-1c7.3,0,32.7,0,40,0
	c0.6,0,1,0.4,1,1c0,3.6,0,11.6,0,20c0,0.6,0.4,1,1,1S49,26,49,25.4z"/>
<path class="st0" d="M38,13.4v4c0,0.4-0.2,0.8-0.6,0.9c-0.4,0.2-0.8,0.1-1.1-0.2l-5-5c-0.4-0.4-0.4-1,0-1.4l5-5
	c0.3-0.3,0.7-0.4,1.1-0.2C37.8,6.7,38,7,38,7.4v4h2c0.8,0,1.6,0.3,2.1,0.9c0.6,0.6,0.9,1.3,0.9,2.1v9c0,0.6-0.4,1-1,1s-1-0.4-1-1
	c0,0,0-5.8,0-9c0-0.3-0.1-0.5-0.3-0.7c-0.2-0.2-0.4-0.3-0.7-0.3H38z M33.4,12.4L36,15V9.8L33.4,12.4z"/>
<path class="st0" d="M47.3,44.2c-1.7,1.4-3.9,2.3-6.3,2.3c-5.5,0-10-4.5-10-10s4.5-10,10-10s10,4.5,10,10c0,2.4-0.8,4.6-2.3,6.3
	L51,45l0.8-0.8c0.4-0.4,1-0.4,1.4,0l7.5,7.5c0.4,0.4,0.4,1,0,1.4l-3,3c-0.4,0.4-1,0.4-1.4,0l-7.5-7.5c-0.4-0.4-0.4-1,0-1.4l0.8-0.8
	L47.3,44.2z M50.9,47.9L57,54l1.6-1.6l-6.1-6.1L50.9,47.9z M41,28.4c4.4,0,8,3.6,8,8s-3.6,8-8,8s-8-3.6-8-8S36.6,28.4,41,28.4z"/>
<path class="st0" d="M29,9.4c0-0.8-0.3-1.6-0.9-2.1S26.8,6.4,26,6.4c-3.8,0-12.2,0-16,0c-0.8,0-1.6,0.3-2.1,0.9S7,8.6,7,9.4
	c0,1.2,0,2.8,0,4c0,0.8,0.3,1.6,0.9,2.1c0.6,0.6,1.3,0.9,2.1,0.9c3.8,0,12.2,0,16,0c0.8,0,1.6-0.3,2.1-0.9c0.6-0.6,0.9-1.3,0.9-2.1
	V9.4z M27,9.4v4c0,0.3-0.1,0.5-0.3,0.7c-0.2,0.2-0.4,0.3-0.7,0.3c-3.8,0-12.2,0-16,0c-0.3,0-0.5-0.1-0.7-0.3C9.1,13.9,9,13.7,9,13.4
	c0-1.2,0-2.8,0-4c0-0.3,0.1-0.5,0.3-0.7C9.5,8.5,9.7,8.4,10,8.4c3.8,0,12.2,0,16,0c0.3,0,0.5,0.1,0.7,0.3C26.9,8.9,27,9.2,27,9.4z"
	/>
<path class="st0" d="M12,11.4c0,0.6,0.4,1,1,1s1-0.4,1-1s-0.4-1-1-1S12,10.9,12,11.4z"/>
<path class="st0" d="M10,21.4c0,0.6,0.4,1,1,1s1-0.4,1-1s-0.4-1-1-1S10,20.9,10,21.4z"/>
<path class="st0" d="M10,29.4c0,0.6,0.4,1,1,1s1-0.4,1-1s-0.4-1-1-1S10,28.9,10,29.4z"/>
<path class="st0" d="M10,37.4c0,0.6,0.4,1,1,1s1-0.4,1-1s-0.4-1-1-1S10,36.9,10,37.4z"/>
<path class="st0" d="M10,45.4c0,0.6,0.4,1,1,1s1-0.4,1-1s-0.4-1-1-1S10,44.9,10,45.4z"/>
<path class="st0" d="M23,10.4h-6c-0.6,0-1,0.4-1,1s0.4,1,1,1h6c0.6,0,1-0.4,1-1S23.6,10.4,23,10.4z"/>
<path class="st0" d="M25,20.4H15c-0.6,0-1,0.4-1,1s0.4,1,1,1h10c0.6,0,1-0.4,1-1S25.6,20.4,25,20.4z"/>
<path class="st0" d="M25,28.4H15c-0.6,0-1,0.4-1,1s0.4,1,1,1h10c0.6,0,1-0.4,1-1C26,28.9,25.6,28.4,25,28.4z"/>
<path class="st0" d="M25,36.4H15c-0.6,0-1,0.4-1,1s0.4,1,1,1h10c0.6,0,1-0.4,1-1S25.6,36.4,25,36.4z"/>
<path class="st0" d="M25,44.4H15c-0.6,0-1,0.4-1,1s0.4,1,1,1h10c0.6,0,1-0.4,1-1S25.6,44.4,25,44.4z"/>
</svg>
