<?xml version="1.0" encoding="utf-8"?>
<!-- Generator: Adobe Illustrator 23.0.3, SVG Export Plug-In . SVG Version: 6.00 Build 0)  -->
<svg version="1.1" id="Layer_1" xmlns="http://www.w3.org/2000/svg" xmlns:xlink="http://www.w3.org/1999/xlink" x="0px" y="0px"
	 viewBox="0 0 63.6 63.6" style="enable-background:new 0 0 63.6 63.6;" xml:space="preserve">
<style type="text/css">
	.st0{fill:#013D7A;}
</style>
<g>
	<g>
		<path class="st0" d="M63.6,10.3V0H53.3v3.7H37V0H26.7v3.7H10.3V0H0v10.3h3.7v16.4H0V37h3.7v16.4H0v10.3h10.3v-3.2h16.4v3.2H37
			v-3.2h16.4v3.2h10.3V53.3h-4.1V37h4.1V26.7h-4.1V10.3H63.6z M57.5,26.7h-4.2V37h4.2v16.4h-4.2v5.1H37v-5.1H26.7v5.1H10.3v-5.1H5.7
			V37h4.6V26.7H5.7V10.3h4.6V5.7h16.4v4.6H37V5.7h16.4v4.6h4.2V26.7z"/>
	</g>
</g>
<rect x="17.8" y="17.8" class="st0" width="28.1" height="28.1"/>
</svg>
