<?xml version="1.0" encoding="utf-8"?>
<!-- Generator: Adobe Illustrator 23.0.3, SVG Export Plug-In . SVG Version: 6.00 Build 0)  -->
<svg version="1.1" id="Layer_1" xmlns="http://www.w3.org/2000/svg" xmlns:xlink="http://www.w3.org/1999/xlink" x="0px" y="0px"
	 viewBox="0 0 100 99.4" style="enable-background:new 0 0 100 99.4;" xml:space="preserve">
<style type="text/css">
	.st0{fill:#013D7A;}
</style>
<path class="st0" d="M70.9,62.9c1.2,0.3,2.2,0.9,2.8,1.6c0.3,0.4,0.5,0.8,0.4,1.2c-0.1,0.7-1.3,1.7-3.2,2.1V62.9z M63.7,54.7
	c-0.1,0.4,0.3,0.9,0.5,1.2c0.5,0.6,1.4,1.3,2.8,1.8v-5C65,53,63.8,53.9,63.7,54.7z M89.4,60.2c0,11.3-9.2,20.5-20.5,20.5
	s-20.5-9.2-20.5-20.5s9.2-20.5,20.5-20.5S89.4,48.8,89.4,60.2z M70.9,58.3v-6c1.8,0.2,3.4,0.8,4.4,1.6c1,0.8,2.4,0.6,3.2-0.3
	c0.8-1,0.6-2.4-0.3-3.2c-1.8-1.5-4.4-2.4-7.2-2.6v-1.6c0-1.1-0.9-2-2-2s-2,0.9-2,2v1.8c-4.2,0.7-7.3,3-7.7,6.1
	c-0.2,1.6,0.3,3.2,1.4,4.6c1.4,1.7,3.7,3,6.3,3.6V68c-1.8-0.2-3.4-0.8-4.4-1.6c-1-0.8-2.4-0.6-3.2,0.3c-0.8,1-0.6,2.4,0.3,3.2
	c1.8,1.5,4.4,2.4,7.2,2.6v1.6c0,1.1,0.9,2,2,2s2-0.9,2-2v-1.8c4.2-0.7,7.3-3,7.7-6.1c0.2-1.6-0.3-3.3-1.4-4.6
	C75.8,59.9,73.6,58.7,70.9,58.3z M23.9,74.9c1.9,0,3.5-1.6,3.5-3.5v-1c0-1.9-1.6-3.5-3.5-3.5s-3.5,1.6-3.5,3.5v1
	C20.4,73.3,21.9,74.9,23.9,74.9z M20.4,82.7c0,1.9,1.6,3.5,3.5,3.5s3.5-1.6,3.5-3.5v-1c0-1.9-1.6-3.5-3.5-3.5s-3.5,1.6-3.5,3.5V82.7
	z M23.9,89.5c-1.9,0-3.5,1.6-3.5,3.5v0.5c0,1.9,1.6,3.5,3.5,3.5h0.5c1.9,0,3.5-1.6,3.5-3.5c0-1.1-0.5-2.1-1.3-2.7
	C25.9,90,24.9,89.5,23.9,89.5z M47.6,90h-1.1c-1.9,0-3.5,1.6-3.5,3.5s1.6,3.5,3.5,3.5h1.1c1.9,0,3.5-1.6,3.5-3.5S49.5,90,47.6,90z
	 M70.9,90h-1.1c-1.9,0-3.5,1.6-3.5,3.5s1.6,3.5,3.5,3.5h1.1c1.9,0,3.5-1.6,3.5-3.5S72.8,90,70.9,90z M59.2,90h-1.1
	c-1.9,0-3.5,1.6-3.5,3.5s1.6,3.5,3.5,3.5h1.1c1.9,0,3.5-1.6,3.5-3.5S61.2,90,59.2,90z M82.5,90h-1.1c-1.9,0-3.5,1.6-3.5,3.5
	s1.6,3.5,3.5,3.5h1.1c1.9,0,3.5-1.6,3.5-3.5S84.4,90,82.5,90z M36,90h-1.1c-1.9,0-3.5,1.6-3.5,3.5S33,97,34.9,97H36
	c1.9,0,3.5-1.6,3.5-3.5S37.9,90,36,90z M93.6,90h-0.5c-1.9,0-3.5,1.6-3.5,3.5s1.6,3.5,3.5,3.5h0.5c1.9,0,3.5-1.6,3.5-3.5
	S95.5,90,93.6,90z M5.4,42.9c0,9.8,8,17.8,17.8,17.8h1.2c9.8,0,17.8-8,17.8-17.8v-9.6H5.4V42.9z M44.8,26.4v-7.2c0-1.1-0.9-2-2-2
	h-3.6V6c0-1.7-1.3-3-3-3h-2.7c-1.7,0-3,1.3-3,3v11.2H17.2V6c0-1.7-1.3-3-3-3h-2.7c-1.7,0-3,1.3-3,3v11.2H4.9c-1.1,0-2,0.9-2,2v7.2
	c0,1.1,0.9,2,2,2h37.9C43.9,28.4,44.8,27.5,44.8,26.4z"/>
</svg>
