<?xml version="1.0" encoding="utf-8"?>
<!-- Generator: Adobe Illustrator 23.0.3, SVG Export Plug-In . SVG Version: 6.00 Build 0)  -->
<svg version="1.1" id="Layer_1" xmlns="http://www.w3.org/2000/svg" xmlns:xlink="http://www.w3.org/1999/xlink" x="0px" y="0px"
	 viewBox="0 0 716 331" style="enable-background:new 0 0 716 331;" xml:space="preserve">
<style type="text/css">
	.st0{clip-path:url(#SVGID_2_);fill:#EC1C24;}
	.st1{clip-path:url(#SVGID_4_);fill:url(#SVGID_5_);}
	.st2{clip-path:url(#SVGID_7_);fill:url(#SVGID_8_);}
	.st3{clip-path:url(#SVGID_10_);fill:url(#SVGID_11_);}
	.st4{clip-path:url(#SVGID_13_);fill:url(#SVGID_14_);}
	.st5{clip-path:url(#SVGID_16_);fill:url(#SVGID_17_);}
	.st6{clip-path:url(#SVGID_19_);fill:#FFFFFF;}
	.st7{clip-path:url(#SVGID_21_);fill:url(#SVGID_22_);}
	.st8{clip-path:url(#SVGID_24_);fill:#FFFFFF;}
	.st9{clip-path:url(#SVGID_26_);fill:url(#SVGID_27_);}
	.st10{clip-path:url(#SVGID_29_);fill:#FFFFFF;}
	.st11{clip-path:url(#SVGID_31_);fill:#FFFFFF;}
	.st12{clip-path:url(#SVGID_33_);fill:url(#SVGID_34_);}
	.st13{clip-path:url(#SVGID_36_);fill:#FFFFFF;}
	.st14{clip-path:url(#SVGID_38_);fill:url(#SVGID_39_);}
	.st15{clip-path:url(#SVGID_41_);fill:#FFFFFF;}
	.st16{clip-path:url(#SVGID_43_);fill:#FFFFFF;}
</style>
<g>
	<defs>
		<rect id="SVGID_1_" x="-65" y="-129.3" width="841.9" height="595.3"/>
	</defs>
	<clipPath id="SVGID_2_">
		<use xlink:href="#SVGID_1_"  style="overflow:visible;"/>
	</clipPath>
	<path class="st0" d="M47.7,251.6l25.2,70.2H57.7l-4.6-14.4H25.9l-4.7,14.4H5.8l23.4-65.6c1-3.1,3.3-4.6,6.8-4.6H47.7z M29.7,295.6
		H49l-9.7-29.8L29.7,295.6z"/>
	<path class="st0" d="M105.4,322.8c-21.6,0-32.3-14.3-32.3-36.2c0-22.6,11.4-36.3,33.6-36.3c8.6,0,15.5,2.1,20.8,6.4
		c5,4.4,7.7,10.5,8.5,18.2h-8.7c-3.1,0-5.4-1.4-6.7-4.2c-2.4-5.1-7-7.6-13.8-7.6c-13.3,0-19.2,9.4-19.2,23.6
		c0,13.7,5.7,23.4,18.8,23.4c9,0,14.1-5,15.7-12.7h13.9C134.5,313.6,123.2,322.8,105.4,322.8"/>
	<path class="st0" d="M174.5,322.8c-21.6,0-32.3-14.3-32.3-36.2c0-22.6,11.4-36.3,33.6-36.3c8.6,0,15.5,2.1,20.8,6.4
		c5,4.4,7.7,10.5,8.5,18.2h-8.7c-3.1,0-5.4-1.4-6.7-4.2c-2.4-5.1-7-7.6-13.8-7.6c-13.3,0-19.2,9.4-19.2,23.6
		c0,13.7,5.7,23.4,18.8,23.4c9,0,14.1-5,15.7-12.7H205C203.6,313.6,192.3,322.8,174.5,322.8"/>
	<path class="st0" d="M541.3,289.3h-10.7c-1.3-1.7-2.8-3-4.5-3.9c-1.8-0.9-3.8-1.3-6-1.3c-1.8,0-3.5,0.3-5.1,1
		c-1.6,0.7-3.1,1.7-4.3,3c-1.3,1.4-2.4,2.9-3.1,4.7c-0.7,1.8-1.1,3.6-1.1,5.5c0,4.1,1.3,7.5,4,10.3c2.6,2.8,5.9,4.2,9.7,4.2
		c2.2,0,4.2-0.4,5.9-1.2c1.8-0.8,3.2-2,4.3-3.6H541c-2.1,4.6-4.9,8-8.4,10.3c-3.5,2.3-7.7,3.4-12.5,3.4c-3.4,0-6.5-0.6-9.3-1.9
		c-2.8-1.3-5.4-3.2-7.7-5.8c-1.9-2.1-3.4-4.5-4.3-7.2c-1-2.7-1.5-5.6-1.5-8.7c0-3.1,0.6-6.1,1.8-8.9c1.2-2.8,2.9-5.4,5.2-7.7
		c2.2-2.1,4.6-3.8,7.3-4.8c2.7-1.1,5.5-1.6,8.6-1.6c4.9,0,9.1,1.2,12.6,3.5C536.2,281,539.1,284.5,541.3,289.3"/>
	<path class="st0" d="M544.3,303.8c0-2.4,0.4-4.6,1.3-6.8c0.9-2.1,2.1-4,3.8-5.7c1.7-1.7,3.6-3,5.8-3.9c2.1-0.9,4.4-1.4,6.7-1.4
		c2.4,0,4.7,0.4,6.8,1.2c2.1,0.8,4,2,5.7,3.7c1.8,1.7,3.1,3.7,4.1,5.9c1,2.2,1.4,4.5,1.4,6.9c0,2.6-0.4,4.9-1.3,7.1
		c-0.8,2.1-2.1,4.1-3.8,5.8c-1.7,1.7-3.6,3.1-5.8,4c-2.2,0.9-4.5,1.3-7,1.3c-2.5,0-4.9-0.5-7-1.4c-2.1-0.9-4-2.3-5.7-4.1
		c-1.6-1.8-2.9-3.7-3.7-5.8C544.7,308.4,544.3,306.1,544.3,303.8 M552.4,303.7c0,3.1,0.9,5.6,2.6,7.5c1.7,1.8,4.1,2.8,7,2.8
		c2.9,0,5.2-0.9,7-2.8c1.7-1.9,2.6-4.4,2.6-7.6c0-2.9-0.9-5.2-2.7-7c-1.8-1.8-4.1-2.8-6.8-2.8c-2.8,0-5.1,0.9-6.9,2.8
		C553.3,298.4,552.4,300.8,552.4,303.7"/>
	<path class="st0" d="M604.3,312.4v8c0,2.9-0.6,5-1.9,6.4c-1.3,1.4-3.3,2.1-6,2.1v-4.5c0.9-0.1,1.6-0.4,2-0.9
		c0.4-0.5,0.6-1.3,0.6-2.3v-0.3h-2.6v-8.4H604.3z"/>
	<rect x="585.4" y="312.4" class="st0" width="7.9" height="8.4"/>
	<polygon class="st0" points="643.3,320.9 620.5,320.9 620.5,276 629.2,276 629.2,313 643.3,313 	"/>
	<polygon class="st0" points="650.5,320.9 650.5,294 645.3,294 645.3,287 650.5,287 650.5,276 658.4,276 658.4,287 663.6,287 
		663.6,294 658.4,294 658.4,320.9 	"/>
	<path class="st0" d="M693.7,289.7V276h7.8v44.8h-7.8v-2.8c-1.6,1.2-3.2,2.2-4.9,2.8c-1.7,0.6-3.6,0.9-5.6,0.9c-2.1,0-4.1-0.3-6-1
		c-1.9-0.7-3.6-1.7-5.1-3c-2.1-1.8-3.6-3.9-4.7-6.3c-1.1-2.4-1.6-5-1.6-7.7c0-2.5,0.5-4.9,1.5-7.2c1-2.3,2.4-4.3,4.3-6
		c1.5-1.5,3.3-2.6,5.3-3.3c2-0.8,4.1-1.1,6.4-1.1c2.2,0,4.1,0.3,5.8,0.8C690.6,287.6,692.2,288.5,693.7,289.7 M693.4,304.1
		c0-2.9-0.9-5.3-2.8-7.2c-1.8-1.9-4.1-2.9-6.9-2.9c-2.7,0-5,1-6.9,3c-1.9,2-2.9,4.3-2.9,7.1c0,2.9,1,5.2,2.9,7.1
		c1.9,1.9,4.4,2.8,7.3,2.8c2.6,0,4.8-1,6.6-2.9C692.5,309.2,693.4,306.8,693.4,304.1"/>
	<rect x="705.6" y="312.4" class="st0" width="7.9" height="8.4"/>
</g>
<g>
	<defs>
		<path id="SVGID_3_" d="M219.1,251.6c-4.9,0-7.2,2.6-7.2,7.5v62.7h14.4v-70.2H219.1z"/>
	</defs>
	<clipPath id="SVGID_4_">
		<use xlink:href="#SVGID_3_"  style="overflow:visible;"/>
	</clipPath>
	
		<linearGradient id="SVGID_5_" gradientUnits="userSpaceOnUse" x1="-65" y1="466" x2="-64" y2="466" gradientTransform="matrix(0 114.3791 114.3791 0 -53081.5625 7655.5132)">
		<stop  offset="0" style="stop-color:#FFF23B"/>
		<stop  offset="3.992794e-02" style="stop-color:#FEE62E"/>
		<stop  offset="0.1171" style="stop-color:#FDD41B"/>
		<stop  offset="0.1965" style="stop-color:#FCC910"/>
		<stop  offset="0.2809" style="stop-color:#FCC60C"/>
		<stop  offset="1" style="stop-color:#E83E3A"/>
	</linearGradient>
	<rect x="211.9" y="251.6" class="st1" width="14.4" height="70.2"/>
</g>
<g>
	<defs>
		<path id="SVGID_6_" d="M277.2,251.6v48.2l-28.6-48.2h-7.7c-4,0-7.2,3.5-7.2,7.5v62.7h14.1v-48.2l28.6,48.2h15v-70.2H277.2z"/>
	</defs>
	<clipPath id="SVGID_7_">
		<use xlink:href="#SVGID_6_"  style="overflow:visible;"/>
	</clipPath>
	
		<linearGradient id="SVGID_8_" gradientUnits="userSpaceOnUse" x1="-65" y1="466" x2="-64" y2="466" gradientTransform="matrix(0 114.3791 114.3791 0 -53038.1836 7655.5132)">
		<stop  offset="0" style="stop-color:#FFF23B"/>
		<stop  offset="3.992794e-02" style="stop-color:#FEE62E"/>
		<stop  offset="0.1171" style="stop-color:#FDD41B"/>
		<stop  offset="0.1965" style="stop-color:#FCC910"/>
		<stop  offset="0.2809" style="stop-color:#FCC60C"/>
		<stop  offset="1" style="stop-color:#E83E3A"/>
	</linearGradient>
	<rect x="233.6" y="251.6" class="st2" width="57.7" height="70.2"/>
</g>
<g>
	<defs>
		<path id="SVGID_9_" d="M306.1,251.6c-4,0-7.2,3.5-7.2,7.5v62.7H313v-31.1H333c4,0,7.5-3.2,7.5-7.2v-4.6H313v-15.1h36.7v-12.2
			H306.1z"/>
	</defs>
	<clipPath id="SVGID_10_">
		<use xlink:href="#SVGID_9_"  style="overflow:visible;"/>
	</clipPath>
	
		<linearGradient id="SVGID_11_" gradientUnits="userSpaceOnUse" x1="-65" y1="466" x2="-64" y2="466" gradientTransform="matrix(0 114.3791 114.3791 0 -52976.3633 7655.5132)">
		<stop  offset="0" style="stop-color:#FFF23B"/>
		<stop  offset="3.992794e-02" style="stop-color:#FEE62E"/>
		<stop  offset="0.1171" style="stop-color:#FDD41B"/>
		<stop  offset="0.1965" style="stop-color:#FCC910"/>
		<stop  offset="0.2809" style="stop-color:#FCC60C"/>
		<stop  offset="1" style="stop-color:#E83E3A"/>
	</linearGradient>
	<rect x="298.9" y="251.6" class="st3" width="50.8" height="70.2"/>
</g>
<g>
	<defs>
		<path id="SVGID_12_" d="M370.2,263.7H388c6.4,0,9.8,2.8,9.8,9.2c0,6.8-3.8,9.3-10.6,9.3h-16.9V263.7z M363.1,251.6
			c-4,0-7.2,3.5-7.2,7.5v62.7h14.4v-27.3h15.3c8.5,0,10,2.7,10.5,11.2c0.1,6.8,0.3,10.8,0.6,11.9c0.1,1.4,0.4,2.9,1.1,4.2h15.8
			c-1.3-0.9-2.2-2.5-2.3-4.6l-0.6-13.7c-0.3-4.5-0.9-8.1-2.2-10.4c-1.4-2.2-3.7-3.8-6.7-4.9c6.7-1.9,10.5-7.6,10.5-16.5
			c0-14.5-8.1-20-22.6-20H363.1z"/>
	</defs>
	<clipPath id="SVGID_13_">
		<use xlink:href="#SVGID_12_"  style="overflow:visible;"/>
	</clipPath>
	
		<linearGradient id="SVGID_14_" gradientUnits="userSpaceOnUse" x1="-65" y1="466" x2="-64" y2="466" gradientTransform="matrix(0 114.3791 114.3791 0 -52915.8867 7655.5132)">
		<stop  offset="0" style="stop-color:#FFF23B"/>
		<stop  offset="3.992794e-02" style="stop-color:#FEE62E"/>
		<stop  offset="0.1171" style="stop-color:#FDD41B"/>
		<stop  offset="0.1965" style="stop-color:#FCC910"/>
		<stop  offset="0.2809" style="stop-color:#FCC60C"/>
		<stop  offset="1" style="stop-color:#E83E3A"/>
	</linearGradient>
	<rect x="355.9" y="251.6" class="st4" width="57.7" height="70.2"/>
</g>
<g>
	<defs>
		<path id="SVGID_15_" d="M453.7,265.7l9.7,29.8h-19.3L453.7,265.7z M450.5,251.6c-3.5,0-5.8,1.6-6.8,4.6l-23.4,65.6h15.4l4.6-14.4
			h27.2l4.6,14.4h15.2l-25.2-70.2H450.5z"/>
	</defs>
	<clipPath id="SVGID_16_">
		<use xlink:href="#SVGID_15_"  style="overflow:visible;"/>
	</clipPath>
	
		<linearGradient id="SVGID_17_" gradientUnits="userSpaceOnUse" x1="-65" y1="466" x2="-64" y2="466" gradientTransform="matrix(0 114.3791 114.3791 0 -52846.8945 7655.5132)">
		<stop  offset="0" style="stop-color:#FFF23B"/>
		<stop  offset="3.992794e-02" style="stop-color:#FEE62E"/>
		<stop  offset="0.1171" style="stop-color:#FDD41B"/>
		<stop  offset="0.1965" style="stop-color:#FCC910"/>
		<stop  offset="0.2809" style="stop-color:#FCC60C"/>
		<stop  offset="1" style="stop-color:#E83E3A"/>
	</linearGradient>
	<rect x="420.2" y="251.6" class="st5" width="67" height="70.2"/>
</g>
<g>
	<defs>
		<rect id="SVGID_18_" x="-65" y="-129.3" width="841.9" height="595.3"/>
	</defs>
	<clipPath id="SVGID_19_">
		<use xlink:href="#SVGID_18_"  style="overflow:visible;"/>
	</clipPath>
	<path class="st6" d="M524,206.8c-54.5,0-98.8-44.3-98.8-98.8c0-54.5,44.3-98.8,98.8-98.8c54.5,0,98.8,44.3,98.8,98.8
		C622.8,162.5,578.5,206.8,524,206.8"/>
</g>
<g>
	<defs>
		<path id="SVGID_20_" d="M428.9,108c0,52.5,42.6,95,95.1,95c52.5,0,95-42.6,95-95c0-52.5-42.6-95-95-95
			C471.5,13,428.9,55.5,428.9,108"/>
	</defs>
	<clipPath id="SVGID_21_">
		<use xlink:href="#SVGID_20_"  style="overflow:visible;"/>
	</clipPath>
	
		<linearGradient id="SVGID_22_" gradientUnits="userSpaceOnUse" x1="-65" y1="466" x2="-64" y2="466" gradientTransform="matrix(190.0947 0 0 -190.0947 12785.0898 88692.1484)">
		<stop  offset="0" style="stop-color:#FFF23B"/>
		<stop  offset="3.992794e-02" style="stop-color:#FEE62E"/>
		<stop  offset="0.1171" style="stop-color:#FDD41B"/>
		<stop  offset="0.1965" style="stop-color:#FCC910"/>
		<stop  offset="0.2809" style="stop-color:#FCC60C"/>
		<stop  offset="0.6685" style="stop-color:#F28F3F"/>
		<stop  offset="0.8876" style="stop-color:#EC683C"/>
		<stop  offset="1" style="stop-color:#E83E3A"/>
	</linearGradient>
	<rect x="428.9" y="13" class="st7" width="190.1" height="190.1"/>
</g>
<g>
	<defs>
		<rect id="SVGID_23_" x="-65" y="-129.3" width="841.9" height="595.3"/>
	</defs>
	<clipPath id="SVGID_24_">
		<use xlink:href="#SVGID_23_"  style="overflow:visible;"/>
	</clipPath>
	<path class="st8" d="M524,195.6c-48.3,0-87.6-39.3-87.6-87.6c0-48.3,39.3-87.6,87.6-87.6c48.3,0,87.6,39.3,87.6,87.6
		C611.6,156.3,572.3,195.6,524,195.6 M524,22.3c-47.3,0-85.7,38.5-85.7,85.7c0,47.3,38.5,85.7,85.7,85.7c47.3,0,85.7-38.5,85.7-85.7
		C609.7,60.7,571.3,22.3,524,22.3"/>
	<path class="st8" d="M552.1,50.8l-24.4-8.6c-1.1-0.4-2.3-0.4-3.4,0l-24.4,8.6c-2.1,0.7-3.5,2.7-3.5,4.9v30.8h14.4l5.5,4.9h19.3
		l5.5-4.9h14.4V55.7C555.5,53.5,554.2,51.5,552.1,50.8 M526,47.5c2.4,0,4.3,1,4.3,2.3c0,1.3-1.9,2.3-4.3,2.3c-2.4,0-4.4-1.1-4.4-2.3
		C521.6,48.5,523.5,47.5,526,47.5 M505.7,71.7c-2.1,0-3.9-1.7-3.9-3.9v-6.2c0-2,1.5-3.6,3.4-3.8L520,56c1.1-0.1,2.2,0.2,3,1
		c0.8,0.7,1.3,1.8,1.3,2.9v7.9c0,2.1-1.7,3.9-3.9,3.9H505.7z M526,89.2c-3.8,0-6.8-3-6.8-6.8c0-3.7,3-6.8,6.8-6.8
		c3.8,0,6.8,3,6.8,6.8C532.8,86.2,529.7,89.2,526,89.2 M531.5,71.7c-2.1,0-3.9-1.7-3.9-3.9v-7.9c0-1.1,0.5-2.1,1.3-2.9
		c0.8-0.7,1.9-1.1,3-1l14.8,1.7c2,0.2,3.4,1.9,3.4,3.8v6.2c0,2.1-1.7,3.9-3.9,3.9H531.5z M542.1,89l-2.6,2.3h16V89H542.1z M509.9,89
		h-13.5v2.3h16.1L509.9,89z"/>
	<path class="st8" d="M547.5,135.7h-43.1c-1.7,0-3.3-0.3-4.8-0.8l3.8,12h12.5v-6.2h20v6.2h12.5l3.8-12
		C550.8,135.5,549.2,135.7,547.5,135.7 M507.5,145.3h-2.4v-7.9h2.4V145.3z M512.8,145.3h-2.4v-7.9h2.4V145.3z M541.6,145.3h-2.4
		v-7.9h2.4V145.3z M546.9,145.3h-2.4v-7.9h2.4V145.3z"/>
	<path class="st8" d="M491.5,109.8v11c0,7.1,5.8,12.9,12.9,12.9h43.1c7.1,0,12.9-5.8,12.9-12.9v-11H491.5z M509.3,121.9
		c0,0.7-0.6,1.3-1.3,1.3h-11.2c-0.2,0-0.4-0.1-0.6-0.2c-0.4-0.2-0.7-0.6-0.7-1.1v-4.3c0-0.7,0.6-1.3,1.3-1.3H508
		c0.7,0,1.3,0.6,1.3,1.3V121.9z M556.4,121.9c0,0.7-0.6,1.3-1.3,1.3h-11.2c-0.7,0-1.3-0.6-1.3-1.3v-4.3c0-0.7,0.6-1.3,1.3-1.3h11.2
		c0.7,0,1.3,0.6,1.3,1.3V121.9z M555.5,71.9c-0.5-0.1-1-0.2-1.6-0.2h-56c-0.5,0-1,0.1-1.6,0.2c-2.8,0.7-4.9,3.2-4.9,6.3v8.3h19.3
		l5.5,4.9l9.6,8.6l9.6-8.6l5.5-4.9h19.3v-8.3C560.4,75.1,558.3,72.6,555.5,71.9 M526,75.7c3.8,0,6.8,3,6.8,6.8c0,3.8-3,6.8-6.8,6.8
		c-3.8,0-6.8-3-6.8-6.8C519.2,78.7,522.2,75.7,526,75.7 M542.1,89l-2.6,2.3l-13.5,12l-13.5-12l-2.6-2.3h-18.3v18.2h68.9V89H542.1z"
		/>
	<path class="st8" d="M531.2,82.4c0,2.9-2.3,5.2-5.2,5.2c-2.9,0-5.2-2.3-5.2-5.2c0-2.9,2.3-5.2,5.2-5.2
		C528.9,77.2,531.2,79.6,531.2,82.4"/>
	<polygon class="st8" points="568.1,158.2 484.4,158.2 491.1,151.5 561.4,151.5 	"/>
	<path class="st8" d="M549.7,135.6c0.3,0,0.5-0.1,0.8-0.2C550.2,135.5,550,135.5,549.7,135.6"/>
	<path class="st8" d="M581,160.2l-26.3-26.3c-0.5,0.2-0.9,0.5-1.4,0.7l26.6,26.6c0.4,0.4,0.4,1,0,1.4c-0.2,0.2-0.4,0.3-0.7,0.3
		s-0.5-0.1-0.7-0.3L552,136l-1.9,6l24.6,24.6c0.9,0.9,2,1.3,3.2,1.3c1.2,0,2.3-0.4,3.2-1.3C582.8,164.8,582.8,162,581,160.2"/>
	<path class="st8" d="M501.9,135.5c0.1,0,0.2,0,0.3,0C502,135.5,502,135.5,501.9,135.5"/>
	<path class="st8" d="M500.2,136.7l-25.9,25.9c-0.2,0.2-0.4,0.3-0.7,0.3c-0.2,0-0.5-0.1-0.7-0.3c-0.4-0.4-0.4-1,0-1.4l26.3-26.3
		c-0.5-0.2-1-0.4-1.6-0.7l-26,26c-1.8,1.8-1.8,4.6,0,6.4c0.9,0.9,2,1.3,3.2,1.3c1.2,0,2.3-0.4,3.2-1.3l24-24L500.2,136.7z"/>
	<path class="st8" d="M413.3,206.8c-54.5,0-98.8-44.3-98.8-98.8c0-54.5,44.3-98.8,98.8-98.8c54.5,0,98.8,44.3,98.8,98.8
		C512.1,162.5,467.7,206.8,413.3,206.8"/>
</g>
<g>
	<defs>
		<path id="SVGID_25_" d="M322,108c0,50.3,40.9,91.3,91.3,91.3c50.3,0,91.3-40.9,91.3-91.3c0-50.3-40.9-91.3-91.3-91.3
			C362.9,16.7,322,57.7,322,108"/>
	</defs>
	<clipPath id="SVGID_26_">
		<use xlink:href="#SVGID_25_"  style="overflow:visible;"/>
	</clipPath>
	
		<linearGradient id="SVGID_27_" gradientUnits="userSpaceOnUse" x1="-65" y1="466" x2="-64" y2="466" gradientTransform="matrix(182.5478 0 0 -182.5478 12187.583 85175.2969)">
		<stop  offset="0" style="stop-color:#FFF23B"/>
		<stop  offset="3.992794e-02" style="stop-color:#FEE62E"/>
		<stop  offset="0.1171" style="stop-color:#FDD41B"/>
		<stop  offset="0.1965" style="stop-color:#FCC910"/>
		<stop  offset="0.2809" style="stop-color:#FCC60C"/>
		<stop  offset="0.6685" style="stop-color:#F28F3F"/>
		<stop  offset="0.8876" style="stop-color:#EC683C"/>
		<stop  offset="1" style="stop-color:#E83E3A"/>
	</linearGradient>
	<rect x="322" y="16.7" class="st9" width="182.5" height="182.6"/>
</g>
<g>
	<defs>
		<path id="SVGID_28_" d="M326.6,108c0,47.9,38.8,86.7,86.7,86.7c47.9,0,86.7-38.8,86.7-86.7c0-47.9-38.8-86.7-86.7-86.7
			C365.4,21.3,326.6,60.1,326.6,108"/>
	</defs>
	<clipPath id="SVGID_29_">
		<use xlink:href="#SVGID_28_"  style="overflow:visible;"/>
	</clipPath>
	<path class="st10" d="M535.3,123c-0.1,0-0.2,0-0.3,0l-10.8-68.4c1.9-0.7,3.2-2.5,3.2-4.5c0-2.6-2.2-4.8-4.8-4.8
		c-1.1,0-2.2,0.4-3.1,1.1L471.4-1.6c0.6-0.8,0.9-1.8,0.9-2.7c0-2.6-2.1-4.8-4.8-4.8c-2.2,0-4,1.4-4.6,3.5l-68.5-10.9
		c-0.1-2.5-2.2-4.5-4.8-4.5c-2.6,0-4.8,2.1-4.8,4.8c0,0.8,0.2,1.5,0.6,2.2l-60.4,30.8c-0.9-1-2.2-1.6-3.5-1.6
		c-2.7,0-4.8,2.2-4.8,4.8c0,1.6,0.8,3.1,2.1,4l-30.4,59.7c-0.6-0.2-1.2-0.4-1.8-0.4c-2.6,0-4.8,2.2-4.8,4.8c0,2.6,2.2,4.8,4.8,4.8
		c0.1,0,0.2,0,0.3,0l10.4,65.4c-2.2,0.4-3.9,2.4-3.9,4.7c0,2.6,2.2,4.8,4.8,4.8c0.7,0,1.5-0.2,2.1-0.5l49.5,49.5
		c-0.5,0.8-0.8,1.7-0.8,2.6c0,2.6,2.2,4.8,4.8,4.8c1.9,0,3.6-1.1,4.4-2.8l68.5,10.8c0,0.1,0,0.1,0,0.2c0,2.6,2.2,4.8,4.8,4.8
		c2.6,0,4.8-2.2,4.8-4.8c0-0.7-0.2-1.4-0.5-2.1l61.4-31.3c0.9,1,2.2,1.6,3.5,1.6c2.6,0,4.8-2.2,4.8-4.8c0-1.6-0.9-3.2-2.2-4
		l30.3-59.4c0.6,0.3,1.2,0.4,1.9,0.4c2.6,0,4.8-2.2,4.8-4.8C540.1,125.2,538,123,535.3,123 M495.9,196.5l-17.6,2.7
		c-0.1-0.5-0.4-1-0.7-1.4l18.4-17c0.8,0.7,1.7,1,2.7,1l0.9,9.1c-2.3,0.4-3.9,2.4-3.9,4.7C495.8,195.9,495.8,196.2,495.9,196.5
		 M411.9,224.5c0.2-0.2,0.4-0.5,0.6-0.7l9.6,4.6L411.9,224.5z M290.1,91.3l9.1,6.7v40.8c-0.8,0.2-1.5,0.6-2.1,1.2
		c-1.7,1.7-1.7,4.4,0,6.1c0.6,0.6,1.4,1,2.2,1.2l-1.1,10.9c0,0-0.1,0-0.1,0h0l-10.4-65.4C288.6,92.5,289.4,92,290.1,91.3
		 M326.2,19.6l10.5-1.9c0.1,0.5,0.4,1,0.7,1.4l-15.2,14c-0.8-0.7-1.7-1-2.7-1c-2.3,0-4.2,1.9-4.2,4.2c0,2,1.5,3.7,3.4,4.1l-0.5,6.7
		l-15.2,21c-1.7-1.2-4-1-5.5,0.5c-1.7,1.7-1.7,4.4,0,6.1l-8.2,9.6c-0.1,0-0.1-0.1-0.2-0.1l30.4-59.7c0.6,0.3,1.3,0.4,1.9,0.4
		c2.6,0,4.8-2.2,4.8-4.8C326.2,19.9,326.2,19.7,326.2,19.6 M310.4,103.2c-0.5,0.2-1,0.6-1.4,1l-9-6.7V75.9c0.5,0.1,1,0,1.5-0.1
		L310.4,103.2z M345.1,15.6l4.4-1.4c0.4,1.1,1.3,2,2.5,2.4l0.2,0.5l-7-0.7C345.2,16.2,345.2,15.9,345.1,15.6 M369,18.9l-11.6-5.3
		c0.1-0.3,0.1-0.5,0.1-0.8l22.1,5c-0.5,0.6-0.9,1.3-1,2L369,18.9z M491.2,28.6L486,32l-9.8-13.4c0.3-0.3,0.5-0.7,0.7-1.1l14.2,9.4
		c-0.1,0.3-0.2,0.6-0.2,0.8C491,28,491.1,28.3,491.2,28.6 M357.8,166.9l-23.8,0.2c-0.2-2.1-2-3.8-4.1-3.8c-0.1,0-0.3,0-0.5,0
		l-1.5-29.8c0,0,0,0,0.1,0c0.7,0,1.3-0.2,1.9-0.6l28.6,30.9c-0.5,0.6-0.8,1.3-0.8,2.1C357.6,166.3,357.7,166.6,357.8,166.9
		 M422.5,3.6l6.5-1.3l28.5,9.3l-10.2,7.2c-0.6-0.5-1.3-0.8-2.1-0.8c-0.2,0-0.4,0-0.5,0c-0.8-1-2-1.7-3.3-1.7c-0.5,0-1.1,0.1-1.6,0.3
		L422.2,5.2c0.2-0.5,0.3-0.9,0.3-1.4C422.5,3.7,422.5,3.6,422.5,3.6 M505.2,50.2l-4.8,1.7l-3-4.2l7.1-0.3c0,0.2,0,0.3,0,0.5
		C504.4,48.6,504.7,49.5,505.2,50.2 M510.6,149.1l-51.8,19c-0.5-0.9-1.3-1.5-2.3-1.7l1.8-36.1c1.1-0.1,2.1-0.7,2.6-1.7l49.7,19
		c-0.1,0.3-0.1,0.5-0.1,0.8C510.6,148.6,510.6,148.9,510.6,149.1 M398.2,35.2l-30.3,15.2c-0.6-0.9-1.6-1.4-2.7-1.4
		c-0.2,0-0.5,0-0.7,0.1l-11.1-30.8l15.6,1.5l28.8,13.2c0,0.2-0.1,0.4-0.1,0.6C397.7,34.1,397.9,34.7,398.2,35.2 M371.4,20l7,0.7
		c0,1.3,0.6,2.5,1.6,3.3L371.4,20z M386.5,19.4l14.2,3.2c0,0.1,0,0.1,0,0.2c0,1.3,0.9,2.4,2.1,2.7l-1.2,4.9
		c-0.3-0.1-0.5-0.1-0.7-0.1c-1.3,0-2.4,0.7-2.9,1.9l-16.3-7.5c0.3,0.1,0.5,0.1,0.8,0.1c2.3,0,4.2-1.9,4.2-4.2
		C386.7,20.2,386.6,19.8,386.5,19.4 M510.9,74.1l-37.5-10.8c0-0.2,0-0.3,0-0.5c0-0.2,0-0.4-0.1-0.7l10.8-3.8c0.6,0.3,1.3,0.5,2,0.5
		c1.7,0,3.2-1,3.8-2.5l10.1-3.5l12.2,16.8c-0.1,0.1-0.2,0.1-0.3,0.2C511,71,510.5,72.6,510.9,74.1 M334.2,110.8
		c0.2,0.3,0.4,0.6,0.8,0.8l-6.2,15.6c-0.3-0.1-0.5-0.1-0.8-0.1c-0.1,0-0.3,0-0.4,0l-4.2-17.5L334.2,110.8z M335.6,64.5L371.3,91
		c-0.3,0.5-0.4,1-0.4,1.6c0,0.3,0,0.6,0.2,1l-33.3,15.3c-0.3-0.6-0.9-0.9-1.5-1l-2.4-42.4C334.5,65.3,335.1,65,335.6,64.5
		 M403.7,25.6c1.3,0,2.5-1,2.7-2.3l25.1,0.4c0,0.1,0,0.2,0,0.2l-27.4,8.7c-0.2-0.9-0.8-1.7-1.6-2.1L403.7,25.6z M372.6,121.7
		l-19.5,8.6c-0.6-1-1.6-1.6-2.8-1.6c-0.5,0-1,0.1-1.4,0.3l-11.6-17.6c0.1-0.1,0.3-0.3,0.4-0.4l34.9,9.3c-0.1,0.2-0.1,0.5-0.1,0.7
		C372.5,121.2,372.5,121.4,372.6,121.7 M338,109.6l33.4-15.3c0.5,0.9,1.5,1.5,2.5,1.5l1.2,22v0c-1,0.2-1.9,0.8-2.3,1.7l-34.9-9.3
		c0-0.1,0-0.3,0-0.4C338,109.8,338,109.7,338,109.6 M457.9,49.6l-56.4,17.1c-0.2-0.4-0.5-0.8-0.8-1.1L433,26.2
		c1.1,0.7,2.7,0.6,3.8-0.2l21.9,21c-0.5,0.6-0.8,1.3-0.8,2.1C457.8,49.2,457.9,49.4,457.9,49.6 M377,94.1l19,7l27.1,10
		c-0.1,0.3-0.2,0.6-0.2,0.9l-44.2,7.9c-0.5-1.1-1.5-1.9-2.8-2l-1.2-22C375.7,95.6,376.6,94.9,377,94.1 M441,89.7l-13.5,19.5
		c-0.4-0.2-0.8-0.3-1.3-0.3c-0.4,0-0.8,0.1-1.2,0.2l-24.7-38.3c0.4-0.2,0.7-0.6,1-0.9l38.5,16.3l0.3,0.1c-0.1,0.3-0.1,0.6-0.1,0.9
		C439.9,88.2,440.3,89,441,89.7 M399.6,71.2l24.7,38.3c-0.3,0.2-0.6,0.5-0.8,0.8l-46.2-17c0.1-0.3,0.1-0.5,0.1-0.7
		c0-0.7-0.2-1.4-0.7-2l19.6-20.1C397.2,71.3,398.4,71.6,399.6,71.2 M455.3,125.4l-5.8-2.8l-20.1-9.7c0.1-0.2,0.1-0.5,0.1-0.7
		c0-1-0.5-2-1.3-2.6l13.5-19.4c0.6,0.3,1.3,0.4,2,0.3l12.6,33.9C455.9,124.6,455.6,125,455.3,125.4 M399.9,65.2
		c-0.4-0.2-0.8-0.3-1.2-0.3l2.6-28.1c1.6-0.2,2.8-1.6,2.8-3.2l27.5-8.8c0.2,0.3,0.3,0.6,0.6,0.9L399.9,65.2z M424.8,115
		c0.4,0.2,0.9,0.3,1.4,0.3c1.3,0,2.4-0.7,2.9-1.8l25.9,12.5c-0.1,0.3-0.2,0.7-0.2,1c0,0.4,0.1,0.8,0.3,1.2l-26.8,15.3l-27.1,15.5
		c-0.2-0.2-0.4-0.5-0.7-0.7L424.8,115z M458,123.9c-0.2,0-0.5,0-0.7,0.1l-12.6-33.8c0.7-0.4,1.3-1,1.5-1.8l41.5,8.8
		c0,0.1,0,0.1,0,0.2c0,0.6,0.2,1.2,0.5,1.7L460,124.5C459.4,124.1,458.8,123.9,458,123.9 M444.2,84.2c-1.5-0.5-3.1,0.2-3.8,1.5
		l-38.7-16.4c0.1-0.4,0.2-0.7,0.2-1.1c0-0.3,0-0.5-0.1-0.7l56.4-17.1c0.3,0.6,0.7,1.2,1.3,1.5L444.2,84.2z M367.8,53.9l27.6,13.4
		c-0.1,0.3-0.1,0.6-0.1,0.8c0,0.6,0.2,1.2,0.5,1.7L376.1,90c-0.6-0.4-1.2-0.7-1.9-0.7c-0.1,0-0.2,0-0.3,0l-7.6-34.1
		C366.9,55,367.5,54.5,367.8,53.9 M329.5,127.5l6.2-15.6c0.3,0.1,0.6,0,0.9-0.1l11.1,16.8l0.6,0.9c-0.6,0.5-0.9,1.1-1.1,1.8
		l-15.9-1.1C331.1,129,330.5,128,329.5,127.5 M379,121c0-0.1,0-0.3,0-0.4l44-7.9c0.1,0.8,0.5,1.4,1.1,1.9l-24.3,43.5
		c-0.8-0.3-1.7-0.3-2.4,0l-19.6-34.6C378.5,122.9,379,122,379,121 M487.9,96.3l-41.5-8.8c0-0.1,0-0.2,0-0.3c0-0.7-0.2-1.3-0.6-1.9
		l22.3-20.1c0.9,0.8,2.3,1,3.4,0.5l17.4,29C488.5,95.2,488.1,95.7,487.9,96.3 M400.6,36.8l-2.6,28.2c-0.9,0.2-1.7,0.8-2.2,1.6
		l-27.5-13.3c0.1-0.3,0.2-0.7,0.2-1c0-0.4-0.1-0.7-0.2-1.1l30.5-15.3C399.2,36.4,399.8,36.7,400.6,36.8 M315.8,108.8l6.7,0.7
		l4.3,17.8c-0.1,0-0.2,0.1-0.4,0.2l-12.2-16.9C314.9,110.1,315.5,109.5,315.8,108.8 M467,62.8c0,0.7,0.2,1.3,0.6,1.9l-22.3,20.1
		c-0.1-0.1-0.2-0.2-0.4-0.3l15.2-32.3c0.9,0.3,1.8,0.1,2.5-0.3l5.5,8.4C467.4,60.9,467,61.8,467,62.8 M459.2,46.5l-21.9-21.1
		c0.4-0.6,0.7-1.2,0.7-1.9c0-0.1,0-0.3,0-0.4l0.2,0c0.8,1.1,2,1.8,3.4,1.8c0.8,0,1.6-0.2,2.2-0.6c0.9,0.5,2.1,0.6,3.1,0.1l12.5,22.2
		C459.3,46.4,459.2,46.4,459.2,46.5 M437.3,20.6c0,0.4,0.1,0.8,0.2,1.2c-0.6-1-1.6-1.7-2.8-1.7c-0.6,0-1.2,0.2-1.7,0.5L421.6,6.1
		c0.1-0.1,0.1-0.1,0.2-0.2l17.4,11.3C438,18,437.3,19.3,437.3,20.6 M421,6.6l11.4,14.6c-0.5,0.5-0.8,1.1-0.9,1.8l-25.1-0.4
		c0-0.5-0.2-1-0.6-1.5l11.7-14.6C418.6,7.2,419.9,7.2,421,6.6 M319.1,79.8c0-0.8-0.3-1.5-0.8-2.1l12.9-12.9c0.5,0.4,1.1,0.6,1.8,0.7
		l2.3,42.4c-0.1,0-0.2,0.1-0.4,0.1l-17.1-25.7C318.7,81.7,319.1,80.8,319.1,79.8 M333.9,109.8C333.9,109.8,333.9,109.9,333.9,109.8
		l-10.8-1.1l-6.2-25.8c0.1,0,0.2-0.1,0.3-0.1l17.2,25.8C334.1,108.9,333.9,109.4,333.9,109.8 M316.1,107.9c0.1-0.3,0.1-0.7,0.1-1
		c0-1.9-1.3-3.6-3.1-4L316,83c0,0,0.1,0,0.1,0l6.2,25.6L316.1,107.9z M331.1,130.9l15.9,1.1c0.1,1.7,1.5,3.1,3.2,3.1
		c0.2,0,0.4,0,0.6-0.1l8.7,27.9c-0.2,0.1-0.4,0.2-0.5,0.3l-28.5-30.9C330.8,132,331,131.5,331.1,130.9 M353.5,131.9
		c0-0.3,0-0.6-0.1-0.9l19.5-8.5c0.3,0.6,0.8,1.1,1.4,1.5l-12.8,38.8c-0.2,0-0.4-0.1-0.6-0.1c-0.2,0-0.4,0-0.6,0.1l-8.7-27.9
		C352.8,134.3,353.5,133.2,353.5,131.9 M375,124.2c0.3,0.1,0.5,0.1,0.7,0.1c0.5,0,0.9-0.1,1.3-0.3l19.5,34.6
		c-0.8,0.6-1.3,1.6-1.3,2.6v0l-31.3,4c-0.2-0.9-0.9-1.7-1.7-2.1L375,124.2z M401.8,161.2C401.8,161.2,401.8,161.2,401.8,161.2
		c0-0.5-0.1-0.9-0.3-1.3l53.9-30.8c0.5,0.7,1.2,1.1,2,1.2l-1.8,36.1c-1.4,0.1-2.5,1-2.9,2.4L401.8,161.2z M490.2,55.4
		c0-0.2,0.1-0.5,0.1-0.7c0-2.3-1.9-4.2-4.1-4.2c-2.3,0-4.1,1.9-4.1,4.2c0,1.2,0.5,2.3,1.4,3.1l-10.2,3.6c-0.5-1.1-1.7-1.8-2.9-1.8
		c-0.5,0-1,0.1-1.4,0.3l-5.5-8.5c0.6-0.6,1-1.4,1-2.2l32-1.5l3.2,4.4L490.2,55.4z M405.3,20.5c-0.5-0.4-1.1-0.6-1.7-0.6
		c-1.2,0-2.3,0.8-2.7,1.9l-13.2-3L416.9,6c0,0,0.1,0.1,0.1,0.1L405.3,20.5z M365.1,55.4c0.1,0,0.2,0,0.3,0l7.6,34.1
		c-0.5,0.2-0.9,0.4-1.2,0.8l-35.7-26.5c0.3-0.5,0.4-1,0.4-1.6c0-0.2,0-0.4-0.1-0.6l25.7-8.2C362.7,54.7,363.9,55.4,365.1,55.4
		 M414.5,189.8c-0.4,0-0.7,0.1-1.1,0.2l-13.1-26.1c0.7-0.4,1.1-1.1,1.3-1.8l51,7.6c0,0,0,0.1,0,0.1c0,0.4,0.1,0.8,0.3,1.2
		l-35.8,20.2C416.5,190.3,415.5,189.8,414.5,189.8 M489.7,94.4l-17.4-29c0.4-0.3,0.8-0.8,1-1.3l38.1,11c0.2,0.4,0.4,0.7,0.7,1
		c0.4,0.4,0.8,0.7,1.3,0.9c0.1,0.3,0.2,0.7,0.4,0.9L493.2,95c-0.6-0.6-1.4-0.9-2.2-0.9C490.5,94.1,490.1,94.2,489.7,94.4
		 M464.3,48.4c-0.1-0.3-0.2-0.6-0.3-0.8l21.8-14.5l10,13.8L464.3,48.4z M422.4,2.8c-0.4-1.3-1.7-2.2-3.1-2.2c-1.2,0-2.2,0.6-2.8,1.6
		l-6.3-4.6c0.2-0.4,0.4-0.8,0.5-1.2l16.7,5.4L422.4,2.8z M361.9,52.7l-25.7,8.2c-0.5-1.2-1.7-1.9-2.9-1.9c-0.4,0-0.9,0.1-1.3,0.3
		l-9.7-16.4l3.7-5.2l36,13.7c-0.1,0.3-0.1,0.5-0.1,0.8C361.9,52.4,361.9,52.5,361.9,52.7 M330.4,60.8l-0.1,0.4
		c-0.1,0.4-0.2,0.7-0.2,1.1c0,0.7,0.2,1.4,0.7,2l-12.9,12.9c-0.3-0.2-0.7-0.4-1.1-0.5l2.3-29.4l2.7-3.7l9.5,16.1
		C330.9,60,330.6,60.4,330.4,60.8 M315.9,76.6c-0.6,0-1.2,0.2-1.8,0.6l-0.3,0.2c-0.2,0.2-0.4,0.4-0.5,0.6l-8.7-4.7
		c0.7-1.6,0.3-3.5-0.9-4.7l14.4-19.9L315.9,76.6z M303.3,140l21.8-8.2c0.4,0.8,1.1,1.4,2,1.6l1.6,30.1c-1.7,0.5-2.9,2.1-2.9,4
		c0,1.5,0.8,2.9,2.2,3.7l-1.8,6.4c-0.3-0.1-0.6-0.1-0.9-0.1c-0.2,0-0.3,0-0.5,0l-22.4-30.9c0.3-0.2,0.6-0.4,0.8-0.6
		C304.8,144.4,304.9,141.7,303.3,140 M398.3,164.4c0.5,0.1,0.9,0,1.3-0.2l13.1,26.1c-0.9,0.6-1.5,1.6-1.5,2.7c0,0.6,0.2,1.2,0.5,1.7
		L389.7,213c-0.3-0.3-0.7-0.6-1.2-0.7L398.3,164.4z M459.2,169.8c0-0.1,0-0.1,0-0.2c0-0.2,0-0.5-0.1-0.7l51-18.8l-18.7,25.7l-14-2.6
		L459.2,169.8z M490.9,176.6l-14.5,20c-0.7-0.4-1.4-0.6-2.2-0.6c-0.6,0-1.2,0.1-1.8,0.4l-14-24.6c0.3-0.3,0.5-0.7,0.7-1.2
		L490.9,176.6z M510.9,146.9l-49.7-19c0.1-0.3,0.1-0.5,0.1-0.8c0-0.7-0.2-1.3-0.6-1.9l28.1-25.5c0.8,0.7,2,1,3.1,0.6l18.3,40.9
		l1,2.3c0.1,0.6,0.4,1.1,0.7,1.6l0.2,0.3C511.6,145.9,511.2,146.3,510.9,146.9 M513,69.2l-12.1-16.6l4.9-1.7c0.7,0.6,1.7,1,2.6,1
		c0.2,0,0.5,0,0.7-0.1l4.9,17C513.7,68.9,513.3,69,513,69.2 M462.1,46c-0.7-0.2-1.4-0.2-2.1,0l-12.6-22.3c0.7-0.6,1.1-1.5,1.1-2.4
		c0-0.7-0.2-1.3-0.6-1.9l10.6-7.5l10.2,3.3c-0.2,1.3,0.3,2.6,1.2,3.6c0.4,0.4,0.8,0.7,1.3,0.9L462.1,46z M345.1,17.3l7.4,0.7
		l11.2,31.2c-0.6,0.3-1.1,0.8-1.4,1.4L326.5,37l12.2-16.8c1.7,1,3.9,0.7,5.3-0.7C344.6,19,345,18.2,345.1,17.3 M319.2,45.6l0.4-5.3
		c0.1,0,0.2,0,0.3,0l1.4,2.4L319.2,45.6z M320.7,40.2c1.6-0.5,2.7-1.8,2.9-3.4l1.6,0.6l-3.4,4.7L320.7,40.2z M304.1,74l8.7,4.7
		c0,0.1,0,0.1-0.1,0.2l-0.1,0.4l0,0c0,0.1,0,0.3,0,0.5c0,0.4,0.1,0.8,0.2,1.2l0.2,0.3c0.4,0.8,1.2,1.4,2.1,1.6l-2.9,19.9
		c-0.3,0-0.6,0-1,0.1l-8.9-27.4c0.5-0.2,0.9-0.5,1.3-0.9C303.8,74.4,304,74.2,304.1,74 M311.2,111c0.3,0.1,0.6,0.1,0.9,0.1
		c0.4,0,0.9-0.1,1.3-0.2l12.3,17c-0.3,0.3-0.6,0.6-0.7,1l-0.1,0.4c-0.1,0.4-0.2,0.7-0.2,1c0,0.2,0,0.5,0.1,0.8l-22.2,8.4
		c-0.2-0.2-0.5-0.3-0.7-0.4L311.2,111z M355.8,203.4l18.9,7.4l-20-6.5C355.1,204.1,355.5,203.8,355.8,203.4 M356.5,201.4
		c0-1.3-0.8-2.4-1.9-3l6-29.3c0.1,0,0.2,0,0.3,0c0.4,0,0.8-0.1,1.2-0.2l23.5,43.8c-0.4,0.3-0.7,0.7-1,1.1l-28.3-11.1
		C356.4,202.3,356.5,201.8,356.5,201.4 M364.1,165.9L364.1,165.9l31.3-4c0.3,1.1,1.1,1.9,2.1,2.3l-9.9,47.9c-0.5-0.1-1,0-1.4,0.2
		l-23.5-43.8C363.6,168,364.1,167,364.1,165.9 M482.1,19.8l-4.9-3.2c0-0.1,0.1-0.3,0.1-0.4L482.1,19.8z M463.5,46.9
		c-0.2-0.2-0.4-0.4-0.6-0.6l9.1-26.5c1.3,0.3,2.6,0,3.6-0.8l9.7,13.3L463.5,46.9z M468.9,14.4l-9.5-3.1l4.5-3.2
		c0.6,0.4,1.4,0.4,2,0.1l3.9,4.6C469.4,13.2,469.1,13.7,468.9,14.4 M447.5,2.6c1.5,0,2.8-0.8,3.6-2.1l11.8,5.4
		c0,0.2-0.1,0.3-0.1,0.4c0,0.4,0.1,0.8,0.4,1.2l-4.8,3.4l-27.7-9l12.8-2.5C444,1.3,445.7,2.6,447.5,2.6 M353,17.3l-0.1-0.4
		c0.1,0,0.3,0,0.4,0c1.7,0,3.2-1,3.8-2.6l9.4,4.3L353,17.3z M325.6,36.7l-2.1-0.8c-0.1-0.8-0.3-1.5-0.8-2.2l15.2-14L325.6,36.7z
		 M404.4,221.7l-6.2-2.3l6.2,2C404.4,221.5,404.4,221.6,404.4,221.7 M412.3,195.4c0.6,0.6,1.4,0.9,2.2,0.9c1.4,0,2.7-0.9,3.1-2.3
		l52.2,6.6c0,0.2,0,0.4,0.1,0.6l-27,8.8l-52.3,4.7c-0.1-0.4-0.2-0.7-0.4-1L412.3,195.4z M417.7,193.2c0,0,0-0.1,0-0.2
		c0-0.4-0.1-0.8-0.3-1.2l35.8-20.2c0.6,0.8,1.6,1.3,2.6,1.3c0.6,0,1.3-0.2,1.8-0.6l13.9,24.5c-0.2,0.2-0.4,0.3-0.6,0.5
		c-0.7,0.7-1.1,1.6-1.2,2.5L417.7,193.2z M495.4,180.2l-18.3,16.9l14.8-20.3l2.8,0.5c0,0.1,0,0.3,0,0.4
		C494.6,178.6,494.9,179.4,495.4,180.2 M511.3,141.8l-18.6-41.6c0.5-0.3,0.9-0.7,1.1-1.2l11.2,4.6c0.2,2.1,2,3.7,4.1,3.7
		c0.9,0,1.9-0.3,2.6-0.9l3.3,1.4v30.8c-1,0.1-2,0.5-2.7,1.2C511.9,140.3,511.5,141,511.3,141.8 M513.3,103c0-2.3-1.9-4.2-4.2-4.2
		c-2.2,0-3.9,1.6-4.1,3.7l-10.9-4.4c0.1-0.3,0.1-0.6,0.1-0.8c0-0.6-0.2-1.2-0.5-1.7l20.6-17.1c0.2,0.2,0.5,0.4,0.8,0.6v27.7
		l-2.7-1.1C513,104.9,513.3,104,513.3,103 M504.6,46.5l-7.8,0.4l-10.3-14.2l5.2-3.4c0.4,0.5,1,0.7,1.6,0.7c0.4,0,0.7-0.1,1-0.2
		l11.4,15.2C505.2,45.3,504.9,45.9,504.6,46.5 M329.1,183.4c0.3-0.6,0.4-1.2,0.4-1.7c0-1.7-1-3.1-2.5-3.8l1.8-6.4
		c0.4,0.1,0.8,0.2,1.1,0.2c2.2,0,4-1.7,4.1-3.8l24.1-0.2c0.4,0.6,1,1.1,1.7,1.3l-6,29.2c-0.2,0-0.4-0.1-0.5-0.1
		c-1.4,0-2.7,1-3.1,2.4l-0.1,0.4c0,0.1,0,0.3,0,0.5c0,0.3,0,0.5,0.1,0.9l0.1,0.4c0,0.1,0.1,0.2,0.1,0.3l-4.8-1.6
		c0.2-1.4-0.3-2.7-1.2-3.7c-1.4-1.4-3.7-1.7-5.4-0.6L329.1,183.4z M515.9,108l2.9,1.2c-0.3,0.6-0.4,1.2-0.4,1.8c0,1.7,1,3.1,2.5,3.8
		l-4.9,22.2V108z M515.9,107.1V79.3c0.2,0,0.5,0.1,0.7,0l4.7,27.6c-0.9,0.3-1.6,0.8-2.1,1.5L515.9,107.1z M522.1,106.7l-4.7-27.5
		c1.4-0.4,2.3-1.7,2.3-3.1c0-0.2,0-0.4-0.1-0.6l0-0.1l-0.6-0.5c0.8-1.7,0.5-3.6-0.8-4.9c-0.3-0.3-0.8-0.6-1.2-0.9l4.6-14.2
		c0.2,0,0.4,0.1,0.6,0.1V106.7z M470.5,12.2l-2.7-3.1l3.5,2.6C471,11.9,470.8,12,470.5,12.2 M409.6-1.6c0.1-0.1,0.1-0.1,0.2-0.2
		l6.4,4.7c-0.1,0.3-0.1,0.5-0.1,0.8c0,0.5,0.1,1,0.4,1.4l-30.1,13.3l-0.2-0.1c-0.8-1.2-2.1-2-3.5-2c-0.8,0-1.6,0.2-2.2,0.7
		l-22.9-5.2c0-0.1,0-0.2-0.1-0.3L402.5-3c0.2,0.5,0.5,1,0.9,1.4C405.1,0.1,407.9,0.1,409.6-1.6 M300,98.6l8.5,6.3
		c-0.4,0.6-0.6,1.4-0.6,2.1c0,1.6,1,3.1,2.4,3.8l-9.3,28c-0.3-0.1-0.7-0.1-1-0.1c0,0-0.1,0-0.1,0V98.6z M405.7,218.5
		c-0.6,0.6-1,1.3-1.2,2.1l-13.9-4.5c0-0.2,0.1-0.3,0.1-0.5l48.8-4.4l-26.8,8.7c-0.2-0.5-0.5-1-0.9-1.3c-0.8-0.8-1.9-1.3-3.1-1.3
		C407.6,217.2,406.5,217.6,405.7,218.5 M446.8,209.6l23.4-7.6c0.1,0.2,0.2,0.5,0.4,0.7l-4.5,3.3c-0.8-0.9-1.9-1.4-3.1-1.4
		c-2.2,0-4,1.7-4.1,3.9L446.8,209.6z M494.8,176.5l-2.4-0.5l18.8-25.8c0.2,0.3,0.5,0.6,0.8,0.8l-12,22.7c-0.4-0.1-0.8-0.2-1.2-0.2
		C496.9,173.5,495.3,174.8,494.8,176.5 M513.5,151.6c0.1,0,0.2,0,0.3,0c0.6,0,1.3-0.2,1.8-0.6l0.1,0l0-0.1c0.4-0.9,0.8-1.9,1.3-3.2
		l0-0.1l0-0.1c-0.1-0.3-0.1-0.5-0.3-0.8c0.7-0.2,1.4-0.6,1.9-1.1c1.3-1.3,1.6-3.3,0.8-4.9l12.7-9.6c0.2,0.2,0.4,0.3,0.6,0.5
		l-30.3,59.4c0,0-0.1,0-0.1,0L513.5,151.6z M530.5,127.8c0,1,0.3,2.1,1,2.9l-12.5,9.5c-0.1-0.2-0.3-0.3-0.4-0.5
		c-0.6-0.6-1.3-1-2.2-1.1l5.2-23.6c0.3,0.1,0.6,0.1,0.9,0.1c0.8,0,1.5-0.2,2.1-0.6l7.4,9.8C531.1,125.2,530.5,126.4,530.5,127.8
		 M516.1,68.7c-0.3-0.1-0.7-0.1-1-0.1c-0.1,0-0.2,0-0.3,0l-5-17.1c1.5-0.6,2.5-2.1,2.5-3.7c0-2.2-1.8-4-4-4c-0.7,0-1.4,0.2-2.1,0.6
		l-10.7-14.3l22.9,17.5c-0.5,0.8-0.8,1.7-0.8,2.6c0,1.9,1.2,3.7,2.9,4.4L516.1,68.7z M517.7,45.9l-22.4-17.1
		c0.2-0.3,0.3-0.7,0.3-1.1c0-1.4-1.2-2.5-2.6-2.3L471-0.8L517.7,45.9z M491.8,26l-14.5-10.9c-0.1-1-0.5-1.8-1.2-2.5
		c-1-1-2.4-1.4-3.7-1.2l-5.6-4.2c0.1-0.3,0.2-0.6,0.2-0.9c0-0.8-0.5-1.6-1.3-1.9l0.8-4.2c0.4,0.1,0.7,0.1,1,0.1c1,0,1.9-0.3,2.7-0.9
		l21.9,26.1C492,25.8,491.9,25.9,491.8,26 M464.9,4.3c-0.5,0-0.9,0.2-1.3,0.5L462,3.7l1.3,1.5c0,0,0,0,0,0l-11.8-5.4
		c0.1-0.4,0.2-0.9,0.2-1.3c0-0.3,0-0.5-0.1-0.8l11.2-1.1c0.3,1.6,1.4,2.9,2.9,3.5L464.9,4.3z M462.7-4.3l-11.4,1.1
		c-0.7-1.5-2.1-2.5-3.8-2.5c-2.3,0-4.2,1.9-4.2,4.2c0,0.1,0,0.2,0,0.3l-14.2,2.7l-18.4-6c0.1-1.2-0.4-2.4-1.2-3.2
		c-1.7-1.7-4.5-1.7-6.1,0c-0.1,0.1-0.1,0.1-0.2,0.2l-9.3-6.9c0.2-0.4,0.3-0.8,0.3-1.2l68.5,10.8C462.7-4.6,462.7-4.5,462.7-4.3
		L462.7-4.3z M402.2-3.8L357,10.8c-0.7-1.4-2.1-2.2-3.7-2.2c-2.3,0-4.2,1.9-4.2,4.2c0,0.2,0,0.4,0,0.6l-4.4,1.4
		c-0.2-0.5-0.5-1-0.9-1.4c-0.8-0.8-1.9-1.3-3.1-1.3c-1.2,0-2.2,0.5-3.1,1.3c-0.9,0.9-1.3,2.1-1.2,3.4L326,18.7
		c-0.1-0.5-0.3-0.9-0.5-1.3l60.3-30.7c0.9,1.2,2.3,1.9,3.8,1.9c1.6,0,3.2-0.9,4-2.3l9.2,6.8C402.2-6,402-4.9,402.2-3.8 M298.1,75.1
		c0.3,0.2,0.7,0.4,1.1,0.5v21.2l-8.5-6.3c0.5-0.8,0.7-1.6,0.7-2.5c0-1.3-0.5-2.5-1.4-3.4L298.1,75.1z M300.1,147.3
		c0.5,0,1-0.1,1.5-0.3l22.3,30.7c-0.8,0.3-1.6,0.9-2,1.6l-19.6-14.1c0.4-0.7,0.6-1.5,0.6-2.3c0-2.3-1.6-4.2-3.8-4.7L300.1,147.3z
		 M301.8,165.9l19.7,14.2c-0.2,0.5-0.3,1-0.3,1.5c0,2.3,1.9,4.2,4.2,4.2c1.3,0,2.5-0.6,3.3-1.6l9.7,13.4c0,0-0.1,0.1-0.1,0.1
		c-0.8,0.8-1.3,1.9-1.3,3.1c0,1.2,0.5,2.3,1.3,3.1c1.3,1.3,3.4,1.6,5,0.8l7.2,11.2c-0.1,0.1-0.2,0.2-0.2,0.2l-49.3-49.3
		C301.2,166.5,301.5,166.2,301.8,165.9 M344.4,203.8c0.4-0.5,0.8-1,1-1.6l6.4,2.1c0.3,0.2,0.6,0.3,0.9,0.3l31.5,10.2
		c0,0.2-0.1,0.4-0.1,0.5c0,0.1,0,0.2,0,0.2l-25.7,3.2c-0.3-2.4-2.3-4.3-4.8-4.3c-0.9,0-1.8,0.3-2.6,0.8l-7.1-11.1
		C344.1,204.1,344.3,204,344.4,203.8 M358.5,219.6l25.8-3.2c0.3,0.8,0.9,1.5,1.7,1.9l0.4,0.1c0.3,0.1,0.6,0.1,0.9,0.2l0,0
		c1.1,0,2-0.5,2.6-1.4l14.5,5.5c0.2,0.8,0.6,1.4,1.1,1.9c1.5,1.5,3.8,1.7,5.5,0.5l15.6,5.9c0,0.1,0,0.2-0.1,0.2l-68.3-10.8
		C358.4,220.2,358.5,219.9,358.5,219.6 M413,220.6l30.3-9.9l15.5-1.4c0.1,0.5,0.2,1.1,0.5,1.5l-24.7,17.9c-0.9-0.8-2-1.3-3.3-1.3
		c-1.7,0-3.3,0.9-4.1,2.4l-14.4-6.9C413.1,222.2,413.2,221.4,413,220.6 M459.8,211.6c0.8,0.9,1.9,1.4,3.1,1.4c2.3,0,4.1-1.9,4.1-4.2
		c0-0.7-0.2-1.5-0.6-2.1l4.5-3.3c0,0,0,0,0,0c0.8,0.8,1.9,1.3,3.1,1.3c1.2,0,2.2-0.5,3.1-1.3c0.9-0.9,1.3-2.1,1.2-3.4l17.6-2.7
		c0.1,0.3,0.3,0.6,0.4,0.9l-61.3,31.2L459.8,211.6z M502.9,177.7c0-1.5-0.8-2.9-2.2-3.6l11.8-22.5L501.5,191
		c-0.3-0.1-0.6-0.1-0.9-0.1c0,0-0.1,0-0.1,0l-1-9.1C501.5,181.3,502.9,179.7,502.9,177.7 M526.7,110.9c0-1.6-0.9-3-2.3-3.7l0.2-0.3
		l0-0.2c0-0.1,0-0.2,0-0.3c0-0.1,0-0.2,0-0.3v-0.8l-0.9,1.6c-0.2-0.1-0.4-0.1-0.7-0.1V54.9c0.1,0,0.3,0,0.4,0l10.8,68.3
		c-0.5,0.1-0.9,0.3-1.4,0.6l-7.4-9.8C526.2,113.1,526.7,112.1,526.7,110.9"/>
</g>
<g>
	<defs>
		<rect id="SVGID_30_" x="-65" y="-129.3" width="841.9" height="595.3"/>
	</defs>
	<clipPath id="SVGID_31_">
		<use xlink:href="#SVGID_30_"  style="overflow:visible;"/>
	</clipPath>
	<path class="st11" d="M413.3,195.6c-48.3,0-87.6-39.3-87.6-87.6c0-48.3,39.3-87.6,87.6-87.6c48.3,0,87.6,39.3,87.6,87.6
		C500.9,156.3,461.6,195.6,413.3,195.6 M413.3,22.3c-47.3,0-85.7,38.5-85.7,85.7c0,47.3,38.5,85.7,85.7,85.7
		c47.3,0,85.7-38.5,85.7-85.7C499,60.7,460.5,22.3,413.3,22.3"/>
	<path class="st11" d="M303.5,206.8c-54.5,0-98.8-44.3-98.8-98.8c0-54.5,44.3-98.8,98.8-98.8c54.5,0,98.8,44.3,98.8,98.8
		C402.3,162.5,358,206.8,303.5,206.8"/>
</g>
<g>
	<defs>
		<path id="SVGID_32_" d="M212.2,108c0,50.3,40.9,91.3,91.3,91.3c50.3,0,91.3-40.9,91.3-91.3c0-50.3-40.9-91.3-91.3-91.3
			C253.2,16.7,212.2,57.7,212.2,108"/>
	</defs>
	<clipPath id="SVGID_33_">
		<use xlink:href="#SVGID_32_"  style="overflow:visible;"/>
	</clipPath>
	
		<linearGradient id="SVGID_34_" gradientUnits="userSpaceOnUse" x1="-65" y1="466" x2="-64" y2="466" gradientTransform="matrix(182.5576 0 0 -182.5576 12078.4746 85179.8594)">
		<stop  offset="0" style="stop-color:#FFF23B"/>
		<stop  offset="3.992794e-02" style="stop-color:#FEE62E"/>
		<stop  offset="0.1171" style="stop-color:#FDD41B"/>
		<stop  offset="0.1965" style="stop-color:#FCC910"/>
		<stop  offset="0.2809" style="stop-color:#FCC60C"/>
		<stop  offset="0.6685" style="stop-color:#F28F3F"/>
		<stop  offset="0.8876" style="stop-color:#EC683C"/>
		<stop  offset="1" style="stop-color:#E83E3A"/>
	</linearGradient>
	<rect x="212.2" y="16.7" class="st12" width="182.6" height="182.6"/>
</g>
<g>
	<defs>
		<rect id="SVGID_35_" x="-65" y="-129.3" width="841.9" height="595.3"/>
	</defs>
	<clipPath id="SVGID_36_">
		<use xlink:href="#SVGID_35_"  style="overflow:visible;"/>
	</clipPath>
	<path class="st13" d="M303.5,195.6c-48.3,0-87.6-39.3-87.6-87.6c0-48.3,39.3-87.6,87.6-87.6c48.3,0,87.6,39.3,87.6,87.6
		C391.1,156.3,351.8,195.6,303.5,195.6 M303.5,22.3c-47.3,0-85.7,38.5-85.7,85.7c0,47.3,38.5,85.7,85.7,85.7
		c47.3,0,85.7-38.5,85.7-85.7C389.2,60.7,350.8,22.3,303.5,22.3"/>
	<path class="st13" d="M327,85.8h-34.2c-0.3,0-0.6-0.1-0.9-0.3l-16.5-16c-0.4-0.3-0.5-0.9-0.3-1.3c0.2-0.5,0.6-0.8,1.1-0.8h66.6
		c0.5,0,0.9,0.3,1.1,0.7c0.2,0.4,0.1,1-0.3,1.3l-15.9,16C327.6,85.7,327.3,85.8,327,85.8 M293.3,83.4h33.2L340,69.8h-60.7
		L293.3,83.4z"/>
	<path class="st13" d="M327,120.7h-34.2c-0.2,0-0.4-0.1-0.6-0.2l-25.8-15.7c-0.5-0.3-0.7-0.8-0.5-1.4c0.1-0.5,0.6-0.9,1.2-0.9h85.1
		c0.5,0,1,0.4,1.2,0.9c0.1,0.5-0.1,1.1-0.5,1.3l-25.2,15.7C327.4,120.6,327.2,120.7,327,120.7 M293.1,118.3h33.5L348,105h-76.7
		L293.1,118.3z"/>
	<path class="st13" d="M262.6,179.1c-0.3,0-0.6-0.1-0.9-0.4c-0.4-0.4-0.4-0.9-0.2-1.4l30.1-58.2v-15.4v0V84.6v0v-16
		c0-0.2,0-0.3,0.1-0.4l7.1-18.3c-0.2-0.3-0.3-0.7-0.2-1c0.1-0.4,0.5-0.7,0.9-0.8l9.2-24c0.2-0.5,0.6-0.8,1.1-0.8
		c0.5,0,0.9,0.3,1.1,0.8l9.4,24.1c0.3,0.1,0.5,0.4,0.6,0.7c0.1,0.3,0.1,0.5,0,0.8l7.2,18.6c0,0,0,0,0,0.1c0,0.1,0.1,0.2,0.1,0.4
		v50.6l25.5,58.2c0.2,0.5,0.1,1-0.3,1.4c-0.4,0.3-0.9,0.4-1.4,0.2l-43.3-23.4L263.2,179C263,179.1,262.8,179.1,262.6,179.1
		 M312,154.6l38,20.6l-22.3-50.8l-2.3,26.1c0,0.5-0.4,0.9-0.9,1.1L312,154.6z M291.9,123.9l-26.5,51.3l40.4-20.8l-11.5-4.5
		c-0.4-0.2-0.7-0.6-0.8-1L291.9,123.9z M295.9,147.9l12.9,5.1l14.4-3.6l2.5-28.7l-16.1-7.6l-15.6,7.2L295.9,147.9z M312.5,111.8
		l13.3,6.3v-12.4L312.5,111.8z M294,105.7v11.9l12.8-5.9L294,105.7z M295.4,103.7l14.2,6.7l14.7-6.8l-14.4-8.1L295.4,103.7z
		 M312.3,94.2l13.4,7.5V86.6L312.3,94.2z M294,86.6v15.1l13.4-7.5L294,86.6z M295.4,84.7l14.5,8.1l14.5-8.1l-14.5-6.8L295.4,84.7z
		 M312.7,76.6l13,6.1V70.5L312.7,76.6z M294,70.5v12.2l13.1-6.1L294,70.5z M295.2,68.4l14.7,6.9l14.7-6.9l-14.8-10.6L295.2,68.4z
		 M311.8,56.3l12.6,8.9l-5.5-14.1L311.8,56.3z M300.7,51.4l-5.4,13.9l12.4-8.9L300.7,51.4z M303.5,50.4l6.3,4.5l6.2-4.5H303.5z
		 M302,48h15.6l-7.9-20.2L302,48z"/>
	
		<rect x="321.5" y="106.9" transform="matrix(0.699 -0.7151 0.7151 0.699 -9.2212 275.5196)" class="st13" width="2.4" height="83.6"/>
	<polygon class="st13" points="263.4,178.8 261.8,177 326.2,119.1 327.8,120.9 	"/>
	<polygon class="st13" points="294.7,149.9 278.2,148.7 278.4,146.3 294.9,147.5 	"/>
	<polygon class="st13" points="291.5,164 289.2,163.3 293.6,148.4 295.9,149.1 	"/>
	<polygon class="st13" points="324.5,151.5 324.2,149.1 339.3,146.9 339.7,149.3 	"/>
	<polygon class="st13" points="328.6,166 323.2,150.7 325.5,149.9 330.8,165.2 	"/>
	<rect x="275.1" y="68.6" class="st13" width="2.4" height="16"/>
	<rect x="270.7" y="78.1" class="st13" width="11" height="3.7"/>
	<rect x="270.7" y="84.6" class="st13" width="11" height="3.7"/>
	<rect x="265.9" y="103.5" class="st13" width="2.4" height="16"/>
	<rect x="261.5" y="113" class="st13" width="11" height="3.7"/>
	<rect x="261.5" y="119.5" class="st13" width="11" height="3.7"/>
	<rect x="341.8" y="68.6" class="st13" width="2.4" height="16"/>
	<rect x="337.4" y="78.1" class="st13" width="11" height="3.7"/>
	<rect x="337.4" y="84.6" class="st13" width="11" height="3.7"/>
	<rect x="351.5" y="103.8" class="st13" width="2.4" height="16"/>
	<rect x="347.1" y="113.3" class="st13" width="11" height="3.7"/>
	<rect x="347.1" y="119.8" class="st13" width="11" height="3.7"/>
	<path class="st13" d="M195.3,206.8c-54.5,0-98.8-44.3-98.8-98.8c0-54.5,44.3-98.8,98.8-98.8c54.5,0,98.8,44.3,98.8,98.8
		C294.1,162.5,249.8,206.8,195.3,206.8"/>
</g>
<g>
	<defs>
		<path id="SVGID_37_" d="M104,108c0,50.3,40.9,91.3,91.3,91.3c50.3,0,91.3-40.9,91.3-91.3c0-50.3-40.9-91.3-91.3-91.3
			C145,16.7,104,57.7,104,108"/>
	</defs>
	<clipPath id="SVGID_38_">
		<use xlink:href="#SVGID_37_"  style="overflow:visible;"/>
	</clipPath>
	
		<linearGradient id="SVGID_39_" gradientUnits="userSpaceOnUse" x1="-65" y1="466" x2="-64" y2="466" gradientTransform="matrix(182.5567 0 0 -182.5567 11970.2051 85179.4453)">
		<stop  offset="0" style="stop-color:#FFF23B"/>
		<stop  offset="3.992794e-02" style="stop-color:#FEE62E"/>
		<stop  offset="0.1171" style="stop-color:#FDD41B"/>
		<stop  offset="0.1965" style="stop-color:#FCC910"/>
		<stop  offset="0.2809" style="stop-color:#FCC60C"/>
		<stop  offset="0.6685" style="stop-color:#F28F3F"/>
		<stop  offset="0.8876" style="stop-color:#EC683C"/>
		<stop  offset="1" style="stop-color:#E83E3A"/>
	</linearGradient>
	<rect x="104" y="16.7" class="st14" width="182.6" height="182.6"/>
</g>
<g>
	<defs>
		<path id="SVGID_40_" d="M108.8,108.1c0,47.9,38.8,86.7,86.7,86.7c47.9,0,86.7-38.8,86.7-86.7c0-47.9-38.8-86.7-86.7-86.7
			C147.6,21.5,108.8,60.3,108.8,108.1"/>
	</defs>
	<clipPath id="SVGID_41_">
		<use xlink:href="#SVGID_40_"  style="overflow:visible;"/>
	</clipPath>
	<path class="st15" d="M-29.4,95.2c0,0,1.7-0.3,5-0.8c1.6-0.2,3.6-0.5,6-0.8c2.4-0.4,5-1,7.9-1.5c1.5-0.3,3-0.6,4.6-0.9
		c1.6-0.4,3.3-0.8,5-1.3c1.7-0.4,3.5-0.9,5.4-1.4c1.8-0.6,3.8-1.1,5.7-1.7c7.9-2.3,16.6-5.5,26.3-9c9.7-3.5,20.4-7.6,32.6-10.8
		c12.2-3.2,26.2-5.5,40.9-4.8c3.7,0,7.4,0.4,11.1,1c1.9,0.3,3.7,0.5,5.6,0.8c1.8,0.4,3.7,0.9,5.5,1.3l5.5,1.3l1.4,0.3l1.5,0.5
		l2.4,0.7c3.3,1.1,6.3,1.9,9.8,3.2c3.4,1.3,6.9,2.5,10.3,3.8c3.3,1.3,6.6,2.6,9.9,4c6.4,2.8,12.8,5.6,19.2,8.4
		c12.5,5.7,24.5,11,35.9,14.5c1.4,0.4,2.9,0.9,4.3,1.3l4.2,0.9c2.8,0.8,5.6,1.1,8.4,1.5c1.4,0.3,2.8,0.4,4.2,0.4l4.2,0.3
		c2.8,0.2,5.5-0.1,8.3-0.1c5.5-0.4,11-1.2,16.5-2.4c1.4-0.3,2.7-0.5,4.1-0.9c1.5-0.4,3-0.8,4.5-1.2c3-0.8,5.9-1.5,8.7-2.2
		c11.5-2.9,22.5-5.7,33.1-7.7c10.6-2,21.1-3.1,30.4-2.2c9.3,0.8,17,3.6,22.7,6.3c1.4,0.7,2.8,1.4,4,2c1.2,0.7,2.3,1.4,3.4,2
		c2.1,1.2,3.8,2.3,5.2,3.3c2.7,1.9,4.1,2.9,4.1,2.9s-1.7-0.4-4.9-1.1c-1.6-0.4-3.5-0.9-5.9-1.3c-2.3-0.5-4.9-0.9-7.9-1.2
		c-5.9-0.7-12.8-1-20.4,0.3c-7.6,1.3-15.9,4.2-25.2,8.1c-9.3,3.8-19.5,8.5-30.6,13.1c-2.8,1.2-5.6,2.3-8.4,3.5
		c-1.4,0.6-2.8,1.1-4.3,1.7c-1.5,0.6-3.2,1.1-4.8,1.7c-6.5,2.5-13.6,4.1-20.9,5.4c-14.7,2.4-30.9,1.4-45.7-2.5
		c-14.9-3.7-28.4-9.7-41.1-15.3c-6.2-2.8-12.5-5.7-18.7-8.5c-3.1-1.3-6.1-2.6-9.1-4c-2.9-1.2-5.9-2.5-8.8-3.7
		c-2.9-1.2-6.3-2.4-9.4-3.6l-2.4-0.9l-0.6-0.2l-0.3-0.1c0.6,0.2,0.1,0,0.2,0.1l-0.1,0l-1-0.3l-4.2-1.3l-4.1-1.3l-4.2-0.9l-4.2-1
		c-1.4-0.3-2.8-0.4-4.2-0.6c-11.1-1.6-22.4-1.4-33.5-0.1c-11.1,1.2-22.2,3.2-32.6,4.7c-10.5,1.5-20.3,2.7-29.1,2.9
		c-2.2,0.1-4.3,0.1-6.3,0.2c-2,0-4-0.1-5.9-0.2c-1.9-0.1-3.7-0.2-5.4-0.2c-1.7-0.1-3.4-0.4-5-0.6c-3.1-0.4-5.9-0.7-8.3-1.2
		c-2.3-0.5-4.3-1-5.9-1.3C-27.7,95.6-29.4,95.2-29.4,95.2"/>
	<path class="st15" d="M184.7,70.8c0,0,1,0.1,2.9,0.3c1.9,0.2,4.7,0.5,8.2,1c3.5,0.4,7.8,1.3,12.6,2.1c4.8,0.9,10.2,2,16,3.1
		c5.8,1.2,12,2.3,18.3,3.1c6.3,0.7,12.7,0.7,19.4-0.1c3.4-0.4,6.8-1.1,10.3-1.8c3.5-0.9,7.1-1.6,10.8-2.6c3.6-0.9,7.4-2.1,11.1-3.1
		l5.8-1.7c2-0.5,4.1-1.1,6.1-1.6c8.1-2,16.3-3.5,24.7-4.1c8.3-0.7,16.6-0.4,24.5,0.8c7.9,1.2,15.3,3.3,22,5.9
		c6.7,2.6,12.7,5.5,18,8.6c10.7,6.1,18.7,12.2,24.3,16.5c5.5,4.4,8.5,7.1,8.5,7.1s-3.6-1.8-9.9-4.9c-3.1-1.5-6.9-3.4-11.4-5.4
		c-4.4-2-9.4-4.2-14.9-6.3c-5.5-2-11.5-4.1-17.9-5.6c-6.4-1.6-13.2-2.7-20.2-3.1c-7-0.4-14.2,0-21.6,1c-7.3,1.1-14.7,2.8-22,5
		l-5.4,1.7l-5.6,1.9c-3.9,1.3-7.7,2.6-11.6,3.7c-7.8,2.2-15.8,4-24.1,4.6c-8.2,0.6-16.4-0.2-23.5-1.9c-7.2-1.7-13.5-4-19.2-6.3
		c-5.7-2.3-10.7-4.6-15.1-6.8c-4.4-2.2-8.3-4-11.4-5.7c-3.1-1.6-5.6-2.9-7.3-3.9C185.6,71.3,184.7,70.8,184.7,70.8"/>
	<path class="st15" d="M-64.2,89.8c43.8,54.2,101.1,32.7,159.3,44.2c71.9,14.1,102.5,56.6,179.5,10.1
		c-66.8,21.5-107.6-29.7-169.4-39.9C56.7,96.1-2,127.5-64.2,89.8"/>
</g>
<g>
	<defs>
		<rect id="SVGID_42_" x="-65" y="-129.3" width="841.9" height="595.3"/>
	</defs>
	<clipPath id="SVGID_43_">
		<use xlink:href="#SVGID_42_"  style="overflow:visible;"/>
	</clipPath>
	<path class="st16" d="M195,195.6c-48.3,0-87.6-39.3-87.6-87.6c0-48.3,39.3-87.6,87.6-87.6c48.3,0,87.6,39.3,87.6,87.6
		C282.6,156.3,243.3,195.6,195,195.6 M195,22.3c-47.3,0-85.7,38.5-85.7,85.7c0,47.3,38.5,85.7,85.7,85.7c47.3,0,85.7-38.5,85.7-85.7
		C280.8,60.7,242.3,22.3,195,22.3"/>
</g>
</svg>
