<svg width="48" height="48" viewBox="0 0 48 48" fill="none" xmlns="http://www.w3.org/2000/svg">
<g filter="url(#filter0_iiii_270_996)">
<path d="M35.1774 8.49667H12.8223C9.08505 8.49667 6.05542 11.5263 6.05542 15.2635V35.2316C6.05542 38.9688 9.08505 41.9985 12.8223 41.9985H35.1774C38.9147 41.9985 41.9443 38.9688 41.9443 35.2316V15.2635C41.9443 11.5263 38.9147 8.49667 35.1774 8.49667Z" fill="url(#paint0_linear_270_996)"/>
</g>
<path d="M41.9443 17.2781H6.05542V15.0702C6.05542 13.3268 6.74799 11.6548 7.98076 10.422C9.21354 9.18923 10.8855 8.49667 12.6289 8.49667H35.3708C37.1142 8.49667 38.7862 9.18923 40.019 10.422C41.2517 11.6548 41.9443 13.3268 41.9443 15.0702V17.2794V17.2781Z" fill="url(#paint1_linear_270_996)"/>
<path d="M41.9443 17.2781H6.05542V15.0702C6.05542 13.3268 6.74799 11.6548 7.98076 10.422C9.21354 9.18923 10.8855 8.49667 12.6289 8.49667H35.3708C37.1142 8.49667 38.7862 9.18923 40.019 10.422C41.2517 11.6548 41.9443 13.3268 41.9443 15.0702V17.2794V17.2781Z" fill="url(#paint2_linear_270_996)"/>
<path d="M41.9443 17.2781H6.05542V15.0702C6.05542 13.3268 6.74799 11.6548 7.98076 10.422C9.21354 9.18923 10.8855 8.49667 12.6289 8.49667H35.3708C37.1142 8.49667 38.7862 9.18923 40.019 10.422C41.2517 11.6548 41.9443 13.3268 41.9443 15.0702V17.2794V17.2781Z" fill="url(#paint3_radial_270_996)"/>
<path d="M41.9443 17.2781H6.05542V15.0702C6.05542 13.3268 6.74799 11.6548 7.98076 10.422C9.21354 9.18923 10.8855 8.49667 12.6289 8.49667H35.3708C37.1142 8.49667 38.7862 9.18923 40.019 10.422C41.2517 11.6548 41.9443 13.3268 41.9443 15.0702V17.2794V17.2781Z" fill="url(#paint4_linear_270_996)"/>
<g filter="url(#filter1_ii_270_996)">
<path d="M41.9443 29.9238V35.4249C41.9443 37.1683 41.2517 38.8403 40.019 40.0731C38.7862 41.3059 37.1142 41.9984 35.3708 41.9984H29.7962L41.9443 29.9238Z" fill="#D3CBDD"/>
</g>
<g filter="url(#filter2_iii_270_996)">
<path d="M17.9006 20.9026H14.543C14.4718 20.9026 14.4141 20.9603 14.4141 21.0315V24.3891C14.4141 24.4603 14.4718 24.518 14.543 24.518H17.9006C17.9718 24.518 18.0295 24.4603 18.0295 24.3891V21.0315C18.0295 20.9603 17.9718 20.9026 17.9006 20.9026Z" fill="#9896A1"/>
</g>
<g filter="url(#filter3_iii_270_996)">
<path d="M25.6188 20.9026H22.2611C22.1899 20.9026 22.1322 20.9603 22.1322 21.0315V24.3891C22.1322 24.4603 22.1899 24.518 22.2611 24.518H25.6188C25.69 24.518 25.7477 24.4603 25.7477 24.3891V21.0315C25.7477 20.9603 25.69 20.9026 25.6188 20.9026Z" fill="#9896A1"/>
</g>
<g filter="url(#filter4_iii_270_996)">
<path d="M33.3368 20.9026H29.9792C29.908 20.9026 29.8503 20.9603 29.8503 21.0315V24.3891C29.8503 24.4603 29.908 24.518 29.9792 24.518H33.3368C33.408 24.518 33.4657 24.4603 33.4657 24.3891V21.0315C33.4657 20.9603 33.408 20.9026 33.3368 20.9026Z" fill="#9896A1"/>
</g>
<g filter="url(#filter5_iii_270_996)">
<path d="M17.9006 27.3472H14.543C14.4718 27.3472 14.4141 27.4049 14.4141 27.4761V30.8338C14.4141 30.905 14.4718 30.9627 14.543 30.9627H17.9006C17.9718 30.9627 18.0295 30.905 18.0295 30.8338V27.4761C18.0295 27.4049 17.9718 27.3472 17.9006 27.3472Z" fill="#9896A1"/>
</g>
<g filter="url(#filter6_iii_270_996)">
<path d="M17.9006 33.7919H14.543C14.4718 33.7919 14.4141 33.8496 14.4141 33.9207V37.2784C14.4141 37.3496 14.4718 37.4073 14.543 37.4073H17.9006C17.9718 37.4073 18.0295 37.3496 18.0295 37.2784V33.9207C18.0295 33.8496 17.9718 33.7919 17.9006 33.7919Z" fill="#9896A1"/>
</g>
<g filter="url(#filter7_iii_270_996)">
<path d="M25.6188 27.3472H22.2611C22.1899 27.3472 22.1322 27.4049 22.1322 27.4761V30.8338C22.1322 30.905 22.1899 30.9627 22.2611 30.9627H25.6188C25.69 30.9627 25.7477 30.905 25.7477 30.8338V27.4761C25.7477 27.4049 25.69 27.3472 25.6188 27.3472Z" fill="#9896A1"/>
</g>
<g filter="url(#filter8_iii_270_996)">
<path d="M25.6188 33.7919H22.2611C22.1899 33.7919 22.1322 33.8496 22.1322 33.9207V37.2784C22.1322 37.3496 22.1899 37.4073 22.2611 37.4073H25.6188C25.69 37.4073 25.7477 37.3496 25.7477 37.2784V33.9207C25.7477 33.8496 25.69 33.7919 25.6188 33.7919Z" fill="#9896A1"/>
</g>
<g filter="url(#filter9_iii_270_996)">
<path d="M33.3368 27.3472H29.9792C29.908 27.3472 29.8503 27.4049 29.8503 27.4761V30.8338C29.8503 30.905 29.908 30.9627 29.9792 30.9627H33.3368C33.408 30.9627 33.4657 30.905 33.4657 30.8338V27.4761C33.4657 27.4049 33.408 27.3472 33.3368 27.3472Z" fill="url(#paint5_linear_270_996)"/>
</g>
<g filter="url(#filter10_iii_270_996)">
<path d="M33.3368 33.7919H29.9792C29.908 33.7919 29.8503 33.8496 29.8503 33.9207V37.2784C29.8503 37.3496 29.908 37.4073 29.9792 37.4073H33.3368C33.408 37.4073 33.4657 37.3496 33.4657 37.2784V33.9207C33.4657 33.8496 33.408 33.7919 33.3368 33.7919Z" fill="#9896A1"/>
</g>
<g filter="url(#filter11_i_270_996)">
<path d="M41.8219 30.1532C41.8803 30.0951 41.9202 30.0209 41.9364 29.94C41.9527 29.8592 41.9445 29.7753 41.9131 29.6991C41.8816 29.6229 41.8282 29.5578 41.7596 29.5119C41.6911 29.4661 41.6105 29.4417 41.528 29.4417H40.02C37.1997 29.4417 34.495 30.5621 32.5008 32.5562C30.5066 34.5504 29.3863 37.2552 29.3863 40.0754V41.5834C29.3863 41.6659 29.4107 41.7465 29.4565 41.815C29.5023 41.8836 29.5675 41.937 29.6437 41.9685C29.7199 42 29.8038 42.0081 29.8846 41.9919C29.9654 41.9756 30.0396 41.9358 30.0978 41.8773L41.8219 30.1532Z" fill="url(#paint6_radial_270_996)"/>
<path d="M41.8219 30.1532C41.8803 30.0951 41.9202 30.0209 41.9364 29.94C41.9527 29.8592 41.9445 29.7753 41.9131 29.6991C41.8816 29.6229 41.8282 29.5578 41.7596 29.5119C41.6911 29.4661 41.6105 29.4417 41.528 29.4417H40.02C37.1997 29.4417 34.495 30.5621 32.5008 32.5562C30.5066 34.5504 29.3863 37.2552 29.3863 40.0754V41.5834C29.3863 41.6659 29.4107 41.7465 29.4565 41.815C29.5023 41.8836 29.5675 41.937 29.6437 41.9685C29.7199 42 29.8038 42.0081 29.8846 41.9919C29.9654 41.9756 30.0396 41.9358 30.0978 41.8773L41.8219 30.1532Z" fill="url(#paint7_linear_270_996)"/>
</g>
<g filter="url(#filter12_f_270_996)">
<path d="M40.6348 16.6053C40.6348 12.8674 39.0236 9.83846 33.8679 9.83846H20.7775" stroke="url(#paint8_radial_270_996)" stroke-width="1.5"/>
</g>
<g filter="url(#filter13_f_270_996)">
<path d="M12.4163 8.77248H15.6386V12.4279C15.6401 12.8014 15.497 13.1609 15.2393 13.4313C14.9817 13.7017 14.6294 13.8619 14.2563 13.8784C13.8832 13.8949 13.5181 13.7664 13.2376 13.5198C12.9571 13.2732 12.7829 12.9276 12.7514 12.5555L12.4163 8.77248Z" fill="url(#paint9_linear_270_996)"/>
</g>
<g filter="url(#filter14_f_270_996)">
<path d="M29.3257 8.77248H32.548V12.4279C32.5495 12.8014 32.4065 13.1609 32.1488 13.4313C31.8911 13.7017 31.5389 13.8619 31.1657 13.8784C30.7926 13.8949 30.4276 13.7664 30.1471 13.5198C29.8666 13.2732 29.6923 12.9276 29.6609 12.5555L29.3257 8.77248Z" fill="url(#paint10_linear_270_996)"/>
</g>
<path d="M17.1118 7.61116C17.1118 6.72134 16.3905 6 15.5007 6C14.6109 6 13.8895 6.72134 13.8895 7.61116V12.5851C13.8895 13.4749 14.6109 14.1963 15.5007 14.1963C16.3905 14.1963 17.1118 13.4749 17.1118 12.5851V7.61116Z" fill="url(#paint11_linear_270_996)"/>
<path d="M17.1118 7.61116C17.1118 6.72134 16.3905 6 15.5007 6C14.6109 6 13.8895 6.72134 13.8895 7.61116V12.5851C13.8895 13.4749 14.6109 14.1963 15.5007 14.1963C16.3905 14.1963 17.1118 13.4749 17.1118 12.5851V7.61116Z" fill="url(#paint12_radial_270_996)"/>
<path d="M17.1118 7.61116C17.1118 6.72134 16.3905 6 15.5007 6C14.6109 6 13.8895 6.72134 13.8895 7.61116V12.5851C13.8895 13.4749 14.6109 14.1963 15.5007 14.1963C16.3905 14.1963 17.1118 13.4749 17.1118 12.5851V7.61116Z" fill="url(#paint13_radial_270_996)"/>
<path d="M33.9285 7.61116C33.9285 6.72134 33.2071 6 32.3173 6C31.4275 6 30.7061 6.72134 30.7061 7.61116V12.5851C30.7061 13.4749 31.4275 14.1963 32.3173 14.1963C33.2071 14.1963 33.9285 13.4749 33.9285 12.5851V7.61116Z" fill="url(#paint14_linear_270_996)"/>
<path d="M33.9285 7.61116C33.9285 6.72134 33.2071 6 32.3173 6C31.4275 6 30.7061 6.72134 30.7061 7.61116V12.5851C30.7061 13.4749 31.4275 14.1963 32.3173 14.1963C33.2071 14.1963 33.9285 13.4749 33.9285 12.5851V7.61116Z" fill="url(#paint15_radial_270_996)"/>
<path d="M33.9285 7.61116C33.9285 6.72134 33.2071 6 32.3173 6C31.4275 6 30.7061 6.72134 30.7061 7.61116V12.5851C30.7061 13.4749 31.4275 14.1963 32.3173 14.1963C33.2071 14.1963 33.9285 13.4749 33.9285 12.5851V7.61116Z" fill="url(#paint16_radial_270_996)"/>
<defs>
<filter id="filter0_iiii_270_996" x="5.05542" y="7.49667" width="37.8889" height="34.5018" filterUnits="userSpaceOnUse" color-interpolation-filters="sRGB">
<feFlood flood-opacity="0" result="BackgroundImageFix"/>
<feBlend mode="normal" in="SourceGraphic" in2="BackgroundImageFix" result="shape"/>
<feColorMatrix in="SourceAlpha" type="matrix" values="0 0 0 0 0 0 0 0 0 0 0 0 0 0 0 0 0 0 127 0" result="hardAlpha"/>
<feOffset dy="-1"/>
<feGaussianBlur stdDeviation="1.5"/>
<feComposite in2="hardAlpha" operator="arithmetic" k2="-1" k3="1"/>
<feColorMatrix type="matrix" values="0 0 0 0 0.67451 0 0 0 0 0.619608 0 0 0 0 0.74902 0 0 0 1 0"/>
<feBlend mode="normal" in2="shape" result="effect1_innerShadow_270_996"/>
<feColorMatrix in="SourceAlpha" type="matrix" values="0 0 0 0 0 0 0 0 0 0 0 0 0 0 0 0 0 0 127 0" result="hardAlpha"/>
<feOffset dx="1"/>
<feGaussianBlur stdDeviation="0.75"/>
<feComposite in2="hardAlpha" operator="arithmetic" k2="-1" k3="1"/>
<feColorMatrix type="matrix" values="0 0 0 0 0.8 0 0 0 0 0.788235 0 0 0 0 0.819608 0 0 0 1 0"/>
<feBlend mode="normal" in2="effect1_innerShadow_270_996" result="effect2_innerShadow_270_996"/>
<feColorMatrix in="SourceAlpha" type="matrix" values="0 0 0 0 0 0 0 0 0 0 0 0 0 0 0 0 0 0 127 0" result="hardAlpha"/>
<feOffset dx="-1"/>
<feGaussianBlur stdDeviation="0.75"/>
<feComposite in2="hardAlpha" operator="arithmetic" k2="-1" k3="1"/>
<feColorMatrix type="matrix" values="0 0 0 0 0.956863 0 0 0 0 0.945098 0 0 0 0 0.976471 0 0 0 1 0"/>
<feBlend mode="normal" in2="effect2_innerShadow_270_996" result="effect3_innerShadow_270_996"/>
<feColorMatrix in="SourceAlpha" type="matrix" values="0 0 0 0 0 0 0 0 0 0 0 0 0 0 0 0 0 0 127 0" result="hardAlpha"/>
<feOffset dx="0.25" dy="-0.25"/>
<feGaussianBlur stdDeviation="0.5"/>
<feComposite in2="hardAlpha" operator="arithmetic" k2="-1" k3="1"/>
<feColorMatrix type="matrix" values="0 0 0 0 0.670588 0 0 0 0 0.619608 0 0 0 0 0.745098 0 0 0 1 0"/>
<feBlend mode="normal" in2="effect3_innerShadow_270_996" result="effect4_innerShadow_270_996"/>
</filter>
<filter id="filter1_ii_270_996" x="28.7962" y="29.3238" width="13.5481" height="12.6747" filterUnits="userSpaceOnUse" color-interpolation-filters="sRGB">
<feFlood flood-opacity="0" result="BackgroundImageFix"/>
<feBlend mode="normal" in="SourceGraphic" in2="BackgroundImageFix" result="shape"/>
<feColorMatrix in="SourceAlpha" type="matrix" values="0 0 0 0 0 0 0 0 0 0 0 0 0 0 0 0 0 0 127 0" result="hardAlpha"/>
<feOffset dx="-1"/>
<feGaussianBlur stdDeviation="0.75"/>
<feComposite in2="hardAlpha" operator="arithmetic" k2="-1" k3="1"/>
<feColorMatrix type="matrix" values="0 0 0 0 0.937255 0 0 0 0 0.917647 0 0 0 0 0.964706 0 0 0 1 0"/>
<feBlend mode="normal" in2="shape" result="effect1_innerShadow_270_996"/>
<feColorMatrix in="SourceAlpha" type="matrix" values="0 0 0 0 0 0 0 0 0 0 0 0 0 0 0 0 0 0 127 0" result="hardAlpha"/>
<feOffset dx="0.4" dy="-0.6"/>
<feGaussianBlur stdDeviation="0.75"/>
<feComposite in2="hardAlpha" operator="arithmetic" k2="-1" k3="1"/>
<feColorMatrix type="matrix" values="0 0 0 0 0.658824 0 0 0 0 0.607843 0 0 0 0 0.729412 0 0 0 1 0"/>
<feBlend mode="normal" in2="effect1_innerShadow_270_996" result="effect2_innerShadow_270_996"/>
</filter>
<filter id="filter2_iii_270_996" x="14.3141" y="20.8026" width="3.81544" height="3.81544" filterUnits="userSpaceOnUse" color-interpolation-filters="sRGB">
<feFlood flood-opacity="0" result="BackgroundImageFix"/>
<feBlend mode="normal" in="SourceGraphic" in2="BackgroundImageFix" result="shape"/>
<feColorMatrix in="SourceAlpha" type="matrix" values="0 0 0 0 0 0 0 0 0 0 0 0 0 0 0 0 0 0 127 0" result="hardAlpha"/>
<feOffset dx="-0.1" dy="0.1"/>
<feGaussianBlur stdDeviation="0.15"/>
<feComposite in2="hardAlpha" operator="arithmetic" k2="-1" k3="1"/>
<feColorMatrix type="matrix" values="0 0 0 0 0.772549 0 0 0 0 0.752941 0 0 0 0 0.803922 0 0 0 1 0"/>
<feBlend mode="normal" in2="shape" result="effect1_innerShadow_270_996"/>
<feColorMatrix in="SourceAlpha" type="matrix" values="0 0 0 0 0 0 0 0 0 0 0 0 0 0 0 0 0 0 127 0" result="hardAlpha"/>
<feOffset dx="-0.1" dy="0.1"/>
<feGaussianBlur stdDeviation="0.075"/>
<feComposite in2="hardAlpha" operator="arithmetic" k2="-1" k3="1"/>
<feColorMatrix type="matrix" values="0 0 0 0 0.654902 0 0 0 0 0.647059 0 0 0 0 0.682353 0 0 0 1 0"/>
<feBlend mode="normal" in2="effect1_innerShadow_270_996" result="effect2_innerShadow_270_996"/>
<feColorMatrix in="SourceAlpha" type="matrix" values="0 0 0 0 0 0 0 0 0 0 0 0 0 0 0 0 0 0 127 0" result="hardAlpha"/>
<feOffset dx="0.1" dy="-0.1"/>
<feGaussianBlur stdDeviation="0.075"/>
<feComposite in2="hardAlpha" operator="arithmetic" k2="-1" k3="1"/>
<feColorMatrix type="matrix" values="0 0 0 0 0.572549 0 0 0 0 0.564706 0 0 0 0 0.607843 0 0 0 1 0"/>
<feBlend mode="normal" in2="effect2_innerShadow_270_996" result="effect3_innerShadow_270_996"/>
</filter>
<filter id="filter3_iii_270_996" x="22.0322" y="20.8026" width="3.81544" height="3.81544" filterUnits="userSpaceOnUse" color-interpolation-filters="sRGB">
<feFlood flood-opacity="0" result="BackgroundImageFix"/>
<feBlend mode="normal" in="SourceGraphic" in2="BackgroundImageFix" result="shape"/>
<feColorMatrix in="SourceAlpha" type="matrix" values="0 0 0 0 0 0 0 0 0 0 0 0 0 0 0 0 0 0 127 0" result="hardAlpha"/>
<feOffset dx="-0.1" dy="0.1"/>
<feGaussianBlur stdDeviation="0.15"/>
<feComposite in2="hardAlpha" operator="arithmetic" k2="-1" k3="1"/>
<feColorMatrix type="matrix" values="0 0 0 0 0.772549 0 0 0 0 0.752941 0 0 0 0 0.803922 0 0 0 1 0"/>
<feBlend mode="normal" in2="shape" result="effect1_innerShadow_270_996"/>
<feColorMatrix in="SourceAlpha" type="matrix" values="0 0 0 0 0 0 0 0 0 0 0 0 0 0 0 0 0 0 127 0" result="hardAlpha"/>
<feOffset dx="-0.1" dy="0.1"/>
<feGaussianBlur stdDeviation="0.075"/>
<feComposite in2="hardAlpha" operator="arithmetic" k2="-1" k3="1"/>
<feColorMatrix type="matrix" values="0 0 0 0 0.654902 0 0 0 0 0.647059 0 0 0 0 0.682353 0 0 0 1 0"/>
<feBlend mode="normal" in2="effect1_innerShadow_270_996" result="effect2_innerShadow_270_996"/>
<feColorMatrix in="SourceAlpha" type="matrix" values="0 0 0 0 0 0 0 0 0 0 0 0 0 0 0 0 0 0 127 0" result="hardAlpha"/>
<feOffset dx="0.1" dy="-0.1"/>
<feGaussianBlur stdDeviation="0.075"/>
<feComposite in2="hardAlpha" operator="arithmetic" k2="-1" k3="1"/>
<feColorMatrix type="matrix" values="0 0 0 0 0.572549 0 0 0 0 0.564706 0 0 0 0 0.607843 0 0 0 1 0"/>
<feBlend mode="normal" in2="effect2_innerShadow_270_996" result="effect3_innerShadow_270_996"/>
</filter>
<filter id="filter4_iii_270_996" x="29.7503" y="20.8026" width="3.81544" height="3.81544" filterUnits="userSpaceOnUse" color-interpolation-filters="sRGB">
<feFlood flood-opacity="0" result="BackgroundImageFix"/>
<feBlend mode="normal" in="SourceGraphic" in2="BackgroundImageFix" result="shape"/>
<feColorMatrix in="SourceAlpha" type="matrix" values="0 0 0 0 0 0 0 0 0 0 0 0 0 0 0 0 0 0 127 0" result="hardAlpha"/>
<feOffset dx="-0.1" dy="0.1"/>
<feGaussianBlur stdDeviation="0.15"/>
<feComposite in2="hardAlpha" operator="arithmetic" k2="-1" k3="1"/>
<feColorMatrix type="matrix" values="0 0 0 0 0.772549 0 0 0 0 0.752941 0 0 0 0 0.803922 0 0 0 1 0"/>
<feBlend mode="normal" in2="shape" result="effect1_innerShadow_270_996"/>
<feColorMatrix in="SourceAlpha" type="matrix" values="0 0 0 0 0 0 0 0 0 0 0 0 0 0 0 0 0 0 127 0" result="hardAlpha"/>
<feOffset dx="-0.1" dy="0.1"/>
<feGaussianBlur stdDeviation="0.075"/>
<feComposite in2="hardAlpha" operator="arithmetic" k2="-1" k3="1"/>
<feColorMatrix type="matrix" values="0 0 0 0 0.654902 0 0 0 0 0.647059 0 0 0 0 0.682353 0 0 0 1 0"/>
<feBlend mode="normal" in2="effect1_innerShadow_270_996" result="effect2_innerShadow_270_996"/>
<feColorMatrix in="SourceAlpha" type="matrix" values="0 0 0 0 0 0 0 0 0 0 0 0 0 0 0 0 0 0 127 0" result="hardAlpha"/>
<feOffset dx="0.1" dy="-0.1"/>
<feGaussianBlur stdDeviation="0.075"/>
<feComposite in2="hardAlpha" operator="arithmetic" k2="-1" k3="1"/>
<feColorMatrix type="matrix" values="0 0 0 0 0.572549 0 0 0 0 0.564706 0 0 0 0 0.607843 0 0 0 1 0"/>
<feBlend mode="normal" in2="effect2_innerShadow_270_996" result="effect3_innerShadow_270_996"/>
</filter>
<filter id="filter5_iii_270_996" x="14.3141" y="27.2472" width="3.81544" height="3.81544" filterUnits="userSpaceOnUse" color-interpolation-filters="sRGB">
<feFlood flood-opacity="0" result="BackgroundImageFix"/>
<feBlend mode="normal" in="SourceGraphic" in2="BackgroundImageFix" result="shape"/>
<feColorMatrix in="SourceAlpha" type="matrix" values="0 0 0 0 0 0 0 0 0 0 0 0 0 0 0 0 0 0 127 0" result="hardAlpha"/>
<feOffset dx="-0.1" dy="0.1"/>
<feGaussianBlur stdDeviation="0.15"/>
<feComposite in2="hardAlpha" operator="arithmetic" k2="-1" k3="1"/>
<feColorMatrix type="matrix" values="0 0 0 0 0.772549 0 0 0 0 0.752941 0 0 0 0 0.803922 0 0 0 1 0"/>
<feBlend mode="normal" in2="shape" result="effect1_innerShadow_270_996"/>
<feColorMatrix in="SourceAlpha" type="matrix" values="0 0 0 0 0 0 0 0 0 0 0 0 0 0 0 0 0 0 127 0" result="hardAlpha"/>
<feOffset dx="-0.1" dy="0.1"/>
<feGaussianBlur stdDeviation="0.075"/>
<feComposite in2="hardAlpha" operator="arithmetic" k2="-1" k3="1"/>
<feColorMatrix type="matrix" values="0 0 0 0 0.654902 0 0 0 0 0.647059 0 0 0 0 0.682353 0 0 0 1 0"/>
<feBlend mode="normal" in2="effect1_innerShadow_270_996" result="effect2_innerShadow_270_996"/>
<feColorMatrix in="SourceAlpha" type="matrix" values="0 0 0 0 0 0 0 0 0 0 0 0 0 0 0 0 0 0 127 0" result="hardAlpha"/>
<feOffset dx="0.1" dy="-0.1"/>
<feGaussianBlur stdDeviation="0.075"/>
<feComposite in2="hardAlpha" operator="arithmetic" k2="-1" k3="1"/>
<feColorMatrix type="matrix" values="0 0 0 0 0.572549 0 0 0 0 0.564706 0 0 0 0 0.607843 0 0 0 1 0"/>
<feBlend mode="normal" in2="effect2_innerShadow_270_996" result="effect3_innerShadow_270_996"/>
</filter>
<filter id="filter6_iii_270_996" x="14.3141" y="33.6919" width="3.81544" height="3.81544" filterUnits="userSpaceOnUse" color-interpolation-filters="sRGB">
<feFlood flood-opacity="0" result="BackgroundImageFix"/>
<feBlend mode="normal" in="SourceGraphic" in2="BackgroundImageFix" result="shape"/>
<feColorMatrix in="SourceAlpha" type="matrix" values="0 0 0 0 0 0 0 0 0 0 0 0 0 0 0 0 0 0 127 0" result="hardAlpha"/>
<feOffset dx="-0.1" dy="0.1"/>
<feGaussianBlur stdDeviation="0.15"/>
<feComposite in2="hardAlpha" operator="arithmetic" k2="-1" k3="1"/>
<feColorMatrix type="matrix" values="0 0 0 0 0.772549 0 0 0 0 0.752941 0 0 0 0 0.803922 0 0 0 1 0"/>
<feBlend mode="normal" in2="shape" result="effect1_innerShadow_270_996"/>
<feColorMatrix in="SourceAlpha" type="matrix" values="0 0 0 0 0 0 0 0 0 0 0 0 0 0 0 0 0 0 127 0" result="hardAlpha"/>
<feOffset dx="-0.1" dy="0.1"/>
<feGaussianBlur stdDeviation="0.075"/>
<feComposite in2="hardAlpha" operator="arithmetic" k2="-1" k3="1"/>
<feColorMatrix type="matrix" values="0 0 0 0 0.654902 0 0 0 0 0.647059 0 0 0 0 0.682353 0 0 0 1 0"/>
<feBlend mode="normal" in2="effect1_innerShadow_270_996" result="effect2_innerShadow_270_996"/>
<feColorMatrix in="SourceAlpha" type="matrix" values="0 0 0 0 0 0 0 0 0 0 0 0 0 0 0 0 0 0 127 0" result="hardAlpha"/>
<feOffset dx="0.1" dy="-0.1"/>
<feGaussianBlur stdDeviation="0.075"/>
<feComposite in2="hardAlpha" operator="arithmetic" k2="-1" k3="1"/>
<feColorMatrix type="matrix" values="0 0 0 0 0.572549 0 0 0 0 0.564706 0 0 0 0 0.607843 0 0 0 1 0"/>
<feBlend mode="normal" in2="effect2_innerShadow_270_996" result="effect3_innerShadow_270_996"/>
</filter>
<filter id="filter7_iii_270_996" x="22.0322" y="27.2472" width="3.81544" height="3.81544" filterUnits="userSpaceOnUse" color-interpolation-filters="sRGB">
<feFlood flood-opacity="0" result="BackgroundImageFix"/>
<feBlend mode="normal" in="SourceGraphic" in2="BackgroundImageFix" result="shape"/>
<feColorMatrix in="SourceAlpha" type="matrix" values="0 0 0 0 0 0 0 0 0 0 0 0 0 0 0 0 0 0 127 0" result="hardAlpha"/>
<feOffset dx="-0.1" dy="0.1"/>
<feGaussianBlur stdDeviation="0.15"/>
<feComposite in2="hardAlpha" operator="arithmetic" k2="-1" k3="1"/>
<feColorMatrix type="matrix" values="0 0 0 0 0.772549 0 0 0 0 0.752941 0 0 0 0 0.803922 0 0 0 1 0"/>
<feBlend mode="normal" in2="shape" result="effect1_innerShadow_270_996"/>
<feColorMatrix in="SourceAlpha" type="matrix" values="0 0 0 0 0 0 0 0 0 0 0 0 0 0 0 0 0 0 127 0" result="hardAlpha"/>
<feOffset dx="-0.1" dy="0.1"/>
<feGaussianBlur stdDeviation="0.075"/>
<feComposite in2="hardAlpha" operator="arithmetic" k2="-1" k3="1"/>
<feColorMatrix type="matrix" values="0 0 0 0 0.654902 0 0 0 0 0.647059 0 0 0 0 0.682353 0 0 0 1 0"/>
<feBlend mode="normal" in2="effect1_innerShadow_270_996" result="effect2_innerShadow_270_996"/>
<feColorMatrix in="SourceAlpha" type="matrix" values="0 0 0 0 0 0 0 0 0 0 0 0 0 0 0 0 0 0 127 0" result="hardAlpha"/>
<feOffset dx="0.1" dy="-0.1"/>
<feGaussianBlur stdDeviation="0.075"/>
<feComposite in2="hardAlpha" operator="arithmetic" k2="-1" k3="1"/>
<feColorMatrix type="matrix" values="0 0 0 0 0.572549 0 0 0 0 0.564706 0 0 0 0 0.607843 0 0 0 1 0"/>
<feBlend mode="normal" in2="effect2_innerShadow_270_996" result="effect3_innerShadow_270_996"/>
</filter>
<filter id="filter8_iii_270_996" x="22.0322" y="33.6919" width="3.81544" height="3.81544" filterUnits="userSpaceOnUse" color-interpolation-filters="sRGB">
<feFlood flood-opacity="0" result="BackgroundImageFix"/>
<feBlend mode="normal" in="SourceGraphic" in2="BackgroundImageFix" result="shape"/>
<feColorMatrix in="SourceAlpha" type="matrix" values="0 0 0 0 0 0 0 0 0 0 0 0 0 0 0 0 0 0 127 0" result="hardAlpha"/>
<feOffset dx="-0.1" dy="0.1"/>
<feGaussianBlur stdDeviation="0.15"/>
<feComposite in2="hardAlpha" operator="arithmetic" k2="-1" k3="1"/>
<feColorMatrix type="matrix" values="0 0 0 0 0.772549 0 0 0 0 0.752941 0 0 0 0 0.803922 0 0 0 1 0"/>
<feBlend mode="normal" in2="shape" result="effect1_innerShadow_270_996"/>
<feColorMatrix in="SourceAlpha" type="matrix" values="0 0 0 0 0 0 0 0 0 0 0 0 0 0 0 0 0 0 127 0" result="hardAlpha"/>
<feOffset dx="-0.1" dy="0.1"/>
<feGaussianBlur stdDeviation="0.075"/>
<feComposite in2="hardAlpha" operator="arithmetic" k2="-1" k3="1"/>
<feColorMatrix type="matrix" values="0 0 0 0 0.654902 0 0 0 0 0.647059 0 0 0 0 0.682353 0 0 0 1 0"/>
<feBlend mode="normal" in2="effect1_innerShadow_270_996" result="effect2_innerShadow_270_996"/>
<feColorMatrix in="SourceAlpha" type="matrix" values="0 0 0 0 0 0 0 0 0 0 0 0 0 0 0 0 0 0 127 0" result="hardAlpha"/>
<feOffset dx="0.1" dy="-0.1"/>
<feGaussianBlur stdDeviation="0.075"/>
<feComposite in2="hardAlpha" operator="arithmetic" k2="-1" k3="1"/>
<feColorMatrix type="matrix" values="0 0 0 0 0.572549 0 0 0 0 0.564706 0 0 0 0 0.607843 0 0 0 1 0"/>
<feBlend mode="normal" in2="effect2_innerShadow_270_996" result="effect3_innerShadow_270_996"/>
</filter>
<filter id="filter9_iii_270_996" x="29.7503" y="27.2472" width="3.81544" height="3.81544" filterUnits="userSpaceOnUse" color-interpolation-filters="sRGB">
<feFlood flood-opacity="0" result="BackgroundImageFix"/>
<feBlend mode="normal" in="SourceGraphic" in2="BackgroundImageFix" result="shape"/>
<feColorMatrix in="SourceAlpha" type="matrix" values="0 0 0 0 0 0 0 0 0 0 0 0 0 0 0 0 0 0 127 0" result="hardAlpha"/>
<feOffset dx="-0.1" dy="0.1"/>
<feGaussianBlur stdDeviation="0.15"/>
<feComposite in2="hardAlpha" operator="arithmetic" k2="-1" k3="1"/>
<feColorMatrix type="matrix" values="0 0 0 0 0.858824 0 0 0 0 0.835294 0 0 0 0 0.917647 0 0 0 1 0"/>
<feBlend mode="normal" in2="shape" result="effect1_innerShadow_270_996"/>
<feColorMatrix in="SourceAlpha" type="matrix" values="0 0 0 0 0 0 0 0 0 0 0 0 0 0 0 0 0 0 127 0" result="hardAlpha"/>
<feOffset dx="-0.1" dy="0.1"/>
<feGaussianBlur stdDeviation="0.075"/>
<feComposite in2="hardAlpha" operator="arithmetic" k2="-1" k3="1"/>
<feColorMatrix type="matrix" values="0 0 0 0 0.34902 0 0 0 0 0.631373 0 0 0 0 0.917647 0 0 0 1 0"/>
<feBlend mode="normal" in2="effect1_innerShadow_270_996" result="effect2_innerShadow_270_996"/>
<feColorMatrix in="SourceAlpha" type="matrix" values="0 0 0 0 0 0 0 0 0 0 0 0 0 0 0 0 0 0 127 0" result="hardAlpha"/>
<feOffset dx="0.1" dy="-0.1"/>
<feGaussianBlur stdDeviation="0.075"/>
<feComposite in2="hardAlpha" operator="arithmetic" k2="-1" k3="1"/>
<feColorMatrix type="matrix" values="0 0 0 0 0.254902 0 0 0 0 0.498039 0 0 0 0 0.819608 0 0 0 1 0"/>
<feBlend mode="normal" in2="effect2_innerShadow_270_996" result="effect3_innerShadow_270_996"/>
</filter>
<filter id="filter10_iii_270_996" x="29.7503" y="33.6919" width="3.81544" height="3.81544" filterUnits="userSpaceOnUse" color-interpolation-filters="sRGB">
<feFlood flood-opacity="0" result="BackgroundImageFix"/>
<feBlend mode="normal" in="SourceGraphic" in2="BackgroundImageFix" result="shape"/>
<feColorMatrix in="SourceAlpha" type="matrix" values="0 0 0 0 0 0 0 0 0 0 0 0 0 0 0 0 0 0 127 0" result="hardAlpha"/>
<feOffset dx="-0.1" dy="0.1"/>
<feGaussianBlur stdDeviation="0.15"/>
<feComposite in2="hardAlpha" operator="arithmetic" k2="-1" k3="1"/>
<feColorMatrix type="matrix" values="0 0 0 0 0.772549 0 0 0 0 0.752941 0 0 0 0 0.803922 0 0 0 1 0"/>
<feBlend mode="normal" in2="shape" result="effect1_innerShadow_270_996"/>
<feColorMatrix in="SourceAlpha" type="matrix" values="0 0 0 0 0 0 0 0 0 0 0 0 0 0 0 0 0 0 127 0" result="hardAlpha"/>
<feOffset dx="-0.1" dy="0.1"/>
<feGaussianBlur stdDeviation="0.075"/>
<feComposite in2="hardAlpha" operator="arithmetic" k2="-1" k3="1"/>
<feColorMatrix type="matrix" values="0 0 0 0 0.654902 0 0 0 0 0.647059 0 0 0 0 0.682353 0 0 0 1 0"/>
<feBlend mode="normal" in2="effect1_innerShadow_270_996" result="effect2_innerShadow_270_996"/>
<feColorMatrix in="SourceAlpha" type="matrix" values="0 0 0 0 0 0 0 0 0 0 0 0 0 0 0 0 0 0 127 0" result="hardAlpha"/>
<feOffset dx="0.1" dy="-0.1"/>
<feGaussianBlur stdDeviation="0.075"/>
<feComposite in2="hardAlpha" operator="arithmetic" k2="-1" k3="1"/>
<feColorMatrix type="matrix" values="0 0 0 0 0.572549 0 0 0 0 0.564706 0 0 0 0 0.607843 0 0 0 1 0"/>
<feBlend mode="normal" in2="effect2_innerShadow_270_996" result="effect3_innerShadow_270_996"/>
</filter>
<filter id="filter11_i_270_996" x="29.3863" y="29.4417" width="12.6583" height="12.6583" filterUnits="userSpaceOnUse" color-interpolation-filters="sRGB">
<feFlood flood-opacity="0" result="BackgroundImageFix"/>
<feBlend mode="normal" in="SourceGraphic" in2="BackgroundImageFix" result="shape"/>
<feColorMatrix in="SourceAlpha" type="matrix" values="0 0 0 0 0 0 0 0 0 0 0 0 0 0 0 0 0 0 127 0" result="hardAlpha"/>
<feOffset dx="0.1" dy="0.1"/>
<feGaussianBlur stdDeviation="0.1"/>
<feComposite in2="hardAlpha" operator="arithmetic" k2="-1" k3="1"/>
<feColorMatrix type="matrix" values="0 0 0 0 0.803922 0 0 0 0 0.807843 0 0 0 0 0.870588 0 0 0 1 0"/>
<feBlend mode="normal" in2="shape" result="effect1_innerShadow_270_996"/>
</filter>
<filter id="filter12_f_270_996" x="19.5275" y="7.83846" width="23.1072" height="10.0169" filterUnits="userSpaceOnUse" color-interpolation-filters="sRGB">
<feFlood flood-opacity="0" result="BackgroundImageFix"/>
<feBlend mode="normal" in="SourceGraphic" in2="BackgroundImageFix" result="shape"/>
<feGaussianBlur stdDeviation="0.625" result="effect1_foregroundBlur_270_996"/>
</filter>
<filter id="filter13_f_270_996" x="11.6663" y="8.02248" width="4.72233" height="6.60731" filterUnits="userSpaceOnUse" color-interpolation-filters="sRGB">
<feFlood flood-opacity="0" result="BackgroundImageFix"/>
<feBlend mode="normal" in="SourceGraphic" in2="BackgroundImageFix" result="shape"/>
<feGaussianBlur stdDeviation="0.375" result="effect1_foregroundBlur_270_996"/>
</filter>
<filter id="filter14_f_270_996" x="28.5757" y="8.02248" width="4.72233" height="6.60731" filterUnits="userSpaceOnUse" color-interpolation-filters="sRGB">
<feFlood flood-opacity="0" result="BackgroundImageFix"/>
<feBlend mode="normal" in="SourceGraphic" in2="BackgroundImageFix" result="shape"/>
<feGaussianBlur stdDeviation="0.375" result="effect1_foregroundBlur_270_996"/>
</filter>
<linearGradient id="paint0_linear_270_996" x1="10.0472" y1="27.1861" x2="39.4966" y2="27.1861" gradientUnits="userSpaceOnUse">
<stop stop-color="#E4DEEC"/>
<stop offset="1" stop-color="#E7E2EF"/>
</linearGradient>
<linearGradient id="paint1_linear_270_996" x1="5.63394" y1="15.279" x2="39.2556" y2="15.279" gradientUnits="userSpaceOnUse">
<stop stop-color="#4271C7"/>
<stop offset="0.794" stop-color="#4F9FDC"/>
</linearGradient>
<linearGradient id="paint2_linear_270_996" x1="23.9999" y1="8.49667" x2="23.9999" y2="10.9662" gradientUnits="userSpaceOnUse">
<stop stop-color="#5591D3"/>
<stop offset="1" stop-color="#5591D3" stop-opacity="0"/>
</linearGradient>
<radialGradient id="paint3_radial_270_996" cx="0" cy="0" r="1" gradientUnits="userSpaceOnUse" gradientTransform="translate(31.3609 17.2781) rotate(-170.157) scale(25.6838 14.2785)">
<stop offset="0.759" stop-color="#3E62C2" stop-opacity="0"/>
<stop offset="1" stop-color="#3B41A1"/>
</radialGradient>
<linearGradient id="paint4_linear_270_996" x1="30.6701" y1="18.3363" x2="30.6701" y2="16.4545" gradientUnits="userSpaceOnUse">
<stop stop-color="#437AC4"/>
<stop offset="1" stop-color="#437AC4" stop-opacity="0"/>
</linearGradient>
<linearGradient id="paint5_linear_270_996" x1="33.8485" y1="27.3472" x2="29.1349" y2="30.7307" gradientUnits="userSpaceOnUse">
<stop stop-color="#4C92DE"/>
<stop offset="1" stop-color="#4B91DB"/>
</linearGradient>
<radialGradient id="paint6_radial_270_996" cx="0" cy="0" r="1" gradientUnits="userSpaceOnUse" gradientTransform="translate(33.043 32.5841) rotate(45.6993) scale(4.38301 10.6218)">
<stop stop-color="#E4DDED"/>
<stop offset="1" stop-color="#D5CFDC"/>
</radialGradient>
<linearGradient id="paint7_linear_270_996" x1="35.742" y1="36.4651" x2="35.4095" y2="36.1325" gradientUnits="userSpaceOnUse">
<stop offset="0.461" stop-color="#BFB8CA"/>
<stop offset="1" stop-color="#D9D3E0" stop-opacity="0"/>
</linearGradient>
<radialGradient id="paint8_radial_270_996" cx="0" cy="0" r="1" gradientUnits="userSpaceOnUse" gradientTransform="translate(43.2142 9.83926) rotate(152.761) scale(13.0019 18.6958)">
<stop stop-color="#70C0F8"/>
<stop offset="1" stop-color="#70C0F8" stop-opacity="0"/>
</radialGradient>
<linearGradient id="paint9_linear_270_996" x1="13.8818" y1="13.4822" x2="13.2695" y2="3.29454" gradientUnits="userSpaceOnUse">
<stop stop-color="#375DB2"/>
<stop offset="1" stop-color="#375DB2" stop-opacity="0"/>
</linearGradient>
<linearGradient id="paint10_linear_270_996" x1="30.79" y1="13.4822" x2="30.179" y2="3.29454" gradientUnits="userSpaceOnUse">
<stop stop-color="#407FC8"/>
<stop offset="1" stop-color="#407FC8" stop-opacity="0"/>
</linearGradient>
<linearGradient id="paint11_linear_270_996" x1="17.1118" y1="10.7059" x2="13.8895" y2="10.7059" gradientUnits="userSpaceOnUse">
<stop stop-color="#C0C0C1"/>
<stop offset="0.932" stop-color="#A6A6A8"/>
</linearGradient>
<radialGradient id="paint12_radial_270_996" cx="0" cy="0" r="1" gradientUnits="userSpaceOnUse" gradientTransform="translate(15.5007 14.1963) rotate(-90) scale(4.96295 4.59468)">
<stop stop-color="#8C88AD"/>
<stop offset="1" stop-color="#9D9AA2" stop-opacity="0"/>
</radialGradient>
<radialGradient id="paint13_radial_270_996" cx="0" cy="0" r="1" gradientUnits="userSpaceOnUse" gradientTransform="translate(16.5048 8.77248) rotate(90) scale(3.68264 1.98746)">
<stop stop-color="#D9D8DD"/>
<stop offset="0.996" stop-color="#BEBEC0" stop-opacity="0"/>
</radialGradient>
<linearGradient id="paint14_linear_270_996" x1="33.9285" y1="10.7059" x2="30.7061" y2="10.7059" gradientUnits="userSpaceOnUse">
<stop stop-color="#C0C0C1"/>
<stop offset="0.932" stop-color="#A6A6A8"/>
</linearGradient>
<radialGradient id="paint15_radial_270_996" cx="0" cy="0" r="1" gradientUnits="userSpaceOnUse" gradientTransform="translate(32.3173 14.1963) rotate(-90) scale(4.96295 4.59468)">
<stop stop-color="#8C88AD"/>
<stop offset="1" stop-color="#9D9AA2" stop-opacity="0"/>
</radialGradient>
<radialGradient id="paint16_radial_270_996" cx="0" cy="0" r="1" gradientUnits="userSpaceOnUse" gradientTransform="translate(33.3214 8.77248) rotate(90) scale(3.68264 1.98746)">
<stop stop-color="#D9D8DD"/>
<stop offset="0.996" stop-color="#BEBEC0" stop-opacity="0"/>
</radialGradient>
</defs>
</svg>
