<svg width="24" height="24" viewBox="0 0 24 24" fill="none" xmlns="http://www.w3.org/2000/svg">
<path d="M18.75 3C19.3467 3 19.919 3.23705 20.341 3.65901C20.7629 4.08097 21 4.65326 21 5.25V18.75C21 19.3467 20.7629 19.919 20.341 20.341C19.919 20.7629 19.3467 21 18.75 21H5.25C4.65326 21 4.08097 20.7629 3.65901 20.341C3.23705 19.919 3 19.3467 3 18.75V5.25C3 4.65326 3.23705 4.08097 3.65901 3.65901C4.08097 3.23705 4.65326 3 5.25 3H18.75ZM9.642 15.1534L14.25 10.5454V13.6594C14.25 13.8086 14.3093 13.9516 14.4148 14.0571C14.5202 14.1626 14.6633 14.2219 14.8125 14.2219C14.9617 14.2219 15.1048 14.1626 15.2102 14.0571C15.3157 13.9516 15.375 13.8086 15.375 13.6594V9.1875C15.375 9.03832 15.3157 8.89524 15.2102 8.78975C15.1048 8.68426 14.9617 8.625 14.8125 8.625H10.3406C10.1914 8.625 10.0484 8.68426 9.94288 8.78975C9.83739 8.89524 9.77813 9.03832 9.77813 9.1875C9.77813 9.33668 9.83739 9.47976 9.94288 9.58525C10.0484 9.69074 10.1914 9.75 10.3406 9.75H13.4546L8.84663 14.358C8.74416 14.4641 8.68746 14.6062 8.68875 14.7537C8.69003 14.9011 8.74918 15.0422 8.85348 15.1465C8.95777 15.2508 9.09885 15.31 9.24634 15.3113C9.39382 15.3125 9.53591 15.2558 9.642 15.1534Z" fill="#BE202E"/>
</svg>
