<svg width="32" height="35" viewBox="0 0 32 35" fill="none" xmlns="http://www.w3.org/2000/svg">
<g filter="url(#filter0_d_270_1073)">
<path d="M21 10.4937C21 12.7687 17.9542 16.8229 16.6167 18.4562C16.2958 18.8937 15.7042 18.8937 15.3833 18.4562C14.0458 16.8229 11 12.7687 11 10.4937C11 7.73249 13.2375 5.49374 16 5.49374C18.7625 5.49374 21 7.73249 21 10.4937ZM16 11.8271C16.9208 11.8271 17.6667 11.0812 17.6667 10.1604C17.6667 9.23999 16.9208 8.49374 16 8.49374C15.0792 8.49374 14.3333 9.23999 14.3333 10.1604C14.3333 11.0812 15.0792 11.8271 16 11.8271ZM21.7333 12.9854C21.7542 12.9354 21.775 12.8854 21.7958 12.8312L26.6292 10.8979C27.2875 10.6354 28 11.1187 28 11.8271V23.1104C28 23.5187 27.75 23.8854 27.3708 24.0396L21.3333 26.4521V13.8437C21.4792 13.5562 21.6125 13.2729 21.7333 12.9854ZM10.2667 12.9854C10.3875 13.2729 10.5208 13.5562 10.6667 13.8437V24.3187L5.37125 26.4396C4.71458 26.6646 4 26.2187 4 25.5104V14.2271C4 13.8187 4.24896 13.4146 4.62875 13.2979L9.73333 11.2562C9.83333 11.8479 10.0375 12.4354 10.2667 12.9854V12.9854ZM17.6583 19.2896C18.2375 18.6021 19.1458 17.4229 20 16.1187V26.5062L12 24.2187V16.1187C12.8542 17.4229 13.7625 18.6021 14.3417 19.2896C15.1958 20.3937 16.8042 20.3937 17.6583 19.2896Z" fill="#343434"/>
</g>
<defs>
<filter id="filter0_d_270_1073" x="-4" y="0" width="40" height="40" filterUnits="userSpaceOnUse" color-interpolation-filters="sRGB">
<feFlood flood-opacity="0" result="BackgroundImageFix"/>
<feColorMatrix in="SourceAlpha" type="matrix" values="0 0 0 0 0 0 0 0 0 0 0 0 0 0 0 0 0 0 127 0" result="hardAlpha"/>
<feOffset dy="4"/>
<feGaussianBlur stdDeviation="2"/>
<feComposite in2="hardAlpha" operator="out"/>
<feColorMatrix type="matrix" values="0 0 0 0 0 0 0 0 0 0 0 0 0 0 0 0 0 0 0.25 0"/>
<feBlend mode="normal" in2="BackgroundImageFix" result="effect1_dropShadow_270_1073"/>
<feBlend mode="normal" in="SourceGraphic" in2="effect1_dropShadow_270_1073" result="shape"/>
</filter>
</defs>
</svg>
