<svg width="48" height="50" viewBox="0 0 48 50" fill="none" xmlns="http://www.w3.org/2000/svg">
<g filter="url(#filter0_d_270_1147)">
<path d="M37.3923 25.8947C37.4785 25.2919 37.5646 24.689 37.5646 24C37.5646 23.311 37.4785 22.7081 37.3923 22.1053L41.2679 19.3493C41.6124 19.0909 41.7847 18.5742 41.5263 18.1435L37.7368 11.7703C37.4785 11.3397 37.0478 11.1675 36.6172 11.4258L32.311 13.4067C31.2775 12.6316 30.244 12.0287 29.0383 11.512L28.6076 6.77512C28.5215 6.3445 28.177 6 27.7464 6H20.3397C19.9091 6 19.4785 6.3445 19.4785 6.77512L19.0478 11.512C17.8421 12.0287 16.7225 12.6316 15.7751 13.4067L11.4689 11.4258C11.0383 11.2536 10.5215 11.4258 10.3493 11.7703L6.64592 18.1435C6.38755 18.5742 6.5598 19.0909 6.9043 19.3493L10.7799 22.1053C10.6938 22.7081 10.6076 23.311 10.6076 24C10.6076 24.689 10.6938 25.2919 10.7799 25.8947L6.73205 28.6507C6.38755 28.9091 6.2153 29.4258 6.47368 29.8565L10.177 36.2297C10.4354 36.6603 10.866 36.8325 11.2966 36.5742L15.6029 34.5933C16.6364 35.3684 17.6698 35.9713 18.8756 36.488L19.3062 41.2249C19.3923 41.6555 19.7368 42 20.1675 42H27.5742C28.0048 42 28.4354 41.6555 28.4354 41.2249L28.866 36.488C30.0718 35.9713 31.1914 35.3684 32.1387 34.5933L36.445 36.5742C36.8756 36.7464 37.3923 36.5742 37.5646 36.2297L41.2679 29.8565C41.5263 29.4258 41.3541 28.9091 41.0096 28.6507L37.3923 25.8947V25.8947ZM23.9569 32.6124C19.2201 32.6124 15.3445 28.7368 15.3445 24C15.3445 19.2632 19.2201 15.3876 23.9569 15.3876C28.6938 15.3876 32.5694 19.2632 32.5694 24C32.5694 28.7368 28.6938 32.6124 23.9569 32.6124Z" fill="url(#paint0_linear_270_1147)"/>
<path d="M23.9569 13.6651C18.2727 13.6651 13.622 18.3158 13.622 24C13.622 29.6842 18.2727 34.335 23.9569 34.335C29.6411 34.335 34.2919 29.6842 34.2919 24C34.2919 18.3158 29.6411 13.6651 23.9569 13.6651ZM23.9569 28.3062C21.5455 28.3062 19.6507 26.4115 19.6507 24C19.6507 21.5885 21.5455 19.6938 23.9569 19.6938C26.3684 19.6938 28.2632 21.5885 28.2632 24C28.2632 26.4115 26.3684 28.3062 23.9569 28.3062Z" fill="#417B97"/>
</g>
<defs>
<filter id="filter0_d_270_1147" x="-4" y="0" width="56" height="56" filterUnits="userSpaceOnUse" color-interpolation-filters="sRGB">
<feFlood flood-opacity="0" result="BackgroundImageFix"/>
<feColorMatrix in="SourceAlpha" type="matrix" values="0 0 0 0 0 0 0 0 0 0 0 0 0 0 0 0 0 0 127 0" result="hardAlpha"/>
<feOffset dy="4"/>
<feGaussianBlur stdDeviation="2"/>
<feComposite in2="hardAlpha" operator="out"/>
<feColorMatrix type="matrix" values="0 0 0 0 0 0 0 0 0 0 0 0 0 0 0 0 0 0 0.25 0"/>
<feBlend mode="normal" in2="BackgroundImageFix" result="effect1_dropShadow_270_1147"/>
<feBlend mode="normal" in="SourceGraphic" in2="effect1_dropShadow_270_1147" result="shape"/>
</filter>
<linearGradient id="paint0_linear_270_1147" x1="24" y1="6" x2="24" y2="42" gradientUnits="userSpaceOnUse">
<stop stop-color="#40C0E7"/>
<stop offset="1" stop-color="#4D778B" stop-opacity="0.35"/>
</linearGradient>
</defs>
</svg>
