<svg width="56" height="56" viewBox="0 0 56 56" fill="none" xmlns="http://www.w3.org/2000/svg">
<path d="M28 43.1667L22.1667 36.1667V29.1667H33.8333V36.1667L28 43.1667Z" fill="#FFCEB4"/>
<path d="M38.5 24.5C39.7887 24.5 40.8333 23.4553 40.8333 22.1667C40.8333 20.878 39.7887 19.8333 38.5 19.8333C37.2113 19.8333 36.1667 20.878 36.1667 22.1667C36.1667 23.4553 37.2113 24.5 38.5 24.5Z" fill="#FFCEB4"/>
<path d="M17.5 24.5C18.7887 24.5 19.8333 23.4553 19.8333 22.1667C19.8333 20.878 18.7887 19.8333 17.5 19.8333C16.2113 19.8333 15.1667 20.878 15.1667 22.1667C15.1667 23.4553 16.2113 24.5 17.5 24.5Z" fill="#FFCEB4"/>
<path d="M38.5 15.1667C38.5 6.3 17.5 9.33333 17.5 15.1667V23.3333C17.5 29.1667 22.1667 33.8333 28 33.8333C33.8333 33.8333 38.5 29.1667 38.5 23.3333V15.1667Z" fill="#FFD7C2"/>
<path d="M28 4.66667C20.8833 4.66667 16.3333 10.3833 16.3333 17.5V20.1833L18.6667 22.1667V16.3333L32.6667 11.6667L37.3333 16.3333V22.1667L39.6667 20.1833V17.5C39.6667 12.8333 38.5 8.16667 32.6667 7L31.5 4.66667H28Z" fill="#424242"/>
<path d="M28 50.1667L22.1667 36.1667L28 37.3333L33.8333 36.1667L28 50.1667Z" fill="white"/>
<path d="M26.8333 40.8333L26.0167 46.0833L28 50.75L29.9833 46.0833L29.1667 40.8333L30.3333 39.6667L28 37.3333L25.6667 39.6667L26.8333 40.8333Z" fill="#D32F2F"/>
<path d="M33.8333 36.1667L28 50.1667L22.1667 36.1667C22.1667 36.1667 9.33333 38.5 9.33333 51.3333H46.6667C46.6667 38.5 33.8333 36.1667 33.8333 36.1667Z" fill="#546E7A"/>
</svg>
