<svg width="24" height="24" viewBox="0 0 24 24" fill="none" xmlns="http://www.w3.org/2000/svg">
<g clip-path="url(#clip0_270_1220)">
<path d="M23.5877 19.8999H0.410238V24H23.5877V19.8999Z" fill="#9D9D9C"/>
<path d="M24 19.8999H0V23.2574H24V19.8999Z" fill="#C6C6C6"/>
<path d="M24 18.9097H0L1.84711 13.7137H22.1529L24 18.9097Z" fill="#EDEDED"/>
<path d="M22.1529 13.7137H1.84711L2.50724 10.0917L2.93623 7.73273H21.0617L22.1529 13.7137Z" fill="#DADADA"/>
<path d="M10.9098 13.2038H21.0554L20.1184 8.54514L19.9997 8.39493H11.0535L10.9098 8.54514V13.2038Z" fill="#706F6F"/>
<path d="M24 18.9097H0V19.8999H24V18.9097Z" fill="#DADADA"/>
<path opacity="0.3" d="M14.679 20.89C14.679 21.0719 14.5333 21.22 14.3542 21.22H9.64581C9.46672 21.22 9.32095 21.0719 9.32095 20.89C9.32095 20.708 9.46672 20.5599 9.64581 20.5599H14.3542C14.5333 20.5599 14.679 20.708 14.679 20.89Z" fill="#1D1D1B"/>
<path d="M8.32555 15.6326H2.33024L3.65675 10.1149L3.96911 9.62622H7.41137L7.75705 10.0176L8.32555 15.6326Z" fill="#C6C6C6"/>
<path d="M2.89666 14.4161L3.96911 9.62622H7.41137L7.75705 14.4161H2.89666Z" fill="white"/>
<path opacity="0.1" d="M3.71297 13.756L4.48763 10.2863H6.80746L7.05735 13.756H3.71297Z" fill="#1D1D1B"/>
<path opacity="0.1" d="M3.71297 13.756L4.48763 10.2863L4.37518 12.4274L3.71297 13.756Z" fill="#1D1D1B"/>
<path opacity="0.1" d="M7.05735 13.756L6.80746 10.2863L6.62421 12.4274L7.05735 13.756Z" fill="#1D1D1B"/>
<path d="M6.69918 12.567H4.29189L4.36894 12.3026H6.62213L6.69918 12.567Z" fill="#3C3C3B"/>
<path d="M10.8828 14.6382H11.9115L11.9302 15.2497L10.8828 15.2476V14.6382Z" fill="#B2B2B2"/>
<path d="M12.1385 14.6382H13.1693L13.2109 15.2497H12.1635L12.1385 14.6382Z" fill="#B2B2B2"/>
<path d="M13.3984 14.6382H14.4312L14.4958 15.2497H13.4442L13.3984 14.6382Z" fill="#B2B2B2"/>
<path d="M10.8828 15.4274L11.9344 15.4295L11.9552 16.0684H10.8828V15.4274Z" fill="#B2B2B2"/>
<path d="M12.1697 15.4295H13.2234L13.2692 16.0705H12.1947L12.1697 15.4295Z" fill="#B2B2B2"/>
<path d="M13.4587 15.4295L14.5145 15.4316L14.5833 16.0727L13.5066 16.0705L13.4587 15.4295Z" fill="#B2B2B2"/>
<path d="M10.8828 16.2567L11.9615 16.2588L11.9823 16.9316L10.8828 16.9295V16.2567Z" fill="#B2B2B2"/>
<path d="M12.201 16.2589L13.2817 16.261L13.3275 16.9337L12.2259 16.9316L12.201 16.2589Z" fill="#B2B2B2"/>
<path d="M13.5212 16.261L14.6041 16.2631L14.677 16.9359L13.5733 16.9337L13.5212 16.261Z" fill="#B2B2B2"/>
<path d="M10.8828 17.1284L11.9885 17.1305L12.0094 17.8371L10.8828 17.835V17.1284Z" fill="#B2B2B2"/>
<path d="M12.2343 17.1305L13.3421 17.1326L13.39 17.8414L12.2613 17.8371L12.2343 17.1305Z" fill="#B2B2B2"/>
<path d="M13.5879 17.1326L14.6978 17.1347L14.7748 17.8456L13.642 17.8413L13.5879 17.1326Z" fill="#B2B2B2"/>
<path d="M15.4891 14.6382H16.5012L16.6053 15.2518L15.5745 15.2497L15.4891 14.6382Z" fill="#B2B2B2"/>
<path d="M16.7552 14.6382H17.7694L17.8964 15.2518H16.8656L16.7552 14.6382Z" fill="#B2B2B2"/>
<path d="M18.0234 14.6382H19.0397L19.1896 15.2518H18.1567L18.0234 14.6382Z" fill="#B2B2B2"/>
<path d="M19.2958 14.6382H20.312L20.4869 15.2539L19.452 15.2518L19.2958 14.6382Z" fill="#B2B2B2"/>
<path d="M20.5682 14.6382H21.5885L21.7864 15.2539H20.7493L20.5682 14.6382Z" fill="#B2B2B2"/>
<path d="M15.6016 15.4316H16.6365L16.7448 16.0748H15.6911L15.6016 15.4316Z" fill="#B2B2B2"/>
<path d="M16.8968 15.4316L17.9339 15.4337L18.0692 16.0769L17.0114 16.0748L16.8968 15.4316Z" fill="#B2B2B2"/>
<path d="M18.1963 15.4337H19.2354L19.3937 16.079L18.3358 16.0769L18.1963 15.4337Z" fill="#B2B2B2"/>
<path d="M19.4978 15.4337H20.539L20.7243 16.079H19.6623L19.4978 15.4337Z" fill="#B2B2B2"/>
<path d="M20.8014 15.4359H21.8468L22.055 16.0811H20.9909L20.8014 15.4359Z" fill="#B2B2B2"/>
<path d="M15.7161 16.2631L16.7781 16.2652L16.8927 16.9401L15.8098 16.938L15.7161 16.2631Z" fill="#B2B2B2"/>
<path d="M17.0447 16.2652L18.1088 16.2673L18.2483 16.9422L17.1655 16.9401L17.0447 16.2652Z" fill="#B2B2B2"/>
<path d="M18.3754 16.2673L19.4416 16.2694L19.6082 16.9464L18.5232 16.9443L18.3754 16.2673Z" fill="#B2B2B2"/>
<path d="M19.7102 16.2694L20.7785 16.2715L20.9721 16.9485L19.883 16.9464L19.7102 16.2694Z" fill="#B2B2B2"/>
<path d="M15.839 17.1389L16.926 17.1411L17.0468 17.8498L15.9368 17.8477L15.839 17.1389Z" fill="#B2B2B2"/>
<path d="M17.2009 17.1411L18.29 17.1432L18.4378 17.854L17.3279 17.8519L17.2009 17.1411Z" fill="#B2B2B2"/>
<path d="M18.5649 17.1432L19.6581 17.1453L19.8331 17.8583L18.719 17.854L18.5649 17.1432Z" fill="#B2B2B2"/>
<path d="M19.933 17.1474L21.0284 17.1495L21.2325 17.8625L20.1142 17.8583L19.933 17.1474Z" fill="#B2B2B2"/>
<path d="M22.3424 16.9507C22.3424 16.9507 22.3382 16.9507 22.3361 16.9486L22.1175 16.2715H21.0471L21.2449 16.9486L21.5136 17.8625H22.6339L22.3445 16.9507H22.3424Z" fill="#B2B2B2"/>
<path d="M10.9911 14.5367H12.0177L12.0364 15.1481H10.9911V14.5367Z" fill="white"/>
<path d="M12.2468 14.5367H13.2776L13.3192 15.1481H12.2697L12.2468 14.5367Z" fill="white"/>
<path d="M13.5066 14.5367H14.5374L14.6041 15.1502L13.5525 15.1481L13.5066 14.5367Z" fill="white"/>
<path d="M10.9911 15.3279H12.0427L12.0635 15.969L10.9911 15.9669V15.3279Z" fill="white"/>
<path d="M12.2759 15.3279L13.3317 15.3301L13.3754 15.9711L12.3009 15.969L12.2759 15.3279Z" fill="white"/>
<path d="M13.567 15.33H14.6228L14.6915 15.9711H13.6149L13.567 15.33Z" fill="white"/>
<path d="M10.9911 16.1573H12.0677L12.0885 16.8301L10.9911 16.828V16.1573Z" fill="white"/>
<path d="M12.3092 16.1594H13.3879L13.4358 16.8343L12.3342 16.8322L12.3092 16.1594Z" fill="white"/>
<path d="M13.6295 16.1594L14.7124 16.1615L14.7852 16.8364L13.6816 16.8343L13.6295 16.1594Z" fill="#A0BA72"/>
<path d="M10.9911 17.0268L12.0948 17.0289L12.1177 17.7377L10.9911 17.7335V17.0268Z" fill="white"/>
<path d="M12.3426 17.031L13.4483 17.0332L13.4983 17.7398L12.3675 17.7377L12.3426 17.031Z" fill="white"/>
<path d="M13.6961 17.0331L14.8061 17.0353L14.8831 17.744L13.7503 17.7419L13.6961 17.0331Z" fill="#EBB267"/>
<path d="M15.5974 14.5367H16.6074L16.7115 15.1502H15.6828L15.5974 14.5367Z" fill="#EBB267"/>
<path d="M16.8635 14.5367H17.8756L18.0047 15.1502H16.9718L16.8635 14.5367Z" fill="#EBB267"/>
<path d="M18.1317 14.5367H19.1459L19.2979 15.1523H18.265L18.1317 14.5367Z" fill="#EBB267"/>
<path d="M19.402 14.5367H20.4203L20.5952 15.1523H19.5582L19.402 14.5367Z" fill="white"/>
<path d="M20.6764 14.5367H21.6948L21.8947 15.1523H20.8555L20.6764 14.5367Z" fill="white"/>
<path d="M15.7078 15.33L16.7427 15.3322L16.8531 15.9753L15.7973 15.9732L15.7078 15.33Z" fill="white"/>
<path d="M17.0051 15.3322H18.0422L18.1754 15.9753H17.1197L17.0051 15.3322Z" fill="white"/>
<path d="M18.3025 15.3322L19.3437 15.3343L19.502 15.9775H18.442L18.3025 15.3322Z" fill="white"/>
<path d="M19.6061 15.3343H20.6473L20.8305 15.9796L19.7685 15.9774L19.6061 15.3343Z" fill="white"/>
<path d="M20.9097 15.3343H21.953L22.1633 15.9817L21.0992 15.9796L20.9097 15.3343Z" fill="#D03130"/>
<path d="M15.8244 16.1636H16.8843L16.9989 16.8406L15.9181 16.8385L15.8244 16.1636Z" fill="white"/>
<path d="M17.153 16.1657H18.215L18.3566 16.8428L17.2717 16.8406L17.153 16.1657Z" fill="white"/>
<path d="M18.4836 16.1657L19.5498 16.1679L19.7164 16.8449L18.6294 16.8428L18.4836 16.1657Z" fill="white"/>
<path d="M19.8185 16.1678L20.8847 16.17L21.0784 16.847L19.9892 16.8449L19.8185 16.1678Z" fill="white"/>
<path d="M15.9452 17.0374L17.0343 17.0395L17.1551 17.7504L16.0451 17.7461L15.9452 17.0374Z" fill="white"/>
<path d="M17.3092 17.0395L18.3983 17.0416L18.5461 17.7546L17.4341 17.7504L17.3092 17.0395Z" fill="white"/>
<path d="M18.6731 17.0437L19.7664 17.0458L19.9413 17.7567L18.8272 17.7546L18.6731 17.0437Z" fill="white"/>
<path d="M20.0413 17.0458L21.1367 17.048L21.3387 17.7609L20.2225 17.7588L20.0413 17.0458Z" fill="white"/>
<path d="M22.4444 16.8512L22.2237 16.1721L21.1554 16.17L21.3532 16.8491L21.6219 17.761L22.7401 17.7652L22.4444 16.8512Z" fill="#878787"/>
<path opacity="0.2" d="M6.14525 12.4358H4.37727C4.37727 10.7095 3.33189 10.6481 2.50933 10.0917L2.94039 7.73273H3.26108C3.43809 7.88294 3.63592 8.01622 3.85666 8.16644C4.87705 8.85614 6.14733 9.46968 6.14733 12.4358H6.14525Z" fill="#1D1D1B"/>
<path d="M11.0535 13.0515H20.9097L19.9997 8.39493H11.0535V13.0515Z" fill="#3C3C3B"/>
<path d="M18.9647 10.9824H11.974V9.62622H18.7148L18.9647 10.9824Z" fill="#A0BA72"/>
<path d="M19.15 0H11.8303C11.3622 0 10.9827 0.385515 10.9827 0.861072V3.53103C10.9827 4.00659 11.3622 4.3921 11.8303 4.3921H19.15C19.6181 4.3921 19.9976 4.00659 19.9976 3.53103V0.861072C19.9976 0.385515 19.6181 0 19.15 0Z" fill="#DADADA"/>
<path d="M19.15 0.330048H11.8303C11.5416 0.330048 11.3076 0.567798 11.3076 0.861077V3.53103C11.3076 3.82431 11.5416 4.06206 11.8303 4.06206H19.15C19.4387 4.06206 19.6727 3.82431 19.6727 3.53103V0.861077C19.6727 0.567798 19.4387 0.330048 19.15 0.330048Z" fill="#3C3C3B"/>
<path d="M16.4554 4.39209H14.527V7.73483H16.4554V4.39209Z" fill="#C6C6C6"/>
<path opacity="0.2" d="M16.4554 4.39209H14.527V5.2849H16.4554V4.39209Z" fill="#1D1D1B"/>
<path d="M6.63254 12.4358H4.35644C4.35644 10.7073 3.90247 10.4006 3.07991 9.84627C2.36564 9.36179 1.3869 8.7017 0.849632 7.13189L2.9987 6.37448C3.28399 7.21017 3.72755 7.50847 4.33978 7.92314C5.36017 8.61285 6.63046 9.4718 6.63046 12.438L6.63254 12.4358Z" fill="#F6F6F6"/>
<path d="M15.8598 1.88505C15.8161 1.88505 15.7765 1.88082 15.7411 1.87024C15.7036 1.85966 15.6724 1.84274 15.6453 1.81946C15.6182 1.79619 15.5953 1.76234 15.5807 1.72214C15.5641 1.68195 15.5578 1.63329 15.5578 1.57405V1.53597C15.5578 1.47673 15.5662 1.42595 15.5828 1.38364C15.5995 1.34132 15.6203 1.30747 15.6495 1.28209C15.6765 1.2567 15.7098 1.23554 15.7494 1.22496C15.789 1.21227 15.8306 1.20804 15.8744 1.20804C15.9181 1.20804 15.9618 1.21439 15.9993 1.22496C16.0389 1.23766 16.0722 1.2567 16.1013 1.28209C16.1305 1.30747 16.1534 1.34344 16.1701 1.38364C16.1867 1.42595 16.1951 1.47673 16.1951 1.53597V2.01622C16.1951 2.07757 16.1867 2.12835 16.1701 2.17066C16.1534 2.21297 16.1305 2.24683 16.1013 2.27221C16.0722 2.2976 16.0389 2.31876 15.9993 2.32934C15.9597 2.34203 15.9181 2.34626 15.8723 2.34626C15.8202 2.34626 15.7744 2.3378 15.7348 2.32299C15.6953 2.30818 15.6619 2.28914 15.637 2.26375C15.6099 2.23836 15.5911 2.21086 15.5766 2.17912C15.5641 2.14739 15.5557 2.11565 15.5557 2.07969C15.5557 2.04795 15.5724 2.03103 15.6036 2.03103C15.6161 2.03103 15.6286 2.03526 15.639 2.04161C15.6495 2.04795 15.6557 2.05853 15.6557 2.07546C15.6557 2.10296 15.662 2.12623 15.6724 2.14739C15.6828 2.16855 15.6994 2.18759 15.7182 2.2024C15.739 2.21721 15.7619 2.2299 15.7869 2.23625C15.814 2.24471 15.841 2.24894 15.8702 2.24894C15.9389 2.24894 15.9931 2.2299 16.0305 2.19182C16.068 2.15374 16.0888 2.0945 16.0888 2.01199V1.77503C16.0618 1.811 16.0285 1.8385 15.9889 1.85331C15.9493 1.87024 15.9056 1.8787 15.8577 1.8787L15.8598 1.88505ZM16.0909 1.53385C16.0909 1.45134 16.0722 1.3921 16.0326 1.35402C15.9931 1.31594 15.941 1.2969 15.8723 1.2969C15.8036 1.2969 15.7515 1.31594 15.714 1.35402C15.6765 1.3921 15.6578 1.45134 15.6578 1.53385V1.57193C15.6578 1.65444 15.6765 1.71156 15.714 1.74541C15.7515 1.77927 15.8056 1.79619 15.8744 1.79619C15.9077 1.79619 15.9368 1.79196 15.9639 1.7835C15.991 1.77503 16.0139 1.76446 16.0326 1.74753C16.0514 1.73061 16.0659 1.70945 16.0764 1.68195C16.0868 1.65444 16.0909 1.62271 16.0909 1.58462V1.53385V1.53385Z" fill="#DEDC00"/>
<path d="M16.649 1.88505C16.6053 1.88505 16.5657 1.88082 16.5303 1.87024C16.4928 1.85966 16.4616 1.84274 16.4345 1.81946C16.4075 1.79619 16.3846 1.76234 16.37 1.72214C16.3533 1.68195 16.3471 1.63329 16.3471 1.57405V1.53597C16.3471 1.47673 16.3554 1.42595 16.3721 1.38364C16.3887 1.34132 16.4095 1.30747 16.4387 1.28209C16.4658 1.2567 16.4991 1.23554 16.5387 1.22496C16.5782 1.21227 16.6199 1.20804 16.6636 1.20804C16.7073 1.20804 16.7511 1.21439 16.7885 1.22496C16.8281 1.23766 16.8614 1.2567 16.8906 1.28209C16.9197 1.30747 16.9426 1.34344 16.9593 1.38364C16.976 1.42595 16.9843 1.47673 16.9843 1.53597V2.01622C16.9843 2.07757 16.976 2.12835 16.9593 2.17066C16.9426 2.21297 16.9197 2.24683 16.8906 2.27221C16.8614 2.2976 16.8281 2.31876 16.7885 2.32934C16.749 2.34203 16.7073 2.34626 16.6615 2.34626C16.6095 2.34626 16.5636 2.3378 16.5241 2.32299C16.4845 2.30818 16.4512 2.28914 16.4262 2.26375C16.3991 2.23836 16.3804 2.21086 16.3658 2.17912C16.3512 2.14739 16.345 2.11565 16.345 2.07969C16.345 2.04795 16.3616 2.03103 16.3929 2.03103C16.4054 2.03103 16.4179 2.03526 16.4283 2.04161C16.4387 2.04795 16.4449 2.05853 16.4449 2.07546C16.4449 2.10296 16.4512 2.12623 16.4616 2.14739C16.472 2.16855 16.4887 2.18759 16.5074 2.2024C16.5282 2.21721 16.5511 2.2299 16.5761 2.23625C16.6032 2.24471 16.6303 2.24894 16.6594 2.24894C16.7282 2.24894 16.7823 2.2299 16.8198 2.19182C16.8573 2.15374 16.8781 2.0945 16.8781 2.01199V1.77503C16.851 1.811 16.8177 1.8385 16.7781 1.85331C16.7386 1.87024 16.6948 1.8787 16.6469 1.8787L16.649 1.88505ZM16.8802 1.53385C16.8802 1.45134 16.8614 1.3921 16.8219 1.35402C16.7823 1.31594 16.7302 1.2969 16.6615 1.2969C16.5928 1.2969 16.5407 1.31594 16.5033 1.35402C16.4658 1.3921 16.447 1.45134 16.447 1.53385V1.57193C16.447 1.65444 16.4658 1.71156 16.5033 1.74541C16.5407 1.77927 16.5949 1.79619 16.6636 1.79619C16.6969 1.79619 16.7261 1.79196 16.7531 1.7835C16.7802 1.77503 16.8031 1.76446 16.8219 1.74753C16.8406 1.73061 16.8552 1.70945 16.8656 1.68195C16.876 1.65444 16.8802 1.62271 16.8802 1.58462V1.53385V1.53385Z" fill="#DEDC00"/>
<path d="M17.1863 2.20663C17.205 2.20663 17.2196 2.21298 17.2342 2.22779C17.2488 2.2426 17.255 2.25953 17.255 2.28068C17.255 2.29972 17.2488 2.31665 17.2342 2.32934C17.2196 2.34415 17.205 2.3505 17.1863 2.3505C17.1655 2.3505 17.1488 2.34415 17.1363 2.32934C17.1238 2.31453 17.1176 2.29761 17.1176 2.28068C17.1176 2.25953 17.1238 2.2426 17.1363 2.22779C17.1488 2.21298 17.1655 2.20663 17.1863 2.20663Z" fill="#DEDC00"/>
<path d="M17.6757 1.67559C17.7215 1.67559 17.7631 1.68194 17.8006 1.69251C17.8402 1.70309 17.8735 1.72213 17.9006 1.74752C17.9276 1.77291 17.9505 1.80464 17.9672 1.84696C17.9839 1.88715 17.9922 1.93581 17.9922 1.99505V2.02467C17.9922 2.08391 17.9839 2.13469 17.9672 2.177C17.9505 2.21931 17.9276 2.25316 17.9006 2.27855C17.8714 2.30394 17.8381 2.32509 17.8006 2.33567C17.761 2.34837 17.7215 2.3526 17.6777 2.3526C17.6278 2.3526 17.582 2.34625 17.5424 2.33144C17.5028 2.31663 17.4695 2.29759 17.4424 2.27432C17.4154 2.25105 17.3945 2.22354 17.38 2.18969C17.3654 2.15796 17.3591 2.12411 17.3591 2.08814C17.3591 2.0691 17.3633 2.05641 17.3737 2.04794C17.382 2.03948 17.3945 2.03525 17.4091 2.03525C17.4445 2.03525 17.4612 2.05006 17.4612 2.07968C17.4612 2.1093 17.4674 2.13257 17.4778 2.15584C17.4882 2.17911 17.5049 2.19604 17.5236 2.21085C17.5424 2.22566 17.5653 2.23624 17.5924 2.2447C17.6194 2.25316 17.6465 2.25739 17.6777 2.25739C17.7465 2.25739 17.7985 2.23835 17.8381 2.20027C17.8756 2.16219 17.8964 2.10295 17.8964 2.02256V1.99294C17.8964 1.91466 17.8777 1.85753 17.8381 1.81945C17.8006 1.78137 17.7465 1.76233 17.6798 1.76233H17.4674C17.4466 1.76233 17.432 1.7581 17.4258 1.75175C17.4195 1.7454 17.4154 1.73483 17.4154 1.72425C17.4154 1.72213 17.4154 1.71579 17.4154 1.70944C17.4154 1.70309 17.4154 1.69674 17.4154 1.69463L17.4466 1.24823C17.4487 1.22284 17.4612 1.21014 17.4778 1.21014H17.9047C17.9151 1.21014 17.9235 1.21438 17.9297 1.22495C17.936 1.23553 17.938 1.24611 17.938 1.25669C17.938 1.26938 17.936 1.27996 17.9297 1.29054C17.9235 1.30112 17.9151 1.30535 17.9047 1.30535H17.5341L17.5091 1.6777H17.6757V1.67559Z" fill="#DEDC00"/>
<path d="M18.4462 2.35261C18.4024 2.35261 18.3608 2.34626 18.3212 2.33568C18.2816 2.32299 18.2483 2.30395 18.2213 2.27856C18.1921 2.25317 18.1692 2.21721 18.1546 2.17701C18.138 2.1347 18.1296 2.08392 18.1296 2.02257V1.54231C18.1296 1.48307 18.138 1.4323 18.1546 1.38999C18.1713 1.34767 18.1942 1.31382 18.2213 1.28843C18.2504 1.26305 18.2837 1.24189 18.3212 1.23131C18.3608 1.21862 18.4024 1.21439 18.4462 1.21439C18.4899 1.21439 18.5336 1.22073 18.5711 1.23131C18.6107 1.24401 18.644 1.26305 18.6711 1.28843C18.7002 1.31382 18.7231 1.34979 18.7377 1.38999C18.7544 1.4323 18.7627 1.48307 18.7627 1.54231V2.02257C18.7627 2.08392 18.7544 2.1347 18.7377 2.17701C18.721 2.21932 18.6981 2.25317 18.6711 2.27856C18.6419 2.30395 18.6086 2.32511 18.5711 2.33568C18.5315 2.34838 18.4899 2.35261 18.4462 2.35261V2.35261ZM18.6627 1.5402C18.6627 1.4598 18.644 1.40056 18.6065 1.36248C18.569 1.3244 18.5149 1.30536 18.4462 1.30536C18.3774 1.30536 18.3254 1.3244 18.2858 1.36248C18.2483 1.40056 18.2296 1.4598 18.2296 1.5402V2.02045C18.2296 2.10296 18.2483 2.1622 18.2858 2.20028C18.3233 2.23836 18.3774 2.2574 18.4462 2.2574C18.5149 2.2574 18.5669 2.23836 18.6065 2.20028C18.644 2.1622 18.6627 2.10296 18.6627 2.02045V1.5402ZM18.4482 1.72637C18.4628 1.72637 18.4774 1.73061 18.4878 1.74118C18.4982 1.75176 18.5045 1.76446 18.5045 1.78138C18.5045 1.79619 18.4982 1.811 18.4878 1.82158C18.4774 1.83216 18.4649 1.8385 18.4482 1.8385C18.4316 1.8385 18.417 1.83216 18.4066 1.82158C18.3962 1.811 18.392 1.79619 18.392 1.78138C18.392 1.76446 18.3962 1.75176 18.4066 1.74118C18.417 1.73061 18.4316 1.72637 18.4482 1.72637Z" fill="#DEDC00"/>
</g>
<defs>
<clipPath id="clip0_270_1220">
<rect width="24" height="24" fill="white"/>
</clipPath>
</defs>
</svg>
