<svg width="29" height="32" viewBox="0 0 29 32" fill="none" xmlns="http://www.w3.org/2000/svg">
<g clip-path="url(#clip0_270_1165)">
<path d="M28.8511 23.6994H0L2.03891 6.9369C2.1509 6.0212 2.96449 5.28996 3.86042 5.28996H24.9906C25.8866 5.28996 26.7002 6.0212 26.8121 6.9369L28.8511 23.6994Z" fill="#34486B"/>
<path d="M28.8511 23.6994V30.5342C28.8511 31.3478 28.1956 32.0033 27.3853 32.0033H1.46907C0.655481 32.0033 0 31.3478 0 30.5342V23.6994H28.8511Z" fill="#476191"/>
<path d="M22.6355 13.719H6.21884C5.53372 13.719 5.02976 13.1195 5.09563 12.3916L5.71488 5.28996H23.1428L23.762 12.3916C23.8246 13.1195 23.3239 13.719 22.6388 13.719H22.6355Z" fill="#476191"/>
<path d="M21.6539 5.28667H7.19711L6.87431 8.73865H21.9767L21.6539 5.28667Z" fill="#1D1D1B"/>
<path opacity="0.3" d="M23.1625 21.0907H5.92567L6.60092 15.4055H22.4873L23.1625 21.0907Z" fill="#1D1D1B"/>
<g style="mix-blend-mode:overlay" opacity="0.75">
<path d="M23.1625 21.0907H5.92567L9.48635 17.922H19.6018L23.1625 21.0907Z" fill="white"/>
</g>
<path d="M21.3245 16.7329C21.3509 16.9898 21.15 17.1973 20.8766 17.1973H8.2742C8.00081 17.1973 7.79989 16.9898 7.82624 16.7329C7.85259 16.4793 8.08975 16.275 8.35984 16.275H20.7909C21.061 16.275 21.2982 16.4793 21.3245 16.7329Z" fill="#1D1D1B"/>
<path d="M21.3608 1.58765H7.49026V8.73865H21.3608V1.58765Z" fill="white"/>
<path style="mix-blend-mode:screen" opacity="0.2" d="M23.4722 9.05486H5.41513V1.558C5.41513 0.698302 6.0245 0 6.77879 0H22.1085C22.8628 0 23.4722 0.698302 23.4722 1.558V9.05486Z" fill="url(#paint0_linear_270_1165)"/>
<path style="mix-blend-mode:screen" opacity="0.2" d="M5.95532 9.05486V1.558C5.95532 0.99804 6.32424 0.540192 6.77879 0.540192H22.1085C22.563 0.540192 22.932 0.99804 22.932 1.558V9.05486H5.95532Z" fill="url(#paint1_linear_270_1165)"/>
<path style="mix-blend-mode:multiply" opacity="0.2" d="M21.3608 4.92764H7.49026V8.74195H21.3608V4.92764Z" fill="url(#paint2_linear_270_1165)"/>
<path d="M11.1959 12.6452L22.181 13.5675C22.7607 13.1294 23.2152 11.3309 21.9998 11.186L11.6537 9.96397L11.1959 12.6419V12.6452Z" fill="#B2B2B2"/>
<path d="M21.9998 11.1893L11.7229 9.97716C9.22615 9.81905 8.56737 14.335 8.99228 17.0656H20.4945C20.0828 14.6083 20.4813 11.3178 21.9998 11.1926V11.1893Z" fill="white"/>
<path opacity="0.5" d="M28.8511 29.8359V30.5342C28.8511 31.3478 28.1956 32.0033 27.3853 32.0033H1.46907C0.655481 32.0033 0 31.3478 0 30.5342V29.8359H28.8511Z" fill="#1D1D1B"/>
<path opacity="0.3" d="M26.8418 21.0907H24.9116C24.6514 21.0907 24.4307 20.8963 24.3977 20.6394L24.2232 19.2988C24.1836 18.9892 24.4241 18.7125 24.737 18.7125H26.6672C26.9274 18.7125 27.1481 18.9068 27.1811 19.1638L27.3556 20.5044C27.3952 20.814 27.1547 21.0907 26.8418 21.0907Z" fill="#1D1D1B"/>
<path opacity="0.3" d="M26.4597 18.146H24.5295C24.2693 18.146 24.0486 17.9516 24.0156 17.6947L23.8411 16.3541C23.8015 16.0445 24.042 15.7678 24.3549 15.7678H26.2851C26.5453 15.7678 26.766 15.9621 26.799 16.219L26.9735 17.5596C27.0131 17.8693 26.7726 18.146 26.4597 18.146Z" fill="#1D1D1B"/>
<path d="M26.8418 20.5867H24.9116C24.6514 20.5867 24.4307 20.3924 24.3977 20.1355L24.2232 18.7949C24.1836 18.4852 24.4241 18.2085 24.737 18.2085H26.6672C26.9274 18.2085 27.1481 18.4029 27.1811 18.6598L27.3556 20.0004C27.3952 20.31 27.1547 20.5867 26.8418 20.5867Z" fill="#476191"/>
<path d="M26.4597 17.642H24.5295C24.2693 17.642 24.0486 17.4477 24.0156 17.1907L23.8411 15.8501C23.8015 15.5405 24.042 15.2638 24.3549 15.2638H26.2851C26.5453 15.2638 26.766 15.4582 26.799 15.7151L26.9735 17.0557C27.0131 17.3653 26.7726 17.642 26.4597 17.642Z" fill="white"/>
<path d="M9.53906 24.5196H1.2879V26.4861H9.53906V24.5196Z" fill="white"/>
<path d="M25.4057 28.8708H18.1229V32H25.4057V28.8708Z" fill="#202D42"/>
<path d="M24.6514 28.8708H18.8805V32H24.6514V28.8708Z" fill="#34486B"/>
<path d="M21.8088 29.5494H19.6611V31.3248H21.8088V29.5494Z" fill="#202D42"/>
<path d="M23.8707 29.5494H21.8087V31.3248H23.8707V29.5494Z" fill="#25344D"/>
<path d="M20.0729 29.5494H19.6611V31.3248H20.0729V29.5494Z" fill="#2A3B57"/>
<path d="M20.9721 30.9097H20.9688C20.7646 30.9097 20.6032 30.6923 20.6065 30.4321C20.6098 30.1752 20.7778 29.9644 20.9787 29.9644C21.1862 29.9644 21.3509 30.1818 21.3476 30.442C21.3443 30.7022 21.1796 30.9097 20.9754 30.9097H20.9721ZM20.9787 30.0764C20.8338 30.0764 20.7152 30.2378 20.7119 30.4354C20.7119 30.6363 20.8239 30.801 20.9688 30.801C21.1137 30.801 21.2323 30.6396 21.2356 30.442C21.2356 30.2411 21.1236 30.0764 20.9787 30.0764V30.0764Z" fill="white"/>
<path d="M23.2515 30.3827H22.428V30.4914H23.2515V30.3827Z" fill="white"/>
<path opacity="0.2" d="M25.4057 28.8708H18.1229V30.386H25.4057V28.8708Z" fill="#1D1D1B"/>
</g>
<defs>
<linearGradient id="paint0_linear_270_1165" x1="14.4436" y1="9.05486" x2="14.4436" y2="0" gradientUnits="userSpaceOnUse">
<stop stop-color="white"/>
<stop offset="0.04" stop-color="#F9EFEA"/>
<stop offset="0.14" stop-color="#EBCAB6"/>
<stop offset="0.25" stop-color="#DFA889"/>
<stop offset="0.35" stop-color="#D58C63"/>
<stop offset="0.47" stop-color="#CC7643"/>
<stop offset="0.58" stop-color="#C6642B"/>
<stop offset="0.71" stop-color="#C1571A"/>
<stop offset="0.84" stop-color="#BE5010"/>
<stop offset="1" stop-color="#BE4E0D"/>
</linearGradient>
<linearGradient id="paint1_linear_270_1165" x1="14.4436" y1="-3.93452e-06" x2="14.4436" y2="0.540192" gradientUnits="userSpaceOnUse">
<stop stop-color="white"/>
<stop offset="0.04" stop-color="#F9EFEA"/>
<stop offset="0.14" stop-color="#EBCAB6"/>
<stop offset="0.25" stop-color="#DFA889"/>
<stop offset="0.35" stop-color="#D58C63"/>
<stop offset="0.47" stop-color="#CC7643"/>
<stop offset="0.58" stop-color="#C6642B"/>
<stop offset="0.71" stop-color="#C1571A"/>
<stop offset="0.84" stop-color="#BE5010"/>
<stop offset="1" stop-color="#BE4E0D"/>
</linearGradient>
<linearGradient id="paint2_linear_270_1165" x1="14.4272" y1="8.73866" x2="14.4272" y2="4.92764" gradientUnits="userSpaceOnUse">
<stop stop-color="#1D1D1B"/>
<stop offset="1" stop-color="white"/>
</linearGradient>
<clipPath id="clip0_270_1165">
<rect width="28.8511" height="32" fill="white"/>
</clipPath>
</defs>
</svg>
