<svg width="32" height="32" viewBox="0 0 32 32" fill="none" xmlns="http://www.w3.org/2000/svg">
<path d="M27.9542 13.2755L26.2379 7.27437C26.1681 7.02243 26.0176 6.80032 25.8095 6.64207C25.6014 6.48382 25.3471 6.39816 25.0857 6.39821H6.91431C6.37421 6.39821 5.90612 6.75828 5.76209 7.27437L4.04577 13.2755C3.82973 14.0316 4.40584 14.7998 5.19799 14.7998H7.83848L6.39821 25.6018H8.79866L9.60281 19.6007H22.4092L23.2013 25.6018H25.6018L24.1615 14.7998H26.802C27.5942 14.7998 28.1703 14.0316 27.9542 13.2755ZM9.91487 17.2002L10.2389 14.7998H21.7611L22.0851 17.2002H9.91487Z" fill="#212121"/>
</svg>
