<svg width="32" height="32" viewBox="0 0 32 32" fill="none" xmlns="http://www.w3.org/2000/svg">
<g clip-path="url(#clip0_270_1121)">
<path d="M17.6507 13.1538L15.696 11.0585L7.52172 18.6842C6.97849 19.191 6.94725 20.091 7.47815 20.6601C8.00906 21.2292 8.90906 21.2605 9.45229 20.7537L17.6507 13.1538" fill="#FFE1BD"/>
<path d="M7.52815 20.6619C7.60055 20.7395 7.64881 20.7912 7.72294 20.8188C7.34204 20.2549 7.41808 19.5067 7.90957 19.0481L16.0838 11.4224L15.746 11.0603L7.54585 18.7101C6.97849 19.191 6.97311 20.0669 7.52815 20.6619" fill="#E6B796"/>
<path d="M19.8467 15.5078L17.6748 13.1797L8.82798 21.4329C8.15542 22.0603 8.09483 23.0844 8.69813 23.7311C9.30144 24.3778 10.3273 24.3884 10.9999 23.761L19.8467 15.5078" fill="#FFE1BD"/>
<path d="M8.674 23.7053C8.72227 23.757 8.79466 23.8346 8.86879 23.8622C8.41549 23.2207 8.54674 22.3242 9.1417 21.7691L17.9885 13.516L17.6507 13.1538L8.80385 21.407C8.13128 22.0344 8.0707 23.0586 8.674 23.7053Z" fill="#E6B796"/>
<path d="M21.729 17.5255L19.8226 15.4819L11.4931 23.2525C10.924 23.7834 10.8669 24.7075 11.3737 25.2507C11.9046 25.8198 12.7804 25.8252 13.3754 25.2701L21.729 17.5255" fill="#FFE1BD"/>
<path d="M11.3978 25.2766C11.4461 25.3283 11.5185 25.4059 11.5926 25.4335C11.2358 24.8955 11.3136 24.0972 11.8309 23.6146L20.1604 15.8441L19.8226 15.4819L11.4931 23.2525C10.9223 23.8334 10.8669 24.7075 11.3978 25.2766" fill="#E6B796"/>
<path d="M14.4494 26.0584C14.932 26.5757 15.7579 26.5794 16.3011 26.0726L23.4665 19.388L21.729 17.5255L14.5636 24.2101C14.0204 24.7169 13.9667 25.541 14.4494 26.0584" fill="#FFE1BD"/>
<path d="M14.4494 26.0584C14.4976 26.1101 14.57 26.1877 14.6442 26.2153C14.3115 25.7031 14.4358 25.0066 14.9014 24.5722L22.0668 17.8877L21.729 17.5255L14.5636 24.2101C14.0204 24.7169 13.9667 25.541 14.4494 26.0584" fill="#E6B796"/>
<path d="M11.0699 11.6488C12.2111 12.6646 13.4026 12.2304 13.963 11.9495L14.2182 11.8082C14.2182 11.8082 14.4682 11.8169 14.8458 11.7549L14.8941 11.8066C14.8941 11.8066 14.5765 13.0221 12.9486 14.4924L14.5983 16.0014L15.1948 16.1222L17.0271 18.1382L17.703 18.1366L19.1922 19.9404L19.8663 19.9889C19.8663 19.9889 21.2419 21.4633 21.4212 21.3444C22.0851 20.967 22.9559 20.3965 24.9134 18.0866C29.6371 12.5187 22.3092 6.58244 18.652 7.38159C17.971 7.53316 15.7882 7.68265 15.7882 7.68265C15.514 7.6481 15.2105 7.73768 14.9277 7.95314C14.1052 8.57536 13.005 9.26304 11.4359 9.75923C10.7772 9.98667 10.2684 10.9452 11.0699 11.6488" fill="#FFE1BD"/>
<path d="M10.6736 10.8091C10.8064 10.5884 11.0116 10.4454 11.1892 10.3764C12.7583 9.88024 13.8585 9.19256 14.681 8.57034C14.9639 8.35489 15.3449 8.1929 15.6449 8.20332C17.1208 8.22953 21.1074 6.59079 23.593 9.25519C26.3441 12.2041 26.3262 14.8817 26.1674 15.8524C26.6814 14.7439 26.7752 12.0439 23.8793 8.93973C21.1765 6.04252 17.8399 7.70383 15.7105 7.75505C15.3088 7.79117 15.1329 7.81009 14.8501 8.02555C14.0276 8.64777 12.9274 9.33545 11.3583 9.83164C11.0048 9.91949 10.6651 10.3332 10.6736 10.8091" fill="#E6B796"/>
<path d="M15.6633 10.5568C15.6633 10.5568 14.289 11.2099 13.6769 11.5391C13.1665 11.8217 12.0543 12.1335 11.1423 11.7264C12.237 12.6405 13.4285 12.2063 13.963 11.9495L14.2182 11.8082C14.2182 11.8082 14.5165 11.8686 14.8941 11.8066C14.8941 11.8066 15.046 11.036 15.6633 10.5568M13.9326 16.4288C14.1102 16.3599 14.312 16.3169 14.4879 16.2979C14.6637 16.279 14.8655 16.236 15.0672 16.1929C15.2689 16.1498 15.4724 16.0568 15.6276 15.912C15.7828 15.7672 15.8898 15.5707 15.9467 15.3724C15.7915 15.5172 15.638 15.612 15.4845 15.7068C15.3311 15.8016 15.1793 15.8464 14.9776 15.8894C14.8 15.9583 14.6241 15.9773 14.4207 16.0703C14.2189 16.1134 14.0396 16.2323 13.9326 16.4288M16.3097 18.6139C16.4873 18.545 16.6891 18.5019 16.8649 18.483C17.0408 18.4641 17.2426 18.421 17.4443 18.378C17.646 18.3349 17.8495 18.2418 18.0047 18.097C18.1599 17.9523 18.2669 17.7557 18.3238 17.5575C18.1686 17.7023 18.0151 17.797 17.8616 17.8918C17.7082 17.9866 17.5564 18.0314 17.3547 18.0745C17.1771 18.1434 17.0012 18.1623 16.7978 18.2554C16.596 18.2984 16.3908 18.4415 16.3097 18.6139M18.4507 20.3903C18.6283 20.3213 18.8301 20.2783 19.0059 20.2594C19.1818 20.2404 19.3835 20.1974 19.5853 20.1543C19.787 20.1113 19.9905 20.0182 20.1457 19.8734C20.3009 19.7286 20.4078 19.5321 20.4648 19.3338C20.3096 19.4786 20.1561 19.5734 20.0026 19.6682C19.8492 19.763 19.6974 19.8078 19.4957 19.8509C19.3181 19.9198 19.1422 19.9387 18.9387 20.0318C18.737 20.0748 18.5318 20.2179 18.4507 20.3903" fill="#E6B796"/>
</g>
<path fill-rule="evenodd" clip-rule="evenodd" d="M23.828 10.1311C23.925 10.1698 24.0081 10.2366 24.0667 10.323C24.1253 10.4094 24.1567 10.5114 24.1568 10.6158V16.6487C24.1567 16.7531 24.1253 16.8551 24.0667 16.9415C24.0081 17.0279 23.925 17.0948 23.828 17.1335L18.7786 19.1533C18.654 19.2031 18.5151 19.2031 18.3906 19.1533L13.3412 17.1335C13.2443 17.0947 13.1613 17.0277 13.1029 16.9414C13.0444 16.855 13.0131 16.753 13.0131 16.6487V10.6158C13.0131 10.5115 13.0444 10.4096 13.1029 10.3232C13.1613 10.2368 13.2443 10.1699 13.3412 10.1311L18.197 8.1886L18.1998 8.18791L18.3906 8.11129C18.5153 8.06131 18.6545 8.06131 18.7793 8.11129L18.9701 8.18791L18.9729 8.1886L23.828 10.1311V10.1311ZM22.8711 10.4981L18.5849 12.2129L14.2988 10.4981L13.7096 10.7342V11.0128L18.2367 12.8237V18.3412L18.5849 18.4805L18.9332 18.3412V12.8244L23.4603 11.0135V10.7349L22.8711 10.4988V10.4981Z" fill="url(#paint0_linear_270_1121)"/>
<defs>
<linearGradient id="paint0_linear_270_1121" x1="18.5849" y1="8.07381" x2="18.5849" y2="19.1906" gradientUnits="userSpaceOnUse">
<stop stop-color="#40C0E7"/>
<stop offset="1" stop-color="#FF0000"/>
</linearGradient>
<clipPath id="clip0_270_1121">
<rect width="22.6411" height="22.6411" fill="white" transform="matrix(0.682147 0.731215 0.731215 -0.682147 0 15.4445)"/>
</clipPath>
</defs>
</svg>
