<svg width="34" height="32" viewBox="0 0 34 32" fill="none" xmlns="http://www.w3.org/2000/svg">
<path d="M4.21046 5.89478H29.4736V8.42109H4.21046V5.89478Z" fill="#424242"/>
<path d="M0 17.6841H33.6842V11.7894C33.6842 9.93672 32.1684 8.42093 30.3158 8.42093H3.36842C1.51579 8.42093 0 9.93672 0 11.7894V17.6841Z" fill="#616161"/>
<path d="M3.36842 26.9474H30.3158C32.1684 26.9474 33.6842 25.4316 33.6842 23.579V16.8421H0V23.579C0 25.4316 1.51579 26.9474 3.36842 26.9474Z" fill="#424242"/>
<path d="M30.3158 12.6316C30.7809 12.6316 31.1579 12.2546 31.1579 11.7895C31.1579 11.3244 30.7809 10.9474 30.3158 10.9474C29.8507 10.9474 29.4737 11.3244 29.4737 11.7895C29.4737 12.2546 29.8507 12.6316 30.3158 12.6316Z" fill="#00E676"/>
<path d="M5.89477 0H27.7895V8.42105H5.89477V0Z" fill="#90CAF9"/>
<path d="M28.2105 22.7368H5.47362C4.79994 22.7368 4.21046 22.1473 4.21046 21.4736C4.21046 20.7999 4.79994 20.2105 5.47362 20.2105H28.2105C28.8841 20.2105 29.4736 20.7999 29.4736 21.4736C29.4736 22.1473 28.8841 22.7368 28.2105 22.7368Z" fill="#242424"/>
<path d="M5.89477 22.7369H27.7895V32.0001H5.89477V22.7369Z" fill="#90CAF9"/>
<path d="M5.89477 21.0526H27.7895V22.7368H5.89477V21.0526Z" fill="#42A5F5"/>
<path d="M10.1052 24.4209H24.421V26.1051H10.1052V24.4209ZM10.1052 27.7894H21.0526V29.4736H10.1052V27.7894Z" fill="#1976D2"/>
</svg>
