<svg width="32" height="32" viewBox="0 0 32 32" fill="none" xmlns="http://www.w3.org/2000/svg">
<path d="M16 24.6667L12.6667 20.6667V16.6667H19.3333V20.6667L16 24.6667Z" fill="#FFCEB4"/>
<path d="M22 14C22.7364 14 23.3333 13.4031 23.3333 12.6667C23.3333 11.9303 22.7364 11.3333 22 11.3333C21.2636 11.3333 20.6667 11.9303 20.6667 12.6667C20.6667 13.4031 21.2636 14 22 14Z" fill="#FFCEB4"/>
<path d="M9.99999 14C10.7364 14 11.3333 13.4031 11.3333 12.6667C11.3333 11.9303 10.7364 11.3333 9.99999 11.3333C9.26361 11.3333 8.66666 11.9303 8.66666 12.6667C8.66666 13.4031 9.26361 14 9.99999 14Z" fill="#FFCEB4"/>
<path d="M22 8.66668C22 3.60001 10 5.33334 10 8.66668V13.3333C10 16.6667 12.6667 19.3333 16 19.3333C19.3333 19.3333 22 16.6667 22 13.3333V8.66668Z" fill="#FFD7C2"/>
<path d="M16 2.66666C11.9333 2.66666 9.33334 5.93332 9.33334 9.99999V11.5333L10.6667 12.6667V9.33332L18.6667 6.66666L21.3333 9.33332V12.6667L22.6667 11.5333V9.99999C22.6667 7.33332 22 4.66666 18.6667 3.99999L18 2.66666H16Z" fill="#424242"/>
<path d="M16 28.6667L12.6667 20.6667L16 21.3333L19.3333 20.6667L16 28.6667Z" fill="white"/>
<path d="M15.3333 23.3333L14.8667 26.3333L16 29L17.1333 26.3333L16.6667 23.3333L17.3333 22.6667L16 21.3333L14.6667 22.6667L15.3333 23.3333Z" fill="#D32F2F"/>
<path d="M19.3333 20.6667L16 28.6667L12.6667 20.6667C12.6667 20.6667 5.33334 22 5.33334 29.3333H26.6667C26.6667 22 19.3333 20.6667 19.3333 20.6667Z" fill="#546E7A"/>
</svg>
