<svg width="18" height="24" viewBox="0 0 18 24" fill="none" xmlns="http://www.w3.org/2000/svg">
<path d="M0.0785828 21.8621C0.0785828 21.8621 0.786196 24.5826 5.21149 23.8858L5.96595 22.0645L4.69278 20.6814L1.16826 19.5182L0.079744 21.8621" fill="#34484C"/>
<path d="M14.1813 16.7633C14.1813 17.7271 13.6851 17.9811 12.4347 18.5094L1.74774 23.0211C1.28438 23.0212 0.839954 22.8372 0.5122 22.5097C0.184445 22.1822 0.000205288 21.7378 0 21.2745V6.25782C0 5.29278 0.567485 4.97265 1.74774 4.51162L12.4347 0C12.898 0.00010265 13.3422 0.184203 13.6698 0.511813C13.9973 0.839422 14.1813 1.28371 14.1813 1.74697V16.7636" fill="#78111F"/>
<path d="M0.972 22.838C0.972 22.838 4.97768 23.9861 5.2111 23.887C5.44491 23.7883 5.06168 22.1513 5.06168 22.1513L3.61278 20.5893L2.26529 20.527L2.02761 20.8642L0.972 22.838" fill="#34484C"/>
<path d="M12.1827 1.03897L0.328262 6.01975L0.884134 9.21214L2.6493 9.38789L8.5386 8.44066L12.1998 6.52104L14.8947 2.83007C14.3056 1.77407 13.4404 1.1191 12.1827 1.03897" fill="#F4F5F5"/>
<path d="M3.4684 7.12453C3.4684 6.84582 3.51833 6.6213 3.61278 6.43085C2.40078 6.31782 1.25536 5.96672 0.41923 5.21304C0.142455 5.46891 0.0050354 5.78595 0.0050354 6.25859V21.2753C0.00513805 21.7385 0.189239 22.1828 0.516848 22.5103C0.844457 22.8378 1.28875 23.0218 1.75201 23.0218L3.47614 22.2933C3.4713 22.243 3.46872 22.1925 3.4684 22.142V7.12453Z" fill="#34484C"/>
<path d="M17.9551 18.2431C17.9551 19.2074 17.4589 19.4602 16.2085 19.9889L5.21033 23.8866C4.74745 23.8866 4.30351 23.7028 3.97613 23.3756C3.64875 23.0483 3.46473 22.6045 3.46452 22.1416V7.12453C3.46452 6.16027 4.03085 5.83937 5.21033 5.37872L16.2085 1.47949C17.1724 1.47949 17.9551 2.26143 17.9551 3.22608V18.2431Z" fill="#BE202E"/>
<path d="M13.4013 6.06233C13.4238 6.12085 13.4221 6.1859 13.3968 6.24322C13.3714 6.30054 13.3243 6.34546 13.2658 6.36813L7.41833 8.6222C7.38943 8.63336 7.35862 8.63872 7.32765 8.63796C7.29668 8.63721 7.26616 8.63037 7.23783 8.61783C7.20951 8.60528 7.18393 8.58728 7.16256 8.56485C7.1412 8.54242 7.12445 8.516 7.1133 8.4871C7.10214 8.4582 7.09678 8.42739 7.09753 8.39642C7.09828 8.36545 7.10513 8.33493 7.11767 8.30661C7.13022 8.27828 7.14822 8.25271 7.17065 8.23134C7.19308 8.20997 7.21949 8.19323 7.24839 8.18207L13.0963 5.92839C13.1251 5.9171 13.1559 5.91162 13.1869 5.91229C13.2179 5.91295 13.2485 5.91974 13.2768 5.93226C13.3052 5.94478 13.3308 5.96279 13.3521 5.98524C13.3735 6.0077 13.3902 6.03416 13.4013 6.0631M13.4013 7.13691C13.4238 7.19543 13.4221 7.26049 13.3968 7.31781C13.3714 7.37513 13.3243 7.42004 13.2658 7.44271L7.41833 9.6964C7.38926 9.70831 7.3581 9.7143 7.32668 9.71401C7.29526 9.71373 7.26422 9.70718 7.23536 9.69474C7.20651 9.68231 7.18042 9.66424 7.15864 9.6416C7.13686 9.61896 7.11981 9.59219 7.10851 9.56288C7.0972 9.53357 7.09185 9.50229 7.09279 9.47088C7.09372 9.43948 7.10091 9.40857 7.11394 9.37998C7.12697 9.35139 7.14557 9.32569 7.16866 9.30438C7.19174 9.28307 7.21885 9.26658 7.24839 9.25588L13.0963 7.00181C13.1252 6.99047 13.156 6.98498 13.187 6.98564C13.218 6.98631 13.2486 6.99312 13.277 7.00568C13.3054 7.01825 13.331 7.03631 13.3523 7.05884C13.3736 7.08137 13.3903 7.1079 13.4013 7.13691M11.4136 9.01898C11.4604 9.14014 11.4318 9.2644 11.3485 9.29652L7.35485 10.8364C7.27162 10.8685 7.16594 10.7958 7.1191 10.6742C7.07265 10.553 7.10207 10.4272 7.18491 10.3955L11.1786 8.85562C11.2622 8.82388 11.3667 8.89588 11.4136 9.01898" fill="#78111F"/>
</svg>
