<svg width="56" height="32" viewBox="0 0 56 32" fill="none" xmlns="http://www.w3.org/2000/svg">
<path d="M48.1075 18L45.9375 17.5L44.625 18L46.375 23L48.125 30H51.625V26.498C51.625 23.077 50.2478 20.017 48.1075 18ZM35.875 30L37.625 24L35.875 18C34.7796 19.0341 33.8978 20.3322 33.2927 21.8013C32.6877 23.2704 32.3743 24.8743 32.375 26.498V30H35.875Z" fill="#E6E6E6"/>
<path d="M35.875 18L40.25 17L44.625 18C46.5299 18 48.125 19.796 48.125 22.003V30H35.875V18Z" fill="#F4F4F4"/>
<path d="M48.111 18H43.3125C43.6107 18.2377 43.8534 18.5552 44.0197 18.9247C44.1859 19.2942 44.2706 19.7045 44.2663 20.12V21.79C43.6616 21.7895 43.0818 21.5152 42.6538 21.0271C42.2257 20.539 41.9844 19.877 41.9825 19.186C41.9806 19.877 41.7393 20.539 41.3112 21.0271C40.8832 21.5152 40.3034 21.7895 39.6988 21.79V20.12C39.6988 19.235 40.0969 18.472 40.6875 18H35.875L35.8776 17.99C37.5919 16.3596 39.7522 15.4679 41.9825 15.47C44.3126 15.47 46.4485 16.42 48.111 18V18Z" fill="#F92F60"/>
<path d="M39.375 10.5C39.375 10.8978 39.2367 11.2794 38.9906 11.5607C38.7444 11.842 38.4106 12 38.0625 12C37.7144 12 37.3806 11.842 37.1344 11.5607C36.8883 11.2794 36.75 10.8978 36.75 10.5C36.75 10.1022 36.8883 9.72064 37.1344 9.43934C37.3806 9.15804 37.7144 9 38.0625 9C38.4106 9 38.7444 9.15804 38.9906 9.43934C39.2367 9.72064 39.375 10.1022 39.375 10.5ZM47.25 10.5C47.25 10.8978 47.1117 11.2794 46.8656 11.5607C46.6194 11.842 46.2856 12 45.9375 12C45.5894 12 45.2556 11.842 45.0094 11.5607C44.7633 11.2794 44.625 10.8978 44.625 10.5C44.625 10.1022 44.7633 9.72064 45.0094 9.43934C45.2556 9.15804 45.5894 9 45.9375 9C46.2856 9 46.6194 9.15804 46.8656 9.43934C47.1117 9.72064 47.25 10.1022 47.25 10.5Z" fill="#F4C6AD"/>
<path d="M41.6334 3.66C39.3111 3.66 37.4693 5.9 37.6346 8.529L37.9584 13.814C38.0984 15.47 39.2499 16.66 40.656 16.66H43.344C44.7493 16.66 45.8929 15.48 46.0416 13.814L46.3654 8.529C46.5308 5.891 44.6889 3.659 42.3666 3.659H41.6334V3.66Z" fill="#FFD7C2"/>
<path d="M38.7013 10.37C38.8325 9.78999 39.2875 9.35999 39.8388 9.35999C40.4075 9.35999 40.88 9.81999 40.985 10.43C41.0113 10.57 40.915 10.69 40.7925 10.69H38.9288C38.78 10.69 38.6663 10.53 38.7013 10.37V10.37ZM44.9838 10.37C44.8525 9.78999 44.3975 9.35999 43.8463 9.35999C43.2775 9.35999 42.805 9.81999 42.7 10.44C42.6738 10.58 42.77 10.7 42.8925 10.7H44.7563C44.905 10.7 45.0188 10.54 44.9838 10.37Z" fill="white"/>
<path d="M39.2613 10.47C39.2613 9.98999 39.6025 9.60999 40.0138 9.60999C40.425 9.60999 40.7575 9.98999 40.7575 10.47C40.7575 10.55 40.7488 10.63 40.7313 10.7H39.2875C39.2702 10.6249 39.2614 10.5476 39.2613 10.47V10.47ZM44.4238 10.47C44.4238 10.2419 44.3445 10.0232 44.2034 9.86187C44.0622 9.70059 43.8708 9.60999 43.6713 9.60999C43.26 9.60999 42.9275 9.98999 42.9275 10.47C42.9275 10.55 42.9363 10.63 42.9538 10.7H44.3975C44.415 10.62 44.4238 10.55 44.4238 10.47Z" fill="#7D4533"/>
<path d="M40.0138 9.98001C40.25 9.98001 40.4425 10.2 40.4425 10.47C40.4425 10.55 40.425 10.62 40.39 10.7H39.6375C39.6029 10.6298 39.5848 10.5506 39.585 10.47C39.585 10.2 39.7775 9.98001 40.0138 9.98001ZM43.68 9.98001C43.5663 9.98001 43.4572 10.0316 43.3768 10.1235C43.2964 10.2154 43.2513 10.3401 43.2513 10.47C43.2513 10.55 43.2688 10.62 43.3038 10.7H44.0563C44.0913 10.63 44.1088 10.55 44.1088 10.47C44.1088 10.3401 44.0636 10.2154 43.9832 10.1235C43.9028 10.0316 43.7937 9.98001 43.68 9.98001Z" fill="black"/>
<path d="M39.8913 10.13C39.8913 10.1698 39.8774 10.2079 39.8528 10.2361C39.8282 10.2642 39.7948 10.28 39.76 10.28C39.7252 10.28 39.6918 10.2642 39.6672 10.2361C39.6426 10.2079 39.6288 10.1698 39.6288 10.13C39.6288 10.0902 39.6426 10.0521 39.6672 10.0239C39.6918 9.99582 39.7252 9.98001 39.76 9.98001C39.7948 9.98001 39.8282 9.99582 39.8528 10.0239C39.8774 10.0521 39.8913 10.0902 39.8913 10.13ZM43.575 10.13C43.575 10.1698 43.5612 10.2079 43.5366 10.2361C43.5119 10.2642 43.4786 10.28 43.4438 10.28C43.4089 10.28 43.3756 10.2642 43.3509 10.2361C43.3263 10.2079 43.3125 10.1698 43.3125 10.13C43.3125 10.0902 43.3263 10.0521 43.3509 10.0239C43.3756 9.99582 43.4089 9.98001 43.4438 9.98001C43.4786 9.98001 43.5119 9.99582 43.5366 10.0239C43.5612 10.0521 43.575 10.0902 43.575 10.13Z" fill="white"/>
<path d="M45.5 7.09301V7.00001C45.7608 7.00801 46.0197 7.00201 46.2787 6.99501C46.6016 6.98701 46.9245 6.97901 47.25 7.00001L46.7959 9.51501C46.7486 9.78501 46.5124 9.99101 46.2376 10C46.2376 10 46.2945 9.22701 46.3234 8.72401C46.3417 8.47201 46.2376 8.22001 46.039 8.04401L45.8596 7.88501C45.7509 7.79292 45.6621 7.67373 45.5998 7.53649C45.5374 7.39925 45.5033 7.24758 45.5 7.09301V7.09301ZM37.2111 9.52101L36.75 7.00001L37.3406 7.00201C37.7283 7.00401 38.1124 7.00601 38.5 7.00001V7.12901C38.5 7.43201 38.3687 7.70901 38.1421 7.91101L37.9732 8.05801C37.8792 8.13234 37.8036 8.23339 37.7541 8.35122C37.7045 8.46905 37.6826 8.59959 37.6906 8.73001C37.7195 9.22701 37.7755 10 37.7755 10C37.5025 9.99001 37.2584 9.78801 37.2111 9.52101ZM44.4325 8.88001C44.5291 8.96546 44.6512 9.00394 44.7724 8.98709C44.8937 8.97024 45.0042 8.89942 45.08 8.79001C45.2288 8.56001 45.1938 8.23001 44.9925 8.05001C44.9663 8.02001 44.275 7.42001 43.2688 7.56001C43.2088 7.56744 43.1508 7.58841 43.0981 7.62168C43.0453 7.65496 42.9988 7.69988 42.9614 7.75384C42.924 7.8078 42.8963 7.86972 42.8799 7.93601C42.8636 8.00231 42.8589 8.07164 42.8662 8.14001C42.8925 8.43001 43.1287 8.63001 43.3737 8.60001C43.7434 8.54956 44.1168 8.64786 44.4299 8.87801L44.4325 8.88001V8.88001ZM38.605 8.78001C38.6925 8.92001 38.8325 8.99001 38.9725 8.99001C39.0687 8.99001 39.165 8.95001 39.2525 8.88001L39.2612 8.87301C39.5737 8.64773 39.9442 8.5514 40.3112 8.60001C40.5562 8.64001 40.7925 8.43001 40.8187 8.14001C40.8321 8.00222 40.7973 7.864 40.7219 7.75539C40.6465 7.64678 40.5367 7.57656 40.4162 7.56001C39.4187 7.43001 38.7188 8.02001 38.6925 8.05001C38.4913 8.23001 38.4562 8.55001 38.605 8.78001V8.78001Z" fill="#212121"/>
<path d="M41.6413 10.282L41.1486 12.029C41.0463 12.384 41.2886 12.75 41.6325 12.75H42.3675C42.7114 12.75 42.9538 12.384 42.8514 12.029L42.3579 10.282C42.2468 9.906 41.7541 9.906 41.6421 10.282H41.6413Z" fill="#E5AF93"/>
<path d="M42 13.646C41.5187 13.646 41.0637 13.506 40.6805 13.272C40.5466 13.187 40.4127 13.368 40.4932 13.517C40.8144 14.105 41.3674 14.5 42 14.5C42.6335 14.5 43.1865 14.105 43.5076 13.518C43.5881 13.368 43.4455 13.198 43.3204 13.272C42.9134 13.5175 42.4602 13.6459 42 13.646Z" fill="#990838"/>
<path d="M37.2488 2H46.7163C48.195 2 48.93 4.04 47.8888 5.23L47.25 6V7C47.2588 7.2 47.075 7.38 46.9 7.38H37.0563C36.8813 7.38 36.75 7.2 36.75 7V6L36.0763 5.23C35.035 4.04 35.77 2 37.2488 2Z" fill="#E6E6E6"/>
<path d="M41.58 6.03001V3.63001C41.58 3.38001 41.755 3.17001 41.9825 3.17001C42.2012 3.17001 42.385 3.37001 42.385 3.63001V6.03001H41.58V6.03001ZM39.7163 6.03001H38.92L38.22 3.75001C38.1325 3.47001 38.3163 3.18001 38.5788 3.18001C38.7363 3.18001 38.885 3.30001 38.9375 3.47001L39.7163 6.03001V6.03001ZM44.24 6.03001H45.0362L45.7363 3.75001C45.8238 3.47001 45.64 3.18001 45.3775 3.18001C45.22 3.18001 45.0713 3.30001 45.0188 3.47001L44.24 6.03001V6.03001ZM45.7712 21.61C45.9453 21.61 46.1122 21.531 46.2353 21.3903C46.3584 21.2497 46.4275 21.0589 46.4275 20.86C46.4275 20.6611 46.3584 20.4703 46.2353 20.3297C46.1122 20.189 45.9453 20.11 45.7712 20.11C45.5972 20.11 45.4303 20.189 45.3072 20.3297C45.1841 20.4703 45.115 20.6611 45.115 20.86C45.115 21.0589 45.1841 21.2497 45.3072 21.3903C45.4303 21.531 45.5972 21.61 45.7712 21.61V21.61ZM45.7712 25.24C45.9453 25.24 46.1122 25.161 46.2353 25.0203C46.3584 24.8797 46.4275 24.6889 46.4275 24.49C46.4275 24.2911 46.3584 24.1003 46.2353 23.9597C46.1122 23.819 45.9453 23.74 45.7712 23.74C45.5972 23.74 45.4303 23.819 45.3072 23.9597C45.1841 24.1003 45.115 24.2911 45.115 24.49C45.115 24.6889 45.1841 24.8797 45.3072 25.0203C45.4303 25.161 45.5972 25.24 45.7712 25.24V25.24ZM45.7712 28.88C45.9453 28.88 46.1122 28.801 46.2353 28.6603C46.3584 28.5197 46.4275 28.3289 46.4275 28.13C46.4275 27.9311 46.3584 27.7403 46.2353 27.5997C46.1122 27.459 45.9453 27.38 45.7712 27.38C45.5972 27.38 45.4303 27.459 45.3072 27.5997C45.1841 27.7403 45.115 27.9311 45.115 28.13C45.115 28.3289 45.1841 28.5197 45.3072 28.6603C45.4303 28.801 45.5972 28.88 45.7712 28.88V28.88Z" fill="#D3D3D3"/>
<path d="M51.625 23C52.1063 23 52.5 23.41 52.5 23.912V26H50.75V23.912C50.7587 23.41 51.1437 23 51.625 23Z" fill="#F4C6AD"/>
<path d="M51.905 16.16C51.7664 15.8075 51.5414 15.5085 51.2572 15.2991C50.973 15.0897 50.6419 14.9789 50.3037 14.98C49.9656 14.9789 49.6345 15.0897 49.3503 15.2991C49.0661 15.5085 48.8411 15.8075 48.7025 16.16C48.5036 16.661 48.4007 17.2048 48.4007 17.755C48.4007 18.3052 48.5036 18.849 48.7025 19.35C48.8337 19.68 49.0437 19.96 49.2887 20.17C49.525 20.36 49.6737 20.67 49.6737 21.01V27.97C49.6737 28.36 49.945 28.7 50.2862 28.71C50.6362 28.72 50.925 28.39 50.925 27.99V21C50.925 20.67 51.0737 20.36 51.31 20.16C51.5637 19.96 51.765 19.68 51.8962 19.34C52.2987 18.33 52.2987 17.17 51.905 16.16V16.16Z" fill="#F3C07B"/>
<path d="M50.3037 15.65C49.7787 15.65 49.3062 16 49.0962 16.54C48.7987 17.3 48.7987 18.18 49.0962 18.94C49.3062 19.48 49.7787 19.83 50.3037 19.83C50.8287 19.83 51.3012 19.48 51.5112 18.94C51.8087 18.18 51.8087 17.3 51.5112 16.54C51.2925 16 50.82 15.65 50.3037 15.65V15.65Z" fill="#F3AD61"/>
<path d="M48.5713 25.5C48.5783 25.1 48.8574 24.75 49.1837 24.75H51.8061C52.1894 24.75 52.5 25.14 52.5 25.62V29.13C52.5 29.61 52.1894 30 51.8061 30H49.1837C48.8574 30 48.5783 29.69 48.5713 29.28C48.5651 29.1554 48.5858 29.0309 48.6316 28.9176C48.6773 28.8042 48.7468 28.7055 48.8337 28.63C48.7477 28.5598 48.678 28.4666 48.6307 28.3585C48.5834 28.2505 48.56 28.1308 48.5625 28.01C48.5625 27.75 48.6745 27.52 48.8337 27.39C48.7477 27.3198 48.678 27.2266 48.6307 27.1185C48.5834 27.0105 48.56 26.8908 48.5625 26.77C48.5625 26.51 48.6745 26.28 48.8337 26.15C48.7483 26.0729 48.68 25.9739 48.6344 25.8609C48.5888 25.748 48.5671 25.6243 48.5713 25.5Z" fill="#FFD7C2"/>
<path d="M3.15784 12.4211H22.1052V14.3158H3.15784V12.4211Z" fill="#424242"/>
<path d="M0 21.2631H25.2632V16.842C25.2632 15.4525 24.1263 14.3157 22.7368 14.3157H2.52632C1.13684 14.3157 0 15.4525 0 16.842V21.2631Z" fill="#616161"/>
<path d="M2.52632 28.2106H22.7368C24.1263 28.2106 25.2632 27.0737 25.2632 25.6843V20.6316H0V25.6843C0 27.0737 1.13684 28.2106 2.52632 28.2106Z" fill="#424242"/>
<path d="M22.7368 17.4737C23.0856 17.4737 23.3684 17.1909 23.3684 16.8421C23.3684 16.4933 23.0856 16.2105 22.7368 16.2105C22.388 16.2105 22.1052 16.4933 22.1052 16.8421C22.1052 17.1909 22.388 17.4737 22.7368 17.4737Z" fill="#00E676"/>
<path d="M4.42108 8H20.8421V14.3158H4.42108V8Z" fill="#90CAF9"/>
<path d="M21.1578 25.0526H4.10521C3.59994 25.0526 3.15784 24.6105 3.15784 24.1052C3.15784 23.5999 3.59994 23.1578 4.10521 23.1578H21.1578C21.6631 23.1578 22.1052 23.5999 22.1052 24.1052C22.1052 24.6105 21.6631 25.0526 21.1578 25.0526Z" fill="#242424"/>
<path d="M4.42108 25.0527H20.8421V32H4.42108V25.0527Z" fill="#90CAF9"/>
<path d="M4.42108 23.7895H20.8421V25.0526H4.42108V23.7895Z" fill="#42A5F5"/>
<path d="M7.57892 26.3157H18.3158V27.5789H7.57892V26.3157ZM7.57892 28.842H15.7894V30.1052H7.57892V28.842Z" fill="#1976D2"/>
</svg>
