<svg width="48" height="48" viewBox="0 0 48 48" fill="none" xmlns="http://www.w3.org/2000/svg">
<g filter="url(#filter0_i_270_1041)">
<path d="M24 6C33.9414 6 42 14.0586 42 24C42 33.9414 33.9414 42 24 42C14.0586 42 6 33.9414 6 24C6 14.0586 14.0586 6 24 6ZM22.326 16.0458C21.9928 16.0458 21.6732 16.1782 21.4376 16.4138C21.202 16.6494 21.0696 16.969 21.0696 17.3022V27.348C21.0696 28.0428 21.6312 28.6044 22.326 28.6044H32.3718C32.5407 28.6108 32.7091 28.5831 32.867 28.5228C33.0249 28.4626 33.169 28.3712 33.2908 28.254C33.4125 28.1367 33.5094 27.9962 33.5755 27.8407C33.6417 27.6852 33.6757 27.5179 33.6757 27.3489C33.6757 27.1799 33.6417 27.0126 33.5755 26.8571C33.5094 26.7016 33.4125 26.5611 33.2908 26.4438C33.169 26.3266 33.0249 26.2352 32.867 26.175C32.7091 26.1147 32.5407 26.087 32.3718 26.0934H23.5806V17.3022C23.5806 16.9693 23.4485 16.65 23.2132 16.4144C22.978 16.1789 22.6589 16.0463 22.326 16.0458Z" fill="url(#paint0_linear_270_1041)"/>
</g>
<g filter="url(#filter1_i_270_1041)">
<path d="M22.5 16.5V28H32.5" stroke="url(#paint1_linear_270_1041)" stroke-width="4" stroke-linecap="round" stroke-linejoin="round"/>
</g>
<defs>
<filter id="filter0_i_270_1041" x="6" y="4" width="36" height="38" filterUnits="userSpaceOnUse" color-interpolation-filters="sRGB">
<feFlood flood-opacity="0" result="BackgroundImageFix"/>
<feBlend mode="normal" in="SourceGraphic" in2="BackgroundImageFix" result="shape"/>
<feColorMatrix in="SourceAlpha" type="matrix" values="0 0 0 0 0 0 0 0 0 0 0 0 0 0 0 0 0 0 127 0" result="hardAlpha"/>
<feOffset dy="-2"/>
<feGaussianBlur stdDeviation="2"/>
<feComposite in2="hardAlpha" operator="arithmetic" k2="-1" k3="1"/>
<feColorMatrix type="matrix" values="0 0 0 0 0 0 0 0 0 0 0 0 0 0 0 0 0 0 0.25 0"/>
<feBlend mode="normal" in2="shape" result="effect1_innerShadow_270_1041"/>
</filter>
<filter id="filter1_i_270_1041" x="20.5" y="12.5" width="14" height="17.5" filterUnits="userSpaceOnUse" color-interpolation-filters="sRGB">
<feFlood flood-opacity="0" result="BackgroundImageFix"/>
<feBlend mode="normal" in="SourceGraphic" in2="BackgroundImageFix" result="shape"/>
<feColorMatrix in="SourceAlpha" type="matrix" values="0 0 0 0 0 0 0 0 0 0 0 0 0 0 0 0 0 0 127 0" result="hardAlpha"/>
<feOffset dy="-2"/>
<feGaussianBlur stdDeviation="2"/>
<feComposite in2="hardAlpha" operator="arithmetic" k2="-1" k3="1"/>
<feColorMatrix type="matrix" values="0 0 0 0 0 0 0 0 0 0 0 0 0 0 0 0 0 0 0.25 0"/>
<feBlend mode="normal" in2="shape" result="effect1_innerShadow_270_1041"/>
</filter>
<linearGradient id="paint0_linear_270_1041" x1="6" y1="24" x2="42" y2="24" gradientUnits="userSpaceOnUse">
<stop stop-color="#3D4BA9"/>
<stop offset="1" stop-color="#5DAEE8"/>
</linearGradient>
<linearGradient id="paint1_linear_270_1041" x1="27.5" y1="16.5" x2="27.5" y2="28" gradientUnits="userSpaceOnUse">
<stop stop-color="#9A97AB"/>
<stop offset="1" stop-color="#E7E2EF"/>
</linearGradient>
</defs>
</svg>
