<svg width="32" height="32" viewBox="0 0 32 32" fill="none" xmlns="http://www.w3.org/2000/svg">
<rect x="8.66667" y="6" width="14.6667" height="8.66667" fill="url(#paint0_linear_270_1142)"/>
<path d="M4 6.4C4 5.08 5.08 4 6.4 4H23.2L28 8.8V25.6C28 26.2365 27.7471 26.847 27.2971 27.2971C26.847 27.7471 26.2365 28 25.6 28H6.4C5.76348 28 5.15303 27.7471 4.70294 27.2971C4.25286 26.847 4 26.2365 4 25.6V6.4ZM10 6.4V13.6H22V6.4H10ZM17.2 7.6H20.8V12.4H17.2V7.6Z" fill="black"/>
<path d="M6.66667 18C6.66667 16.8954 7.5621 16 8.66667 16H23.3333C24.4379 16 25.3333 16.8954 25.3333 18V28H6.66667V18Z" fill="url(#paint1_linear_270_1142)"/>
<defs>
<linearGradient id="paint0_linear_270_1142" x1="16" y1="6" x2="16" y2="14.6667" gradientUnits="userSpaceOnUse">
<stop stop-color="#D9D9D9"/>
<stop offset="1" stop-color="#B2B2B2"/>
</linearGradient>
<linearGradient id="paint1_linear_270_1142" x1="16" y1="16" x2="16" y2="28" gradientUnits="userSpaceOnUse">
<stop stop-color="#D9D9D9"/>
<stop offset="1" stop-color="#B2B2B2"/>
</linearGradient>
</defs>
</svg>
